<svg width="29" height="29" viewBox="0 0 29 29" fill="none" xmlns="http://www.w3.org/2000/svg">
<path d="M27.9896 14.4999H9.97188M3.61209 14.4999H1.01042M3.61209 14.4999C3.61209 13.6568 3.94704 12.8481 4.54324 12.2519C5.13945 11.6557 5.94809 11.3208 6.79126 11.3208C7.63442 11.3208 8.44306 11.6557 9.03927 12.2519C9.63547 12.8481 9.97042 13.6568 9.97042 14.4999C9.97042 15.3431 9.63547 16.1517 9.03927 16.7479C8.44306 17.3441 7.63442 17.6791 6.79126 17.6791C5.94809 17.6791 5.13945 17.3441 4.54324 16.7479C3.94704 16.1517 3.61209 15.3431 3.61209 14.4999ZM27.9896 24.1351H19.6071M19.6071 24.1351C19.6071 24.9785 19.2713 25.788 18.675 26.3844C18.0786 26.9807 17.2698 27.3158 16.4265 27.3158C15.5833 27.3158 14.7747 26.9793 14.1785 26.3831C13.5822 25.7869 13.2473 24.9783 13.2473 24.1351M19.6071 24.1351C19.6071 23.2918 19.2713 22.4837 18.675 21.8873C18.0786 21.291 17.2698 20.956 16.4265 20.956C15.5833 20.956 14.7747 21.2909 14.1785 21.8871C13.5822 22.4833 13.2473 23.292 13.2473 24.1351M13.2473 24.1351H1.01042M27.9896 4.86471H23.4615M17.1017 4.86471H1.01042M17.1017 4.86471C17.1017 4.02155 17.4366 3.21291 18.0328 2.6167C18.629 2.02049 19.4377 1.68555 20.2808 1.68555C20.6983 1.68555 21.1117 1.76778 21.4975 1.92755C21.8832 2.08731 22.2336 2.32149 22.5288 2.6167C22.8241 2.91192 23.0582 3.26238 23.218 3.6481C23.3778 4.03381 23.46 4.44722 23.46 4.86471C23.46 5.28221 23.3778 5.69561 23.218 6.08133C23.0582 6.46704 22.8241 6.81751 22.5288 7.11272C22.2336 7.40794 21.8832 7.64211 21.4975 7.80188C21.1117 7.96165 20.6983 8.04388 20.2808 8.04388C19.4377 8.04388 18.629 7.70893 18.0328 7.11272C17.4366 6.51651 17.1017 5.70788 17.1017 4.86471Z" stroke="#1F397A" stroke-width="1.5" stroke-miterlimit="10" stroke-linecap="round"/>
</svg>
