<svg width="35" height="35" viewBox="0 0 35 35" fill="none" xmlns="http://www.w3.org/2000/svg">
<mask id="path-1-inside-1_1521_5313" fill="white">
<path fill-rule="evenodd" clip-rule="evenodd" d="M17.1286 17C17.0576 17 17 17.0576 17 17.1286V17.7551C17 17.8261 17.0576 17.8837 17.1286 17.8837H17.4615L17.4845 17.9671C17.4888 17.9828 17.5112 17.9828 17.5155 17.9671L17.5385 17.8837H17.8714C17.9424 17.8837 18 17.8261 18 17.7551V17.1286C18 17.0576 17.9424 17 17.8714 17H17.1286Z"/>
</mask>
<path fill-rule="evenodd" clip-rule="evenodd" d="M17.1286 17C17.0576 17 17 17.0576 17 17.1286V17.7551C17 17.8261 17.0576 17.8837 17.1286 17.8837H17.4615L17.4845 17.9671C17.4888 17.9828 17.5112 17.9828 17.5155 17.9671L17.5385 17.8837H17.8714C17.9424 17.8837 18 17.8261 18 17.7551V17.1286C18 17.0576 17.9424 17 17.8714 17H17.1286Z" fill="#E9EBF2"/>
<path d="M17.4615 17.8837L17.477 17.8794L17.4738 17.8676H17.4615V17.8837ZM17.4845 17.9671L17.5 17.9628L17.4845 17.9671ZM17.5155 17.9671L17.5 17.9628L17.5155 17.9671ZM17.5385 17.8837V17.8676H17.5262L17.523 17.8794L17.5385 17.8837ZM17.0161 17.1286C17.0161 17.0665 17.0665 17.0161 17.1286 17.0161V16.9839C17.0487 16.9839 16.9839 17.0487 16.9839 17.1286H17.0161ZM17.0161 17.7551V17.1286H16.9839V17.7551H17.0161ZM17.1286 17.8676C17.0665 17.8676 17.0161 17.8173 17.0161 17.7551H16.9839C16.9839 17.835 17.0487 17.8998 17.1286 17.8998V17.8676ZM17.4615 17.8676H17.1286V17.8998H17.4615V17.8676ZM17.5 17.9628L17.477 17.8794L17.446 17.888L17.469 17.9714L17.5 17.9628ZM17.5 17.9628L17.5 17.9628L17.469 17.9714C17.4777 18.0028 17.5223 18.0028 17.531 17.9714L17.5 17.9628ZM17.523 17.8794L17.5 17.9628L17.531 17.9714L17.554 17.888L17.523 17.8794ZM17.8714 17.8676H17.5385V17.8998H17.8714V17.8676ZM17.9839 17.7551C17.9839 17.8173 17.9335 17.8676 17.8714 17.8676V17.8998C17.9513 17.8998 18.0161 17.835 18.0161 17.7551H17.9839ZM17.9839 17.1286V17.7551H18.0161V17.1286H17.9839ZM17.8714 17.0161C17.9335 17.0161 17.9839 17.0665 17.9839 17.1286H18.0161C18.0161 17.0487 17.9513 16.9839 17.8714 16.9839V17.0161ZM17.1286 17.0161H17.8714V16.9839H17.1286V17.0161Z" fill="#1F397A" mask="url(#path-1-inside-1_1521_5313)"/>
<path d="M30.9895 17.4999H12.9718M6.61204 17.4999H4.01038M6.61204 17.4999C6.61204 16.6568 6.94699 15.8481 7.5432 15.2519C8.13941 14.6557 8.94804 14.3208 9.79121 14.3208C10.6344 14.3208 11.443 14.6557 12.0392 15.2519C12.6354 15.8481 12.9704 16.6568 12.9704 17.4999C12.9704 18.3431 12.6354 19.1517 12.0392 19.7479C11.443 20.3441 10.6344 20.6791 9.79121 20.6791C8.94804 20.6791 8.13941 20.3441 7.5432 19.7479C6.94699 19.1517 6.61204 18.3431 6.61204 17.4999ZM30.9895 27.1351H22.607M22.607 27.1351C22.607 27.9785 22.2713 28.788 21.6749 29.3844C21.0786 29.9807 20.2698 30.3158 19.4264 30.3158C18.5832 30.3158 17.7746 29.9793 17.1784 29.3831C16.5822 28.7869 16.2473 27.9783 16.2473 27.1351M22.607 27.1351C22.607 26.2918 22.2713 25.4837 21.6749 24.8873C21.0786 24.291 20.2698 23.956 19.4264 23.956C18.5832 23.956 17.7746 24.2909 17.1784 24.8871C16.5822 25.4833 16.2473 26.292 16.2473 27.1351M16.2473 27.1351H4.01038M30.9895 7.86471H26.4614M20.1016 7.86471H4.01038M20.1016 7.86471C20.1016 7.02155 20.4366 6.21291 21.0328 5.6167C21.629 5.02049 22.4376 4.68555 23.2808 4.68555C23.6983 4.68555 24.1117 4.76778 24.4974 4.92755C24.8831 5.08731 25.2336 5.32149 25.5288 5.6167C25.824 5.91192 26.0582 6.26238 26.218 6.6481C26.3777 7.03381 26.46 7.44722 26.46 7.86471C26.46 8.28221 26.3777 8.69561 26.218 9.08133C26.0582 9.46704 25.824 9.81751 25.5288 10.1127C25.2336 10.4079 24.8831 10.6421 24.4974 10.8019C24.1117 10.9616 23.6983 11.0439 23.2808 11.0439C22.4376 11.0439 21.629 10.7089 21.0328 10.1127C20.4366 9.51651 20.1016 8.70788 20.1016 7.86471Z" stroke="#1F397A" stroke-width="1.5" stroke-miterlimit="10" stroke-linecap="round"/>
</svg>
