<svg width="30" height="32" viewBox="0 0 30 32" fill="none" xmlns="http://www.w3.org/2000/svg">
<g clip-path="url(#clip0_1517_5205)">
<path d="M8.75 27.7649C8.0625 27.7649 7.47396 27.506 6.98438 26.9881C6.49479 26.4703 6.25 25.8478 6.25 25.1206V7.93314H5V5.28891H11.25V3.9668H18.75V5.28891H25V7.93314H23.75V25.1206C23.75 25.8478 23.5052 26.4703 23.0156 26.9881C22.526 27.506 21.9375 27.7649 21.25 27.7649H8.75ZM21.25 7.93314H8.75V25.1206H21.25V7.93314ZM11.25 22.4764H13.75V10.5774H11.25V22.4764ZM16.25 22.4764H18.75V10.5774H16.25V22.4764Z" fill="#727272"/>
<path d="M8.75 27.7649C8.0625 27.7649 7.47396 27.506 6.98438 26.9881C6.49479 26.4703 6.25 25.8478 6.25 25.1206V7.93314H5V5.28891H11.25V3.9668H18.75V5.28891H25V7.93314H23.75V25.1206C23.75 25.8478 23.5052 26.4703 23.0156 26.9881C22.526 27.506 21.9375 27.7649 21.25 27.7649H8.75ZM21.25 7.93314H8.75V25.1206H21.25V7.93314ZM11.25 22.4764H13.75V10.5774H11.25V22.4764ZM16.25 22.4764H18.75V10.5774H16.25V22.4764Z" fill="#727272"/>
</g>
<defs>
<clipPath id="clip0_1517_5205">
<rect width="30" height="31.7308" fill="white" transform="translate(0 0.000488281)"/>
</clipPath>
</defs>
</svg>
