<svg width="30" height="33" viewBox="0 0 30 33" fill="none" xmlns="http://www.w3.org/2000/svg">
<path d="M6.25 25.8511H8.03125L20.25 12.9274L18.4688 11.0434L6.25 23.9671V25.8511ZM3.75 28.4953V22.8764L20.25 5.45748C20.5 5.21509 20.776 5.02779 21.0781 4.89558C21.3802 4.76337 21.6979 4.69727 22.0312 4.69727C22.3646 4.69727 22.6875 4.76337 23 4.89558C23.3125 5.02779 23.5833 5.22611 23.8125 5.49053L25.5312 7.3415C25.7812 7.58388 25.9635 7.87034 26.0781 8.20087C26.1927 8.5314 26.25 8.86193 26.25 9.19246C26.25 9.54502 26.1927 9.88106 26.0781 10.2006C25.9635 10.5201 25.7812 10.812 25.5312 11.0765L9.0625 28.4953H3.75ZM19.3438 12.002L18.4688 11.0434L20.25 12.9274L19.3438 12.002Z" fill="#727272"/>
</svg>
