<svg width="325" height="41" viewBox="0 0 325 41" fill="none" xmlns="http://www.w3.org/2000/svg">
<path d="M1.52606 12C1.2914 12 1.11006 11.9413 0.982063 11.824C0.864729 11.696 0.806063 11.5147 0.806063 11.28V1.44C0.806063 1.20533 0.864729 1.02933 0.982063 0.912C1.11006 0.783999 1.2914 0.719999 1.52606 0.719999H7.47806C7.6594 0.719999 7.79806 0.767999 7.89406 0.863999C7.99006 0.959999 8.03806 1.09333 8.03806 1.264C8.03806 1.44533 7.99006 1.584 7.89406 1.68C7.79806 1.776 7.6594 1.824 7.47806 1.824H2.08606V5.728H7.14206C7.3234 5.728 7.46206 5.776 7.55806 5.872C7.65406 5.95733 7.70206 6.09067 7.70206 6.272C7.70206 6.45333 7.65406 6.592 7.55806 6.688C7.46206 6.784 7.3234 6.832 7.14206 6.832H2.08606V10.896H7.47806C7.6594 10.896 7.79806 10.944 7.89406 11.04C7.99006 11.136 8.03806 11.2693 8.03806 11.44C8.03806 11.6213 7.99006 11.76 7.89406 11.856C7.79806 11.952 7.6594 12 7.47806 12H1.52606ZM10.8482 12.112C10.6349 12.112 10.4749 12.0533 10.3682 11.936C10.2615 11.8187 10.2082 11.6533 10.2082 11.44V4.768C10.2082 4.55467 10.2615 4.39467 10.3682 4.288C10.4749 4.17067 10.6295 4.112 10.8322 4.112C11.0349 4.112 11.1895 4.17067 11.2962 4.288C11.4135 4.39467 11.4722 4.55467 11.4722 4.768V6.144L11.2962 5.952C11.5202 5.33333 11.8829 4.86933 12.3842 4.56C12.8962 4.24 13.4829 4.08 14.1442 4.08C14.7629 4.08 15.2749 4.192 15.6802 4.416C16.0962 4.64 16.4055 4.98133 16.6082 5.44C16.8109 5.888 16.9122 6.45867 16.9122 7.152V11.44C16.9122 11.6533 16.8535 11.8187 16.7362 11.936C16.6295 12.0533 16.4749 12.112 16.2722 12.112C16.0589 12.112 15.8935 12.0533 15.7762 11.936C15.6695 11.8187 15.6162 11.6533 15.6162 11.44V7.232C15.6162 6.50667 15.4722 5.97867 15.1842 5.648C14.9069 5.30667 14.4589 5.136 13.8402 5.136C13.1255 5.136 12.5549 5.36 12.1282 5.808C11.7122 6.24533 11.5042 6.832 11.5042 7.568V11.44C11.5042 11.888 11.2855 12.112 10.8482 12.112ZM22.6719 12.144C22.0639 12.144 21.5519 12.0373 21.1359 11.824C20.7306 11.6 20.4266 11.28 20.2239 10.864C20.0213 10.4373 19.9199 9.92 19.9199 9.312V5.232H18.8479C18.6666 5.232 18.5279 5.18933 18.4319 5.104C18.3359 5.008 18.2879 4.88 18.2879 4.72C18.2879 4.56 18.3359 4.43733 18.4319 4.352C18.5279 4.26667 18.6666 4.224 18.8479 4.224H19.9199V2.384C19.9199 2.17067 19.9786 2.01067 20.0959 1.904C20.2133 1.78667 20.3733 1.728 20.5759 1.728C20.7786 1.728 20.9333 1.78667 21.0399 1.904C21.1573 2.01067 21.2159 2.17067 21.2159 2.384V4.224H23.2319C23.4133 4.224 23.5519 4.26667 23.6479 4.352C23.7439 4.43733 23.7919 4.56 23.7919 4.72C23.7919 4.88 23.7439 5.008 23.6479 5.104C23.5519 5.18933 23.4133 5.232 23.2319 5.232H21.2159V9.184C21.2159 9.792 21.3439 10.256 21.5999 10.576C21.8559 10.8853 22.2719 11.04 22.8479 11.04C23.0506 11.04 23.2213 11.0187 23.3599 10.976C23.5093 10.9333 23.6319 10.912 23.7279 10.912C23.8239 10.9013 23.9039 10.9333 23.9679 11.008C24.0319 11.0827 24.0639 11.2107 24.0639 11.392C24.0639 11.52 24.0373 11.6373 23.9839 11.744C23.9413 11.8507 23.8613 11.9253 23.7439 11.968C23.6159 12.0107 23.4453 12.048 23.2319 12.08C23.0293 12.1227 22.8426 12.144 22.6719 12.144ZM28.8216 12.144C28.0002 12.144 27.2909 11.984 26.6936 11.664C26.1069 11.3333 25.6482 10.8693 25.3176 10.272C24.9976 9.67467 24.8376 8.96 24.8376 8.128C24.8376 7.31733 24.9976 6.61333 25.3176 6.016C25.6376 5.408 26.0749 4.93333 26.6296 4.592C27.1949 4.25067 27.8456 4.08 28.5816 4.08C29.1042 4.08 29.5736 4.17067 29.9896 4.352C30.4056 4.52267 30.7576 4.77333 31.0456 5.104C31.3442 5.43467 31.5682 5.83467 31.7176 6.304C31.8776 6.77333 31.9576 7.30133 31.9576 7.888C31.9576 8.05867 31.9096 8.18667 31.8136 8.272C31.7176 8.34667 31.5789 8.384 31.3976 8.384H25.8296V7.536H31.0936L30.8376 7.744C30.8376 7.168 30.7522 6.68267 30.5816 6.288C30.4109 5.88267 30.1602 5.57333 29.8296 5.36C29.5096 5.14667 29.1042 5.04 28.6136 5.04C28.0696 5.04 27.6056 5.168 27.2216 5.424C26.8482 5.66933 26.5656 6.016 26.3736 6.464C26.1816 6.90133 26.0856 7.41333 26.0856 8V8.096C26.0856 9.07733 26.3202 9.824 26.7896 10.336C27.2696 10.848 27.9469 11.104 28.8216 11.104C29.1842 11.104 29.5416 11.056 29.8936 10.96C30.2562 10.864 30.6082 10.704 30.9496 10.48C31.0989 10.384 31.2322 10.3413 31.3496 10.352C31.4776 10.352 31.5789 10.3893 31.6536 10.464C31.7282 10.528 31.7762 10.6133 31.7976 10.72C31.8296 10.816 31.8189 10.9227 31.7656 11.04C31.7229 11.1573 31.6322 11.2587 31.4936 11.344C31.1416 11.6 30.7256 11.7973 30.2456 11.936C29.7656 12.0747 29.2909 12.144 28.8216 12.144ZM34.7392 12.112C34.5259 12.112 34.3605 12.0533 34.2432 11.936C34.1365 11.8187 34.0832 11.6533 34.0832 11.44V4.768C34.0832 4.55467 34.1365 4.39467 34.2432 4.288C34.3499 4.17067 34.5045 4.112 34.7072 4.112C34.9099 4.112 35.0645 4.17067 35.1712 4.288C35.2885 4.39467 35.3472 4.55467 35.3472 4.768V6.064H35.1872C35.3579 5.43467 35.6832 4.94933 36.1632 4.608C36.6432 4.26667 37.2352 4.08533 37.9392 4.064C38.0992 4.05333 38.2272 4.09067 38.3232 4.176C38.4192 4.25067 38.4725 4.384 38.4832 4.576C38.4939 4.75733 38.4512 4.90133 38.3552 5.008C38.2592 5.11467 38.1099 5.17867 37.9072 5.2L37.6512 5.232C36.9259 5.296 36.3659 5.53067 35.9712 5.936C35.5872 6.33067 35.3952 6.87467 35.3952 7.568V11.44C35.3952 11.6533 35.3365 11.8187 35.2192 11.936C35.1125 12.0533 34.9525 12.112 34.7392 12.112ZM46.1706 14.992C46.0106 14.992 45.8826 14.9493 45.7866 14.864C45.6906 14.7787 45.6319 14.6613 45.6106 14.512C45.5999 14.3733 45.6266 14.2293 45.6906 14.08L46.7946 11.6V12.16L43.7226 5.024C43.6586 4.864 43.6372 4.71467 43.6586 4.576C43.6799 4.43733 43.7439 4.32533 43.8506 4.24C43.9572 4.15467 44.1066 4.112 44.2986 4.112C44.4692 4.112 44.6026 4.14933 44.6986 4.224C44.7946 4.29867 44.8799 4.432 44.9546 4.624L47.5786 11.056H47.1466L49.8026 4.624C49.8879 4.432 49.9786 4.29867 50.0746 4.224C50.1706 4.14933 50.3092 4.112 50.4906 4.112C50.6612 4.112 50.7892 4.15467 50.8746 4.24C50.9706 4.32533 51.0239 4.43733 51.0346 4.576C51.0559 4.704 51.0346 4.848 50.9706 5.008L46.8746 14.48C46.7892 14.672 46.6932 14.8053 46.5866 14.88C46.4906 14.9547 46.3519 14.992 46.1706 14.992ZM56.0339 12.144C55.2766 12.144 54.6206 11.9787 54.0659 11.648C53.5113 11.3173 53.0793 10.8533 52.7699 10.256C52.4713 9.648 52.3219 8.93333 52.3219 8.112C52.3219 7.49333 52.4073 6.93867 52.5779 6.448C52.7486 5.94667 52.9993 5.52 53.3299 5.168C53.6606 4.816 54.0499 4.54933 54.4979 4.368C54.9566 4.176 55.4686 4.08 56.0339 4.08C56.7913 4.08 57.4473 4.24533 58.0019 4.576C58.5566 4.90667 58.9833 5.376 59.2819 5.984C59.5913 6.58133 59.7459 7.29067 59.7459 8.112C59.7459 8.73067 59.6606 9.28533 59.4899 9.776C59.3193 10.2667 59.0686 10.6933 58.7379 11.056C58.4073 11.408 58.0126 11.68 57.5539 11.872C57.1059 12.0533 56.5993 12.144 56.0339 12.144ZM56.0339 11.104C56.5139 11.104 56.9353 10.9867 57.2979 10.752C57.6606 10.5173 57.9379 10.176 58.1299 9.728C58.3326 9.28 58.4339 8.74133 58.4339 8.112C58.4339 7.14133 58.2153 6.4 57.7779 5.888C57.3513 5.376 56.7699 5.12 56.0339 5.12C55.5433 5.12 55.1166 5.23733 54.7539 5.472C54.4019 5.696 54.1246 6.032 53.9219 6.48C53.7299 6.91733 53.6339 7.46133 53.6339 8.112C53.6339 9.072 53.8526 9.81333 54.2899 10.336C54.7273 10.848 55.3086 11.104 56.0339 11.104ZM64.6946 12.144C64.0652 12.144 63.5426 12.032 63.1266 11.808C62.7212 11.5733 62.4119 11.2267 62.1986 10.768C61.9959 10.3093 61.8946 9.73867 61.8946 9.056V4.768C61.8946 4.544 61.9479 4.37867 62.0546 4.272C62.1719 4.16533 62.3319 4.112 62.5346 4.112C62.7479 4.112 62.9079 4.16533 63.0146 4.272C63.1319 4.37867 63.1906 4.544 63.1906 4.768V9.04C63.1906 9.72267 63.3292 10.2347 63.6066 10.576C63.8946 10.9067 64.3426 11.072 64.9506 11.072C65.6119 11.072 66.1506 10.848 66.5666 10.4C66.9826 9.952 67.1906 9.36533 67.1906 8.64V4.768C67.1906 4.544 67.2439 4.37867 67.3506 4.272C67.4679 4.16533 67.6332 4.112 67.8466 4.112C68.0492 4.112 68.2039 4.16533 68.3106 4.272C68.4279 4.37867 68.4866 4.544 68.4866 4.768V11.44C68.4866 11.888 68.2786 12.112 67.8626 12.112C67.6599 12.112 67.4999 12.0533 67.3826 11.936C67.2759 11.8187 67.2226 11.6533 67.2226 11.44V9.984L67.4306 10.208C67.2172 10.8373 66.8652 11.3173 66.3746 11.648C65.8946 11.9787 65.3346 12.144 64.6946 12.144ZM71.8173 12.112C71.604 12.112 71.4386 12.0533 71.3213 11.936C71.2146 11.8187 71.1613 11.6533 71.1613 11.44V4.768C71.1613 4.55467 71.2146 4.39467 71.3213 4.288C71.428 4.17067 71.5826 4.112 71.7853 4.112C71.988 4.112 72.1426 4.17067 72.2493 4.288C72.3666 4.39467 72.4253 4.55467 72.4253 4.768V6.064H72.2653C72.436 5.43467 72.7613 4.94933 73.2413 4.608C73.7213 4.26667 74.3133 4.08533 75.0173 4.064C75.1773 4.05333 75.3053 4.09067 75.4013 4.176C75.4973 4.25067 75.5506 4.384 75.5613 4.576C75.572 4.75733 75.5293 4.90133 75.4333 5.008C75.3373 5.11467 75.188 5.17867 74.9853 5.2L74.7293 5.232C74.004 5.296 73.444 5.53067 73.0493 5.936C72.6653 6.33067 72.4733 6.87467 72.4733 7.568V11.44C72.4733 11.6533 72.4146 11.8187 72.2973 11.936C72.1906 12.0533 72.0306 12.112 71.8173 12.112ZM82.4167 12C82.182 12 82.0007 11.9413 81.8727 11.824C81.7554 11.696 81.6967 11.5147 81.6967 11.28V1.44C81.6967 1.20533 81.7554 1.02933 81.8727 0.912C82.0007 0.783999 82.182 0.719999 82.4167 0.719999H88.3687C88.55 0.719999 88.6887 0.767999 88.7847 0.863999C88.8807 0.959999 88.9287 1.09333 88.9287 1.264C88.9287 1.44533 88.8807 1.584 88.7847 1.68C88.6887 1.776 88.55 1.824 88.3687 1.824H82.9767V5.728H88.0327C88.214 5.728 88.3527 5.776 88.4487 5.872C88.5447 5.95733 88.5927 6.09067 88.5927 6.272C88.5927 6.45333 88.5447 6.592 88.4487 6.688C88.3527 6.784 88.214 6.832 88.0327 6.832H82.9767V10.896H88.3687C88.55 10.896 88.6887 10.944 88.7847 11.04C88.8807 11.136 88.9287 11.2693 88.9287 11.44C88.9287 11.6213 88.8807 11.76 88.7847 11.856C88.6887 11.952 88.55 12 88.3687 12H82.4167ZM91.7708 12.112C91.5575 12.112 91.3975 12.0533 91.2908 11.936C91.1841 11.8187 91.1308 11.6533 91.1308 11.44V4.768C91.1308 4.55467 91.1841 4.39467 91.2908 4.288C91.3975 4.17067 91.5521 4.112 91.7548 4.112C91.9575 4.112 92.1121 4.17067 92.2188 4.288C92.3361 4.39467 92.3948 4.55467 92.3948 4.768V6.176L92.2188 5.952C92.4215 5.35467 92.7468 4.896 93.1948 4.576C93.6535 4.24533 94.1975 4.08 94.8268 4.08C95.4881 4.08 96.0215 4.24 96.4268 4.56C96.8428 4.86933 97.1201 5.35467 97.2588 6.016H97.0188C97.2108 5.41867 97.5521 4.94933 98.0428 4.608C98.5441 4.256 99.1255 4.08 99.7868 4.08C100.373 4.08 100.853 4.192 101.227 4.416C101.611 4.64 101.899 4.98133 102.091 5.44C102.283 5.888 102.379 6.45867 102.379 7.152V11.44C102.379 11.6533 102.32 11.8187 102.203 11.936C102.096 12.0533 101.936 12.112 101.723 12.112C101.52 12.112 101.36 12.0533 101.243 11.936C101.136 11.8187 101.083 11.6533 101.083 11.44V7.216C101.083 6.50133 100.96 5.97867 100.715 5.648C100.469 5.30667 100.053 5.136 99.4668 5.136C98.8268 5.136 98.3201 5.36 97.9468 5.808C97.5841 6.24533 97.4028 6.84267 97.4028 7.6V11.44C97.4028 11.6533 97.3441 11.8187 97.2268 11.936C97.1201 12.0533 96.9601 12.112 96.7468 12.112C96.5441 12.112 96.3841 12.0533 96.2668 11.936C96.1601 11.8187 96.1068 11.6533 96.1068 11.44V7.216C96.1068 6.50133 95.9788 5.97867 95.7228 5.648C95.4775 5.30667 95.0668 5.136 94.4908 5.136C93.8508 5.136 93.3441 5.36 92.9708 5.808C92.6081 6.24533 92.4268 6.84267 92.4268 7.6V11.44C92.4268 11.888 92.2081 12.112 91.7708 12.112ZM107.5 12.144C106.967 12.144 106.487 12.0427 106.06 11.84C105.644 11.6267 105.313 11.3387 105.068 10.976C104.823 10.6133 104.7 10.208 104.7 9.76C104.7 9.184 104.844 8.73067 105.132 8.4C105.431 8.06933 105.916 7.83467 106.588 7.696C107.271 7.55733 108.199 7.488 109.372 7.488H110.092V8.336H109.388C108.524 8.336 107.841 8.37867 107.34 8.464C106.849 8.53867 106.503 8.672 106.3 8.864C106.108 9.056 106.012 9.328 106.012 9.68C106.012 10.1173 106.161 10.4747 106.46 10.752C106.769 11.0293 107.185 11.168 107.708 11.168C108.135 11.168 108.508 11.0667 108.828 10.864C109.159 10.6613 109.415 10.384 109.596 10.032C109.788 9.68 109.884 9.27467 109.884 8.816V6.992C109.884 6.33067 109.751 5.856 109.484 5.568C109.217 5.26933 108.78 5.12 108.172 5.12C107.799 5.12 107.425 5.168 107.052 5.264C106.679 5.36 106.284 5.51467 105.868 5.728C105.719 5.80267 105.591 5.82933 105.484 5.808C105.377 5.776 105.292 5.71733 105.228 5.632C105.164 5.54667 105.127 5.45067 105.116 5.344C105.105 5.22667 105.127 5.11467 105.18 5.008C105.244 4.90133 105.34 4.816 105.468 4.752C105.937 4.51733 106.401 4.34667 106.86 4.24C107.319 4.13333 107.756 4.08 108.172 4.08C108.844 4.08 109.399 4.192 109.836 4.416C110.273 4.62933 110.599 4.96 110.812 5.408C111.025 5.84533 111.132 6.41067 111.132 7.104V11.44C111.132 11.6533 111.079 11.8187 110.972 11.936C110.876 12.0533 110.732 12.112 110.54 12.112C110.337 12.112 110.183 12.0533 110.076 11.936C109.969 11.8187 109.916 11.6533 109.916 11.44V10.192H110.06C109.975 10.5973 109.809 10.944 109.564 11.232C109.329 11.52 109.036 11.744 108.684 11.904C108.332 12.064 107.937 12.144 107.5 12.144ZM114.426 12.08C114.213 12.08 114.053 12.0213 113.946 11.904C113.84 11.776 113.786 11.6 113.786 11.376V4.832C113.786 4.608 113.84 4.43733 113.946 4.32C114.053 4.20267 114.213 4.144 114.426 4.144C114.629 4.144 114.789 4.20267 114.906 4.32C115.024 4.43733 115.082 4.608 115.082 4.832V11.376C115.082 11.6 115.024 11.776 114.906 11.904C114.8 12.0213 114.64 12.08 114.426 12.08ZM114.426 2.352C114.16 2.352 113.952 2.28267 113.802 2.144C113.653 1.99467 113.578 1.79733 113.578 1.552C113.578 1.296 113.653 1.104 113.802 0.976C113.952 0.837333 114.16 0.768 114.426 0.768C114.704 0.768 114.912 0.837333 115.05 0.976C115.2 1.104 115.274 1.296 115.274 1.552C115.274 1.79733 115.2 1.99467 115.05 2.144C114.912 2.28267 114.704 2.352 114.426 2.352ZM120.123 12.144C119.355 12.144 118.768 11.9093 118.363 11.44C117.958 10.9707 117.755 10.2987 117.755 9.424V1.264C117.755 1.05067 117.808 0.890666 117.915 0.783999C118.022 0.666666 118.182 0.608 118.395 0.608C118.598 0.608 118.758 0.666666 118.875 0.783999C118.992 0.890666 119.051 1.05067 119.051 1.264V9.328C119.051 9.904 119.163 10.336 119.387 10.624C119.622 10.9013 119.963 11.04 120.411 11.04C120.507 11.04 120.592 11.0347 120.667 11.024C120.742 11.0133 120.816 11.008 120.891 11.008C121.008 10.9973 121.088 11.024 121.131 11.088C121.184 11.152 121.211 11.28 121.211 11.472C121.211 11.664 121.168 11.808 121.083 11.904C120.998 12 120.859 12.064 120.667 12.096C120.582 12.1067 120.491 12.1173 120.395 12.128C120.299 12.1387 120.208 12.144 120.123 12.144ZM130.234 12.144C129.626 12.144 129.114 12.0373 128.698 11.824C128.293 11.6 127.989 11.28 127.786 10.864C127.584 10.4373 127.482 9.92 127.482 9.312V5.232H126.41C126.229 5.232 126.09 5.18933 125.994 5.104C125.898 5.008 125.85 4.88 125.85 4.72C125.85 4.56 125.898 4.43733 125.994 4.352C126.09 4.26667 126.229 4.224 126.41 4.224H127.482V2.384C127.482 2.17067 127.541 2.01067 127.658 1.904C127.776 1.78667 127.936 1.728 128.138 1.728C128.341 1.728 128.496 1.78667 128.602 1.904C128.72 2.01067 128.778 2.17067 128.778 2.384V4.224H130.794C130.976 4.224 131.114 4.26667 131.21 4.352C131.306 4.43733 131.354 4.56 131.354 4.72C131.354 4.88 131.306 5.008 131.21 5.104C131.114 5.18933 130.976 5.232 130.794 5.232H128.778V9.184C128.778 9.792 128.906 10.256 129.162 10.576C129.418 10.8853 129.834 11.04 130.41 11.04C130.613 11.04 130.784 11.0187 130.922 10.976C131.072 10.9333 131.194 10.912 131.29 10.912C131.386 10.9013 131.466 10.9333 131.53 11.008C131.594 11.0827 131.626 11.2107 131.626 11.392C131.626 11.52 131.6 11.6373 131.546 11.744C131.504 11.8507 131.424 11.9253 131.306 11.968C131.178 12.0107 131.008 12.048 130.794 12.08C130.592 12.1227 130.405 12.144 130.234 12.144ZM133.692 12.112C133.479 12.112 133.319 12.0533 133.212 11.936C133.105 11.8187 133.052 11.6533 133.052 11.44V1.264C133.052 1.05067 133.105 0.890666 133.212 0.783999C133.319 0.666666 133.479 0.608 133.692 0.608C133.895 0.608 134.055 0.666666 134.172 0.783999C134.289 0.890666 134.348 1.05067 134.348 1.264V5.952H134.14C134.364 5.33333 134.727 4.86933 135.228 4.56C135.74 4.24 136.327 4.08 136.988 4.08C137.607 4.08 138.119 4.192 138.524 4.416C138.94 4.64 139.249 4.98133 139.452 5.44C139.655 5.888 139.756 6.45867 139.756 7.152V11.44C139.756 11.6533 139.697 11.8187 139.58 11.936C139.473 12.0533 139.319 12.112 139.116 12.112C138.903 12.112 138.737 12.0533 138.62 11.936C138.513 11.8187 138.46 11.6533 138.46 11.44V7.232C138.46 6.50667 138.316 5.97867 138.028 5.648C137.751 5.30667 137.303 5.136 136.684 5.136C135.969 5.136 135.399 5.36 134.972 5.808C134.556 6.24533 134.348 6.832 134.348 7.568V11.44C134.348 11.888 134.129 12.112 133.692 12.112ZM145.9 12.144C145.078 12.144 144.369 11.984 143.772 11.664C143.185 11.3333 142.726 10.8693 142.396 10.272C142.076 9.67467 141.916 8.96 141.916 8.128C141.916 7.31733 142.076 6.61333 142.396 6.016C142.716 5.408 143.153 4.93333 143.708 4.592C144.273 4.25067 144.924 4.08 145.66 4.08C146.182 4.08 146.652 4.17067 147.068 4.352C147.484 4.52267 147.836 4.77333 148.124 5.104C148.422 5.43467 148.646 5.83467 148.796 6.304C148.956 6.77333 149.036 7.30133 149.036 7.888C149.036 8.05867 148.988 8.18667 148.892 8.272C148.796 8.34667 148.657 8.384 148.476 8.384H142.908V7.536H148.172L147.916 7.744C147.916 7.168 147.83 6.68267 147.66 6.288C147.489 5.88267 147.238 5.57333 146.908 5.36C146.588 5.14667 146.182 5.04 145.692 5.04C145.148 5.04 144.684 5.168 144.3 5.424C143.926 5.66933 143.644 6.016 143.452 6.464C143.26 6.90133 143.164 7.41333 143.164 8V8.096C143.164 9.07733 143.398 9.824 143.868 10.336C144.348 10.848 145.025 11.104 145.9 11.104C146.262 11.104 146.62 11.056 146.972 10.96C147.334 10.864 147.686 10.704 148.028 10.48C148.177 10.384 148.31 10.3413 148.428 10.352C148.556 10.352 148.657 10.3893 148.732 10.464C148.806 10.528 148.854 10.6133 148.876 10.72C148.908 10.816 148.897 10.9227 148.844 11.04C148.801 11.1573 148.71 11.2587 148.572 11.344C148.22 11.6 147.804 11.7973 147.324 11.936C146.844 12.0747 146.369 12.144 145.9 12.144ZM151.801 12.112C151.588 12.112 151.428 12.0533 151.321 11.936C151.215 11.8187 151.161 11.6533 151.161 11.44V4.768C151.161 4.55467 151.215 4.39467 151.321 4.288C151.428 4.17067 151.583 4.112 151.785 4.112C151.988 4.112 152.143 4.17067 152.249 4.288C152.367 4.39467 152.425 4.55467 152.425 4.768V6.144L152.249 5.952C152.473 5.33333 152.836 4.86933 153.337 4.56C153.849 4.24 154.436 4.08 155.097 4.08C155.716 4.08 156.228 4.192 156.633 4.416C157.049 4.64 157.359 4.98133 157.561 5.44C157.764 5.888 157.865 6.45867 157.865 7.152V11.44C157.865 11.6533 157.807 11.8187 157.689 11.936C157.583 12.0533 157.428 12.112 157.225 12.112C157.012 12.112 156.847 12.0533 156.729 11.936C156.623 11.8187 156.569 11.6533 156.569 11.44V7.232C156.569 6.50667 156.425 5.97867 156.137 5.648C155.86 5.30667 155.412 5.136 154.793 5.136C154.079 5.136 153.508 5.36 153.081 5.808C152.665 6.24533 152.457 6.832 152.457 7.568V11.44C152.457 11.888 152.239 12.112 151.801 12.112ZM167.568 12.112C167.387 12.112 167.227 12.064 167.088 11.968C166.949 11.872 166.837 11.7173 166.752 11.504L164.368 5.024C164.304 4.84267 164.283 4.68267 164.304 4.544C164.336 4.40533 164.405 4.29867 164.512 4.224C164.619 4.14933 164.752 4.112 164.912 4.112C165.072 4.112 165.2 4.14933 165.296 4.224C165.403 4.29867 165.488 4.43733 165.552 4.64L167.792 11.04H167.408L169.712 4.64C169.787 4.448 169.877 4.31467 169.984 4.24C170.101 4.15467 170.251 4.112 170.432 4.112C170.603 4.112 170.747 4.15467 170.864 4.24C170.981 4.32533 171.072 4.45867 171.136 4.64L173.392 11.04H173.024L175.296 4.608C175.371 4.416 175.461 4.288 175.568 4.224C175.675 4.14933 175.803 4.112 175.952 4.112C176.123 4.112 176.251 4.15467 176.336 4.24C176.432 4.32533 176.485 4.43733 176.496 4.576C176.507 4.71467 176.48 4.864 176.416 5.024L174.032 11.504C173.957 11.7067 173.845 11.8613 173.696 11.968C173.557 12.064 173.397 12.112 173.216 12.112C173.035 12.112 172.875 12.064 172.736 11.968C172.597 11.8613 172.491 11.7067 172.416 11.504L170.048 5.008H170.736L168.384 11.504C168.309 11.7067 168.203 11.8613 168.064 11.968C167.925 12.064 167.76 12.112 167.568 12.112ZM181.978 12.144C181.156 12.144 180.447 11.984 179.85 11.664C179.263 11.3333 178.804 10.8693 178.474 10.272C178.154 9.67467 177.994 8.96 177.994 8.128C177.994 7.31733 178.154 6.61333 178.474 6.016C178.794 5.408 179.231 4.93333 179.786 4.592C180.351 4.25067 181.002 4.08 181.738 4.08C182.26 4.08 182.73 4.17067 183.146 4.352C183.562 4.52267 183.914 4.77333 184.202 5.104C184.5 5.43467 184.724 5.83467 184.874 6.304C185.034 6.77333 185.114 7.30133 185.114 7.888C185.114 8.05867 185.066 8.18667 184.97 8.272C184.874 8.34667 184.735 8.384 184.554 8.384H178.986V7.536H184.25L183.994 7.744C183.994 7.168 183.908 6.68267 183.738 6.288C183.567 5.88267 183.316 5.57333 182.986 5.36C182.666 5.14667 182.26 5.04 181.77 5.04C181.226 5.04 180.762 5.168 180.378 5.424C180.004 5.66933 179.722 6.016 179.53 6.464C179.338 6.90133 179.242 7.41333 179.242 8V8.096C179.242 9.07733 179.476 9.824 179.946 10.336C180.426 10.848 181.103 11.104 181.978 11.104C182.34 11.104 182.698 11.056 183.05 10.96C183.412 10.864 183.764 10.704 184.106 10.48C184.255 10.384 184.388 10.3413 184.506 10.352C184.634 10.352 184.735 10.3893 184.81 10.464C184.884 10.528 184.932 10.6133 184.954 10.72C184.986 10.816 184.975 10.9227 184.922 11.04C184.879 11.1573 184.788 11.2587 184.65 11.344C184.298 11.6 183.882 11.7973 183.402 11.936C182.922 12.0747 182.447 12.144 181.978 12.144ZM194.302 12.112C194.121 12.112 193.961 12.064 193.822 11.968C193.684 11.872 193.572 11.7173 193.486 11.504L191.102 5.024C191.038 4.84267 191.017 4.68267 191.038 4.544C191.07 4.40533 191.14 4.29867 191.246 4.224C191.353 4.14933 191.486 4.112 191.646 4.112C191.806 4.112 191.934 4.14933 192.03 4.224C192.137 4.29867 192.222 4.43733 192.286 4.64L194.526 11.04H194.142L196.446 4.64C196.521 4.448 196.612 4.31467 196.718 4.24C196.836 4.15467 196.985 4.112 197.166 4.112C197.337 4.112 197.481 4.15467 197.598 4.24C197.716 4.32533 197.806 4.45867 197.87 4.64L200.126 11.04H199.758L202.03 4.608C202.105 4.416 202.196 4.288 202.302 4.224C202.409 4.14933 202.537 4.112 202.686 4.112C202.857 4.112 202.985 4.15467 203.07 4.24C203.166 4.32533 203.22 4.43733 203.23 4.576C203.241 4.71467 203.214 4.864 203.15 5.024L200.766 11.504C200.692 11.7067 200.58 11.8613 200.43 11.968C200.292 12.064 200.132 12.112 199.95 12.112C199.769 12.112 199.609 12.064 199.47 11.968C199.332 11.8613 199.225 11.7067 199.15 11.504L196.782 5.008H197.47L195.118 11.504C195.044 11.7067 194.937 11.8613 194.798 11.968C194.66 12.064 194.494 12.112 194.302 12.112ZM205.958 12.08C205.744 12.08 205.584 12.0213 205.478 11.904C205.371 11.776 205.318 11.6 205.318 11.376V4.832C205.318 4.608 205.371 4.43733 205.478 4.32C205.584 4.20267 205.744 4.144 205.958 4.144C206.16 4.144 206.32 4.20267 206.438 4.32C206.555 4.43733 206.614 4.608 206.614 4.832V11.376C206.614 11.6 206.555 11.776 206.438 11.904C206.331 12.0213 206.171 12.08 205.958 12.08ZM205.958 2.352C205.691 2.352 205.483 2.28267 205.334 2.144C205.184 1.99467 205.11 1.79733 205.11 1.552C205.11 1.296 205.184 1.104 205.334 0.976C205.483 0.837333 205.691 0.768 205.958 0.768C206.235 0.768 206.443 0.837333 206.582 0.976C206.731 1.104 206.806 1.296 206.806 1.552C206.806 1.79733 206.731 1.99467 206.582 2.144C206.443 2.28267 206.235 2.352 205.958 2.352ZM211.654 12.144C210.886 12.144 210.3 11.9093 209.894 11.44C209.489 10.9707 209.286 10.2987 209.286 9.424V1.264C209.286 1.05067 209.34 0.890666 209.446 0.783999C209.553 0.666666 209.713 0.608 209.926 0.608C210.129 0.608 210.289 0.666666 210.406 0.783999C210.524 0.890666 210.582 1.05067 210.582 1.264V9.328C210.582 9.904 210.694 10.336 210.918 10.624C211.153 10.9013 211.494 11.04 211.942 11.04C212.038 11.04 212.124 11.0347 212.198 11.024C212.273 11.0133 212.348 11.008 212.422 11.008C212.54 10.9973 212.62 11.024 212.662 11.088C212.716 11.152 212.742 11.28 212.742 11.472C212.742 11.664 212.7 11.808 212.614 11.904C212.529 12 212.39 12.064 212.198 12.096C212.113 12.1067 212.022 12.1173 211.926 12.128C211.83 12.1387 211.74 12.144 211.654 12.144ZM216.639 12.144C215.871 12.144 215.284 11.9093 214.879 11.44C214.473 10.9707 214.271 10.2987 214.271 9.424V1.264C214.271 1.05067 214.324 0.890666 214.431 0.783999C214.537 0.666666 214.697 0.608 214.911 0.608C215.113 0.608 215.273 0.666666 215.391 0.783999C215.508 0.890666 215.567 1.05067 215.567 1.264V9.328C215.567 9.904 215.679 10.336 215.903 10.624C216.137 10.9013 216.479 11.04 216.927 11.04C217.023 11.04 217.108 11.0347 217.183 11.024C217.257 11.0133 217.332 11.008 217.407 11.008C217.524 10.9973 217.604 11.024 217.647 11.088C217.7 11.152 217.727 11.28 217.727 11.472C217.727 11.664 217.684 11.808 217.599 11.904C217.513 12 217.375 12.064 217.183 12.096C217.097 12.1067 217.007 12.1173 216.911 12.128C216.815 12.1387 216.724 12.144 216.639 12.144ZM226.254 12.144C225.774 12.144 225.289 12.0853 224.798 11.968C224.318 11.8507 223.87 11.648 223.454 11.36C223.347 11.2853 223.273 11.2 223.23 11.104C223.187 10.9973 223.171 10.896 223.182 10.8C223.203 10.6933 223.246 10.6027 223.31 10.528C223.385 10.4533 223.47 10.4107 223.566 10.4C223.673 10.3787 223.79 10.4 223.918 10.464C224.334 10.72 224.734 10.9013 225.118 11.008C225.513 11.104 225.902 11.152 226.286 11.152C226.894 11.152 227.353 11.04 227.662 10.816C227.971 10.592 228.126 10.288 228.126 9.904C228.126 9.60533 228.025 9.37067 227.822 9.2C227.619 9.01867 227.299 8.88 226.862 8.784L225.406 8.464C224.734 8.32533 224.233 8.08533 223.902 7.744C223.582 7.40267 223.422 6.96 223.422 6.416C223.422 5.936 223.545 5.52533 223.79 5.184C224.046 4.832 224.403 4.56 224.862 4.368C225.321 4.176 225.854 4.08 226.462 4.08C226.931 4.08 227.374 4.144 227.79 4.272C228.217 4.38933 228.601 4.58133 228.942 4.848C229.049 4.92267 229.118 5.01333 229.15 5.12C229.193 5.216 229.198 5.31733 229.166 5.424C229.145 5.52 229.097 5.60533 229.022 5.68C228.947 5.744 228.857 5.78133 228.75 5.792C228.643 5.80267 228.531 5.77067 228.414 5.696C228.094 5.48267 227.769 5.328 227.438 5.232C227.107 5.12533 226.782 5.072 226.462 5.072C225.865 5.072 225.411 5.18933 225.102 5.424C224.793 5.65867 224.638 5.968 224.638 6.352C224.638 6.65067 224.734 6.896 224.926 7.088C225.118 7.28 225.417 7.41867 225.822 7.504L227.278 7.808C227.971 7.95733 228.489 8.19733 228.83 8.528C229.182 8.848 229.358 9.28533 229.358 9.84C229.358 10.544 229.075 11.104 228.51 11.52C227.945 11.936 227.193 12.144 226.254 12.144ZM235.087 12.144C234.266 12.144 233.557 11.984 232.959 11.664C232.373 11.3333 231.914 10.8693 231.583 10.272C231.263 9.67467 231.103 8.96 231.103 8.128C231.103 7.31733 231.263 6.61333 231.583 6.016C231.903 5.408 232.341 4.93333 232.895 4.592C233.461 4.25067 234.111 4.08 234.847 4.08C235.37 4.08 235.839 4.17067 236.255 4.352C236.671 4.52267 237.023 4.77333 237.311 5.104C237.61 5.43467 237.834 5.83467 237.983 6.304C238.143 6.77333 238.223 7.30133 238.223 7.888C238.223 8.05867 238.175 8.18667 238.079 8.272C237.983 8.34667 237.845 8.384 237.663 8.384H232.095V7.536H237.359L237.103 7.744C237.103 7.168 237.018 6.68267 236.847 6.288C236.677 5.88267 236.426 5.57333 236.095 5.36C235.775 5.14667 235.37 5.04 234.879 5.04C234.335 5.04 233.871 5.168 233.487 5.424C233.114 5.66933 232.831 6.016 232.639 6.464C232.447 6.90133 232.351 7.41333 232.351 8V8.096C232.351 9.07733 232.586 9.824 233.055 10.336C233.535 10.848 234.213 11.104 235.087 11.104C235.45 11.104 235.807 11.056 236.159 10.96C236.522 10.864 236.874 10.704 237.215 10.48C237.365 10.384 237.498 10.3413 237.615 10.352C237.743 10.352 237.845 10.3893 237.919 10.464C237.994 10.528 238.042 10.6133 238.063 10.72C238.095 10.816 238.085 10.9227 238.031 11.04C237.989 11.1573 237.898 11.2587 237.759 11.344C237.407 11.6 236.991 11.7973 236.511 11.936C236.031 12.0747 235.557 12.144 235.087 12.144ZM240.989 12.112C240.775 12.112 240.615 12.0533 240.509 11.936C240.402 11.8187 240.349 11.6533 240.349 11.44V4.768C240.349 4.55467 240.402 4.39467 240.509 4.288C240.615 4.17067 240.77 4.112 240.973 4.112C241.175 4.112 241.33 4.17067 241.437 4.288C241.554 4.39467 241.613 4.55467 241.613 4.768V6.144L241.437 5.952C241.661 5.33333 242.023 4.86933 242.525 4.56C243.037 4.24 243.623 4.08 244.285 4.08C244.903 4.08 245.415 4.192 245.821 4.416C246.237 4.64 246.546 4.98133 246.749 5.44C246.951 5.888 247.053 6.45867 247.053 7.152V11.44C247.053 11.6533 246.994 11.8187 246.877 11.936C246.77 12.0533 246.615 12.112 246.413 12.112C246.199 12.112 246.034 12.0533 245.917 11.936C245.81 11.8187 245.757 11.6533 245.757 11.44V7.232C245.757 6.50667 245.613 5.97867 245.325 5.648C245.047 5.30667 244.599 5.136 243.981 5.136C243.266 5.136 242.695 5.36 242.269 5.808C241.853 6.24533 241.645 6.832 241.645 7.568V11.44C241.645 11.888 241.426 12.112 240.989 12.112ZM252.653 12.144C251.959 12.144 251.351 11.9787 250.829 11.648C250.317 11.3173 249.917 10.8533 249.629 10.256C249.351 9.648 249.213 8.93333 249.213 8.112C249.213 7.28 249.351 6.56533 249.629 5.968C249.917 5.36 250.317 4.896 250.829 4.576C251.351 4.24533 251.959 4.08 252.653 4.08C253.357 4.08 253.959 4.256 254.461 4.608C254.962 4.96 255.298 5.43467 255.469 6.032H255.293V1.264C255.293 1.05067 255.346 0.890666 255.453 0.783999C255.57 0.666666 255.735 0.608 255.949 0.608C256.151 0.608 256.306 0.666666 256.413 0.783999C256.53 0.890666 256.589 1.05067 256.589 1.264V11.44C256.589 11.6533 256.535 11.8187 256.429 11.936C256.322 12.0533 256.162 12.112 255.949 12.112C255.746 12.112 255.586 12.0533 255.469 11.936C255.362 11.8187 255.309 11.6533 255.309 11.44V9.92L255.485 10.144C255.314 10.752 254.973 11.2373 254.461 11.6C253.959 11.9627 253.357 12.144 252.653 12.144ZM252.925 11.104C253.405 11.104 253.826 10.9867 254.189 10.752C254.551 10.5173 254.829 10.176 255.021 9.728C255.223 9.28 255.325 8.74133 255.325 8.112C255.325 7.14133 255.106 6.4 254.669 5.888C254.242 5.376 253.661 5.12 252.925 5.12C252.434 5.12 252.007 5.23733 251.645 5.472C251.293 5.696 251.015 6.032 250.813 6.48C250.621 6.91733 250.525 7.46133 250.525 8.112C250.525 9.072 250.743 9.81333 251.181 10.336C251.618 10.848 252.199 11.104 252.925 11.104ZM265.374 14.992C265.214 14.992 265.086 14.9493 264.99 14.864C264.894 14.7787 264.835 14.6613 264.814 14.512C264.803 14.3733 264.83 14.2293 264.894 14.08L265.998 11.6V12.16L262.926 5.024C262.862 4.864 262.84 4.71467 262.862 4.576C262.883 4.43733 262.947 4.32533 263.054 4.24C263.16 4.15467 263.31 4.112 263.502 4.112C263.672 4.112 263.806 4.14933 263.902 4.224C263.998 4.29867 264.083 4.432 264.158 4.624L266.782 11.056H266.35L269.006 4.624C269.091 4.432 269.182 4.29867 269.278 4.224C269.374 4.14933 269.512 4.112 269.694 4.112C269.864 4.112 269.992 4.15467 270.078 4.24C270.174 4.32533 270.227 4.43733 270.238 4.576C270.259 4.704 270.238 4.848 270.174 5.008L266.078 14.48C265.992 14.672 265.896 14.8053 265.79 14.88C265.694 14.9547 265.555 14.992 265.374 14.992ZM275.237 12.144C274.48 12.144 273.824 11.9787 273.269 11.648C272.714 11.3173 272.282 10.8533 271.973 10.256C271.674 9.648 271.525 8.93333 271.525 8.112C271.525 7.49333 271.61 6.93867 271.781 6.448C271.952 5.94667 272.202 5.52 272.533 5.168C272.864 4.816 273.253 4.54933 273.701 4.368C274.16 4.176 274.672 4.08 275.237 4.08C275.994 4.08 276.65 4.24533 277.205 4.576C277.76 4.90667 278.186 5.376 278.485 5.984C278.794 6.58133 278.949 7.29067 278.949 8.112C278.949 8.73067 278.864 9.28533 278.693 9.776C278.522 10.2667 278.272 10.6933 277.941 11.056C277.61 11.408 277.216 11.68 276.757 11.872C276.309 12.0533 275.802 12.144 275.237 12.144ZM275.237 11.104C275.717 11.104 276.138 10.9867 276.501 10.752C276.864 10.5173 277.141 10.176 277.333 9.728C277.536 9.28 277.637 8.74133 277.637 8.112C277.637 7.14133 277.418 6.4 276.981 5.888C276.554 5.376 275.973 5.12 275.237 5.12C274.746 5.12 274.32 5.23733 273.957 5.472C273.605 5.696 273.328 6.032 273.125 6.48C272.933 6.91733 272.837 7.46133 272.837 8.112C272.837 9.072 273.056 9.81333 273.493 10.336C273.93 10.848 274.512 11.104 275.237 11.104ZM283.898 12.144C283.268 12.144 282.746 12.032 282.33 11.808C281.924 11.5733 281.615 11.2267 281.402 10.768C281.199 10.3093 281.098 9.73867 281.098 9.056V4.768C281.098 4.544 281.151 4.37867 281.258 4.272C281.375 4.16533 281.535 4.112 281.738 4.112C281.951 4.112 282.111 4.16533 282.218 4.272C282.335 4.37867 282.394 4.544 282.394 4.768V9.04C282.394 9.72267 282.532 10.2347 282.81 10.576C283.098 10.9067 283.546 11.072 284.154 11.072C284.815 11.072 285.354 10.848 285.77 10.4C286.186 9.952 286.394 9.36533 286.394 8.64V4.768C286.394 4.544 286.447 4.37867 286.554 4.272C286.671 4.16533 286.836 4.112 287.05 4.112C287.252 4.112 287.407 4.16533 287.514 4.272C287.631 4.37867 287.69 4.544 287.69 4.768V11.44C287.69 11.888 287.482 12.112 287.066 12.112C286.863 12.112 286.703 12.0533 286.586 11.936C286.479 11.8187 286.426 11.6533 286.426 11.44V9.984L286.634 10.208C286.42 10.8373 286.068 11.3173 285.578 11.648C285.098 11.9787 284.538 12.144 283.898 12.144ZM299.651 12.144C298.606 12.144 297.694 11.9093 296.915 11.44C296.147 10.96 295.55 10.288 295.123 9.424C294.707 8.56 294.499 7.536 294.499 6.352C294.499 5.456 294.617 4.656 294.851 3.952C295.097 3.23733 295.443 2.63467 295.891 2.144C296.339 1.64267 296.878 1.25867 297.507 0.992C298.147 0.714666 298.862 0.575999 299.651 0.575999C300.718 0.575999 301.635 0.810666 302.403 1.28C303.182 1.74933 303.779 2.416 304.195 3.28C304.622 4.13333 304.835 5.152 304.835 6.336C304.835 7.232 304.713 8.03733 304.467 8.752C304.222 9.46667 303.875 10.0747 303.427 10.576C302.979 11.0773 302.435 11.4667 301.795 11.744C301.166 12.0107 300.451 12.144 299.651 12.144ZM299.651 10.976C300.462 10.976 301.145 10.7947 301.699 10.432C302.265 10.0693 302.697 9.54133 302.995 8.848C303.294 8.15467 303.443 7.32267 303.443 6.352C303.443 4.89067 303.113 3.76 302.451 2.96C301.801 2.14933 300.867 1.744 299.651 1.744C298.862 1.744 298.185 1.92533 297.619 2.288C297.065 2.65067 296.638 3.17867 296.339 3.872C296.041 4.55467 295.891 5.38133 295.891 6.352C295.891 7.80267 296.222 8.93867 296.883 9.76C297.545 10.5707 298.467 10.976 299.651 10.976ZM310.152 12.112C309.949 12.112 309.789 12.0533 309.672 11.936C309.555 11.808 309.496 11.6373 309.496 11.424V1.856H305.896C305.704 1.856 305.555 1.80267 305.448 1.696C305.341 1.58933 305.288 1.45067 305.288 1.28C305.288 1.09867 305.341 0.959999 305.448 0.863999C305.555 0.767999 305.704 0.719999 305.896 0.719999H314.424C314.616 0.719999 314.765 0.767999 314.872 0.863999C314.979 0.959999 315.032 1.09867 315.032 1.28C315.032 1.46133 314.979 1.60533 314.872 1.712C314.765 1.808 314.616 1.856 314.424 1.856H310.824V11.424C310.824 11.6373 310.765 11.808 310.648 11.936C310.541 12.0533 310.376 12.112 310.152 12.112ZM317.259 12.112C317.046 12.112 316.88 12.0533 316.763 11.936C316.656 11.808 316.603 11.6373 316.603 11.424V1.392C316.603 1.168 316.662 1.00267 316.779 0.896C316.896 0.778666 317.062 0.719999 317.275 0.719999H321.067C322.272 0.719999 323.2 1.01867 323.851 1.616C324.502 2.20267 324.827 3.03467 324.827 4.112C324.827 5.17867 324.502 6.01067 323.851 6.608C323.2 7.20533 322.272 7.504 321.067 7.504H317.915V11.424C317.915 11.6373 317.862 11.808 317.755 11.936C317.648 12.0533 317.483 12.112 317.259 12.112ZM317.915 6.4H320.907C321.771 6.4 322.422 6.208 322.859 5.824C323.307 5.42933 323.531 4.85867 323.531 4.112C323.531 3.35467 323.307 2.784 322.859 2.4C322.422 2.00533 321.771 1.808 320.907 1.808H317.915V6.4ZM80.3985 38.144C79.7905 38.144 79.2785 38.0373 78.8625 37.824C78.4572 37.6 78.1532 37.28 77.9505 36.864C77.7478 36.4373 77.6465 35.92 77.6465 35.312V31.232H76.5745C76.3932 31.232 76.2545 31.1893 76.1585 31.104C76.0625 31.008 76.0145 30.88 76.0145 30.72C76.0145 30.56 76.0625 30.4373 76.1585 30.352C76.2545 30.2667 76.3932 30.224 76.5745 30.224H77.6465V28.384C77.6465 28.1707 77.7052 28.0107 77.8225 27.904C77.9398 27.7867 78.0998 27.728 78.3025 27.728C78.5052 27.728 78.6598 27.7867 78.7665 27.904C78.8838 28.0107 78.9425 28.1707 78.9425 28.384V30.224H80.9585C81.1398 30.224 81.2785 30.2667 81.3745 30.352C81.4705 30.4373 81.5185 30.56 81.5185 30.72C81.5185 30.88 81.4705 31.008 81.3745 31.104C81.2785 31.1893 81.1398 31.232 80.9585 31.232H78.9425V35.184C78.9425 35.792 79.0705 36.256 79.3265 36.576C79.5825 36.8853 79.9985 37.04 80.5745 37.04C80.7772 37.04 80.9478 37.0187 81.0865 36.976C81.2358 36.9333 81.3585 36.912 81.4545 36.912C81.5505 36.9013 81.6305 36.9333 81.6945 37.008C81.7585 37.0827 81.7905 37.2107 81.7905 37.392C81.7905 37.52 81.7638 37.6373 81.7105 37.744C81.6678 37.8507 81.5878 37.9253 81.4705 37.968C81.3425 38.0107 81.1718 38.048 80.9585 38.08C80.7558 38.1227 80.5692 38.144 80.3985 38.144ZM86.2761 38.144C85.5188 38.144 84.8628 37.9787 84.3081 37.648C83.7535 37.3173 83.3215 36.8533 83.0121 36.256C82.7135 35.648 82.5641 34.9333 82.5641 34.112C82.5641 33.4933 82.6495 32.9387 82.8201 32.448C82.9908 31.9467 83.2415 31.52 83.5721 31.168C83.9028 30.816 84.2921 30.5493 84.7401 30.368C85.1988 30.176 85.7108 30.08 86.2761 30.08C87.0335 30.08 87.6895 30.2453 88.2441 30.576C88.7988 30.9067 89.2255 31.376 89.5241 31.984C89.8335 32.5813 89.9881 33.2907 89.9881 34.112C89.9881 34.7307 89.9028 35.2853 89.7321 35.776C89.5615 36.2667 89.3108 36.6933 88.9801 37.056C88.6495 37.408 88.2548 37.68 87.7961 37.872C87.3481 38.0533 86.8415 38.144 86.2761 38.144ZM86.2761 37.104C86.7561 37.104 87.1775 36.9867 87.5401 36.752C87.9028 36.5173 88.1801 36.176 88.3721 35.728C88.5748 35.28 88.6761 34.7413 88.6761 34.112C88.6761 33.1413 88.4575 32.4 88.0201 31.888C87.5935 31.376 87.0121 31.12 86.2761 31.12C85.7855 31.12 85.3588 31.2373 84.9961 31.472C84.6441 31.696 84.3668 32.032 84.1641 32.48C83.9721 32.9173 83.8761 33.4613 83.8761 34.112C83.8761 35.072 84.0948 35.8133 84.5321 36.336C84.9695 36.848 85.5508 37.104 86.2761 37.104ZM97.2158 38.112C97.0024 38.112 96.8371 38.0533 96.7198 37.936C96.6131 37.8187 96.5598 37.6533 96.5598 37.44V30.768C96.5598 30.5547 96.6131 30.3947 96.7198 30.288C96.8264 30.1707 96.9811 30.112 97.1838 30.112C97.3864 30.112 97.5411 30.1707 97.6478 30.288C97.7651 30.3947 97.8238 30.5547 97.8238 30.768V32.064H97.6638C97.8344 31.4347 98.1598 30.9493 98.6398 30.608C99.1198 30.2667 99.7118 30.0853 100.416 30.064C100.576 30.0533 100.704 30.0907 100.8 30.176C100.896 30.2507 100.949 30.384 100.96 30.576C100.97 30.7573 100.928 30.9013 100.832 31.008C100.736 31.1147 100.586 31.1787 100.384 31.2L100.128 31.232C99.4024 31.296 98.8424 31.5307 98.4478 31.936C98.0638 32.3307 97.8718 32.8747 97.8718 33.568V37.44C97.8718 37.6533 97.8131 37.8187 97.6957 37.936C97.5891 38.0533 97.4291 38.112 97.2158 38.112ZM105.954 38.144C105.133 38.144 104.424 37.984 103.826 37.664C103.24 37.3333 102.781 36.8693 102.45 36.272C102.13 35.6747 101.97 34.96 101.97 34.128C101.97 33.3173 102.13 32.6133 102.45 32.016C102.77 31.408 103.208 30.9333 103.762 30.592C104.328 30.2507 104.978 30.08 105.714 30.08C106.237 30.08 106.706 30.1707 107.122 30.352C107.538 30.5227 107.89 30.7733 108.178 31.104C108.477 31.4347 108.701 31.8347 108.85 32.304C109.01 32.7733 109.09 33.3013 109.09 33.888C109.09 34.0587 109.042 34.1867 108.946 34.272C108.85 34.3467 108.712 34.384 108.53 34.384H102.962V33.536H108.226L107.97 33.744C107.97 33.168 107.885 32.6827 107.714 32.288C107.544 31.8827 107.293 31.5733 106.962 31.36C106.642 31.1467 106.237 31.04 105.746 31.04C105.202 31.04 104.738 31.168 104.354 31.424C103.981 31.6693 103.698 32.016 103.506 32.464C103.314 32.9013 103.218 33.4133 103.218 34V34.096C103.218 35.0773 103.453 35.824 103.922 36.336C104.402 36.848 105.08 37.104 105.954 37.104C106.317 37.104 106.674 37.056 107.026 36.96C107.389 36.864 107.741 36.704 108.082 36.48C108.232 36.384 108.365 36.3413 108.482 36.352C108.61 36.352 108.712 36.3893 108.786 36.464C108.861 36.528 108.909 36.6133 108.93 36.72C108.962 36.816 108.952 36.9227 108.898 37.04C108.856 37.1573 108.765 37.2587 108.626 37.344C108.274 37.6 107.858 37.7973 107.378 37.936C106.898 38.0747 106.424 38.144 105.954 38.144ZM113.84 38.144C113.36 38.144 112.875 38.0853 112.384 37.968C111.904 37.8507 111.456 37.648 111.04 37.36C110.933 37.2853 110.859 37.2 110.816 37.104C110.773 36.9973 110.757 36.896 110.768 36.8C110.789 36.6933 110.832 36.6027 110.896 36.528C110.971 36.4533 111.056 36.4107 111.152 36.4C111.259 36.3787 111.376 36.4 111.504 36.464C111.92 36.72 112.32 36.9013 112.704 37.008C113.099 37.104 113.488 37.152 113.872 37.152C114.48 37.152 114.939 37.04 115.248 36.816C115.557 36.592 115.712 36.288 115.712 35.904C115.712 35.6053 115.611 35.3707 115.408 35.2C115.205 35.0187 114.885 34.88 114.448 34.784L112.992 34.464C112.32 34.3253 111.819 34.0853 111.488 33.744C111.168 33.4027 111.008 32.96 111.008 32.416C111.008 31.936 111.131 31.5253 111.376 31.184C111.632 30.832 111.989 30.56 112.448 30.368C112.907 30.176 113.44 30.08 114.048 30.08C114.517 30.08 114.96 30.144 115.376 30.272C115.803 30.3893 116.187 30.5813 116.528 30.848C116.635 30.9227 116.704 31.0133 116.736 31.12C116.779 31.216 116.784 31.3173 116.752 31.424C116.731 31.52 116.683 31.6053 116.608 31.68C116.533 31.744 116.443 31.7813 116.336 31.792C116.229 31.8027 116.117 31.7707 116 31.696C115.68 31.4827 115.355 31.328 115.024 31.232C114.693 31.1253 114.368 31.072 114.048 31.072C113.451 31.072 112.997 31.1893 112.688 31.424C112.379 31.6587 112.224 31.968 112.224 32.352C112.224 32.6507 112.32 32.896 112.512 33.088C112.704 33.28 113.003 33.4187 113.408 33.504L114.864 33.808C115.557 33.9573 116.075 34.1973 116.416 34.528C116.768 34.848 116.944 35.2853 116.944 35.84C116.944 36.544 116.661 37.104 116.096 37.52C115.531 37.936 114.779 38.144 113.84 38.144ZM122.673 38.144C121.852 38.144 121.142 37.984 120.545 37.664C119.958 37.3333 119.5 36.8693 119.169 36.272C118.849 35.6747 118.689 34.96 118.689 34.128C118.689 33.3173 118.849 32.6133 119.169 32.016C119.489 31.408 119.926 30.9333 120.481 30.592C121.046 30.2507 121.697 30.08 122.433 30.08C122.956 30.08 123.425 30.1707 123.841 30.352C124.257 30.5227 124.609 30.7733 124.897 31.104C125.196 31.4347 125.42 31.8347 125.569 32.304C125.729 32.7733 125.809 33.3013 125.809 33.888C125.809 34.0587 125.761 34.1867 125.665 34.272C125.569 34.3467 125.43 34.384 125.249 34.384H119.681V33.536H124.945L124.689 33.744C124.689 33.168 124.604 32.6827 124.433 32.288C124.262 31.8827 124.012 31.5733 123.681 31.36C123.361 31.1467 122.956 31.04 122.465 31.04C121.921 31.04 121.457 31.168 121.073 31.424C120.7 31.6693 120.417 32.016 120.225 32.464C120.033 32.9013 119.937 33.4133 119.937 34V34.096C119.937 35.0773 120.172 35.824 120.641 36.336C121.121 36.848 121.798 37.104 122.673 37.104C123.036 37.104 123.393 37.056 123.745 36.96C124.108 36.864 124.46 36.704 124.801 36.48C124.95 36.384 125.084 36.3413 125.201 36.352C125.329 36.352 125.43 36.3893 125.505 36.464C125.58 36.528 125.628 36.6133 125.649 36.72C125.681 36.816 125.67 36.9227 125.617 37.04C125.574 37.1573 125.484 37.2587 125.345 37.344C124.993 37.6 124.577 37.7973 124.097 37.936C123.617 38.0747 123.142 38.144 122.673 38.144ZM131.055 38.144C130.447 38.144 129.935 38.0373 129.519 37.824C129.113 37.6 128.809 37.28 128.607 36.864C128.404 36.4373 128.303 35.92 128.303 35.312V31.232H127.231C127.049 31.232 126.911 31.1893 126.815 31.104C126.719 31.008 126.671 30.88 126.671 30.72C126.671 30.56 126.719 30.4373 126.815 30.352C126.911 30.2667 127.049 30.224 127.231 30.224H128.303V28.384C128.303 28.1707 128.361 28.0107 128.479 27.904C128.596 27.7867 128.756 27.728 128.959 27.728C129.161 27.728 129.316 27.7867 129.423 27.904C129.54 28.0107 129.599 28.1707 129.599 28.384V30.224H131.615C131.796 30.224 131.935 30.2667 132.031 30.352C132.127 30.4373 132.175 30.56 132.175 30.72C132.175 30.88 132.127 31.008 132.031 31.104C131.935 31.1893 131.796 31.232 131.615 31.232H129.599V35.184C129.599 35.792 129.727 36.256 129.983 36.576C130.239 36.8853 130.655 37.04 131.231 37.04C131.433 37.04 131.604 37.0187 131.743 36.976C131.892 36.9333 132.015 36.912 132.111 36.912C132.207 36.9013 132.287 36.9333 132.351 37.008C132.415 37.0827 132.447 37.2107 132.447 37.392C132.447 37.52 132.42 37.6373 132.367 37.744C132.324 37.8507 132.244 37.9253 132.127 37.968C131.999 38.0107 131.828 38.048 131.615 38.08C131.412 38.1227 131.225 38.144 131.055 38.144ZM138.794 38.112C138.58 38.112 138.42 38.0533 138.314 37.936C138.207 37.8187 138.154 37.6533 138.154 37.44V30.768C138.154 30.5547 138.207 30.3947 138.314 30.288C138.42 30.1707 138.575 30.112 138.778 30.112C138.98 30.112 139.135 30.1707 139.242 30.288C139.359 30.3947 139.418 30.5547 139.418 30.768V32.144L139.242 31.952C139.466 31.3333 139.828 30.8693 140.33 30.56C140.842 30.24 141.428 30.08 142.09 30.08C142.708 30.08 143.22 30.192 143.626 30.416C144.042 30.64 144.351 30.9813 144.554 31.44C144.756 31.888 144.858 32.4587 144.858 33.152V37.44C144.858 37.6533 144.799 37.8187 144.682 37.936C144.575 38.0533 144.42 38.112 144.218 38.112C144.004 38.112 143.839 38.0533 143.722 37.936C143.615 37.8187 143.562 37.6533 143.562 37.44V33.232C143.562 32.5067 143.418 31.9787 143.13 31.648C142.852 31.3067 142.404 31.136 141.786 31.136C141.071 31.136 140.5 31.36 140.074 31.808C139.658 32.2453 139.45 32.832 139.45 33.568V37.44C139.45 37.888 139.231 38.112 138.794 38.112ZM151.001 38.144C150.18 38.144 149.471 37.984 148.873 37.664C148.287 37.3333 147.828 36.8693 147.497 36.272C147.177 35.6747 147.017 34.96 147.017 34.128C147.017 33.3173 147.177 32.6133 147.497 32.016C147.817 31.408 148.255 30.9333 148.809 30.592C149.375 30.2507 150.025 30.08 150.761 30.08C151.284 30.08 151.753 30.1707 152.169 30.352C152.585 30.5227 152.937 30.7733 153.225 31.104C153.524 31.4347 153.748 31.8347 153.897 32.304C154.057 32.7733 154.137 33.3013 154.137 33.888C154.137 34.0587 154.089 34.1867 153.993 34.272C153.897 34.3467 153.759 34.384 153.577 34.384H148.009V33.536H153.273L153.017 33.744C153.017 33.168 152.932 32.6827 152.761 32.288C152.591 31.8827 152.34 31.5733 152.009 31.36C151.689 31.1467 151.284 31.04 150.793 31.04C150.249 31.04 149.785 31.168 149.401 31.424C149.028 31.6693 148.745 32.016 148.553 32.464C148.361 32.9013 148.265 33.4133 148.265 34V34.096C148.265 35.0773 148.5 35.824 148.969 36.336C149.449 36.848 150.127 37.104 151.001 37.104C151.364 37.104 151.721 37.056 152.073 36.96C152.436 36.864 152.788 36.704 153.129 36.48C153.279 36.384 153.412 36.3413 153.529 36.352C153.657 36.352 153.759 36.3893 153.833 36.464C153.908 36.528 153.956 36.6133 153.977 36.72C154.009 36.816 153.999 36.9227 153.945 37.04C153.903 37.1573 153.812 37.2587 153.673 37.344C153.321 37.6 152.905 37.7973 152.425 37.936C151.945 38.0747 151.471 38.144 151.001 38.144ZM158.857 38.112C158.676 38.112 158.516 38.064 158.377 37.968C158.238 37.872 158.126 37.7173 158.041 37.504L155.657 31.024C155.593 30.8427 155.572 30.6827 155.593 30.544C155.625 30.4053 155.694 30.2987 155.801 30.224C155.908 30.1493 156.041 30.112 156.201 30.112C156.361 30.112 156.489 30.1493 156.585 30.224C156.692 30.2987 156.777 30.4373 156.841 30.64L159.081 37.04H158.697L161.001 30.64C161.076 30.448 161.166 30.3147 161.273 30.24C161.39 30.1547 161.54 30.112 161.721 30.112C161.892 30.112 162.036 30.1547 162.153 30.24C162.27 30.3253 162.361 30.4587 162.425 30.64L164.681 37.04H164.313L166.585 30.608C166.66 30.416 166.75 30.288 166.857 30.224C166.964 30.1493 167.092 30.112 167.241 30.112C167.412 30.112 167.54 30.1547 167.625 30.24C167.721 30.3253 167.774 30.4373 167.785 30.576C167.796 30.7147 167.769 30.864 167.705 31.024L165.321 37.504C165.246 37.7067 165.134 37.8613 164.985 37.968C164.846 38.064 164.686 38.112 164.505 38.112C164.324 38.112 164.164 38.064 164.025 37.968C163.886 37.8613 163.78 37.7067 163.705 37.504L161.337 31.008H162.025L159.673 37.504C159.598 37.7067 159.492 37.8613 159.353 37.968C159.214 38.064 159.049 38.112 158.857 38.112ZM174.887 40.992C174.674 40.992 174.514 40.9333 174.407 40.816C174.301 40.7093 174.247 40.5493 174.247 40.336V30.768C174.247 30.5547 174.301 30.3947 174.407 30.288C174.514 30.1707 174.669 30.112 174.871 30.112C175.085 30.112 175.245 30.1707 175.351 30.288C175.469 30.3947 175.527 30.5547 175.527 30.768V32.288L175.351 32.064C175.522 31.456 175.858 30.976 176.359 30.624C176.871 30.2613 177.479 30.08 178.183 30.08C178.877 30.08 179.479 30.2453 179.991 30.576C180.514 30.896 180.914 31.36 181.191 31.968C181.479 32.5653 181.623 33.28 181.623 34.112C181.623 34.9333 181.479 35.648 181.191 36.256C180.914 36.8533 180.519 37.3173 180.007 37.648C179.495 37.9787 178.887 38.144 178.183 38.144C177.479 38.144 176.877 37.968 176.375 37.616C175.874 37.2533 175.533 36.7733 175.351 36.176H175.543V40.336C175.543 40.5493 175.485 40.7093 175.367 40.816C175.25 40.9333 175.09 40.992 174.887 40.992ZM177.911 37.104C178.402 37.104 178.823 36.9867 179.175 36.752C179.538 36.5173 179.815 36.176 180.007 35.728C180.21 35.28 180.311 34.7413 180.311 34.112C180.311 33.1413 180.093 32.4 179.655 31.888C179.229 31.376 178.647 31.12 177.911 31.12C177.431 31.12 177.01 31.2373 176.647 31.472C176.285 31.696 176.002 32.032 175.799 32.48C175.607 32.9173 175.511 33.4613 175.511 34.112C175.511 35.072 175.73 35.8133 176.167 36.336C176.605 36.848 177.186 37.104 177.911 37.104ZM186.273 38.144C185.74 38.144 185.26 38.0427 184.833 37.84C184.417 37.6267 184.087 37.3387 183.841 36.976C183.596 36.6133 183.473 36.208 183.473 35.76C183.473 35.184 183.617 34.7307 183.905 34.4C184.204 34.0693 184.689 33.8347 185.361 33.696C186.044 33.5573 186.972 33.488 188.145 33.488H188.865V34.336H188.161C187.297 34.336 186.615 34.3787 186.113 34.464C185.623 34.5387 185.276 34.672 185.073 34.864C184.881 35.056 184.785 35.328 184.785 35.68C184.785 36.1173 184.935 36.4747 185.233 36.752C185.543 37.0293 185.959 37.168 186.481 37.168C186.908 37.168 187.281 37.0667 187.601 36.864C187.932 36.6613 188.188 36.384 188.369 36.032C188.561 35.68 188.657 35.2747 188.657 34.816V32.992C188.657 32.3307 188.524 31.856 188.257 31.568C187.991 31.2693 187.553 31.12 186.945 31.12C186.572 31.12 186.199 31.168 185.825 31.264C185.452 31.36 185.057 31.5147 184.641 31.728C184.492 31.8027 184.364 31.8293 184.257 31.808C184.151 31.776 184.065 31.7173 184.001 31.632C183.937 31.5467 183.9 31.4507 183.889 31.344C183.879 31.2267 183.9 31.1147 183.953 31.008C184.017 30.9013 184.113 30.816 184.241 30.752C184.711 30.5173 185.175 30.3467 185.633 30.24C186.092 30.1333 186.529 30.08 186.945 30.08C187.617 30.08 188.172 30.192 188.609 30.416C189.047 30.6293 189.372 30.96 189.585 31.408C189.799 31.8453 189.905 32.4107 189.905 33.104V37.44C189.905 37.6533 189.852 37.8187 189.745 37.936C189.649 38.0533 189.505 38.112 189.313 38.112C189.111 38.112 188.956 38.0533 188.849 37.936C188.743 37.8187 188.689 37.6533 188.689 37.44V36.192H188.833C188.748 36.5973 188.583 36.944 188.337 37.232C188.103 37.52 187.809 37.744 187.457 37.904C187.105 38.064 186.711 38.144 186.273 38.144ZM195.184 38.144C194.704 38.144 194.218 38.0853 193.728 37.968C193.248 37.8507 192.8 37.648 192.384 37.36C192.277 37.2853 192.202 37.2 192.16 37.104C192.117 36.9973 192.101 36.896 192.112 36.8C192.133 36.6933 192.176 36.6027 192.24 36.528C192.314 36.4533 192.4 36.4107 192.496 36.4C192.602 36.3787 192.72 36.4 192.848 36.464C193.264 36.72 193.664 36.9013 194.048 37.008C194.442 37.104 194.832 37.152 195.216 37.152C195.824 37.152 196.282 37.04 196.592 36.816C196.901 36.592 197.056 36.288 197.056 35.904C197.056 35.6053 196.954 35.3707 196.752 35.2C196.549 35.0187 196.229 34.88 195.792 34.784L194.336 34.464C193.664 34.3253 193.162 34.0853 192.832 33.744C192.512 33.4027 192.352 32.96 192.352 32.416C192.352 31.936 192.474 31.5253 192.72 31.184C192.976 30.832 193.333 30.56 193.792 30.368C194.25 30.176 194.784 30.08 195.392 30.08C195.861 30.08 196.304 30.144 196.72 30.272C197.146 30.3893 197.53 30.5813 197.872 30.848C197.978 30.9227 198.048 31.0133 198.08 31.12C198.122 31.216 198.128 31.3173 198.096 31.424C198.074 31.52 198.026 31.6053 197.952 31.68C197.877 31.744 197.786 31.7813 197.68 31.792C197.573 31.8027 197.461 31.7707 197.344 31.696C197.024 31.4827 196.698 31.328 196.368 31.232C196.037 31.1253 195.712 31.072 195.392 31.072C194.794 31.072 194.341 31.1893 194.032 31.424C193.722 31.6587 193.568 31.968 193.568 32.352C193.568 32.6507 193.664 32.896 193.856 33.088C194.048 33.28 194.346 33.4187 194.752 33.504L196.208 33.808C196.901 33.9573 197.418 34.1973 197.76 34.528C198.112 34.848 198.288 35.2853 198.288 35.84C198.288 36.544 198.005 37.104 197.44 37.52C196.874 37.936 196.122 38.144 195.184 38.144ZM203.137 38.144C202.657 38.144 202.172 38.0853 201.681 37.968C201.201 37.8507 200.753 37.648 200.337 37.36C200.23 37.2853 200.156 37.2 200.113 37.104C200.07 36.9973 200.054 36.896 200.065 36.8C200.086 36.6933 200.129 36.6027 200.193 36.528C200.268 36.4533 200.353 36.4107 200.449 36.4C200.556 36.3787 200.673 36.4 200.801 36.464C201.217 36.72 201.617 36.9013 202.001 37.008C202.396 37.104 202.785 37.152 203.169 37.152C203.777 37.152 204.236 37.04 204.545 36.816C204.854 36.592 205.009 36.288 205.009 35.904C205.009 35.6053 204.908 35.3707 204.705 35.2C204.502 35.0187 204.182 34.88 203.745 34.784L202.289 34.464C201.617 34.3253 201.116 34.0853 200.785 33.744C200.465 33.4027 200.305 32.96 200.305 32.416C200.305 31.936 200.428 31.5253 200.673 31.184C200.929 30.832 201.286 30.56 201.745 30.368C202.204 30.176 202.737 30.08 203.345 30.08C203.814 30.08 204.257 30.144 204.673 30.272C205.1 30.3893 205.484 30.5813 205.825 30.848C205.932 30.9227 206.001 31.0133 206.033 31.12C206.076 31.216 206.081 31.3173 206.049 31.424C206.028 31.52 205.98 31.6053 205.905 31.68C205.83 31.744 205.74 31.7813 205.633 31.792C205.526 31.8027 205.414 31.7707 205.297 31.696C204.977 31.4827 204.652 31.328 204.321 31.232C203.99 31.1253 203.665 31.072 203.345 31.072C202.748 31.072 202.294 31.1893 201.985 31.424C201.676 31.6587 201.521 31.968 201.521 32.352C201.521 32.6507 201.617 32.896 201.809 33.088C202.001 33.28 202.3 33.4187 202.705 33.504L204.161 33.808C204.854 33.9573 205.372 34.1973 205.713 34.528C206.065 34.848 206.241 35.2853 206.241 35.84C206.241 36.544 205.958 37.104 205.393 37.52C204.828 37.936 204.076 38.144 203.137 38.144ZM210.998 38.112C210.816 38.112 210.656 38.064 210.518 37.968C210.379 37.872 210.267 37.7173 210.182 37.504L207.798 31.024C207.734 30.8427 207.712 30.6827 207.734 30.544C207.766 30.4053 207.835 30.2987 207.942 30.224C208.048 30.1493 208.182 30.112 208.342 30.112C208.502 30.112 208.63 30.1493 208.726 30.224C208.832 30.2987 208.918 30.4373 208.982 30.64L211.222 37.04H210.838L213.142 30.64C213.216 30.448 213.307 30.3147 213.414 30.24C213.531 30.1547 213.68 30.112 213.862 30.112C214.032 30.112 214.176 30.1547 214.294 30.24C214.411 30.3253 214.502 30.4587 214.566 30.64L216.822 37.04H216.454L218.726 30.608C218.8 30.416 218.891 30.288 218.998 30.224C219.104 30.1493 219.232 30.112 219.382 30.112C219.552 30.112 219.68 30.1547 219.766 30.24C219.862 30.3253 219.915 30.4373 219.926 30.576C219.936 30.7147 219.91 30.864 219.846 31.024L217.462 37.504C217.387 37.7067 217.275 37.8613 217.126 37.968C216.987 38.064 216.827 38.112 216.646 38.112C216.464 38.112 216.304 38.064 216.166 37.968C216.027 37.8613 215.92 37.7067 215.846 37.504L213.478 31.008H214.166L211.814 37.504C211.739 37.7067 211.632 37.8613 211.494 37.968C211.355 38.064 211.19 38.112 210.998 38.112ZM225.136 38.144C224.378 38.144 223.722 37.9787 223.168 37.648C222.613 37.3173 222.181 36.8533 221.872 36.256C221.573 35.648 221.424 34.9333 221.424 34.112C221.424 33.4933 221.509 32.9387 221.68 32.448C221.85 31.9467 222.101 31.52 222.432 31.168C222.762 30.816 223.152 30.5493 223.6 30.368C224.058 30.176 224.57 30.08 225.136 30.08C225.893 30.08 226.549 30.2453 227.104 30.576C227.658 30.9067 228.085 31.376 228.384 31.984C228.693 32.5813 228.848 33.2907 228.848 34.112C228.848 34.7307 228.762 35.2853 228.592 35.776C228.421 36.2667 228.17 36.6933 227.84 37.056C227.509 37.408 227.114 37.68 226.656 37.872C226.208 38.0533 225.701 38.144 225.136 38.144ZM225.136 37.104C225.616 37.104 226.037 36.9867 226.4 36.752C226.762 36.5173 227.04 36.176 227.232 35.728C227.434 35.28 227.536 34.7413 227.536 34.112C227.536 33.1413 227.317 32.4 226.88 31.888C226.453 31.376 225.872 31.12 225.136 31.12C224.645 31.12 224.218 31.2373 223.856 31.472C223.504 31.696 223.226 32.032 223.024 32.48C222.832 32.9173 222.736 33.4613 222.736 34.112C222.736 35.072 222.954 35.8133 223.392 36.336C223.829 36.848 224.41 37.104 225.136 37.104ZM231.7 38.112C231.487 38.112 231.321 38.0533 231.204 37.936C231.097 37.8187 231.044 37.6533 231.044 37.44V30.768C231.044 30.5547 231.097 30.3947 231.204 30.288C231.311 30.1707 231.465 30.112 231.668 30.112C231.871 30.112 232.025 30.1707 232.132 30.288C232.249 30.3947 232.308 30.5547 232.308 30.768V32.064H232.148C232.319 31.4347 232.644 30.9493 233.124 30.608C233.604 30.2667 234.196 30.0853 234.9 30.064C235.06 30.0533 235.188 30.0907 235.284 30.176C235.38 30.2507 235.433 30.384 235.444 30.576C235.455 30.7573 235.412 30.9013 235.316 31.008C235.22 31.1147 235.071 31.1787 234.868 31.2L234.612 31.232C233.887 31.296 233.327 31.5307 232.932 31.936C232.548 32.3307 232.356 32.8747 232.356 33.568V37.44C232.356 37.6533 232.297 37.8187 232.18 37.936C232.073 38.0533 231.913 38.112 231.7 38.112ZM239.895 38.144C239.201 38.144 238.593 37.9787 238.071 37.648C237.559 37.3173 237.159 36.8533 236.871 36.256C236.593 35.648 236.455 34.9333 236.455 34.112C236.455 33.28 236.593 32.5653 236.871 31.968C237.159 31.36 237.559 30.896 238.071 30.576C238.593 30.2453 239.201 30.08 239.895 30.08C240.599 30.08 241.201 30.256 241.703 30.608C242.204 30.96 242.54 31.4347 242.711 32.032H242.535V27.264C242.535 27.0507 242.588 26.8907 242.695 26.784C242.812 26.6667 242.977 26.608 243.191 26.608C243.393 26.608 243.548 26.6667 243.655 26.784C243.772 26.8907 243.831 27.0507 243.831 27.264V37.44C243.831 37.6533 243.777 37.8187 243.671 37.936C243.564 38.0533 243.404 38.112 243.191 38.112C242.988 38.112 242.828 38.0533 242.711 37.936C242.604 37.8187 242.551 37.6533 242.551 37.44V35.92L242.727 36.144C242.556 36.752 242.215 37.2373 241.703 37.6C241.201 37.9627 240.599 38.144 239.895 38.144ZM240.167 37.104C240.647 37.104 241.068 36.9867 241.431 36.752C241.793 36.5173 242.071 36.176 242.263 35.728C242.465 35.28 242.567 34.7413 242.567 34.112C242.567 33.1413 242.348 32.4 241.911 31.888C241.484 31.376 240.903 31.12 240.167 31.12C239.676 31.12 239.249 31.2373 238.887 31.472C238.535 31.696 238.257 32.032 238.055 32.48C237.863 32.9173 237.767 33.4613 237.767 34.112C237.767 35.072 237.985 35.8133 238.423 36.336C238.86 36.848 239.441 37.104 240.167 37.104ZM247.137 38.064C246.87 38.064 246.657 37.984 246.497 37.824C246.337 37.6533 246.257 37.44 246.257 37.184C246.257 36.928 246.337 36.72 246.497 36.56C246.657 36.3893 246.87 36.304 247.137 36.304C247.404 36.304 247.612 36.3893 247.761 36.56C247.921 36.72 248.001 36.928 248.001 37.184C248.001 37.44 247.921 37.6533 247.761 37.824C247.612 37.984 247.404 38.064 247.137 38.064Z" fill="white"/>
</svg>
