<svg width="32" height="32" viewBox="0 0 32 32" fill="none" xmlns="http://www.w3.org/2000/svg">
<path d="M30.6667 2C31.0311 2 31.3422 2.13333 31.6 2.4C31.8667 2.65778 32 2.96889 32 3.33333V28.6667C32 29.0311 31.8667 29.3422 31.6 29.6C31.3422 29.8667 31.0311 30 30.6667 30H9.33333C8.96889 30 8.65778 29.8667 8.4 29.6C8.13333 29.3422 8 29.0311 8 28.6667V24H1.33333C0.968889 24 0.657778 23.8667 0.4 23.6C0.133333 23.3422 0 23.0311 0 22.6667V9.33333C0 8.96889 0.133333 8.65778 0.4 8.4C0.648889 8.13333 0.96 8 1.33333 8H8V3.33333C8 2.96889 8.13333 2.65778 8.4 2.4C8.65778 2.13333 8.96889 2 9.33333 2H30.6667ZM8 17.7067L9.89333 21.2533H12.7467L9.57333 16.0933L12.6933 11.0267H9.94667L8.21333 14.2267L8.14667 14.3333L8.09333 14.4533L7.24 12.7467L6.36 11.0267H3.45333L6.48 16.12L3.17333 21.2533H6.05333L8 17.7067ZM19 28V24H10V28H19ZM19 22V17H16V22H19ZM19 15V10H16V15H19ZM19 8V4H10V8H19ZM30 28V24H21V28H30ZM30 22V17H21V22H30ZM30 15V10H21V15H30ZM30 8V4H21V8H30Z" fill="#1F397A"/>
</svg>
