<svg width="327" height="93" viewBox="0 0 327 93" fill="none" xmlns="http://www.w3.org/2000/svg">
<rect y="0.804688" width="327" height="91.5219" rx="30" fill="#F3F2E9"/>
<rect x="15.2534" y="16.0583" width="61.0146" height="61.0146" rx="22.8805" fill="#EAE8DC"/>
<path d="M43.7705 38.9388H47.7507C48.5567 38.9388 49.0572 38.9387 49.4917 38.9959C50.6559 39.1492 51.7236 39.599 52.6171 40.2676L51.558 41.3267C50.4143 42.4704 49.5965 43.2872 48.9035 43.8755C48.219 44.4566 47.7193 44.7586 47.2336 44.9164C46.2762 45.2274 45.2449 45.2274 44.2876 44.9164C43.8019 44.7586 43.3022 44.4566 42.6177 43.8755C41.9247 43.2872 41.1069 42.4704 39.9631 41.3267L38.9041 40.2676C39.7976 39.599 40.8653 39.1492 42.0295 38.9959C42.464 38.9387 42.9645 38.9388 43.7705 38.9388Z" fill="#647067"/>
<path d="M37.5558 41.6159C36.8872 42.5093 36.4374 43.5771 36.2842 44.7413C36.227 45.1757 36.227 45.6763 36.2271 46.4823V46.649C36.227 47.455 36.227 47.9556 36.2842 48.3901C36.6784 51.3847 39.0349 53.7412 42.0295 54.1354C42.464 54.1926 42.9645 54.1926 43.7705 54.1925H47.7506C48.5566 54.1926 49.0572 54.1926 49.4917 54.1354C52.4863 53.7412 54.8428 51.3847 55.237 48.3901C55.2942 47.9556 55.2942 47.455 55.2941 46.6491V46.4823C55.2942 45.6763 55.2942 45.1757 55.237 44.7413C55.0838 43.5771 54.6339 42.5093 53.9653 41.6158L52.8764 42.7048C51.7691 43.8121 50.8968 44.6844 50.1375 45.329C49.3628 45.9867 48.6432 46.4632 47.8228 46.7298C46.4825 47.1652 45.0387 47.1652 43.6984 46.7298C42.878 46.4632 42.1584 45.9867 41.3837 45.329C40.6244 44.6844 39.7521 43.8121 38.6448 42.7049L37.5558 41.6159Z" fill="#647067"/>
<path d="M94.5356 41.1589C94.0894 41.1589 93.7462 41.0388 93.5059 40.7986C93.2657 40.5583 93.1456 40.2151 93.1456 39.7689V30.4509C93.1456 30.0047 93.2657 29.6615 93.5059 29.4213C93.7462 29.181 94.0894 29.0609 94.5356 29.0609H100.525C100.868 29.0609 101.125 29.1524 101.297 29.3355C101.48 29.5071 101.571 29.7587 101.571 30.0905C101.571 30.4337 101.48 30.6968 101.297 30.8799C101.125 31.0515 100.868 31.1373 100.525 31.1373H95.6853V33.9687H100.13C100.484 33.9687 100.748 34.0603 100.919 34.2433C101.102 34.4149 101.194 34.6723 101.194 35.0155C101.194 35.3587 101.102 35.6219 100.919 35.8049C100.748 35.9765 100.484 36.0623 100.13 36.0623H95.6853V39.0825H100.525C100.868 39.0825 101.125 39.1741 101.297 39.3571C101.48 39.5287 101.571 39.7804 101.571 40.1122C101.571 40.4554 101.48 40.7185 101.297 40.9015C101.125 41.0731 100.868 41.1589 100.525 41.1589H94.5356ZM104.308 41.3134C103.885 41.3134 103.559 41.199 103.33 40.9702C103.112 40.7414 103.004 40.4153 103.004 39.992V33.9001C103.004 33.4768 103.112 33.1565 103.33 32.9391C103.559 32.7103 103.873 32.5959 104.274 32.5959C104.685 32.5959 105 32.7103 105.217 32.9391C105.435 33.1565 105.543 33.4768 105.543 33.9001V34.9984L105.355 34.312C105.583 33.7857 105.938 33.3624 106.419 33.0421C106.899 32.7218 107.465 32.5616 108.117 32.5616C108.77 32.5616 109.313 32.716 109.748 33.0249C110.182 33.3338 110.491 33.8086 110.674 34.4492H110.434C110.686 33.8658 111.069 33.4082 111.584 33.0764C112.11 32.7332 112.711 32.5616 113.386 32.5616C114.038 32.5616 114.57 32.6932 114.982 32.9563C115.405 33.208 115.719 33.5969 115.925 34.1232C116.131 34.638 116.234 35.2958 116.234 36.0966V39.992C116.234 40.4153 116.12 40.7414 115.891 40.9702C115.674 41.199 115.359 41.3134 114.947 41.3134C114.524 41.3134 114.198 41.199 113.969 40.9702C113.752 40.7414 113.643 40.4153 113.643 39.992V36.1824C113.643 35.6219 113.552 35.2157 113.369 34.964C113.197 34.7009 112.899 34.5694 112.476 34.5694C111.984 34.5694 111.601 34.741 111.326 35.0842C111.052 35.4274 110.915 35.9136 110.915 36.5428V39.992C110.915 40.4153 110.8 40.7414 110.571 40.9702C110.354 41.199 110.039 41.3134 109.628 41.3134C109.216 41.3134 108.895 41.199 108.667 40.9702C108.438 40.7414 108.323 40.4153 108.323 39.992V36.1824C108.323 35.6219 108.232 35.2157 108.049 34.964C107.877 34.7009 107.58 34.5694 107.156 34.5694C106.665 34.5694 106.281 34.741 106.007 35.0842C105.732 35.4274 105.595 35.9136 105.595 36.5428V39.992C105.595 40.8729 105.166 41.3134 104.308 41.3134ZM120.725 41.3477C120.107 41.3477 119.552 41.2276 119.06 40.9873C118.568 40.7471 118.185 40.421 117.91 40.0092C117.636 39.5973 117.499 39.134 117.499 38.6192C117.499 38.0014 117.659 37.5152 117.979 37.1606C118.299 36.7945 118.82 36.5371 119.541 36.3884C120.261 36.2282 121.217 36.1481 122.406 36.1481H123.316V37.4866H122.424C121.84 37.4866 121.365 37.5209 120.999 37.5896C120.645 37.6468 120.387 37.7497 120.227 37.8985C120.078 38.0472 120.004 38.2531 120.004 38.5162C120.004 38.8366 120.113 39.0997 120.33 39.3056C120.559 39.5115 120.885 39.6145 121.308 39.6145C121.64 39.6145 121.932 39.5401 122.183 39.3914C122.446 39.2313 122.652 39.0196 122.801 38.7565C122.95 38.4819 123.024 38.173 123.024 37.8298V35.8564C123.024 35.353 122.91 34.9984 122.681 34.7924C122.452 34.5751 122.063 34.4664 121.514 34.4664C121.205 34.4664 120.868 34.5064 120.502 34.5865C120.147 34.6552 119.752 34.7753 119.318 34.9469C119.066 35.0613 118.843 35.0899 118.648 35.0327C118.454 34.964 118.305 34.8496 118.202 34.6895C118.099 34.5179 118.048 34.3348 118.048 34.1404C118.048 33.9344 118.105 33.7399 118.219 33.5569C118.334 33.3624 118.522 33.2194 118.786 33.1279C119.323 32.9105 119.827 32.7618 120.296 32.6817C120.776 32.6016 121.217 32.5616 121.617 32.5616C122.498 32.5616 123.219 32.6932 123.779 32.9563C124.351 33.208 124.78 33.6027 125.066 34.1404C125.352 34.6666 125.495 35.3473 125.495 36.1824V39.992C125.495 40.4153 125.392 40.7414 125.186 40.9702C124.98 41.199 124.683 41.3134 124.294 41.3134C123.905 41.3134 123.602 41.199 123.385 40.9702C123.179 40.7414 123.076 40.4153 123.076 39.992V39.3571L123.196 39.4601C123.127 39.849 122.978 40.1865 122.75 40.4725C122.532 40.7471 122.252 40.9645 121.909 41.1246C121.566 41.2733 121.171 41.3477 120.725 41.3477ZM128.389 41.2962C127.966 41.2962 127.64 41.1761 127.411 40.9359C127.194 40.6842 127.085 40.3352 127.085 39.8891V34.0202C127.085 33.5626 127.194 33.2137 127.411 32.9734C127.64 32.7218 127.966 32.5959 128.389 32.5959C128.801 32.5959 129.116 32.7218 129.333 32.9734C129.562 33.2137 129.676 33.5626 129.676 34.0202V39.8891C129.676 40.3352 129.568 40.6842 129.35 40.9359C129.133 41.1761 128.812 41.2962 128.389 41.2962ZM128.389 31.1888C127.909 31.1888 127.537 31.0801 127.274 30.8627C127.022 30.6339 126.896 30.3136 126.896 29.9017C126.896 29.4785 127.022 29.1581 127.274 28.9408C127.537 28.712 127.909 28.5976 128.389 28.5976C128.87 28.5976 129.236 28.712 129.487 28.9408C129.739 29.1581 129.865 29.4785 129.865 29.9017C129.865 30.3136 129.739 30.6339 129.487 30.8627C129.236 31.0801 128.87 31.1888 128.389 31.1888ZM134.371 41.3477C133.353 41.3477 132.592 41.0674 132.089 40.5068C131.585 39.9348 131.334 39.0883 131.334 37.9671V30.2278C131.334 29.7931 131.442 29.467 131.66 29.2497C131.888 29.0208 132.214 28.9064 132.638 28.9064C133.05 28.9064 133.364 29.0208 133.582 29.2497C133.81 29.467 133.925 29.7931 133.925 30.2278V37.8641C133.925 38.3332 134.022 38.6821 134.216 38.9109C134.422 39.1283 134.691 39.237 135.023 39.237C135.115 39.237 135.2 39.2313 135.28 39.2198C135.36 39.2084 135.446 39.2027 135.538 39.2027C135.721 39.1798 135.847 39.237 135.915 39.3743C135.995 39.5001 136.035 39.7575 136.035 40.1465C136.035 40.4897 135.967 40.7528 135.83 40.9359C135.692 41.1075 135.481 41.2219 135.195 41.2791C135.08 41.2905 134.949 41.3019 134.8 41.3134C134.651 41.3363 134.508 41.3477 134.371 41.3477ZM141.721 41.3134C141.4 41.3134 141.137 41.239 140.931 41.0903C140.737 40.9416 140.611 40.7414 140.554 40.4897C140.508 40.238 140.56 39.9577 140.708 39.6488L145.101 30.0219C145.284 29.6329 145.502 29.3526 145.753 29.181C146.005 28.998 146.297 28.9064 146.629 28.9064C146.96 28.9064 147.252 28.998 147.504 29.181C147.755 29.3526 147.967 29.6329 148.139 30.0219L152.566 39.6488C152.715 39.9577 152.766 40.2437 152.721 40.5068C152.686 40.7585 152.572 40.9587 152.377 41.1075C152.183 41.2447 151.931 41.3134 151.622 41.3134C151.233 41.3134 150.93 41.2219 150.713 41.0388C150.507 40.8558 150.324 40.5698 150.164 40.1808L149.134 37.7955L150.198 38.5334H143.042L144.106 37.7955L143.094 40.1808C142.922 40.5812 142.739 40.8729 142.544 41.056C142.361 41.2276 142.087 41.3134 141.721 41.3134ZM146.594 31.8923L144.398 37.1263L143.934 36.457H149.306L148.842 37.1263L146.629 31.8923H146.594ZM156.926 41.3477C156.193 41.3477 155.547 41.1704 154.987 40.8157C154.437 40.4611 154.008 39.952 153.699 39.2885C153.391 38.6249 153.236 37.8413 153.236 36.9375C153.236 36.0337 153.391 35.2558 153.699 34.6037C154.008 33.9516 154.437 33.4482 154.987 33.0936C155.547 32.7389 156.193 32.5616 156.926 32.5616C157.589 32.5616 158.173 32.7218 158.676 33.0421C159.191 33.3624 159.54 33.78 159.723 34.2948H159.534V30.2278C159.534 29.7931 159.643 29.467 159.86 29.2497C160.077 29.0208 160.398 28.9064 160.821 28.9064C161.233 28.9064 161.553 29.0208 161.782 29.2497C162.011 29.467 162.125 29.7931 162.125 30.2278V39.992C162.125 40.4153 162.011 40.7414 161.782 40.9702C161.565 41.199 161.25 41.3134 160.838 41.3134C160.426 41.3134 160.106 41.199 159.877 40.9702C159.66 40.7414 159.551 40.4153 159.551 39.992V38.8251L159.74 39.4944C159.58 40.055 159.237 40.5068 158.71 40.85C158.195 41.1818 157.601 41.3477 156.926 41.3477ZM157.698 39.4086C158.075 39.4086 158.401 39.3171 158.676 39.134C158.951 38.951 159.168 38.6821 159.328 38.3275C159.488 37.9614 159.568 37.4981 159.568 36.9375C159.568 36.1024 159.397 35.4903 159.054 35.1013C158.71 34.7009 158.258 34.5007 157.698 34.5007C157.332 34.5007 157.006 34.5865 156.72 34.7581C156.445 34.9297 156.228 35.1986 156.068 35.5647C155.919 35.9193 155.845 36.3769 155.845 36.9375C155.845 37.7726 156.016 38.3961 156.359 38.808C156.703 39.2084 157.149 39.4086 157.698 39.4086ZM167.056 41.3477C166.324 41.3477 165.678 41.1704 165.117 40.8157C164.568 40.4611 164.139 39.952 163.83 39.2885C163.521 38.6249 163.367 37.8413 163.367 36.9375C163.367 36.0337 163.521 35.2558 163.83 34.6037C164.139 33.9516 164.568 33.4482 165.117 33.0936C165.678 32.7389 166.324 32.5616 167.056 32.5616C167.72 32.5616 168.303 32.7218 168.807 33.0421C169.321 33.3624 169.67 33.78 169.853 34.2948H169.665V30.2278C169.665 29.7931 169.773 29.467 169.991 29.2497C170.208 29.0208 170.528 28.9064 170.952 28.9064C171.364 28.9064 171.684 29.0208 171.913 29.2497C172.141 29.467 172.256 29.7931 172.256 30.2278V39.992C172.256 40.4153 172.141 40.7414 171.913 40.9702C171.695 41.199 171.381 41.3134 170.969 41.3134C170.557 41.3134 170.237 41.199 170.008 40.9702C169.79 40.7414 169.682 40.4153 169.682 39.992V38.8251L169.871 39.4944C169.71 40.055 169.367 40.5068 168.841 40.85C168.326 41.1818 167.731 41.3477 167.056 41.3477ZM167.828 39.4086C168.206 39.4086 168.532 39.3171 168.807 39.134C169.081 38.951 169.299 38.6821 169.459 38.3275C169.619 37.9614 169.699 37.4981 169.699 36.9375C169.699 36.1024 169.527 35.4903 169.184 35.1013C168.841 34.7009 168.389 34.5007 167.828 34.5007C167.462 34.5007 167.136 34.5865 166.85 34.7581C166.576 34.9297 166.358 35.1986 166.198 35.5647C166.05 35.9193 165.975 36.3769 165.975 36.9375C165.975 37.7726 166.147 38.3961 166.49 38.808C166.833 39.2084 167.279 39.4086 167.828 39.4086ZM175.248 41.3134C174.813 41.3134 174.481 41.199 174.252 40.9702C174.024 40.7414 173.909 40.4153 173.909 39.992V33.9001C173.909 33.4768 174.018 33.1565 174.235 32.9391C174.464 32.7103 174.779 32.5959 175.179 32.5959C175.591 32.5959 175.906 32.7103 176.123 32.9391C176.34 33.1565 176.449 33.4768 176.449 33.9001V34.7924H176.277C176.415 34.106 176.718 33.5741 177.187 33.1965C177.656 32.819 178.262 32.6074 179.006 32.5616C179.292 32.5387 179.509 32.6131 179.658 32.7847C179.818 32.9448 179.904 33.2137 179.915 33.5912C179.938 33.9459 179.864 34.2262 179.692 34.4321C179.532 34.638 179.258 34.7638 178.869 34.8096L178.474 34.8439C177.822 34.9011 177.336 35.0899 177.015 35.4102C176.706 35.7305 176.552 36.1939 176.552 36.8002V39.992C176.552 40.4153 176.438 40.7414 176.209 40.9702C175.991 41.199 175.671 41.3134 175.248 41.3134ZM184.863 41.3477C183.868 41.3477 183.01 41.1704 182.289 40.8157C181.58 40.4496 181.031 39.9406 180.642 39.2885C180.264 38.6249 180.075 37.847 180.075 36.9546C180.075 36.0852 180.258 35.3244 180.624 34.6723C180.991 34.0088 181.5 33.494 182.152 33.1279C182.815 32.7504 183.565 32.5616 184.4 32.5616C185.006 32.5616 185.555 32.6646 186.047 32.8705C186.539 33.065 186.962 33.351 187.317 33.7285C187.672 34.0946 187.941 34.5465 188.124 35.0842C188.307 35.6104 188.398 36.1996 188.398 36.8517C188.398 37.0691 188.329 37.2349 188.192 37.3493C188.055 37.4523 187.855 37.5038 187.592 37.5038H182.203V36.1653H186.528L186.253 36.4055C186.253 35.9365 186.184 35.5475 186.047 35.2386C185.91 34.9183 185.71 34.678 185.447 34.5179C185.195 34.3577 184.88 34.2776 184.503 34.2776C184.079 34.2776 183.719 34.3749 183.422 34.5694C183.124 34.7638 182.895 35.0441 182.735 35.4102C182.575 35.7763 182.495 36.2168 182.495 36.7316V36.8688C182.495 37.7383 182.695 38.379 183.096 38.7908C183.507 39.2027 184.114 39.4086 184.915 39.4086C185.189 39.4086 185.504 39.3743 185.858 39.3056C186.213 39.237 186.545 39.1283 186.854 38.9796C187.117 38.8537 187.351 38.8137 187.557 38.8594C187.763 38.8938 187.923 38.9853 188.038 39.134C188.152 39.2827 188.215 39.4543 188.227 39.6488C188.249 39.8433 188.209 40.0378 188.106 40.2323C188.003 40.4153 187.832 40.5698 187.592 40.6956C187.203 40.913 186.762 41.0731 186.27 41.1761C185.79 41.2905 185.321 41.3477 184.863 41.3477ZM192.788 41.3477C192.285 41.3477 191.764 41.3019 191.227 41.2104C190.7 41.1189 190.22 40.9645 189.785 40.7471C189.556 40.6327 189.39 40.4897 189.288 40.3181C189.196 40.135 189.156 39.952 189.167 39.7689C189.179 39.5859 189.236 39.42 189.339 39.2713C189.453 39.1226 189.596 39.0253 189.768 38.9796C189.951 38.9224 190.151 38.9395 190.369 39.0311C190.838 39.2255 191.267 39.3628 191.656 39.4429C192.045 39.523 192.428 39.563 192.805 39.563C193.297 39.563 193.652 39.4887 193.869 39.3399C194.098 39.1798 194.213 38.9739 194.213 38.7222C194.213 38.4934 194.138 38.3218 193.989 38.2074C193.841 38.093 193.623 38.0129 193.337 37.9671L191.536 37.6411C190.826 37.5152 190.277 37.2578 189.888 36.8688C189.511 36.4684 189.322 35.9593 189.322 35.3416C189.322 34.7696 189.482 34.2776 189.802 33.8658C190.123 33.4425 190.563 33.1222 191.124 32.9048C191.696 32.676 192.342 32.5616 193.063 32.5616C193.578 32.5616 194.052 32.6074 194.487 32.6989C194.922 32.7904 195.339 32.9391 195.74 33.1451C195.946 33.248 196.089 33.3853 196.169 33.5569C196.26 33.7285 196.289 33.9058 196.255 34.0889C196.232 34.2719 196.163 34.4378 196.049 34.5865C195.934 34.7352 195.786 34.8325 195.603 34.8782C195.431 34.924 195.231 34.9011 195.002 34.8096C194.636 34.638 194.298 34.5179 193.989 34.4492C193.681 34.3692 193.383 34.3291 193.097 34.3291C192.582 34.3291 192.21 34.4149 191.982 34.5865C191.753 34.7467 191.638 34.9526 191.638 35.2043C191.638 35.3988 191.701 35.5647 191.827 35.7019C191.965 35.8278 192.17 35.9136 192.445 35.9593L194.247 36.2854C194.99 36.4112 195.557 36.6629 195.946 37.0405C196.335 37.4065 196.529 37.9099 196.529 38.5506C196.529 39.42 196.186 40.1064 195.5 40.6098C194.825 41.1017 193.921 41.3477 192.788 41.3477ZM200.891 41.3477C200.388 41.3477 199.867 41.3019 199.33 41.2104C198.803 41.1189 198.323 40.9645 197.888 40.7471C197.659 40.6327 197.493 40.4897 197.39 40.3181C197.299 40.135 197.259 39.952 197.27 39.7689C197.282 39.5859 197.339 39.42 197.442 39.2713C197.556 39.1226 197.699 39.0253 197.871 38.9796C198.054 38.9224 198.254 38.9395 198.471 39.0311C198.941 39.2255 199.37 39.3628 199.759 39.4429C200.147 39.523 200.531 39.563 200.908 39.563C201.4 39.563 201.755 39.4887 201.972 39.3399C202.201 39.1798 202.315 38.9739 202.315 38.7222C202.315 38.4934 202.241 38.3218 202.092 38.2074C201.944 38.093 201.726 38.0129 201.44 37.9671L199.638 37.6411C198.929 37.5152 198.38 37.2578 197.991 36.8688C197.613 36.4684 197.425 35.9593 197.425 35.3416C197.425 34.7696 197.585 34.2776 197.905 33.8658C198.226 33.4425 198.666 33.1222 199.227 32.9048C199.799 32.676 200.445 32.5616 201.166 32.5616C201.68 32.5616 202.155 32.6074 202.59 32.6989C203.025 32.7904 203.442 32.9391 203.843 33.1451C204.049 33.248 204.192 33.3853 204.272 33.5569C204.363 33.7285 204.392 33.9058 204.357 34.0889C204.335 34.2719 204.266 34.4378 204.152 34.5865C204.037 34.7352 203.888 34.8325 203.705 34.8782C203.534 34.924 203.334 34.9011 203.105 34.8096C202.739 34.638 202.401 34.5179 202.092 34.4492C201.783 34.3692 201.486 34.3291 201.2 34.3291C200.685 34.3291 200.313 34.4149 200.085 34.5865C199.856 34.7467 199.741 34.9526 199.741 35.2043C199.741 35.3988 199.804 35.5647 199.93 35.7019C200.067 35.8278 200.273 35.9136 200.548 35.9593L202.35 36.2854C203.093 36.4112 203.66 36.6629 204.049 37.0405C204.438 37.4065 204.632 37.9099 204.632 38.5506C204.632 39.42 204.289 40.1064 203.602 40.6098C202.927 41.1017 202.024 41.3477 200.891 41.3477Z" fill="#2F3C33"/>
<path d="M96.0635 64.0924C95.6542 64.0924 95.2538 64.0613 94.8623 63.999C94.4708 63.9367 94.1015 63.8433 93.7545 63.7187C93.4075 63.5852 93.0961 63.4251 92.8202 63.2382C92.6868 63.1403 92.5933 63.0291 92.5399 62.9045C92.4954 62.78 92.4821 62.6598 92.4999 62.5442C92.5266 62.4196 92.58 62.3128 92.6601 62.2238C92.7401 62.1349 92.838 62.0815 92.9537 62.0637C93.0694 62.037 93.1984 62.0726 93.3408 62.1705C93.7412 62.4285 94.1638 62.6198 94.6087 62.7444C95.0536 62.86 95.5386 62.9179 96.0635 62.9179C96.8199 62.9179 97.376 62.7844 97.7319 62.5175C98.0967 62.2416 98.2791 61.8857 98.2791 61.4497C98.2791 61.0938 98.1501 60.8135 97.8921 60.6089C97.634 60.3953 97.2025 60.2262 96.5974 60.1017L95.1693 59.808C94.324 59.6301 93.6922 59.3365 93.274 58.9271C92.8647 58.5178 92.6601 57.9662 92.6601 57.2721C92.6601 56.8539 92.7446 56.4713 92.9137 56.1243C93.0916 55.7773 93.3363 55.4792 93.6477 55.23C93.9592 54.972 94.3329 54.7762 94.7689 54.6428C95.2049 54.5093 95.6809 54.4426 96.197 54.4426C96.7487 54.4426 97.2648 54.5138 97.7452 54.6561C98.2346 54.7985 98.6706 55.0165 99.0532 55.3101C99.1689 55.3902 99.2445 55.4925 99.2801 55.6171C99.3246 55.7328 99.3335 55.8485 99.3068 55.9641C99.289 56.0798 99.2401 56.1777 99.16 56.2578C99.0799 56.3378 98.9776 56.3868 98.853 56.4046C98.7285 56.4135 98.5906 56.369 98.4393 56.2711C98.0923 56.0398 97.7363 55.8751 97.3715 55.7773C97.0156 55.6705 96.6197 55.6171 96.1837 55.6171C95.7477 55.6171 95.365 55.6838 95.0358 55.8173C94.7155 55.9508 94.4663 56.1376 94.2884 56.3779C94.1193 56.6181 94.0348 56.9029 94.0348 57.2321C94.0348 57.6058 94.1549 57.9039 94.3952 58.1263C94.6354 58.3488 95.0358 58.5178 95.5964 58.6335L97.0112 58.9271C97.901 59.114 98.5639 59.4032 98.9999 59.7947C99.4359 60.1862 99.6539 60.7067 99.6539 61.3563C99.6539 61.7745 99.5693 62.1527 99.4003 62.4908C99.2312 62.82 98.991 63.1047 98.6795 63.345C98.3681 63.5852 97.9899 63.7721 97.545 63.9056C97.109 64.0301 96.6152 64.0924 96.0635 64.0924ZM104.006 64.0924C103.294 64.0924 102.68 63.9589 102.164 63.692C101.657 63.4162 101.261 63.0291 100.976 62.5308C100.7 62.0236 100.562 61.423 100.562 60.729C100.562 60.0527 100.7 59.461 100.976 58.9538C101.252 58.4467 101.63 58.0507 102.111 57.766C102.591 57.4812 103.138 57.3389 103.752 57.3389C104.206 57.3389 104.611 57.4145 104.967 57.5658C105.323 57.7081 105.625 57.9217 105.874 58.2064C106.133 58.4822 106.324 58.8204 106.448 59.2208C106.582 59.6212 106.649 60.0705 106.649 60.5688C106.649 60.7201 106.604 60.8358 106.515 60.9158C106.426 60.987 106.293 61.0226 106.115 61.0226H101.63V60.1951H105.741L105.514 60.382C105.514 59.9371 105.447 59.5589 105.314 59.2475C105.189 58.936 104.998 58.7002 104.74 58.5401C104.491 58.371 104.179 58.2865 103.806 58.2865C103.387 58.2865 103.032 58.3844 102.738 58.5801C102.453 58.7759 102.235 59.0473 102.084 59.3943C101.933 59.7413 101.857 60.1462 101.857 60.6089V60.6889C101.857 61.472 102.039 62.0637 102.404 62.4641C102.778 62.8556 103.316 63.0514 104.019 63.0514C104.286 63.0514 104.566 63.0158 104.86 62.9446C105.163 62.8734 105.447 62.7533 105.714 62.5842C105.866 62.4952 105.999 62.4552 106.115 62.4641C106.239 62.473 106.337 62.513 106.408 62.5842C106.488 62.6554 106.537 62.7444 106.555 62.8511C106.573 62.9579 106.555 63.0691 106.502 63.1848C106.448 63.2916 106.355 63.3895 106.221 63.4785C105.919 63.6831 105.567 63.8388 105.167 63.9456C104.767 64.0435 104.38 64.0924 104.006 64.0924ZM108.652 64.0657C108.439 64.0657 108.274 64.0079 108.158 63.8922C108.043 63.7676 107.985 63.5986 107.985 63.385V58.0462C107.985 57.8238 108.043 57.6547 108.158 57.5391C108.274 57.4234 108.434 57.3656 108.639 57.3656C108.852 57.3656 109.012 57.4234 109.119 57.5391C109.235 57.6547 109.293 57.8238 109.293 58.0462V59.0873L109.146 58.8471C109.342 58.3488 109.649 57.9751 110.067 57.7259C110.485 57.4679 110.966 57.3389 111.508 57.3389C112.024 57.3389 112.452 57.4367 112.79 57.6325C113.137 57.8194 113.395 58.1085 113.564 58.5C113.733 58.8827 113.817 59.3676 113.817 59.9549V63.385C113.817 63.5986 113.76 63.7676 113.644 63.8922C113.528 64.0079 113.364 64.0657 113.15 64.0657C112.928 64.0657 112.758 64.0079 112.643 63.8922C112.527 63.7676 112.469 63.5986 112.469 63.385V60.0349C112.469 59.4744 112.358 59.0651 112.136 58.807C111.922 58.549 111.584 58.42 111.121 58.42C110.578 58.42 110.142 58.589 109.813 58.9271C109.493 59.2653 109.333 59.7191 109.333 60.2885V63.385C109.333 63.8388 109.106 64.0657 108.652 64.0657ZM118.024 64.0924C117.454 64.0924 116.952 63.9589 116.516 63.692C116.089 63.4162 115.755 63.0247 115.515 62.5175C115.274 62.0014 115.154 61.4008 115.154 60.7156C115.154 60.0127 115.274 59.4121 115.515 58.9138C115.755 58.4155 116.089 58.0285 116.516 57.7526C116.952 57.4768 117.454 57.3389 118.024 57.3389C118.593 57.3389 119.083 57.4812 119.492 57.766C119.91 58.0418 120.191 58.4155 120.333 58.8871H120.186V55.15C120.186 54.9275 120.244 54.7585 120.36 54.6428C120.475 54.5271 120.64 54.4693 120.853 54.4693C121.067 54.4693 121.232 54.5271 121.347 54.6428C121.472 54.7585 121.534 54.9275 121.534 55.15V63.385C121.534 63.5986 121.476 63.7676 121.361 63.8922C121.245 64.0079 121.08 64.0657 120.867 64.0657C120.653 64.0657 120.489 64.0079 120.373 63.8922C120.257 63.7676 120.199 63.5986 120.199 63.385V62.2105L120.346 62.5041C120.204 62.9846 119.924 63.3717 119.505 63.6653C119.096 63.95 118.602 64.0924 118.024 64.0924ZM118.371 63.0514C118.736 63.0514 119.056 62.9624 119.332 62.7844C119.608 62.6065 119.821 62.344 119.973 61.9969C120.133 61.6499 120.213 61.2228 120.213 60.7156C120.213 59.9504 120.044 59.372 119.706 58.9805C119.368 58.589 118.923 58.3933 118.371 58.3933C117.997 58.3933 117.672 58.4822 117.397 58.6602C117.121 58.8293 116.903 59.0873 116.743 59.4343C116.591 59.7814 116.516 60.2085 116.516 60.7156C116.516 61.472 116.685 62.0503 117.023 62.4507C117.361 62.8511 117.81 63.0514 118.371 63.0514ZM129.202 64.0657C129.015 64.0657 128.85 64.0168 128.708 63.9189C128.575 63.821 128.463 63.6698 128.374 63.4651L126.145 58.2865C126.074 58.1263 126.048 57.9751 126.065 57.8327C126.083 57.6903 126.15 57.5791 126.266 57.499C126.381 57.41 126.537 57.3656 126.733 57.3656C126.902 57.3656 127.035 57.4056 127.133 57.4857C127.231 57.5658 127.32 57.7037 127.4 57.8994L129.415 62.8645H129.042L131.097 57.8994C131.177 57.7037 131.266 57.5658 131.364 57.4857C131.471 57.4056 131.618 57.3656 131.805 57.3656C131.965 57.3656 132.089 57.41 132.178 57.499C132.276 57.5791 132.334 57.6903 132.352 57.8327C132.378 57.9662 132.356 58.113 132.285 58.2731L130.029 63.4651C129.949 63.6698 129.838 63.821 129.696 63.9189C129.553 64.0168 129.389 64.0657 129.202 64.0657ZM134.147 64.0524C133.934 64.0524 133.769 63.9901 133.654 63.8655C133.538 63.732 133.48 63.5496 133.48 63.3183V58.113C133.48 57.8816 133.538 57.7037 133.654 57.5791C133.769 57.4545 133.934 57.3922 134.147 57.3922C134.361 57.3922 134.526 57.4545 134.641 57.5791C134.766 57.7037 134.828 57.8816 134.828 58.113V63.3183C134.828 63.5496 134.77 63.732 134.655 63.8655C134.539 63.9901 134.37 64.0524 134.147 64.0524ZM134.147 56.0042C133.88 56.0042 133.671 55.9374 133.52 55.804C133.378 55.6705 133.306 55.4836 133.306 55.2434C133.306 54.9942 133.378 54.8074 133.52 54.6828C133.671 54.5494 133.88 54.4826 134.147 54.4826C134.414 54.4826 134.619 54.5494 134.761 54.6828C134.913 54.8074 134.988 54.9942 134.988 55.2434C134.988 55.4836 134.913 55.6705 134.761 55.804C134.619 55.9374 134.414 56.0042 134.147 56.0042ZM138.674 64.0924C138.22 64.0924 137.811 64.0034 137.446 63.8255C137.09 63.6475 136.81 63.4073 136.605 63.1047C136.401 62.8022 136.298 62.4596 136.298 62.077C136.298 61.5965 136.419 61.2184 136.659 60.9425C136.908 60.6578 137.313 60.4576 137.873 60.3419C138.443 60.2174 139.208 60.1551 140.169 60.1551H140.796V60.9826H140.182C139.542 60.9826 139.035 61.0137 138.661 61.076C138.287 61.1383 138.02 61.2451 137.86 61.3963C137.709 61.5387 137.633 61.7389 137.633 61.9969C137.633 62.3351 137.749 62.6109 137.98 62.8245C138.211 63.0291 138.532 63.1314 138.941 63.1314C139.27 63.1314 139.559 63.0558 139.809 62.9045C140.058 62.7444 140.254 62.5308 140.396 62.2639C140.547 61.9969 140.623 61.69 140.623 61.3429V59.808C140.623 59.3009 140.516 58.936 140.302 58.7136C140.089 58.4911 139.737 58.3799 139.248 58.3799C138.963 58.3799 138.665 58.4155 138.354 58.4867C138.051 58.5579 137.735 58.678 137.406 58.8471C137.255 58.9182 137.126 58.9405 137.019 58.9138C136.912 58.8871 136.828 58.8293 136.766 58.7403C136.703 58.6424 136.668 58.5401 136.659 58.4333C136.659 58.3176 136.685 58.2064 136.739 58.0996C136.801 57.9929 136.903 57.9128 137.046 57.8594C137.437 57.6725 137.824 57.5391 138.207 57.459C138.59 57.3789 138.95 57.3389 139.288 57.3389C139.884 57.3389 140.374 57.4323 140.756 57.6191C141.148 57.806 141.437 58.0907 141.624 58.4734C141.811 58.856 141.904 59.3498 141.904 59.9549V63.385C141.904 63.5986 141.851 63.7676 141.744 63.8922C141.637 64.0079 141.481 64.0657 141.277 64.0657C141.081 64.0657 140.925 64.0079 140.81 63.8922C140.694 63.7676 140.636 63.5986 140.636 63.385V62.5175H140.756C140.685 62.8467 140.552 63.1314 140.356 63.3717C140.169 63.603 139.933 63.781 139.648 63.9056C139.364 64.0301 139.039 64.0924 138.674 64.0924ZM150.07 64.0924C149.358 64.0924 148.744 63.9589 148.228 63.692C147.72 63.4162 147.324 63.0291 147.04 62.5308C146.764 62.0236 146.626 61.423 146.626 60.729C146.626 60.0527 146.764 59.461 147.04 58.9538C147.316 58.4467 147.694 58.0507 148.174 57.766C148.655 57.4812 149.202 57.3389 149.816 57.3389C150.27 57.3389 150.675 57.4145 151.03 57.5658C151.386 57.7081 151.689 57.9217 151.938 58.2064C152.196 58.4822 152.387 58.8204 152.512 59.2208C152.645 59.6212 152.712 60.0705 152.712 60.5688C152.712 60.7201 152.668 60.8358 152.579 60.9158C152.49 60.987 152.356 61.0226 152.178 61.0226H147.694V60.1951H151.805L151.578 60.382C151.578 59.9371 151.511 59.5589 151.378 59.2475C151.253 58.936 151.062 58.7002 150.804 58.5401C150.554 58.371 150.243 58.2865 149.869 58.2865C149.451 58.2865 149.095 58.3844 148.802 58.5801C148.517 58.7759 148.299 59.0473 148.148 59.3943C147.996 59.7413 147.921 60.1462 147.921 60.6089V60.6889C147.921 61.472 148.103 62.0637 148.468 62.4641C148.842 62.8556 149.38 63.0514 150.083 63.0514C150.35 63.0514 150.63 63.0158 150.924 62.9446C151.226 62.8734 151.511 62.7533 151.778 62.5842C151.929 62.4952 152.063 62.4552 152.178 62.4641C152.303 62.473 152.401 62.513 152.472 62.5842C152.552 62.6554 152.601 62.7444 152.619 62.8511C152.637 62.9579 152.619 63.0691 152.565 63.1848C152.512 63.2916 152.419 63.3895 152.285 63.4785C151.983 63.6831 151.631 63.8388 151.231 63.9456C150.83 64.0435 150.443 64.0924 150.07 64.0924ZM154.742 64.0657C154.529 64.0657 154.364 64.0079 154.249 63.8922C154.133 63.7676 154.075 63.5986 154.075 63.385V58.0462C154.075 57.8238 154.133 57.6547 154.249 57.5391C154.364 57.4234 154.524 57.3656 154.729 57.3656C154.943 57.3656 155.103 57.4234 155.21 57.5391C155.325 57.6547 155.383 57.8238 155.383 58.0462V59.1407L155.236 58.8471C155.414 58.3755 155.69 58.0062 156.064 57.7393C156.437 57.4723 156.887 57.3389 157.412 57.3389C157.955 57.3389 158.395 57.4679 158.733 57.7259C159.071 57.984 159.303 58.3799 159.427 58.9138H159.24C159.409 58.4244 159.699 58.0418 160.108 57.766C160.517 57.4812 160.993 57.3389 161.536 57.3389C162.034 57.3389 162.444 57.4367 162.764 57.6325C163.084 57.8194 163.324 58.1085 163.485 58.5C163.645 58.8827 163.725 59.3676 163.725 59.9549V63.385C163.725 63.5986 163.663 63.7676 163.538 63.8922C163.422 64.0079 163.258 64.0657 163.044 64.0657C162.831 64.0657 162.666 64.0079 162.55 63.8922C162.435 63.7676 162.377 63.5986 162.377 63.385V60.0216C162.377 59.4699 162.279 59.0651 162.083 58.807C161.896 58.549 161.585 58.42 161.149 58.42C160.66 58.42 160.272 58.589 159.988 58.9271C159.703 59.2653 159.561 59.7324 159.561 60.3286V63.385C159.561 63.5986 159.503 63.7676 159.387 63.8922C159.271 64.0079 159.107 64.0657 158.893 64.0657C158.68 64.0657 158.511 64.0079 158.386 63.8922C158.27 63.7676 158.213 63.5986 158.213 63.385V60.0216C158.213 59.4699 158.119 59.0651 157.932 58.807C157.745 58.549 157.434 58.42 156.998 58.42C156.509 58.42 156.122 58.589 155.837 58.9271C155.561 59.2653 155.423 59.7324 155.423 60.3286V63.385C155.423 63.8388 155.196 64.0657 154.742 64.0657ZM167.558 64.0924C167.104 64.0924 166.695 64.0034 166.33 63.8255C165.974 63.6475 165.694 63.4073 165.49 63.1047C165.285 62.8022 165.183 62.4596 165.183 62.077C165.183 61.5965 165.303 61.2184 165.543 60.9425C165.792 60.6578 166.197 60.4576 166.757 60.3419C167.327 60.2174 168.092 60.1551 169.053 60.1551H169.68V60.9826H169.066C168.426 60.9826 167.919 61.0137 167.545 61.076C167.171 61.1383 166.904 61.2451 166.744 61.3963C166.593 61.5387 166.517 61.7389 166.517 61.9969C166.517 62.3351 166.633 62.6109 166.864 62.8245C167.096 63.0291 167.416 63.1314 167.825 63.1314C168.154 63.1314 168.444 63.0558 168.693 62.9045C168.942 62.7444 169.138 62.5308 169.28 62.2639C169.431 61.9969 169.507 61.69 169.507 61.3429V59.808C169.507 59.3009 169.4 58.936 169.187 58.7136C168.973 58.4911 168.622 58.3799 168.132 58.3799C167.847 58.3799 167.549 58.4155 167.238 58.4867C166.935 58.5579 166.62 58.678 166.29 58.8471C166.139 58.9182 166.01 58.9405 165.903 58.9138C165.796 58.8871 165.712 58.8293 165.65 58.7403C165.587 58.6424 165.552 58.5401 165.543 58.4333C165.543 58.3176 165.57 58.2064 165.623 58.0996C165.685 57.9929 165.788 57.9128 165.93 57.8594C166.321 57.6725 166.709 57.5391 167.091 57.459C167.474 57.3789 167.834 57.3389 168.172 57.3389C168.768 57.3389 169.258 57.4323 169.64 57.6191C170.032 57.806 170.321 58.0907 170.508 58.4734C170.695 58.856 170.788 59.3498 170.788 59.9549V63.385C170.788 63.5986 170.735 63.7676 170.628 63.8922C170.521 64.0079 170.366 64.0657 170.161 64.0657C169.965 64.0657 169.809 64.0079 169.694 63.8922C169.578 63.7676 169.52 63.5986 169.52 63.385V62.5175H169.64C169.569 62.8467 169.436 63.1314 169.24 63.3717C169.053 63.603 168.817 63.781 168.533 63.9056C168.248 64.0301 167.923 64.0924 167.558 64.0924ZM173.179 64.0524C172.965 64.0524 172.801 63.9901 172.685 63.8655C172.569 63.732 172.511 63.5496 172.511 63.3183V58.113C172.511 57.8816 172.569 57.7037 172.685 57.5791C172.801 57.4545 172.965 57.3922 173.179 57.3922C173.392 57.3922 173.557 57.4545 173.673 57.5791C173.797 57.7037 173.859 57.8816 173.859 58.113V63.3183C173.859 63.5496 173.802 63.732 173.686 63.8655C173.57 63.9901 173.401 64.0524 173.179 64.0524ZM173.179 56.0042C172.912 56.0042 172.703 55.9374 172.551 55.804C172.409 55.6705 172.338 55.4836 172.338 55.2434C172.338 54.9942 172.409 54.8074 172.551 54.6828C172.703 54.5494 172.912 54.4826 173.179 54.4826C173.446 54.4826 173.65 54.5494 173.793 54.6828C173.944 54.8074 174.02 54.9942 174.02 55.2434C174.02 55.4836 173.944 55.6705 173.793 55.804C173.65 55.9374 173.446 56.0042 173.179 56.0042ZM177.719 64.0924C177.025 64.0924 176.5 63.8922 176.144 63.4918C175.797 63.0825 175.623 62.4952 175.623 61.73V55.15C175.623 54.9275 175.681 54.7585 175.797 54.6428C175.913 54.5271 176.077 54.4693 176.291 54.4693C176.504 54.4693 176.669 54.5271 176.785 54.6428C176.909 54.7585 176.972 54.9275 176.972 55.15V61.6499C176.972 62.0948 177.061 62.4285 177.238 62.6509C177.425 62.8645 177.692 62.9713 178.039 62.9713C178.119 62.9713 178.191 62.9713 178.253 62.9713C178.315 62.9624 178.377 62.9535 178.44 62.9446C178.546 62.9357 178.622 62.9668 178.667 63.038C178.711 63.1003 178.733 63.2338 178.733 63.4384C178.733 63.6253 178.693 63.7721 178.613 63.8789C178.533 63.9767 178.404 64.039 178.226 64.0657C178.146 64.0746 178.062 64.0791 177.973 64.0791C177.884 64.088 177.799 64.0924 177.719 64.0924ZM185.038 64.0924C184.584 64.0924 184.174 64.0034 183.81 63.8255C183.454 63.6475 183.173 63.4073 182.969 63.1047C182.764 62.8022 182.662 62.4596 182.662 62.077C182.662 61.5965 182.782 61.2184 183.022 60.9425C183.271 60.6578 183.676 60.4576 184.237 60.3419C184.806 60.2174 185.571 60.1551 186.532 60.1551H187.16V60.9826H186.546C185.905 60.9826 185.398 61.0137 185.024 61.076C184.65 61.1383 184.384 61.2451 184.223 61.3963C184.072 61.5387 183.996 61.7389 183.996 61.9969C183.996 62.3351 184.112 62.6109 184.344 62.8245C184.575 63.0291 184.895 63.1314 185.304 63.1314C185.634 63.1314 185.923 63.0558 186.172 62.9045C186.421 62.7444 186.617 62.5308 186.759 62.2639C186.911 61.9969 186.986 61.69 186.986 61.3429V59.808C186.986 59.3009 186.879 58.936 186.666 58.7136C186.452 58.4911 186.101 58.3799 185.611 58.3799C185.327 58.3799 185.029 58.4155 184.717 58.4867C184.415 58.5579 184.099 58.678 183.77 58.8471C183.618 58.9182 183.489 58.9405 183.383 58.9138C183.276 58.8871 183.191 58.8293 183.129 58.7403C183.067 58.6424 183.031 58.5401 183.022 58.4333C183.022 58.3176 183.049 58.2064 183.102 58.0996C183.165 57.9929 183.267 57.9128 183.409 57.8594C183.801 57.6725 184.188 57.5391 184.57 57.459C184.953 57.3789 185.313 57.3389 185.652 57.3389C186.248 57.3389 186.737 57.4323 187.12 57.6191C187.511 57.806 187.8 58.0907 187.987 58.4734C188.174 58.856 188.268 59.3498 188.268 59.9549V63.385C188.268 63.5986 188.214 63.7676 188.107 63.8922C188.001 64.0079 187.845 64.0657 187.64 64.0657C187.444 64.0657 187.289 64.0079 187.173 63.8922C187.057 63.7676 187 63.5986 187 63.385V62.5175H187.12C187.048 62.8467 186.915 63.1314 186.719 63.3717C186.532 63.603 186.297 63.781 186.012 63.9056C185.727 64.0301 185.402 64.0924 185.038 64.0924ZM192.473 64.0924C191.904 64.0924 191.401 63.9589 190.965 63.692C190.538 63.4162 190.204 63.0247 189.964 62.5175C189.724 62.0014 189.604 61.4008 189.604 60.7156C189.604 60.0127 189.724 59.4121 189.964 58.9138C190.204 58.4155 190.538 58.0285 190.965 57.7526C191.401 57.4768 191.904 57.3389 192.473 57.3389C193.043 57.3389 193.532 57.4812 193.941 57.766C194.36 58.0418 194.64 58.4155 194.782 58.8871H194.635V55.15C194.635 54.9275 194.693 54.7585 194.809 54.6428C194.925 54.5271 195.089 54.4693 195.303 54.4693C195.516 54.4693 195.681 54.5271 195.797 54.6428C195.921 54.7585 195.984 54.9275 195.984 55.15V63.385C195.984 63.5986 195.926 63.7676 195.81 63.8922C195.694 64.0079 195.53 64.0657 195.316 64.0657C195.103 64.0657 194.938 64.0079 194.822 63.8922C194.707 63.7676 194.649 63.5986 194.649 63.385V62.2105L194.796 62.5041C194.653 62.9846 194.373 63.3717 193.955 63.6653C193.545 63.95 193.052 64.0924 192.473 64.0924ZM192.82 63.0514C193.185 63.0514 193.505 62.9624 193.781 62.7844C194.057 62.6065 194.271 62.344 194.422 61.9969C194.582 61.6499 194.662 61.2228 194.662 60.7156C194.662 59.9504 194.493 59.372 194.155 58.9805C193.817 58.589 193.372 58.3933 192.82 58.3933C192.447 58.3933 192.122 58.4822 191.846 58.6602C191.57 58.8293 191.352 59.0873 191.192 59.4343C191.041 59.7814 190.965 60.2085 190.965 60.7156C190.965 61.472 191.134 62.0503 191.472 62.4507C191.81 62.8511 192.26 63.0514 192.82 63.0514ZM200.225 64.0924C199.656 64.0924 199.153 63.9589 198.717 63.692C198.29 63.4162 197.956 63.0247 197.716 62.5175C197.476 62.0014 197.356 61.4008 197.356 60.7156C197.356 60.0127 197.476 59.4121 197.716 58.9138C197.956 58.4155 198.29 58.0285 198.717 57.7526C199.153 57.4768 199.656 57.3389 200.225 57.3389C200.795 57.3389 201.284 57.4812 201.694 57.766C202.112 58.0418 202.392 58.4155 202.534 58.8871H202.388V55.15C202.388 54.9275 202.445 54.7585 202.561 54.6428C202.677 54.5271 202.841 54.4693 203.055 54.4693C203.269 54.4693 203.433 54.5271 203.549 54.6428C203.673 54.7585 203.736 54.9275 203.736 55.15V63.385C203.736 63.5986 203.678 63.7676 203.562 63.8922C203.446 64.0079 203.282 64.0657 203.068 64.0657C202.855 64.0657 202.69 64.0079 202.574 63.8922C202.459 63.7676 202.401 63.5986 202.401 63.385V62.2105L202.548 62.5041C202.405 62.9846 202.125 63.3717 201.707 63.6653C201.298 63.95 200.804 64.0924 200.225 64.0924ZM200.572 63.0514C200.937 63.0514 201.258 62.9624 201.533 62.7844C201.809 62.6065 202.023 62.344 202.174 61.9969C202.334 61.6499 202.414 61.2228 202.414 60.7156C202.414 59.9504 202.245 59.372 201.907 58.9805C201.569 58.589 201.124 58.3933 200.572 58.3933C200.199 58.3933 199.874 58.4822 199.598 58.6602C199.322 58.8293 199.104 59.0873 198.944 59.4343C198.793 59.7814 198.717 60.2085 198.717 60.7156C198.717 61.472 198.886 62.0503 199.224 62.4507C199.563 62.8511 200.012 63.0514 200.572 63.0514ZM206.176 64.0657C205.953 64.0657 205.784 64.0079 205.669 63.8922C205.553 63.7676 205.495 63.5986 205.495 63.385V58.0462C205.495 57.8238 205.553 57.6547 205.669 57.5391C205.784 57.4234 205.944 57.3656 206.149 57.3656C206.363 57.3656 206.523 57.4234 206.63 57.5391C206.745 57.6547 206.803 57.8238 206.803 58.0462V59.0206H206.67C206.812 58.4867 207.074 58.0818 207.457 57.806C207.84 57.5302 208.329 57.37 208.925 57.3255C209.085 57.3166 209.21 57.3567 209.299 57.4456C209.397 57.5346 209.45 57.6725 209.459 57.8594C209.477 58.0462 209.437 58.1975 209.339 58.3132C209.241 58.42 209.09 58.4822 208.885 58.5L208.632 58.5267C208.053 58.5801 207.613 58.7625 207.31 59.074C207.008 59.3854 206.856 59.8125 206.856 60.3553V63.385C206.856 63.5986 206.799 63.7676 206.683 63.8922C206.576 64.0079 206.407 64.0657 206.176 64.0657ZM213.306 64.0924C212.594 64.0924 211.98 63.9589 211.464 63.692C210.957 63.4162 210.561 63.0291 210.276 62.5308C210 62.0236 209.862 61.423 209.862 60.729C209.862 60.0527 210 59.461 210.276 58.9538C210.552 58.4467 210.93 58.0507 211.411 57.766C211.891 57.4812 212.438 57.3389 213.052 57.3389C213.506 57.3389 213.911 57.4145 214.267 57.5658C214.623 57.7081 214.925 57.9217 215.174 58.2064C215.432 58.4822 215.624 58.8204 215.748 59.2208C215.882 59.6212 215.949 60.0705 215.949 60.5688C215.949 60.7201 215.904 60.8358 215.815 60.9158C215.726 60.987 215.593 61.0226 215.415 61.0226H210.93V60.1951H215.041L214.814 60.382C214.814 59.9371 214.747 59.5589 214.614 59.2475C214.489 58.936 214.298 58.7002 214.04 58.5401C213.791 58.371 213.479 58.2865 213.106 58.2865C212.687 58.2865 212.332 58.3844 212.038 58.5801C211.753 58.7759 211.535 59.0473 211.384 59.3943C211.233 59.7413 211.157 60.1462 211.157 60.6089V60.6889C211.157 61.472 211.339 62.0637 211.704 62.4641C212.078 62.8556 212.616 63.0514 213.319 63.0514C213.586 63.0514 213.866 63.0158 214.16 62.9446C214.463 62.8734 214.747 62.7533 215.014 62.5842C215.166 62.4952 215.299 62.4552 215.415 62.4641C215.539 62.473 215.637 62.513 215.708 62.5842C215.788 62.6554 215.837 62.7444 215.855 62.8511C215.873 62.9579 215.855 63.0691 215.802 63.1848C215.748 63.2916 215.655 63.3895 215.521 63.4785C215.219 63.6831 214.867 63.8388 214.467 63.9456C214.067 64.0435 213.68 64.0924 213.306 64.0924ZM219.567 64.0924C219.176 64.0924 218.771 64.0479 218.352 63.9589C217.943 63.87 217.565 63.7187 217.218 63.5051C217.102 63.4251 217.022 63.3361 216.978 63.2382C216.933 63.1403 216.915 63.0425 216.924 62.9446C216.942 62.8378 216.982 62.7488 217.044 62.6776C217.116 62.5976 217.2 62.5486 217.298 62.5308C217.405 62.513 217.516 62.5353 217.632 62.5976C217.979 62.7933 218.312 62.9312 218.633 63.0113C218.953 63.0825 219.269 63.1181 219.58 63.1181C220.052 63.1181 220.408 63.0336 220.648 62.8645C220.888 62.6954 221.008 62.4685 221.008 62.1838C221.008 61.9525 220.928 61.7745 220.768 61.6499C220.608 61.5165 220.368 61.4141 220.048 61.3429L218.78 61.0894C218.228 60.9737 217.81 60.769 217.525 60.4754C217.24 60.1818 217.098 59.808 217.098 59.3542C217.098 58.9449 217.209 58.589 217.432 58.2865C217.654 57.984 217.965 57.7526 218.366 57.5925C218.766 57.4234 219.229 57.3389 219.754 57.3389C220.145 57.3389 220.515 57.3878 220.862 57.4857C221.209 57.5836 221.529 57.7304 221.823 57.9261C221.938 57.9884 222.014 58.0729 222.05 58.1797C222.085 58.2776 222.09 58.3755 222.063 58.4734C222.045 58.5712 222.001 58.6602 221.929 58.7403C221.858 58.8115 221.769 58.856 221.662 58.8738C221.565 58.8827 221.453 58.856 221.329 58.7937C221.062 58.6246 220.795 58.5045 220.528 58.4333C220.27 58.3621 220.012 58.3265 219.754 58.3265C219.282 58.3265 218.926 58.4155 218.686 58.5935C218.455 58.7625 218.339 58.9939 218.339 59.2875C218.339 59.51 218.41 59.6924 218.553 59.8347C218.695 59.9771 218.917 60.0794 219.22 60.1417L220.488 60.3953C221.066 60.511 221.502 60.7067 221.796 60.9826C222.098 61.2584 222.25 61.6321 222.25 62.1037C222.25 62.7177 222.005 63.2026 221.516 63.5585C221.026 63.9145 220.377 64.0924 219.567 64.0924ZM225.898 64.0924C225.507 64.0924 225.102 64.0479 224.684 63.9589C224.275 63.87 223.896 63.7187 223.549 63.5051C223.434 63.4251 223.354 63.3361 223.309 63.2382C223.265 63.1403 223.247 63.0425 223.256 62.9446C223.274 62.8378 223.314 62.7488 223.376 62.6776C223.447 62.5976 223.532 62.5486 223.629 62.5308C223.736 62.513 223.847 62.5353 223.963 62.5976C224.31 62.7933 224.644 62.9312 224.964 63.0113C225.285 63.0825 225.6 63.1181 225.912 63.1181C226.383 63.1181 226.739 63.0336 226.98 62.8645C227.22 62.6954 227.34 62.4685 227.34 62.1838C227.34 61.9525 227.26 61.7745 227.1 61.6499C226.94 61.5165 226.699 61.4141 226.379 61.3429L225.111 61.0894C224.559 60.9737 224.141 60.769 223.856 60.4754C223.572 60.1818 223.429 59.808 223.429 59.3542C223.429 58.9449 223.541 58.589 223.763 58.2865C223.985 57.984 224.297 57.7526 224.697 57.5925C225.098 57.4234 225.56 57.3389 226.085 57.3389C226.477 57.3389 226.846 57.3878 227.193 57.4857C227.54 57.5836 227.86 57.7304 228.154 57.9261C228.27 57.9884 228.345 58.0729 228.381 58.1797C228.417 58.2776 228.421 58.3755 228.394 58.4734C228.377 58.5712 228.332 58.6602 228.261 58.7403C228.19 58.8115 228.101 58.856 227.994 58.8738C227.896 58.8827 227.785 58.856 227.66 58.7937C227.393 58.6246 227.126 58.5045 226.859 58.4333C226.601 58.3621 226.343 58.3265 226.085 58.3265C225.614 58.3265 225.258 58.4155 225.018 58.5935C224.786 58.7625 224.671 58.9939 224.671 59.2875C224.671 59.51 224.742 59.6924 224.884 59.8347C225.026 59.9771 225.249 60.0794 225.551 60.1417L226.819 60.3953C227.398 60.511 227.834 60.7067 228.127 60.9826C228.43 61.2584 228.581 61.6321 228.581 62.1037C228.581 62.7177 228.337 63.2026 227.847 63.5585C227.358 63.9145 226.708 64.0924 225.898 64.0924ZM235.616 64.0924C235.224 64.0924 234.819 64.0479 234.401 63.9589C233.992 63.87 233.614 63.7187 233.267 63.5051C233.151 63.4251 233.071 63.3361 233.026 63.2382C232.982 63.1403 232.964 63.0425 232.973 62.9446C232.991 62.8378 233.031 62.7488 233.093 62.6776C233.164 62.5976 233.249 62.5486 233.347 62.5308C233.453 62.513 233.565 62.5353 233.68 62.5976C234.027 62.7933 234.361 62.9312 234.681 63.0113C235.002 63.0825 235.318 63.1181 235.629 63.1181C236.101 63.1181 236.457 63.0336 236.697 62.8645C236.937 62.6954 237.057 62.4685 237.057 62.1838C237.057 61.9525 236.977 61.7745 236.817 61.6499C236.657 61.5165 236.416 61.4141 236.096 61.3429L234.828 61.0894C234.277 60.9737 233.858 60.769 233.574 60.4754C233.289 60.1818 233.146 59.808 233.146 59.3542C233.146 58.9449 233.258 58.589 233.48 58.2865C233.703 57.984 234.014 57.7526 234.414 57.5925C234.815 57.4234 235.278 57.3389 235.803 57.3389C236.194 57.3389 236.563 57.3878 236.91 57.4857C237.257 57.5836 237.578 57.7304 237.871 57.9261C237.987 57.9884 238.063 58.0729 238.098 58.1797C238.134 58.2776 238.138 58.3755 238.112 58.4734C238.094 58.5712 238.049 58.6602 237.978 58.7403C237.907 58.8115 237.818 58.856 237.711 58.8738C237.613 58.8827 237.502 58.856 237.377 58.7937C237.111 58.6246 236.844 58.5045 236.577 58.4333C236.319 58.3621 236.061 58.3265 235.803 58.3265C235.331 58.3265 234.975 58.4155 234.735 58.5935C234.503 58.7625 234.388 58.9939 234.388 59.2875C234.388 59.51 234.459 59.6924 234.601 59.8347C234.744 59.9771 234.966 60.0794 235.269 60.1417L236.537 60.3953C237.115 60.511 237.551 60.7067 237.845 60.9826C238.147 61.2584 238.298 61.6321 238.298 62.1037C238.298 62.7177 238.054 63.2026 237.564 63.5585C237.075 63.9145 236.425 64.0924 235.616 64.0924ZM242.721 64.0924C242.009 64.0924 241.395 63.9589 240.879 63.692C240.372 63.4162 239.976 63.0291 239.691 62.5308C239.416 62.0236 239.278 61.423 239.278 60.729C239.278 60.0527 239.416 59.461 239.691 58.9538C239.967 58.4467 240.345 58.0507 240.826 57.766C241.306 57.4812 241.854 57.3389 242.468 57.3389C242.921 57.3389 243.326 57.4145 243.682 57.5658C244.038 57.7081 244.341 57.9217 244.59 58.2064C244.848 58.4822 245.039 58.8204 245.164 59.2208C245.297 59.6212 245.364 60.0705 245.364 60.5688C245.364 60.7201 245.319 60.8358 245.23 60.9158C245.141 60.987 245.008 61.0226 244.83 61.0226H240.345V60.1951H244.456L244.229 60.382C244.229 59.9371 244.163 59.5589 244.029 59.2475C243.905 58.936 243.713 58.7002 243.455 58.5401C243.206 58.371 242.895 58.2865 242.521 58.2865C242.103 58.2865 241.747 58.3844 241.453 58.5801C241.169 58.7759 240.951 59.0473 240.799 59.3943C240.648 59.7413 240.572 60.1462 240.572 60.6089V60.6889C240.572 61.472 240.755 62.0637 241.12 62.4641C241.493 62.8556 242.032 63.0514 242.735 63.0514C243.002 63.0514 243.282 63.0158 243.575 62.9446C243.878 62.8734 244.163 62.7533 244.43 62.5842C244.581 62.4952 244.714 62.4552 244.83 62.4641C244.955 62.473 245.053 62.513 245.124 62.5842C245.204 62.6554 245.253 62.7444 245.271 62.8511C245.288 62.9579 245.271 63.0691 245.217 63.1848C245.164 63.2916 245.07 63.3895 244.937 63.4785C244.634 63.6831 244.283 63.8388 243.882 63.9456C243.482 64.0435 243.095 64.0924 242.721 64.0924ZM249.57 64.0924C248.902 64.0924 248.324 63.9545 247.835 63.6787C247.354 63.3939 246.98 62.998 246.713 62.4908C246.447 61.9747 246.313 61.3696 246.313 60.6756C246.313 60.1595 246.389 59.6968 246.54 59.2875C246.691 58.8693 246.905 58.5178 247.181 58.2331C247.465 57.9484 247.808 57.7304 248.208 57.5791C248.618 57.4189 249.071 57.3389 249.57 57.3389C249.881 57.3389 250.206 57.3878 250.544 57.4857C250.891 57.5747 251.211 57.7259 251.505 57.9395C251.621 58.0107 251.692 58.0996 251.719 58.2064C251.754 58.3043 251.759 58.4066 251.732 58.5134C251.714 58.6202 251.665 58.7136 251.585 58.7937C251.514 58.8649 251.425 58.9094 251.318 58.9271C251.211 58.936 251.096 58.9049 250.971 58.8337C250.758 58.6825 250.54 58.5757 250.317 58.5134C250.095 58.4422 249.881 58.4066 249.676 58.4066C249.356 58.4066 249.071 58.46 248.822 58.5668C248.582 58.6647 248.377 58.8115 248.208 59.0072C248.039 59.1941 247.91 59.4299 247.821 59.7146C247.741 59.9994 247.701 60.3241 247.701 60.6889C247.701 61.4186 247.87 61.9925 248.208 62.4107C248.555 62.82 249.045 63.0247 249.676 63.0247C249.881 63.0247 250.095 62.9935 250.317 62.9312C250.54 62.8689 250.758 62.7622 250.971 62.6109C251.096 62.5397 251.211 62.513 251.318 62.5308C251.425 62.5486 251.509 62.5976 251.572 62.6776C251.643 62.7488 251.687 62.8378 251.705 62.9446C251.732 63.0425 251.727 63.1448 251.692 63.2516C251.656 63.3583 251.581 63.4473 251.465 63.5185C251.18 63.7231 250.869 63.87 250.531 63.9589C250.201 64.0479 249.881 64.0924 249.57 64.0924ZM255.119 64.0924C254.594 64.0924 254.154 63.9945 253.798 63.7988C253.451 63.603 253.188 63.3138 253.01 62.9312C252.841 62.5397 252.757 62.0503 252.757 61.4631V58.0462C252.757 57.8149 252.815 57.6458 252.93 57.5391C253.046 57.4234 253.211 57.3656 253.424 57.3656C253.638 57.3656 253.802 57.4234 253.918 57.5391C254.043 57.6458 254.105 57.8149 254.105 58.0462V61.4764C254.105 62.0014 254.212 62.3885 254.425 62.6376C254.639 62.8867 254.977 63.0113 255.44 63.0113C255.947 63.0113 256.356 62.8422 256.668 62.5041C256.988 62.1571 257.148 61.7033 257.148 61.1427V58.0462C257.148 57.8149 257.206 57.6458 257.322 57.5391C257.437 57.4234 257.606 57.3656 257.829 57.3656C258.042 57.3656 258.207 57.4234 258.323 57.5391C258.438 57.6458 258.496 57.8149 258.496 58.0462V63.385C258.496 63.8388 258.278 64.0657 257.842 64.0657C257.637 64.0657 257.477 64.0079 257.362 63.8922C257.246 63.7676 257.188 63.5986 257.188 63.385V62.2505L257.362 62.5442C257.184 63.0425 256.899 63.4251 256.507 63.692C256.116 63.9589 255.653 64.0924 255.119 64.0924ZM260.943 64.0657C260.721 64.0657 260.552 64.0079 260.436 63.8922C260.32 63.7676 260.262 63.5986 260.262 63.385V58.0462C260.262 57.8238 260.32 57.6547 260.436 57.5391C260.552 57.4234 260.712 57.3656 260.916 57.3656C261.13 57.3656 261.29 57.4234 261.397 57.5391C261.513 57.6547 261.57 57.8238 261.57 58.0462V59.0206H261.437C261.579 58.4867 261.842 58.0818 262.224 57.806C262.607 57.5302 263.096 57.37 263.693 57.3255C263.853 57.3166 263.977 57.3567 264.066 57.4456C264.164 57.5346 264.218 57.6725 264.226 57.8594C264.244 58.0462 264.204 58.1975 264.106 58.3132C264.008 58.42 263.857 58.4822 263.652 58.5L263.399 58.5267C262.821 58.5801 262.38 58.7625 262.078 59.074C261.775 59.3854 261.624 59.8125 261.624 60.3553V63.385C261.624 63.5986 261.566 63.7676 261.45 63.8922C261.343 64.0079 261.174 64.0657 260.943 64.0657ZM268.073 64.0924C267.361 64.0924 266.747 63.9589 266.231 63.692C265.724 63.4162 265.328 63.0291 265.043 62.5308C264.768 62.0236 264.63 61.423 264.63 60.729C264.63 60.0527 264.768 59.461 265.043 58.9538C265.319 58.4467 265.697 58.0507 266.178 57.766C266.658 57.4812 267.206 57.3389 267.82 57.3389C268.273 57.3389 268.678 57.4145 269.034 57.5658C269.39 57.7081 269.693 57.9217 269.942 58.2064C270.2 58.4822 270.391 58.8204 270.516 59.2208C270.649 59.6212 270.716 60.0705 270.716 60.5688C270.716 60.7201 270.671 60.8358 270.582 60.9158C270.493 60.987 270.36 61.0226 270.182 61.0226H265.697V60.1951H269.808L269.581 60.382C269.581 59.9371 269.515 59.5589 269.381 59.2475C269.257 58.936 269.065 58.7002 268.807 58.5401C268.558 58.371 268.247 58.2865 267.873 58.2865C267.455 58.2865 267.099 58.3844 266.805 58.5801C266.52 58.7759 266.302 59.0473 266.151 59.3943C266 59.7413 265.924 60.1462 265.924 60.6089V60.6889C265.924 61.472 266.107 62.0637 266.471 62.4641C266.845 62.8556 267.384 63.0514 268.086 63.0514C268.353 63.0514 268.634 63.0158 268.927 62.9446C269.23 62.8734 269.515 62.7533 269.782 62.5842C269.933 62.4952 270.066 62.4552 270.182 62.4641C270.307 62.473 270.404 62.513 270.476 62.5842C270.556 62.6554 270.605 62.7444 270.622 62.8511C270.64 62.9579 270.622 63.0691 270.569 63.1848C270.516 63.2916 270.422 63.3895 270.289 63.4785C269.986 63.6831 269.635 63.8388 269.234 63.9456C268.834 64.0435 268.447 64.0924 268.073 64.0924ZM274.147 64.0924C273.453 64.0924 272.928 63.8922 272.573 63.4918C272.225 63.0825 272.052 62.4952 272.052 61.73V55.15C272.052 54.9275 272.11 54.7585 272.225 54.6428C272.341 54.5271 272.506 54.4693 272.719 54.4693C272.933 54.4693 273.097 54.5271 273.213 54.6428C273.338 54.7585 273.4 54.9275 273.4 55.15V61.6499C273.4 62.0948 273.489 62.4285 273.667 62.6509C273.854 62.8645 274.121 62.9713 274.468 62.9713C274.548 62.9713 274.619 62.9713 274.681 62.9713C274.744 62.9624 274.806 62.9535 274.868 62.9446C274.975 62.9357 275.051 62.9668 275.095 63.038C275.14 63.1003 275.162 63.2338 275.162 63.4384C275.162 63.6253 275.122 63.7721 275.042 63.8789C274.962 63.9767 274.833 64.039 274.655 64.0657C274.575 64.0746 274.49 64.0791 274.401 64.0791C274.312 64.088 274.228 64.0924 274.147 64.0924ZM277.377 66.4682C277.217 66.4682 277.083 66.4237 276.976 66.3347C276.878 66.2546 276.821 66.1434 276.803 66.001C276.794 65.8676 276.821 65.7207 276.883 65.5606L277.79 63.5185V64.0924L275.295 58.2865C275.232 58.1263 275.21 57.9751 275.228 57.8327C275.246 57.6903 275.312 57.5791 275.428 57.499C275.544 57.41 275.699 57.3656 275.895 57.3656C276.064 57.3656 276.198 57.4056 276.296 57.4857C276.393 57.5658 276.482 57.7037 276.563 57.8994L278.578 62.8778H278.204L280.246 57.8994C280.326 57.6948 280.42 57.5569 280.527 57.4857C280.633 57.4056 280.78 57.3656 280.967 57.3656C281.127 57.3656 281.252 57.41 281.341 57.499C281.439 57.5791 281.496 57.6903 281.514 57.8327C281.541 57.9662 281.519 58.113 281.447 58.2731L278.111 65.9476C278.022 66.1523 277.919 66.2902 277.804 66.3614C277.697 66.4326 277.555 66.4682 277.377 66.4682ZM282.645 64.0257C282.387 64.0257 282.178 63.9456 282.017 63.7854C281.857 63.6253 281.777 63.4206 281.777 63.1715C281.777 62.9223 281.857 62.7221 282.017 62.5709C282.178 62.4107 282.387 62.3306 282.645 62.3306C282.903 62.3306 283.107 62.4107 283.259 62.5709C283.41 62.7221 283.486 62.9223 283.486 63.1715C283.486 63.4206 283.41 63.6253 283.259 63.7854C283.107 63.9456 282.903 64.0257 282.645 64.0257Z" fill="#647067"/>
</svg>
