<svg width="327" height="93" viewBox="0 0 327 93" fill="none" xmlns="http://www.w3.org/2000/svg">
<rect x="1.5" y="2.17346" width="324" height="88.5219" rx="28.5" fill="#F3F2E9"/>
<rect x="1.5" y="2.17346" width="324" height="88.5219" rx="28.5" stroke="#F3F2E9" stroke-width="3"/>
<rect x="15.2534" y="15.9271" width="61.0146" height="61.0146" rx="22.8805" fill="#F3F2E9"/>
<path fill-rule="evenodd" clip-rule="evenodd" d="M39.4503 39.8435C39.9227 38.7029 40.8186 37.7913 41.948 37.2986C41.9493 37.5643 41.9537 37.8017 41.9678 38.009C41.9893 38.3235 42.0365 38.638 42.1652 38.9487C42.4554 39.6495 43.0122 40.2063 43.713 40.4966C44.0237 40.6253 44.3383 40.6725 44.6527 40.6939C44.9514 40.7143 45.3122 40.7143 45.7304 40.7143H45.7914C46.2096 40.7143 46.5704 40.7143 46.869 40.6939C47.1835 40.6725 47.498 40.6253 47.8087 40.4966C48.5095 40.2063 49.0663 39.6495 49.3566 38.9487C49.4853 38.638 49.5325 38.3235 49.5539 38.009C49.5681 37.8017 49.5724 37.5643 49.5737 37.2986C50.7031 37.7913 51.5991 38.7029 52.0715 39.8435C52.2728 40.3294 52.3562 40.8426 52.3958 41.4229C52.4344 41.9873 52.4343 42.6808 52.4343 43.5404V49.3283C52.4343 50.188 52.4344 50.8815 52.3958 51.4459C52.3562 52.0262 52.2728 52.5394 52.0715 53.0253C51.5877 54.1933 50.6597 55.1213 49.4917 55.6051C49.0058 55.8064 48.4926 55.8898 47.9123 55.9294C47.3479 55.9679 46.6544 55.9679 45.7947 55.9679H45.727C44.8673 55.9679 44.1738 55.9679 43.6094 55.9294C43.0291 55.8898 42.5159 55.8064 42.03 55.6051C40.862 55.1213 39.934 54.1933 39.4503 53.0253C39.249 52.5394 39.1655 52.0262 39.1259 51.4459C39.0874 50.8815 39.0874 50.188 39.0874 49.3284V43.5405C39.0874 42.6808 39.0874 41.9873 39.1259 41.4229C39.1655 40.8426 39.249 40.3294 39.4503 39.8435ZM45.7609 53.1079C46.2874 53.1079 46.7142 52.681 46.7142 52.1545C46.7142 51.628 46.2874 51.2012 45.7609 51.2012C45.2343 51.2012 44.8075 51.628 44.8075 52.1545C44.8075 52.681 45.2343 53.1079 45.7609 53.1079Z" fill="#647067"/>
<path d="M45.7948 36.9009C46.5341 36.9009 47.1505 36.9009 47.6676 36.9254C47.6676 37.3687 47.6668 37.6574 47.6516 37.8792C47.6368 38.0966 47.6114 38.1794 47.595 38.2191C47.4982 38.4527 47.3127 38.6383 47.0791 38.735C47.0394 38.7514 46.9566 38.7768 46.7392 38.7917C46.5133 38.8071 46.2181 38.8076 45.7609 38.8076C45.3036 38.8076 45.0084 38.8071 44.7825 38.7917C44.5651 38.7768 44.4824 38.7514 44.4427 38.735C44.2091 38.6383 44.0235 38.4527 43.9267 38.2191C43.9103 38.1794 43.8849 38.0966 43.8701 37.8792C43.855 37.6574 43.8542 37.3687 43.8542 36.9254C44.3713 36.9009 44.9877 36.9009 45.727 36.9009H45.7948Z" fill="#647067"/>
<path d="M94.2385 41.0277C93.8152 41.0277 93.5006 40.9305 93.2947 40.736C93.1002 40.5301 93.0029 40.2326 93.0029 39.8436C93.0029 39.592 93.0659 39.3574 93.1917 39.1401C93.3175 38.9227 93.4891 38.6996 93.7065 38.4708L96.9326 35.0731C97.4131 34.5583 97.7563 34.1006 97.9623 33.7002C98.1796 33.2998 98.2883 32.8994 98.2883 32.499C98.2883 31.9956 98.1224 31.6124 97.7907 31.3493C97.4703 31.0861 97.0013 30.9546 96.3835 30.9546C96.0518 30.9546 95.7085 31.0061 95.3539 31.109C95.0107 31.2005 94.6503 31.355 94.2728 31.5724C94.0211 31.7096 93.7866 31.7611 93.5692 31.7268C93.3633 31.681 93.186 31.5838 93.0372 31.4351C92.8885 31.2749 92.7913 31.0861 92.7455 30.8688C92.6998 30.6514 92.7226 30.4341 92.8142 30.2167C92.9057 29.9993 93.0773 29.8163 93.329 29.6676C93.8323 29.3587 94.3815 29.1299 94.9764 28.9811C95.5713 28.821 96.1604 28.7409 96.7439 28.7409C97.6477 28.7409 98.4084 28.8782 99.0262 29.1527C99.644 29.4159 100.113 29.8048 100.433 30.3197C100.754 30.8345 100.914 31.4637 100.914 32.2073C100.914 32.6878 100.839 33.1568 100.691 33.6144C100.542 34.072 100.308 34.5354 99.9872 35.0044C99.6783 35.462 99.2665 35.954 98.7516 36.4802L95.7486 39.5348V38.8483H100.399C100.765 38.8483 101.04 38.9399 101.223 39.1229C101.417 39.306 101.514 39.5748 101.514 39.9294C101.514 40.2841 101.417 40.5587 101.223 40.7531C101.04 40.9362 100.765 41.0277 100.399 41.0277H94.2385ZM108.84 41.1822C108.406 41.1822 108.068 41.062 107.828 40.8218C107.599 40.5815 107.485 40.2326 107.485 39.775V30.3197C107.485 29.8735 107.605 29.5303 107.845 29.29C108.085 29.0498 108.428 28.9297 108.875 28.9297H114.743C115.087 28.9297 115.344 29.0212 115.516 29.2042C115.699 29.3758 115.79 29.6275 115.79 29.9593C115.79 30.3025 115.699 30.5656 115.516 30.7487C115.344 30.9203 115.087 31.0061 114.743 31.0061H110.145V33.9576H114.366C114.709 33.9576 114.972 34.0492 115.155 34.2322C115.338 34.4038 115.43 34.6555 115.43 34.9873C115.43 35.319 115.338 35.5764 115.155 35.7595C114.972 35.9425 114.709 36.034 114.366 36.034H110.145V39.775C110.145 40.7131 109.71 41.1822 108.84 41.1822ZM119.219 41.2165C118.601 41.2165 118.046 41.0964 117.554 40.8561C117.062 40.6159 116.679 40.2898 116.404 39.878C116.13 39.4661 115.992 39.0028 115.992 38.488C115.992 37.8702 116.153 37.384 116.473 37.0293C116.793 36.6633 117.314 36.4059 118.035 36.2571C118.755 36.097 119.711 36.0169 120.9 36.0169H121.81V37.3554H120.917C120.334 37.3554 119.859 37.3897 119.493 37.4584C119.138 37.5156 118.881 37.6185 118.721 37.7672C118.572 37.916 118.498 38.1219 118.498 38.385C118.498 38.7053 118.607 38.9685 118.824 39.1744C119.053 39.3803 119.379 39.4833 119.802 39.4833C120.134 39.4833 120.426 39.4089 120.677 39.2602C120.94 39.1 121.146 38.8884 121.295 38.6253C121.444 38.3507 121.518 38.0418 121.518 37.6986V35.7252C121.518 35.2218 121.404 34.8671 121.175 34.6612C120.946 34.4439 120.557 34.3352 120.008 34.3352C119.699 34.3352 119.362 34.3752 118.995 34.4553C118.641 34.5239 118.246 34.6441 117.811 34.8157C117.56 34.9301 117.337 34.9587 117.142 34.9015C116.948 34.8328 116.799 34.7184 116.696 34.5583C116.593 34.3867 116.542 34.2036 116.542 34.0091C116.542 33.8032 116.599 33.6087 116.713 33.4257C116.828 33.2312 117.016 33.0882 117.279 32.9967C117.817 32.7793 118.321 32.6306 118.79 32.5505C119.27 32.4704 119.711 32.4304 120.111 32.4304C120.992 32.4304 121.713 32.5619 122.273 32.8251C122.845 33.0767 123.274 33.4714 123.56 34.0091C123.846 34.5354 123.989 35.2161 123.989 36.0512V39.8608C123.989 40.2841 123.886 40.6101 123.68 40.8389C123.474 41.0678 123.177 41.1822 122.788 41.1822C122.399 41.1822 122.096 41.0678 121.878 40.8389C121.673 40.6101 121.57 40.2841 121.57 39.8608V39.2259L121.69 39.3288C121.621 39.7178 121.472 40.0553 121.243 40.3413C121.026 40.6159 120.746 40.8332 120.403 40.9934C120.059 41.1421 119.665 41.2165 119.219 41.2165ZM129.68 41.2165C128.765 41.2165 127.964 41.0392 127.278 40.6845C126.603 40.3184 126.082 39.8036 125.716 39.1401C125.35 38.4765 125.167 37.6929 125.167 36.7891C125.167 36.1141 125.27 35.5078 125.476 34.9701C125.682 34.4324 125.979 33.9748 126.368 33.5973C126.769 33.2198 127.249 32.9337 127.81 32.7393C128.37 32.5333 128.994 32.4304 129.68 32.4304C130.035 32.4304 130.412 32.4761 130.813 32.5677C131.213 32.6477 131.608 32.7907 131.997 32.9967C132.226 33.0996 132.38 33.2484 132.46 33.4428C132.552 33.6259 132.586 33.8204 132.563 34.0263C132.54 34.2208 132.466 34.3981 132.34 34.5583C132.226 34.707 132.077 34.8099 131.894 34.8671C131.711 34.9129 131.505 34.8786 131.276 34.7642C131.059 34.6383 130.83 34.5468 130.59 34.4896C130.361 34.4324 130.144 34.4038 129.938 34.4038C129.594 34.4038 129.291 34.461 129.028 34.5754C128.765 34.6784 128.542 34.8328 128.359 35.0387C128.187 35.2332 128.05 35.4792 127.947 35.7766C127.856 36.0741 127.81 36.4173 127.81 36.8063C127.81 37.5613 127.993 38.1562 128.359 38.5909C128.736 39.0142 129.263 39.2259 129.938 39.2259C130.144 39.2259 130.361 39.203 130.59 39.1572C130.819 39.1 131.047 39.0085 131.276 38.8827C131.505 38.7683 131.711 38.7397 131.894 38.7969C132.077 38.8541 132.22 38.9627 132.323 39.1229C132.437 39.2716 132.5 39.449 132.512 39.6549C132.535 39.8494 132.5 40.0438 132.409 40.2383C132.329 40.4214 132.18 40.5644 131.963 40.6673C131.574 40.8618 131.185 40.9991 130.796 41.0792C130.407 41.1707 130.035 41.2165 129.68 41.2165ZM137.616 41.2165C136.827 41.2165 136.163 41.0849 135.626 40.8218C135.099 40.5587 134.705 40.1754 134.442 39.672C134.19 39.1687 134.064 38.5337 134.064 37.7672V34.5411H133.343C133.023 34.5411 132.771 34.4553 132.588 34.2837C132.417 34.1121 132.331 33.8776 132.331 33.5801C132.331 33.2598 132.417 33.0195 132.588 32.8594C132.771 32.6878 133.023 32.602 133.343 32.602H134.064V31.2978C134.064 30.8631 134.179 30.537 134.407 30.3197C134.636 30.0908 134.956 29.9764 135.368 29.9764C135.792 29.9764 136.112 30.0908 136.329 30.3197C136.547 30.537 136.655 30.8631 136.655 31.2978V32.602H138.286C138.606 32.602 138.852 32.6878 139.023 32.8594C139.195 33.0195 139.281 33.2598 139.281 33.5801C139.281 33.8776 139.195 34.1121 139.023 34.2837C138.852 34.4553 138.606 34.5411 138.286 34.5411H136.655V37.6643C136.655 38.1448 136.764 38.5051 136.981 38.7454C137.21 38.9856 137.571 39.1058 138.063 39.1058C138.234 39.1058 138.394 39.0886 138.543 39.0543C138.692 39.0199 138.829 38.9971 138.955 38.9856C139.115 38.9742 139.247 39.0257 139.35 39.1401C139.453 39.243 139.504 39.4776 139.504 39.8436C139.504 40.1182 139.458 40.3585 139.367 40.5644C139.275 40.7703 139.115 40.919 138.886 41.0105C138.737 41.0678 138.532 41.1135 138.268 41.1478C138.017 41.1936 137.799 41.2165 137.616 41.2165ZM144.041 41.2165C143.138 41.2165 142.348 41.0392 141.673 40.6845C141.01 40.3299 140.495 39.8208 140.129 39.1572C139.763 38.4937 139.58 37.71 139.58 36.8063C139.58 36.1313 139.683 35.525 139.889 34.9873C140.095 34.4496 140.392 33.992 140.781 33.6144C141.181 33.2255 141.656 32.9337 142.205 32.7393C142.754 32.5333 143.366 32.4304 144.041 32.4304C144.945 32.4304 145.729 32.6077 146.392 32.9623C147.067 33.317 147.588 33.8204 147.954 34.4725C148.332 35.1245 148.52 35.9025 148.52 36.8063C148.52 37.4927 148.412 38.1047 148.194 38.6424C147.988 39.1801 147.691 39.6434 147.302 40.0324C146.913 40.4214 146.438 40.7188 145.878 40.9247C145.328 41.1192 144.716 41.2165 144.041 41.2165ZM144.041 39.2774C144.419 39.2774 144.745 39.1858 145.02 39.0028C145.294 38.8197 145.511 38.5509 145.672 38.1963C145.832 37.8302 145.912 37.3668 145.912 36.8063C145.912 35.9711 145.74 35.3591 145.397 34.9701C145.054 34.5697 144.602 34.3695 144.041 34.3695C143.675 34.3695 143.349 34.4553 143.063 34.6269C142.789 34.7985 142.571 35.0673 142.411 35.4334C142.262 35.7881 142.188 36.2457 142.188 36.8063C142.188 37.6414 142.36 38.2649 142.703 38.6767C143.046 39.0772 143.492 39.2774 144.041 39.2774ZM151.092 41.1822C150.657 41.1822 150.326 41.0678 150.097 40.8389C149.868 40.6101 149.754 40.2841 149.754 39.8608V33.7689C149.754 33.3456 149.862 33.0253 150.08 32.8079C150.308 32.5791 150.623 32.4647 151.023 32.4647C151.435 32.4647 151.75 32.5791 151.967 32.8079C152.185 33.0253 152.293 33.3456 152.293 33.7689V34.6612H152.122C152.259 33.9748 152.562 33.4428 153.031 33.0653C153.5 32.6878 154.107 32.4761 154.85 32.4304C155.136 32.4075 155.354 32.4819 155.502 32.6535C155.662 32.8136 155.748 33.0825 155.76 33.46C155.783 33.8146 155.708 34.0949 155.537 34.3009C155.376 34.5068 155.102 34.6326 154.713 34.6784L154.318 34.7127C153.666 34.7699 153.18 34.9587 152.86 35.279C152.551 35.5993 152.396 36.0626 152.396 36.669V39.8608C152.396 40.2841 152.282 40.6101 152.053 40.8389C151.836 41.0678 151.515 41.1822 151.092 41.1822ZM161.498 41.1822C161.178 41.1822 160.915 41.1078 160.709 40.9591C160.514 40.8103 160.388 40.6101 160.331 40.3585C160.286 40.1068 160.337 39.8265 160.486 39.5176L164.879 29.8906C165.062 29.5017 165.279 29.2214 165.531 29.0498C165.783 28.8667 166.074 28.7752 166.406 28.7752C166.738 28.7752 167.03 28.8667 167.281 29.0498C167.533 29.2214 167.745 29.5017 167.916 29.8906L172.344 39.5176C172.492 39.8265 172.544 40.1125 172.498 40.3756C172.464 40.6273 172.349 40.8275 172.155 40.9762C171.96 41.1135 171.709 41.1822 171.4 41.1822C171.011 41.1822 170.708 41.0906 170.49 40.9076C170.284 40.7245 170.101 40.4385 169.941 40.0496L168.911 37.6643L169.975 38.4022H162.82L163.883 37.6643L162.871 40.0496C162.699 40.45 162.516 40.7417 162.322 40.9247C162.139 41.0964 161.864 41.1822 161.498 41.1822ZM166.372 31.7611L164.175 36.995L163.712 36.3258H169.083L168.62 36.995L166.406 31.7611H166.372ZM176.615 41.2165C175.906 41.2165 175.317 41.0849 174.848 40.8218C174.379 40.5587 174.03 40.164 173.801 39.6377C173.584 39.1 173.475 38.4365 173.475 37.6471V33.7689C173.475 33.3342 173.584 33.0081 173.801 32.7907C174.03 32.5734 174.35 32.4647 174.762 32.4647C175.174 32.4647 175.494 32.5734 175.723 32.7907C175.952 33.0081 176.066 33.3342 176.066 33.7689V37.7158C176.066 38.2191 176.169 38.5967 176.375 38.8483C176.581 39.0886 176.907 39.2087 177.353 39.2087C177.845 39.2087 178.245 39.0371 178.554 38.6939C178.875 38.3393 179.035 37.8759 179.035 37.3039V33.7689C179.035 33.3342 179.144 33.0081 179.361 32.7907C179.59 32.5734 179.91 32.4647 180.322 32.4647C180.745 32.4647 181.066 32.5734 181.283 32.7907C181.512 33.0081 181.626 33.3342 181.626 33.7689V39.8608C181.626 40.7417 181.209 41.1822 180.373 41.1822C179.962 41.1822 179.647 41.0678 179.43 40.8389C179.212 40.6101 179.104 40.2841 179.104 39.8608V38.7111L179.361 39.3803C179.109 39.9638 178.749 40.4157 178.28 40.736C177.811 41.0563 177.256 41.2165 176.615 41.2165ZM187.424 41.2165C186.634 41.2165 185.971 41.0849 185.433 40.8218C184.907 40.5587 184.512 40.1754 184.249 39.672C183.997 39.1687 183.871 38.5337 183.871 37.7672V34.5411H183.151C182.83 34.5411 182.579 34.4553 182.396 34.2837C182.224 34.1121 182.138 33.8776 182.138 33.5801C182.138 33.2598 182.224 33.0195 182.396 32.8594C182.579 32.6878 182.83 32.602 183.151 32.602H183.871V31.2978C183.871 30.8631 183.986 30.537 184.215 30.3197C184.443 30.0908 184.764 29.9764 185.176 29.9764C185.599 29.9764 185.919 30.0908 186.137 30.3197C186.354 30.537 186.463 30.8631 186.463 31.2978V32.602H188.093C188.413 32.602 188.659 32.6878 188.831 32.8594C189.002 33.0195 189.088 33.2598 189.088 33.5801C189.088 33.8776 189.002 34.1121 188.831 34.2837C188.659 34.4553 188.413 34.5411 188.093 34.5411H186.463V37.6643C186.463 38.1448 186.571 38.5051 186.789 38.7454C187.017 38.9856 187.378 39.1058 187.87 39.1058C188.041 39.1058 188.202 39.0886 188.35 39.0543C188.499 39.0199 188.636 38.9971 188.762 38.9856C188.922 38.9742 189.054 39.0257 189.157 39.1401C189.26 39.243 189.311 39.4776 189.311 39.8436C189.311 40.1182 189.265 40.3585 189.174 40.5644C189.082 40.7703 188.922 40.919 188.693 41.0105C188.545 41.0678 188.339 41.1135 188.076 41.1478C187.824 41.1936 187.607 41.2165 187.424 41.2165ZM191.455 41.1822C191.032 41.1822 190.706 41.0678 190.477 40.8389C190.259 40.6101 190.151 40.2841 190.151 39.8608V30.0966C190.151 29.6618 190.259 29.3358 190.477 29.1184C190.706 28.8896 191.032 28.7752 191.455 28.7752C191.867 28.7752 192.181 28.8896 192.399 29.1184C192.628 29.3358 192.742 29.6618 192.742 30.0966V34.1807H192.502C192.765 33.6202 193.154 33.1912 193.669 32.8937C194.195 32.5848 194.79 32.4304 195.453 32.4304C196.128 32.4304 196.683 32.5619 197.118 32.8251C197.553 33.0767 197.879 33.4657 198.096 33.992C198.313 34.5068 198.422 35.1646 198.422 35.9654V39.8608C198.422 40.2841 198.308 40.6101 198.079 40.8389C197.861 41.0678 197.541 41.1822 197.118 41.1822C196.706 41.1822 196.386 41.0678 196.157 40.8389C195.94 40.6101 195.831 40.2841 195.831 39.8608V36.0855C195.831 35.5021 195.722 35.0845 195.505 34.8328C195.299 34.5697 194.979 34.4381 194.544 34.4381C193.995 34.4381 193.554 34.6097 193.222 34.9529C192.902 35.2962 192.742 35.7538 192.742 36.3258V39.8608C192.742 40.7417 192.313 41.1822 191.455 41.1822ZM204.389 41.2165C203.394 41.2165 202.536 41.0392 201.815 40.6845C201.106 40.3184 200.557 39.8093 200.168 39.1572C199.79 38.4937 199.601 37.7158 199.601 36.8234C199.601 35.954 199.784 35.1932 200.151 34.5411C200.517 33.8776 201.026 33.3628 201.678 32.9967C202.341 32.6191 203.091 32.4304 203.926 32.4304C204.532 32.4304 205.081 32.5333 205.573 32.7393C206.065 32.9337 206.488 33.2198 206.843 33.5973C207.198 33.9634 207.467 34.4153 207.65 34.9529C207.833 35.4792 207.924 36.0684 207.924 36.7205C207.924 36.9378 207.856 37.1037 207.718 37.2181C207.581 37.3211 207.381 37.3726 207.118 37.3726H201.729V36.034H206.054L205.779 36.2743C205.779 35.8052 205.71 35.4163 205.573 35.1074C205.436 34.7871 205.236 34.5468 204.973 34.3867C204.721 34.2265 204.406 34.1464 204.029 34.1464C203.605 34.1464 203.245 34.2437 202.948 34.4381C202.65 34.6326 202.421 34.9129 202.261 35.279C202.101 35.6451 202.021 36.0855 202.021 36.6003V36.7376C202.021 37.6071 202.221 38.2477 202.622 38.6596C203.033 39.0714 203.64 39.2774 204.441 39.2774C204.715 39.2774 205.03 39.243 205.384 39.1744C205.739 39.1058 206.071 38.9971 206.38 38.8483C206.643 38.7225 206.877 38.6825 207.083 38.7282C207.289 38.7625 207.449 38.8541 207.564 39.0028C207.678 39.1515 207.741 39.3231 207.753 39.5176C207.775 39.7121 207.735 39.9066 207.632 40.1011C207.529 40.2841 207.358 40.4385 207.118 40.5644C206.729 40.7817 206.288 40.9419 205.796 41.0449C205.316 41.1593 204.847 41.2165 204.389 41.2165ZM210.392 41.1822C209.969 41.1822 209.643 41.0678 209.414 40.8389C209.197 40.6101 209.088 40.2841 209.088 39.8608V33.7689C209.088 33.3456 209.197 33.0253 209.414 32.8079C209.643 32.5791 209.958 32.4647 210.358 32.4647C210.77 32.4647 211.084 32.5791 211.302 32.8079C211.519 33.0253 211.628 33.3456 211.628 33.7689V34.747L211.439 34.1807C211.702 33.6202 212.091 33.1912 212.606 32.8937C213.132 32.5848 213.727 32.4304 214.391 32.4304C215.066 32.4304 215.621 32.5619 216.055 32.8251C216.49 33.0767 216.816 33.4657 217.033 33.992C217.251 34.5068 217.359 35.1646 217.359 35.9654V39.8608C217.359 40.2841 217.245 40.6101 217.016 40.8389C216.799 41.0678 216.479 41.1822 216.055 41.1822C215.643 41.1822 215.323 41.0678 215.094 40.8389C214.877 40.6101 214.768 40.2841 214.768 39.8608V36.0855C214.768 35.5021 214.66 35.0845 214.442 34.8328C214.236 34.5697 213.916 34.4381 213.481 34.4381C212.932 34.4381 212.492 34.6097 212.16 34.9529C211.84 35.2962 211.679 35.7538 211.679 36.3258V39.8608C211.679 40.7417 211.25 41.1822 210.392 41.1822ZM223.086 41.2165C222.297 41.2165 221.633 41.0849 221.096 40.8218C220.569 40.5587 220.175 40.1754 219.912 39.672C219.66 39.1687 219.534 38.5337 219.534 37.7672V34.5411H218.813C218.493 34.5411 218.241 34.4553 218.058 34.2837C217.887 34.1121 217.801 33.8776 217.801 33.5801C217.801 33.2598 217.887 33.0195 218.058 32.8594C218.241 32.6878 218.493 32.602 218.813 32.602H219.534V31.2978C219.534 30.8631 219.648 30.537 219.877 30.3197C220.106 30.0908 220.426 29.9764 220.838 29.9764C221.262 29.9764 221.582 30.0908 221.799 30.3197C222.017 30.537 222.125 30.8631 222.125 31.2978V32.602H223.756C224.076 32.602 224.322 32.6878 224.493 32.8594C224.665 33.0195 224.751 33.2598 224.751 33.5801C224.751 33.8776 224.665 34.1121 224.493 34.2837C224.322 34.4553 224.076 34.5411 223.756 34.5411H222.125V37.6643C222.125 38.1448 222.234 38.5051 222.451 38.7454C222.68 38.9856 223.041 39.1058 223.532 39.1058C223.704 39.1058 223.864 39.0886 224.013 39.0543C224.162 39.0199 224.299 38.9971 224.425 38.9856C224.585 38.9742 224.717 39.0257 224.819 39.1401C224.922 39.243 224.974 39.4776 224.974 39.8436C224.974 40.1182 224.928 40.3585 224.837 40.5644C224.745 40.7703 224.585 40.919 224.356 41.0105C224.207 41.0678 224.002 41.1135 223.738 41.1478C223.487 41.1936 223.269 41.2165 223.086 41.2165ZM227.118 41.165C226.694 41.165 226.368 41.0449 226.139 40.8046C225.922 40.5529 225.813 40.204 225.813 39.7578V33.889C225.813 33.4314 225.922 33.0825 226.139 32.8422C226.368 32.5905 226.694 32.4647 227.118 32.4647C227.529 32.4647 227.844 32.5905 228.061 32.8422C228.29 33.0825 228.405 33.4314 228.405 33.889V39.7578C228.405 40.204 228.296 40.5529 228.079 40.8046C227.861 41.0449 227.541 41.165 227.118 41.165ZM227.118 31.0575C226.637 31.0575 226.265 30.9489 226.002 30.7315C225.751 30.5027 225.625 30.1824 225.625 29.7705C225.625 29.3472 225.751 29.0269 226.002 28.8095C226.265 28.5807 226.637 28.4663 227.118 28.4663C227.598 28.4663 227.964 28.5807 228.216 28.8095C228.468 29.0269 228.593 29.3472 228.593 29.7705C228.593 30.1824 228.468 30.5027 228.216 30.7315C227.964 30.9489 227.598 31.0575 227.118 31.0575ZM234.163 41.2165C233.248 41.2165 232.447 41.0392 231.761 40.6845C231.086 40.3184 230.565 39.8036 230.199 39.1401C229.833 38.4765 229.65 37.6929 229.65 36.7891C229.65 36.1141 229.753 35.5078 229.959 34.9701C230.165 34.4324 230.462 33.9748 230.851 33.5973C231.252 33.2198 231.732 32.9337 232.293 32.7393C232.853 32.5333 233.477 32.4304 234.163 32.4304C234.518 32.4304 234.895 32.4761 235.296 32.5677C235.696 32.6477 236.091 32.7907 236.48 32.9967C236.709 33.0996 236.863 33.2484 236.943 33.4428C237.035 33.6259 237.069 33.8204 237.046 34.0263C237.023 34.2208 236.949 34.3981 236.823 34.5583C236.709 34.707 236.56 34.8099 236.377 34.8671C236.194 34.9129 235.988 34.8786 235.759 34.7642C235.542 34.6383 235.313 34.5468 235.073 34.4896C234.844 34.4324 234.627 34.4038 234.421 34.4038C234.077 34.4038 233.774 34.461 233.511 34.5754C233.248 34.6784 233.025 34.8328 232.842 35.0387C232.67 35.2332 232.533 35.4792 232.43 35.7766C232.339 36.0741 232.293 36.4173 232.293 36.8063C232.293 37.5613 232.476 38.1562 232.842 38.5909C233.219 39.0142 233.746 39.2259 234.421 39.2259C234.627 39.2259 234.844 39.203 235.073 39.1572C235.302 39.1 235.53 39.0085 235.759 38.8827C235.988 38.7683 236.194 38.7397 236.377 38.7969C236.56 38.8541 236.703 38.9627 236.806 39.1229C236.92 39.2716 236.983 39.449 236.995 39.6549C237.018 39.8494 236.983 40.0438 236.892 40.2383C236.812 40.4214 236.663 40.5644 236.446 40.6673C236.057 40.8618 235.668 40.9991 235.279 41.0792C234.89 41.1707 234.518 41.2165 234.163 41.2165ZM240.729 41.2165C240.111 41.2165 239.556 41.0964 239.064 40.8561C238.572 40.6159 238.189 40.2898 237.914 39.878C237.64 39.4661 237.502 39.0028 237.502 38.488C237.502 37.8702 237.663 37.384 237.983 37.0293C238.303 36.6633 238.824 36.4059 239.545 36.2571C240.265 36.097 241.221 36.0169 242.41 36.0169H243.32V37.3554H242.427C241.844 37.3554 241.369 37.3897 241.003 37.4584C240.649 37.5156 240.391 37.6185 240.231 37.7672C240.082 37.916 240.008 38.1219 240.008 38.385C240.008 38.7053 240.117 38.9685 240.334 39.1744C240.563 39.3803 240.889 39.4833 241.312 39.4833C241.644 39.4833 241.936 39.4089 242.187 39.2602C242.45 39.1 242.656 38.8884 242.805 38.6253C242.954 38.3507 243.028 38.0418 243.028 37.6986V35.7252C243.028 35.2218 242.914 34.8671 242.685 34.6612C242.456 34.4439 242.067 34.3352 241.518 34.3352C241.209 34.3352 240.872 34.3752 240.506 34.4553C240.151 34.5239 239.756 34.6441 239.321 34.8157C239.07 34.9301 238.847 34.9587 238.652 34.9015C238.458 34.8328 238.309 34.7184 238.206 34.5583C238.103 34.3867 238.052 34.2036 238.052 34.0091C238.052 33.8032 238.109 33.6087 238.223 33.4257C238.338 33.2312 238.526 33.0882 238.789 32.9967C239.327 32.7793 239.831 32.6306 240.3 32.5505C240.78 32.4704 241.221 32.4304 241.621 32.4304C242.502 32.4304 243.223 32.5619 243.783 32.8251C244.355 33.0767 244.784 33.4714 245.07 34.0091C245.356 34.5354 245.499 35.2161 245.499 36.0512V39.8608C245.499 40.2841 245.396 40.6101 245.19 40.8389C244.984 41.0678 244.687 41.1822 244.298 41.1822C243.909 41.1822 243.606 41.0678 243.388 40.8389C243.183 40.6101 243.08 40.2841 243.08 39.8608V39.2259L243.2 39.3288C243.131 39.7178 242.982 40.0553 242.754 40.3413C242.536 40.6159 242.256 40.8332 241.913 40.9934C241.569 41.1421 241.175 41.2165 240.729 41.2165ZM251.225 41.2165C250.435 41.2165 249.772 41.0849 249.234 40.8218C248.708 40.5587 248.313 40.1754 248.05 39.672C247.798 39.1687 247.672 38.5337 247.672 37.7672V34.5411H246.952C246.631 34.5411 246.38 34.4553 246.197 34.2837C246.025 34.1121 245.939 33.8776 245.939 33.5801C245.939 33.2598 246.025 33.0195 246.197 32.8594C246.38 32.6878 246.631 32.602 246.952 32.602H247.672V31.2978C247.672 30.8631 247.787 30.537 248.016 30.3197C248.244 30.0908 248.565 29.9764 248.977 29.9764C249.4 29.9764 249.72 30.0908 249.938 30.3197C250.155 30.537 250.264 30.8631 250.264 31.2978V32.602H251.894C252.214 32.602 252.46 32.6878 252.632 32.8594C252.803 33.0195 252.889 33.2598 252.889 33.5801C252.889 33.8776 252.803 34.1121 252.632 34.2837C252.46 34.4553 252.214 34.5411 251.894 34.5411H250.264V37.6643C250.264 38.1448 250.372 38.5051 250.59 38.7454C250.818 38.9856 251.179 39.1058 251.671 39.1058C251.842 39.1058 252.002 39.0886 252.151 39.0543C252.3 39.0199 252.437 38.9971 252.563 38.9856C252.723 38.9742 252.855 39.0257 252.958 39.1401C253.061 39.243 253.112 39.4776 253.112 39.8436C253.112 40.1182 253.066 40.3585 252.975 40.5644C252.883 40.7703 252.723 40.919 252.494 41.0105C252.346 41.0678 252.14 41.1135 251.877 41.1478C251.625 41.1936 251.408 41.2165 251.225 41.2165ZM255.256 41.165C254.833 41.165 254.507 41.0449 254.278 40.8046C254.06 40.5529 253.952 40.204 253.952 39.7578V33.889C253.952 33.4314 254.06 33.0825 254.278 32.8422C254.507 32.5905 254.833 32.4647 255.256 32.4647C255.668 32.4647 255.982 32.5905 256.2 32.8422C256.429 33.0825 256.543 33.4314 256.543 33.889V39.7578C256.543 40.204 256.434 40.5529 256.217 40.8046C256 41.0449 255.679 41.165 255.256 41.165ZM255.256 31.0575C254.775 31.0575 254.404 30.9489 254.14 30.7315C253.889 30.5027 253.763 30.1824 253.763 29.7705C253.763 29.3472 253.889 29.0269 254.14 28.8095C254.404 28.5807 254.775 28.4663 255.256 28.4663C255.736 28.4663 256.102 28.5807 256.354 28.8095C256.606 29.0269 256.732 29.3472 256.732 29.7705C256.732 30.1824 256.606 30.5027 256.354 30.7315C256.102 30.9489 255.736 31.0575 255.256 31.0575ZM262.25 41.2165C261.346 41.2165 260.557 41.0392 259.882 40.6845C259.218 40.3299 258.704 39.8208 258.338 39.1572C257.971 38.4937 257.788 37.71 257.788 36.8063C257.788 36.1313 257.891 35.525 258.097 34.9873C258.303 34.4496 258.601 33.992 258.99 33.6144C259.39 33.2255 259.865 32.9337 260.414 32.7393C260.963 32.5333 261.575 32.4304 262.25 32.4304C263.154 32.4304 263.938 32.6077 264.601 32.9623C265.276 33.317 265.797 33.8204 266.163 34.4725C266.54 35.1245 266.729 35.9025 266.729 36.8063C266.729 37.4927 266.62 38.1047 266.403 38.6424C266.197 39.1801 265.9 39.6434 265.511 40.0324C265.122 40.4214 264.647 40.7188 264.086 40.9247C263.537 41.1192 262.925 41.2165 262.25 41.2165ZM262.25 39.2774C262.628 39.2774 262.954 39.1858 263.228 39.0028C263.503 38.8197 263.72 38.5509 263.88 38.1963C264.04 37.8302 264.121 37.3668 264.121 36.8063C264.121 35.9711 263.949 35.3591 263.606 34.9701C263.263 34.5697 262.811 34.3695 262.25 34.3695C261.884 34.3695 261.558 34.4553 261.272 34.6269C260.997 34.7985 260.78 35.0673 260.62 35.4334C260.471 35.7881 260.397 36.2457 260.397 36.8063C260.397 37.6414 260.568 38.2649 260.912 38.6767C261.255 39.0772 261.701 39.2774 262.25 39.2774ZM269.266 41.1822C268.843 41.1822 268.517 41.0678 268.288 40.8389C268.071 40.6101 267.962 40.2841 267.962 39.8608V33.7689C267.962 33.3456 268.071 33.0253 268.288 32.8079C268.517 32.5791 268.832 32.4647 269.232 32.4647C269.644 32.4647 269.959 32.5791 270.176 32.8079C270.393 33.0253 270.502 33.3456 270.502 33.7689V34.747L270.313 34.1807C270.576 33.6202 270.965 33.1912 271.48 32.8937C272.006 32.5848 272.601 32.4304 273.265 32.4304C273.94 32.4304 274.495 32.5619 274.929 32.8251C275.364 33.0767 275.69 33.4657 275.907 33.992C276.125 34.5068 276.233 35.1646 276.233 35.9654V39.8608C276.233 40.2841 276.119 40.6101 275.89 40.8389C275.673 41.0678 275.353 41.1822 274.929 41.1822C274.517 41.1822 274.197 41.0678 273.968 40.8389C273.751 40.6101 273.642 40.2841 273.642 39.8608V36.0855C273.642 35.5021 273.534 35.0845 273.316 34.8328C273.11 34.5697 272.79 34.4381 272.355 34.4381C271.806 34.4381 271.366 34.6097 271.034 34.9529C270.714 35.2962 270.553 35.7538 270.553 36.3258V39.8608C270.553 40.7417 270.124 41.1822 269.266 41.1822Z" fill="#2F3C33"/>
<path d="M95.992 63.9612C95.5827 63.9612 95.1823 63.93 94.7907 63.8678C94.3992 63.8055 94.03 63.712 93.6829 63.5875C93.3359 63.454 93.0245 63.2938 92.7487 63.107C92.6152 63.0091 92.5218 62.8979 92.4684 62.7733C92.4239 62.6487 92.4105 62.5286 92.4283 62.4129C92.455 62.2884 92.5084 62.1816 92.5885 62.0926C92.6686 62.0036 92.7665 61.9502 92.8821 61.9325C92.9978 61.9058 93.1268 61.9414 93.2692 62.0392C93.6696 62.2973 94.0923 62.4886 94.5371 62.6131C94.982 62.7288 95.467 62.7867 95.992 62.7867C96.7483 62.7867 97.3044 62.6532 97.6603 62.3862C98.0251 62.1104 98.2076 61.7545 98.2076 61.3185C98.2076 60.9626 98.0785 60.6823 97.8205 60.4776C97.5625 60.2641 97.1309 60.095 96.5258 59.9705L95.0977 59.6768C94.2524 59.4989 93.6207 59.2052 93.2025 58.7959C92.7931 58.3866 92.5885 57.8349 92.5885 57.1409C92.5885 56.7227 92.673 56.3401 92.8421 55.9931C93.02 55.646 93.2647 55.348 93.5762 55.0988C93.8876 54.8408 94.2613 54.645 94.6973 54.5116C95.1333 54.3781 95.6094 54.3114 96.1254 54.3114C96.6771 54.3114 97.1932 54.3825 97.6737 54.5249C98.1631 54.6673 98.5991 54.8853 98.9817 55.1789C99.0974 55.259 99.173 55.3613 99.2086 55.4859C99.2531 55.6016 99.262 55.7172 99.2353 55.8329C99.2175 55.9486 99.1685 56.0465 99.0885 56.1265C99.0084 56.2066 98.906 56.2556 98.7815 56.2734C98.6569 56.2822 98.519 56.2378 98.3677 56.1399C98.0207 55.9085 97.6648 55.7439 97.3 55.646C96.944 55.5393 96.5481 55.4859 96.1121 55.4859C95.6761 55.4859 95.2935 55.5526 94.9643 55.6861C94.6439 55.8196 94.3948 56.0064 94.2168 56.2467C94.0478 56.4869 93.9632 56.7716 93.9632 57.1009C93.9632 57.4746 94.0834 57.7727 94.3236 57.9951C94.5638 58.2176 94.9643 58.3866 95.5248 58.5023L96.9396 58.7959C97.8294 58.9828 98.4923 59.272 98.9283 59.6635C99.3643 60.055 99.5823 60.5755 99.5823 61.2251C99.5823 61.6433 99.4978 62.0214 99.3287 62.3596C99.1596 62.6888 98.9194 62.9735 98.608 63.2138C98.2965 63.454 97.9184 63.6409 97.4735 63.7743C97.0375 63.8989 96.5436 63.9612 95.992 63.9612ZM103.934 63.9612C103.222 63.9612 102.609 63.8277 102.092 63.5608C101.585 63.2849 101.189 62.8979 100.905 62.3996C100.629 61.8924 100.491 61.2918 100.491 60.5978C100.491 59.9215 100.629 59.3298 100.905 58.8226C101.18 58.3154 101.559 57.9195 102.039 57.6347C102.52 57.35 103.067 57.2076 103.681 57.2076C104.135 57.2076 104.539 57.2833 104.895 57.4345C105.251 57.5769 105.554 57.7905 105.803 58.0752C106.061 58.351 106.252 58.6891 106.377 59.0896C106.51 59.49 106.577 59.9393 106.577 60.4376C106.577 60.5889 106.533 60.7045 106.444 60.7846C106.355 60.8558 106.221 60.8914 106.043 60.8914H101.559V60.0639H105.669L105.443 60.2507C105.443 59.8058 105.376 59.4277 105.242 59.1162C105.118 58.8048 104.926 58.569 104.668 58.4089C104.419 58.2398 104.108 58.1553 103.734 58.1553C103.316 58.1553 102.96 58.2531 102.666 58.4489C102.382 58.6447 102.164 58.916 102.012 59.2631C101.861 59.6101 101.785 60.0149 101.785 60.4776V60.5577C101.785 61.3407 101.968 61.9325 102.333 62.3329C102.706 62.7244 103.245 62.9201 103.948 62.9201C104.215 62.9201 104.495 62.8845 104.789 62.8134C105.091 62.7422 105.376 62.622 105.643 62.453C105.794 62.364 105.927 62.324 106.043 62.3329C106.168 62.3418 106.266 62.3818 106.337 62.453C106.417 62.5242 106.466 62.6131 106.484 62.7199C106.501 62.8267 106.484 62.9379 106.43 63.0536C106.377 63.1604 106.283 63.2582 106.15 63.3472C105.847 63.5519 105.496 63.7076 105.096 63.8144C104.695 63.9122 104.308 63.9612 103.934 63.9612ZM108.581 63.9345C108.367 63.9345 108.202 63.8767 108.087 63.761C107.971 63.6364 107.913 63.4674 107.913 63.2538V57.915C107.913 57.6926 107.971 57.5235 108.087 57.4078C108.202 57.2922 108.363 57.2343 108.567 57.2343C108.781 57.2343 108.941 57.2922 109.048 57.4078C109.163 57.5235 109.221 57.6926 109.221 57.915V58.9561L109.074 58.7158C109.27 58.2176 109.577 57.8438 109.995 57.5947C110.414 57.3367 110.894 57.2076 111.437 57.2076C111.953 57.2076 112.38 57.3055 112.718 57.5013C113.065 57.6881 113.323 57.9773 113.492 58.3688C113.661 58.7514 113.746 59.2364 113.746 59.8236V63.2538C113.746 63.4674 113.688 63.6364 113.572 63.761C113.457 63.8767 113.292 63.9345 113.078 63.9345C112.856 63.9345 112.687 63.8767 112.571 63.761C112.456 63.6364 112.398 63.4674 112.398 63.2538V59.9037C112.398 59.3431 112.287 58.9338 112.064 58.6758C111.851 58.4178 111.512 58.2887 111.05 58.2887C110.507 58.2887 110.071 58.4578 109.742 58.7959C109.421 59.134 109.261 59.5878 109.261 60.1573V63.2538C109.261 63.7076 109.034 63.9345 108.581 63.9345ZM117.952 63.9612C117.383 63.9612 116.88 63.8277 116.444 63.5608C116.017 63.2849 115.683 62.8934 115.443 62.3862C115.203 61.8702 115.083 61.2696 115.083 60.5844C115.083 59.8815 115.203 59.2809 115.443 58.7826C115.683 58.2843 116.017 57.8972 116.444 57.6214C116.88 57.3456 117.383 57.2076 117.952 57.2076C118.522 57.2076 119.011 57.35 119.421 57.6347C119.839 57.9106 120.119 58.2843 120.261 58.7559H120.115V55.0187C120.115 54.7963 120.172 54.6272 120.288 54.5116C120.404 54.3959 120.568 54.338 120.782 54.338C120.995 54.338 121.16 54.3959 121.276 54.5116C121.4 54.6272 121.463 54.7963 121.463 55.0187V63.2538C121.463 63.4674 121.405 63.6364 121.289 63.761C121.173 63.8767 121.009 63.9345 120.795 63.9345C120.582 63.9345 120.417 63.8767 120.301 63.761C120.186 63.6364 120.128 63.4674 120.128 63.2538V62.0793L120.275 62.3729C120.132 62.8534 119.852 63.2405 119.434 63.5341C119.025 63.8188 118.531 63.9612 117.952 63.9612ZM118.299 62.9201C118.664 62.9201 118.985 62.8311 119.26 62.6532C119.536 62.4752 119.75 62.2127 119.901 61.8657C120.061 61.5187 120.141 61.0916 120.141 60.5844C120.141 59.8192 119.972 59.2408 119.634 58.8493C119.296 58.4578 118.851 58.262 118.299 58.262C117.926 58.262 117.601 58.351 117.325 58.529C117.049 58.698 116.831 58.9561 116.671 59.3031C116.52 59.6501 116.444 60.0772 116.444 60.5844C116.444 61.3407 116.613 61.9191 116.951 62.3195C117.289 62.7199 117.739 62.9201 118.299 62.9201ZM129.13 63.9345C128.943 63.9345 128.779 63.8856 128.636 63.7877C128.503 63.6898 128.392 63.5385 128.303 63.3339L126.074 58.1553C126.003 57.9951 125.976 57.8438 125.994 57.7015C126.012 57.5591 126.078 57.4479 126.194 57.3678C126.31 57.2788 126.465 57.2343 126.661 57.2343C126.83 57.2343 126.964 57.2744 127.062 57.3545C127.159 57.4345 127.248 57.5725 127.328 57.7682L129.344 62.7333H128.97L131.026 57.7682C131.106 57.5725 131.195 57.4345 131.293 57.3545C131.399 57.2744 131.546 57.2343 131.733 57.2343C131.893 57.2343 132.018 57.2788 132.107 57.3678C132.205 57.4479 132.262 57.5591 132.28 57.7015C132.307 57.8349 132.285 57.9818 132.213 58.1419L129.958 63.3339C129.878 63.5385 129.767 63.6898 129.624 63.7877C129.482 63.8856 129.317 63.9345 129.13 63.9345ZM134.076 63.9211C133.862 63.9211 133.698 63.8589 133.582 63.7343C133.466 63.6008 133.408 63.4184 133.408 63.1871V57.9818C133.408 57.7504 133.466 57.5725 133.582 57.4479C133.698 57.3233 133.862 57.261 134.076 57.261C134.289 57.261 134.454 57.3233 134.57 57.4479C134.694 57.5725 134.756 57.7504 134.756 57.9818V63.1871C134.756 63.4184 134.699 63.6008 134.583 63.7343C134.467 63.8589 134.298 63.9211 134.076 63.9211ZM134.076 55.8729C133.809 55.8729 133.6 55.8062 133.448 55.6727C133.306 55.5393 133.235 55.3524 133.235 55.1122C133.235 54.863 133.306 54.6762 133.448 54.5516C133.6 54.4181 133.809 54.3514 134.076 54.3514C134.343 54.3514 134.547 54.4181 134.69 54.5516C134.841 54.6762 134.917 54.863 134.917 55.1122C134.917 55.3524 134.841 55.5393 134.69 55.6727C134.547 55.8062 134.343 55.8729 134.076 55.8729ZM138.603 63.9612C138.149 63.9612 137.739 63.8722 137.375 63.6942C137.019 63.5163 136.738 63.276 136.534 62.9735C136.329 62.671 136.227 62.3284 136.227 61.9458C136.227 61.4653 136.347 61.0871 136.587 60.8113C136.836 60.5266 137.241 60.3264 137.802 60.2107C138.371 60.0861 139.136 60.0238 140.097 60.0238H140.725V60.8514H140.111C139.47 60.8514 138.963 60.8825 138.589 60.9448C138.216 61.0071 137.949 61.1138 137.788 61.2651C137.637 61.4075 137.562 61.6077 137.562 61.8657C137.562 62.2038 137.677 62.4797 137.909 62.6932C138.14 62.8979 138.46 63.0002 138.87 63.0002C139.199 63.0002 139.488 62.9246 139.737 62.7733C139.986 62.6131 140.182 62.3996 140.324 62.1327C140.476 61.8657 140.551 61.5587 140.551 61.2117V59.6768C140.551 59.1696 140.444 58.8048 140.231 58.5824C140.017 58.3599 139.666 58.2487 139.177 58.2487C138.892 58.2487 138.594 58.2843 138.282 58.3555C137.98 58.4267 137.664 58.5468 137.335 58.7158C137.183 58.787 137.054 58.8093 136.948 58.7826C136.841 58.7559 136.756 58.698 136.694 58.6091C136.632 58.5112 136.596 58.4089 136.587 58.3021C136.587 58.1864 136.614 58.0752 136.667 57.9684C136.73 57.8616 136.832 57.7816 136.974 57.7282C137.366 57.5413 137.753 57.4078 138.135 57.3278C138.518 57.2477 138.878 57.2076 139.217 57.2076C139.813 57.2076 140.302 57.3011 140.685 57.4879C141.076 57.6748 141.365 57.9595 141.552 58.3421C141.739 58.7247 141.833 59.2186 141.833 59.8236V63.2538C141.833 63.4674 141.779 63.6364 141.672 63.761C141.566 63.8767 141.41 63.9345 141.205 63.9345C141.009 63.9345 140.854 63.8767 140.738 63.761C140.622 63.6364 140.565 63.4674 140.565 63.2538V62.3862H140.685C140.614 62.7155 140.48 63.0002 140.284 63.2405C140.097 63.4718 139.862 63.6498 139.577 63.7743C139.292 63.8989 138.967 63.9612 138.603 63.9612ZM147.742 63.8411C147.502 63.8411 147.329 63.7877 147.222 63.6809C147.115 63.5652 147.062 63.4095 147.062 63.2138C147.062 63.0892 147.093 62.9691 147.155 62.8534C147.217 62.7377 147.306 62.6176 147.422 62.493L150.265 59.4499C150.701 58.9872 151.012 58.5646 151.199 58.182C151.395 57.7905 151.493 57.3989 151.493 57.0074C151.493 56.5091 151.342 56.131 151.039 55.8729C150.736 55.6149 150.292 55.4859 149.704 55.4859C149.348 55.4859 149.006 55.5393 148.677 55.646C148.347 55.7528 148.018 55.9263 147.689 56.1666C147.555 56.2556 147.431 56.2956 147.315 56.2867C147.2 56.2778 147.097 56.2333 147.008 56.1532C146.928 56.0731 146.875 55.9753 146.848 55.8596C146.821 55.7439 146.826 55.6238 146.861 55.4992C146.897 55.3747 146.982 55.2679 147.115 55.1789C147.48 54.9031 147.902 54.6895 148.383 54.5382C148.863 54.387 149.353 54.3114 149.851 54.3114C150.501 54.3114 151.048 54.4137 151.493 54.6183C151.947 54.8141 152.289 55.1033 152.521 55.4859C152.752 55.8685 152.868 56.3356 152.868 56.8873C152.868 57.261 152.805 57.6258 152.681 57.9818C152.565 58.3377 152.383 58.7025 152.133 59.0762C151.893 59.441 151.577 59.8281 151.186 60.2374L148.49 63.0669V62.6799H152.734C152.93 62.6799 153.081 62.7288 153.188 62.8267C153.295 62.9246 153.348 63.0669 153.348 63.2538C153.348 63.4407 153.295 63.5875 153.188 63.6942C153.081 63.7921 152.93 63.8411 152.734 63.8411H147.742ZM155.692 63.9345C155.461 63.9345 155.278 63.8722 155.145 63.7476C155.02 63.6231 154.958 63.4407 154.958 63.2004V55.1789C154.958 54.9387 155.02 54.7562 155.145 54.6317C155.278 54.4982 155.465 54.4315 155.705 54.4315H160.457C160.652 54.4315 160.795 54.4804 160.884 54.5783C160.982 54.6673 161.031 54.8007 161.031 54.9787C161.031 55.1656 160.982 55.3079 160.884 55.4058C160.795 55.5037 160.652 55.5526 160.457 55.5526H156.346V58.5557H160.19C160.368 58.5557 160.506 58.6046 160.604 58.7025C160.71 58.7915 160.764 58.9249 160.764 59.1029C160.764 59.2898 160.71 59.4321 160.604 59.53C160.506 59.6279 160.368 59.6768 160.19 59.6768H156.346V63.2004C156.346 63.6898 156.128 63.9345 155.692 63.9345ZM161.418 63.9345C161.24 63.9345 161.098 63.8945 160.991 63.8144C160.884 63.7343 160.822 63.6275 160.804 63.494C160.787 63.3606 160.813 63.2093 160.884 63.0402L164.501 54.9253C164.59 54.7118 164.702 54.5605 164.835 54.4715C164.978 54.3825 165.133 54.338 165.302 54.338C165.462 54.338 165.609 54.3825 165.743 54.4715C165.885 54.5605 166.001 54.7118 166.09 54.9253L169.707 63.0402C169.787 63.2093 169.818 63.365 169.8 63.5074C169.782 63.6409 169.725 63.7476 169.627 63.8277C169.529 63.8989 169.391 63.9345 169.213 63.9345C169.017 63.9345 168.861 63.8856 168.746 63.7877C168.63 63.6898 168.528 63.5385 168.439 63.3339L167.505 61.1717L168.132 61.5454H162.446L163.06 61.1717L162.139 63.3339C162.05 63.5474 161.952 63.7031 161.845 63.801C161.739 63.89 161.596 63.9345 161.418 63.9345ZM165.276 55.9664L163.26 60.7446L162.927 60.4242H167.638L167.331 60.7446L165.302 55.9664H165.276ZM176.687 63.9612C176.296 63.9612 175.891 63.9167 175.473 63.8277C175.063 63.7387 174.685 63.5875 174.338 63.3739C174.223 63.2938 174.142 63.2049 174.098 63.107C174.053 63.0091 174.036 62.9112 174.045 62.8134C174.062 62.7066 174.102 62.6176 174.165 62.5464C174.236 62.4663 174.32 62.4174 174.418 62.3996C174.525 62.3818 174.636 62.404 174.752 62.4663C175.099 62.6621 175.433 62.8 175.753 62.8801C176.073 62.9513 176.389 62.9869 176.701 62.9869C177.172 62.9869 177.528 62.9023 177.768 62.7333C178.009 62.5642 178.129 62.3373 178.129 62.0526C178.129 61.8212 178.049 61.6433 177.888 61.5187C177.728 61.3852 177.488 61.2829 177.168 61.2117L175.9 60.9581C175.348 60.8425 174.93 60.6378 174.645 60.3442C174.36 60.0505 174.218 59.6768 174.218 59.223C174.218 58.8137 174.329 58.4578 174.552 58.1553C174.774 57.8527 175.086 57.6214 175.486 57.4612C175.886 57.2922 176.349 57.2076 176.874 57.2076C177.266 57.2076 177.635 57.2566 177.982 57.3545C178.329 57.4523 178.649 57.5991 178.943 57.7949C179.059 57.8572 179.134 57.9417 179.17 58.0485C179.205 58.1464 179.21 58.2442 179.183 58.3421C179.165 58.44 179.121 58.529 179.05 58.6091C178.978 58.6802 178.889 58.7247 178.783 58.7425C178.685 58.7514 178.574 58.7247 178.449 58.6625C178.182 58.4934 177.915 58.3733 177.648 58.3021C177.39 58.2309 177.132 58.1953 176.874 58.1953C176.403 58.1953 176.047 58.2843 175.806 58.4622C175.575 58.6313 175.459 58.8627 175.459 59.1563C175.459 59.3787 175.531 59.5611 175.673 59.7035C175.815 59.8459 176.038 59.9482 176.34 60.0105L177.608 60.2641C178.187 60.3798 178.623 60.5755 178.916 60.8514C179.219 61.1272 179.37 61.5009 179.37 61.9725C179.37 62.5865 179.125 63.0714 178.636 63.4273C178.147 63.7832 177.497 63.9612 176.687 63.9612ZM183.793 63.9612C183.081 63.9612 182.467 63.8277 181.951 63.5608C181.444 63.2849 181.048 62.8979 180.763 62.3996C180.487 61.8924 180.349 61.2918 180.349 60.5978C180.349 59.9215 180.487 59.3298 180.763 58.8226C181.039 58.3154 181.417 57.9195 181.898 57.6347C182.378 57.35 182.925 57.2076 183.539 57.2076C183.993 57.2076 184.398 57.2833 184.754 57.4345C185.11 57.5769 185.412 57.7905 185.661 58.0752C185.919 58.351 186.111 58.6891 186.235 59.0896C186.369 59.49 186.436 59.9393 186.436 60.4376C186.436 60.5889 186.391 60.7045 186.302 60.7846C186.213 60.8558 186.08 60.8914 185.902 60.8914H181.417V60.0639H185.528L185.301 60.2507C185.301 59.8058 185.234 59.4277 185.101 59.1162C184.976 58.8048 184.785 58.569 184.527 58.4089C184.278 58.2398 183.966 58.1553 183.593 58.1553C183.174 58.1553 182.818 58.2531 182.525 58.4489C182.24 58.6447 182.022 58.916 181.871 59.2631C181.72 59.6101 181.644 60.0149 181.644 60.4776V60.5577C181.644 61.3407 181.826 61.9325 182.191 62.3329C182.565 62.7244 183.103 62.9201 183.806 62.9201C184.073 62.9201 184.353 62.8845 184.647 62.8134C184.95 62.7422 185.234 62.622 185.501 62.453C185.652 62.364 185.786 62.324 185.902 62.3329C186.026 62.3418 186.124 62.3818 186.195 62.453C186.275 62.5242 186.324 62.6131 186.342 62.7199C186.36 62.8267 186.342 62.9379 186.289 63.0536C186.235 63.1604 186.142 63.2582 186.008 63.3472C185.706 63.5519 185.354 63.7076 184.954 63.8144C184.554 63.9122 184.167 63.9612 183.793 63.9612ZM190.641 63.9612C189.974 63.9612 189.396 63.8233 188.906 63.5474C188.426 63.2627 188.052 62.8667 187.785 62.3596C187.518 61.8435 187.385 61.2384 187.385 60.5444C187.385 60.0283 187.46 59.5656 187.612 59.1563C187.763 58.7381 187.976 58.3866 188.252 58.1019C188.537 57.8171 188.879 57.5991 189.28 57.4479C189.689 57.2877 190.143 57.2076 190.641 57.2076C190.953 57.2076 191.277 57.2566 191.616 57.3545C191.963 57.4434 192.283 57.5947 192.577 57.8082C192.692 57.8794 192.763 57.9684 192.79 58.0752C192.826 58.1731 192.83 58.2754 192.803 58.3822C192.786 58.4889 192.737 58.5824 192.657 58.6625C192.585 58.7336 192.496 58.7781 192.39 58.7959C192.283 58.8048 192.167 58.7737 192.043 58.7025C191.829 58.5512 191.611 58.4445 191.389 58.3822C191.166 58.311 190.953 58.2754 190.748 58.2754C190.428 58.2754 190.143 58.3288 189.894 58.4356C189.654 58.5334 189.449 58.6802 189.28 58.876C189.111 59.0629 188.982 59.2987 188.893 59.5834C188.813 59.8681 188.773 60.1929 188.773 60.5577C188.773 61.2874 188.942 61.8613 189.28 62.2795C189.627 62.6888 190.116 62.8934 190.748 62.8934C190.953 62.8934 191.166 62.8623 191.389 62.8C191.611 62.7377 191.829 62.6309 192.043 62.4797C192.167 62.4085 192.283 62.3818 192.39 62.3996C192.496 62.4174 192.581 62.4663 192.643 62.5464C192.714 62.6176 192.759 62.7066 192.777 62.8134C192.803 62.9112 192.799 63.0136 192.763 63.1203C192.728 63.2271 192.652 63.3161 192.537 63.3873C192.252 63.5919 191.94 63.7387 191.602 63.8277C191.273 63.9167 190.953 63.9612 190.641 63.9612ZM196.191 63.9612C195.666 63.9612 195.225 63.8633 194.87 63.6676C194.523 63.4718 194.26 63.1826 194.082 62.8C193.913 62.4085 193.828 61.9191 193.828 61.3318V57.915C193.828 57.6837 193.886 57.5146 194.002 57.4078C194.118 57.2922 194.282 57.2343 194.496 57.2343C194.709 57.2343 194.874 57.2922 194.99 57.4078C195.114 57.5146 195.177 57.6837 195.177 57.915V61.3452C195.177 61.8702 195.283 62.2572 195.497 62.5064C195.71 62.7555 196.049 62.8801 196.511 62.8801C197.018 62.8801 197.428 62.711 197.739 62.3729C198.059 62.0259 198.22 61.5721 198.22 61.0115V57.915C198.22 57.6837 198.277 57.5146 198.393 57.4078C198.509 57.2922 198.678 57.2343 198.9 57.2343C199.114 57.2343 199.278 57.2922 199.394 57.4078C199.51 57.5146 199.568 57.6837 199.568 57.915V63.2538C199.568 63.7076 199.35 63.9345 198.914 63.9345C198.709 63.9345 198.549 63.8767 198.433 63.761C198.317 63.6364 198.26 63.4674 198.26 63.2538V62.1193L198.433 62.4129C198.255 62.9112 197.97 63.2938 197.579 63.5608C197.187 63.8277 196.725 63.9612 196.191 63.9612ZM202.015 63.9345C201.792 63.9345 201.623 63.8767 201.507 63.761C201.392 63.6364 201.334 63.4674 201.334 63.2538V57.915C201.334 57.6926 201.392 57.5235 201.507 57.4078C201.623 57.2922 201.783 57.2343 201.988 57.2343C202.201 57.2343 202.362 57.2922 202.468 57.4078C202.584 57.5235 202.642 57.6926 202.642 57.915V58.8894H202.508C202.651 58.3555 202.913 57.9506 203.296 57.6748C203.679 57.3989 204.168 57.2388 204.764 57.1943C204.924 57.1854 205.049 57.2254 205.138 57.3144C205.236 57.4034 205.289 57.5413 205.298 57.7282C205.316 57.915 205.276 58.0663 205.178 58.182C205.08 58.2887 204.929 58.351 204.724 58.3688L204.47 58.3955C203.892 58.4489 203.452 58.6313 203.149 58.9427C202.847 59.2542 202.695 59.6813 202.695 60.224V63.2538C202.695 63.4674 202.637 63.6364 202.522 63.761C202.415 63.8767 202.246 63.9345 202.015 63.9345ZM209.145 63.9612C208.433 63.9612 207.819 63.8277 207.303 63.5608C206.796 63.2849 206.4 62.8979 206.115 62.3996C205.839 61.8924 205.701 61.2918 205.701 60.5978C205.701 59.9215 205.839 59.3298 206.115 58.8226C206.391 58.3154 206.769 57.9195 207.249 57.6347C207.73 57.35 208.277 57.2076 208.891 57.2076C209.345 57.2076 209.75 57.2833 210.106 57.4345C210.462 57.5769 210.764 57.7905 211.013 58.0752C211.271 58.351 211.463 58.6891 211.587 59.0896C211.721 59.49 211.787 59.9393 211.787 60.4376C211.787 60.5889 211.743 60.7045 211.654 60.7846C211.565 60.8558 211.431 60.8914 211.254 60.8914H206.769V60.0639H210.88L210.653 60.2507C210.653 59.8058 210.586 59.4277 210.453 59.1162C210.328 58.8048 210.137 58.569 209.879 58.4089C209.63 58.2398 209.318 58.1553 208.944 58.1553C208.526 58.1553 208.17 58.2531 207.877 58.4489C207.592 58.6447 207.374 58.916 207.223 59.2631C207.071 59.6101 206.996 60.0149 206.996 60.4776V60.5577C206.996 61.3407 207.178 61.9325 207.543 62.3329C207.917 62.7244 208.455 62.9201 209.158 62.9201C209.425 62.9201 209.705 62.8845 209.999 62.8134C210.301 62.7422 210.586 62.622 210.853 62.453C211.004 62.364 211.138 62.324 211.254 62.3329C211.378 62.3418 211.476 62.3818 211.547 62.453C211.627 62.5242 211.676 62.6131 211.694 62.7199C211.712 62.8267 211.694 62.9379 211.641 63.0536C211.587 63.1604 211.494 63.2582 211.36 63.3472C211.058 63.5519 210.706 63.7076 210.306 63.8144C209.905 63.9122 209.518 63.9612 209.145 63.9612ZM215.219 63.9612C214.525 63.9612 214 63.761 213.644 63.3606C213.297 62.9513 213.124 62.364 213.124 61.5988V55.0187C213.124 54.7963 213.181 54.6272 213.297 54.5116C213.413 54.3959 213.577 54.338 213.791 54.338C214.004 54.338 214.169 54.3959 214.285 54.5116C214.409 54.6272 214.472 54.7963 214.472 55.0187V61.5187C214.472 61.9636 214.561 62.2973 214.739 62.5197C214.925 62.7333 215.192 62.84 215.539 62.84C215.619 62.84 215.691 62.84 215.753 62.84C215.815 62.8311 215.877 62.8222 215.94 62.8134C216.047 62.8045 216.122 62.8356 216.167 62.9068C216.211 62.9691 216.233 63.1025 216.233 63.3072C216.233 63.494 216.193 63.6409 216.113 63.7476C216.033 63.8455 215.904 63.9078 215.726 63.9345C215.646 63.9434 215.562 63.9478 215.473 63.9478C215.384 63.9567 215.299 63.9612 215.219 63.9612ZM218.448 66.3369C218.288 66.3369 218.155 66.2925 218.048 66.2035C217.95 66.1234 217.892 66.0122 217.874 65.8698C217.865 65.7363 217.892 65.5895 217.954 65.4294L218.862 63.3873V63.9612L216.366 58.1553C216.304 57.9951 216.282 57.8438 216.299 57.7015C216.317 57.5591 216.384 57.4479 216.5 57.3678C216.615 57.2788 216.771 57.2343 216.967 57.2343C217.136 57.2343 217.269 57.2744 217.367 57.3545C217.465 57.4345 217.554 57.5725 217.634 57.7682L219.649 62.7466H219.276L221.318 57.7682C221.398 57.5636 221.491 57.4256 221.598 57.3545C221.705 57.2744 221.852 57.2343 222.039 57.2343C222.199 57.2343 222.323 57.2788 222.412 57.3678C222.51 57.4479 222.568 57.5591 222.586 57.7015C222.612 57.8349 222.59 57.9818 222.519 58.1419L219.182 65.8164C219.093 66.0211 218.991 66.159 218.875 66.2302C218.769 66.3014 218.626 66.3369 218.448 66.3369ZM223.716 63.8945C223.458 63.8945 223.249 63.8144 223.089 63.6542C222.929 63.494 222.849 63.2894 222.849 63.0402C222.849 62.7911 222.929 62.5909 223.089 62.4396C223.249 62.2795 223.458 62.1994 223.716 62.1994C223.974 62.1994 224.179 62.2795 224.33 62.4396C224.482 62.5909 224.557 62.7911 224.557 63.0402C224.557 63.2894 224.482 63.494 224.33 63.6542C224.179 63.8144 223.974 63.8945 223.716 63.8945Z" fill="#647067"/>
</svg>
