<svg width="185" height="56" viewBox="0 0 185 56" fill="none" xmlns="http://www.w3.org/2000/svg">
<rect x="1" y="0.5" width="55" height="55" rx="19.5" stroke="#0BAB7C"/>
<path d="M33.8732 30.3039L34.4965 26.3469H30.6568V23.7748C30.6568 22.6928 31.1928 21.6355 32.907 21.6355H34.6772V18.2659C33.6463 18.1016 32.6046 18.0127 31.5606 18C28.4003 18 26.3371 19.8981 26.3371 23.3296V26.3469H22.834V30.3039H26.3371V39.875H30.6568V30.3039H33.8732Z" fill="#0BAB7C"/>
<rect x="65" y="0.5" width="55" height="55" rx="19.5" stroke="#0BAB7C"/>
<path d="M93.2218 22.9799C94.9989 22.9799 96.1977 23.7475 96.8812 24.389L99.5521 21.781C97.9117 20.2562 95.777 19.3203 93.2218 19.3203C89.5203 19.3203 86.3236 21.4445 84.7673 24.5362L87.8273 26.9128C88.595 24.6309 90.7191 22.9799 93.2218 22.9799Z" fill="#0BAB7C"/>
<path d="M102.307 28.995C102.307 28.2168 102.244 27.649 102.107 27.0601H93.2218V30.5724H98.4374C98.3323 31.4452 97.7644 32.7597 96.5026 33.6431L99.489 35.9566C101.277 34.3056 102.307 31.8764 102.307 28.995Z" fill="#0BAB7C"/>
<path d="M87.8378 30.6565C87.638 30.0676 87.5224 29.4367 87.5224 28.7847C87.5224 28.1327 87.638 27.5017 87.8273 26.9128L84.7673 24.5362C84.1259 25.8192 83.7578 27.2598 83.7578 28.7847C83.7578 30.3095 84.1259 31.7502 84.7673 33.0331L87.8378 30.6565Z" fill="#0BAB7C"/>
<path d="M93.2217 38.249C95.777 38.249 97.9222 37.4078 99.489 35.9566L96.5026 33.6431C95.7034 34.2004 94.6308 34.5895 93.2217 34.5895C90.719 34.5895 88.5949 32.9385 87.8378 30.6565L84.7778 33.0331C86.3341 36.1248 89.5203 38.249 93.2217 38.249Z" fill="#0BAB7C"/>
<path d="M92.964 22.6596C94.7411 22.6596 95.9398 23.4272 96.6233 24.0687L99.2943 21.4607C97.6539 19.9359 95.5192 19 92.964 19C89.2625 19 86.0658 21.1242 84.5095 24.2159L87.5695 26.5925C88.3371 24.3106 90.4613 22.6596 92.964 22.6596Z" fill="#0BAB7C"/>
<path d="M102.049 28.6747C102.049 27.8965 101.986 27.3286 101.85 26.7397H92.9639V30.2521H98.1796C98.0745 31.1249 97.5066 32.4394 96.2448 33.3227L99.2312 35.6363C101.019 33.9853 102.049 31.5561 102.049 28.6747Z" fill="#0BAB7C"/>
<path d="M87.58 30.3362C87.3802 29.7473 87.2645 29.1163 87.2645 28.4644C87.2645 27.8124 87.3802 27.1814 87.5695 26.5925L84.5095 24.2159C83.8681 25.4989 83.5 26.9395 83.5 28.4644C83.5 29.9892 83.868 31.4299 84.5095 32.7128L87.58 30.3362Z" fill="#0BAB7C"/>
<path d="M92.9639 37.9287C95.5192 37.9287 97.6644 37.0875 99.2312 35.6363L96.2448 33.3227C95.4456 33.8801 94.373 34.2692 92.9639 34.2692C90.4612 34.2692 88.3371 32.6182 87.58 30.3362L84.52 32.7128C86.0763 35.8045 89.2625 37.9287 92.9639 37.9287Z" fill="#0BAB7C"/>
<rect x="129" y="0.5" width="55" height="55" rx="19.5" stroke="#0BAB7C"/>
<path d="M152.135 27.9458C152.135 25.7467 153.918 23.9635 156.118 23.9635C158.319 23.9635 160.103 25.7467 160.103 27.9458C160.103 30.1449 158.319 31.9281 156.118 31.9281C153.918 31.9281 152.135 30.1449 152.135 27.9458ZM149.981 27.9458C149.981 31.3336 152.729 34.0798 156.118 34.0798C159.508 34.0798 162.256 31.3336 162.256 27.9458C162.256 24.558 159.508 21.8118 156.118 21.8118C152.729 21.8118 149.981 24.558 149.981 27.9458ZM161.064 21.5686C161.064 21.8521 161.148 22.1293 161.306 22.3651C161.463 22.6009 161.687 22.7847 161.949 22.8933C162.211 23.0019 162.5 23.0304 162.778 22.9752C163.056 22.92 163.312 22.7836 163.512 22.5832C163.713 22.3828 163.85 22.1274 163.905 21.8494C163.961 21.5713 163.932 21.2831 163.824 21.0211C163.715 20.7591 163.532 20.5352 163.296 20.3775C163.06 20.2199 162.783 20.1357 162.499 20.1356H162.499C162.118 20.1358 161.754 20.2868 161.485 20.5555C161.216 20.8242 161.065 21.1885 161.064 21.5686ZM151.29 37.6694C150.124 37.6164 149.491 37.4224 149.07 37.2585C148.512 37.0413 148.114 36.7827 147.695 36.3649C147.277 35.9471 147.017 35.5495 146.801 34.9918C146.637 34.5713 146.443 33.9381 146.39 32.7734C146.332 31.5143 146.32 31.136 146.32 27.9459C146.32 24.7558 146.333 24.3786 146.39 23.1184C146.443 21.9537 146.639 21.3217 146.801 20.9C147.018 20.3423 147.277 19.9443 147.695 19.5259C148.113 19.1075 148.511 18.8485 149.07 18.6324C149.491 18.4684 150.124 18.2744 151.29 18.2214C152.549 18.1635 152.928 18.152 156.118 18.152C159.309 18.152 159.688 18.1645 160.948 18.2214C162.114 18.2745 162.746 18.4699 163.168 18.6324C163.726 18.8485 164.124 19.1081 164.543 19.5259C164.961 19.9437 165.22 20.3423 165.437 20.9C165.601 21.3205 165.795 21.9537 165.848 23.1184C165.906 24.3786 165.918 24.7558 165.918 27.9459C165.918 31.136 165.906 31.5132 165.848 32.7734C165.795 33.9381 165.6 34.5711 165.437 34.9918C165.22 35.5495 164.961 35.9475 164.543 36.3649C164.125 36.7823 163.726 37.0413 163.168 37.2585C162.747 37.4225 162.114 37.6165 160.948 37.6694C159.689 37.7273 159.31 37.7389 156.118 37.7389C152.926 37.7389 152.549 37.7273 151.29 37.6694ZM151.191 16.0723C149.918 16.1303 149.049 16.3319 148.289 16.6272C147.503 16.9322 146.837 17.3413 146.172 18.0051C145.507 18.6689 145.099 19.3353 144.794 20.1212C144.498 20.8806 144.296 21.7491 144.238 23.0208C144.179 24.2945 144.166 24.7017 144.166 27.9458C144.166 31.1899 144.179 31.5971 144.238 32.8708C144.296 34.1426 144.498 35.011 144.794 35.7704C145.099 36.5559 145.507 37.223 146.172 37.8865C146.837 38.55 147.503 38.9586 148.289 39.2644C149.05 39.5597 149.918 39.7613 151.191 39.8193C152.466 39.8772 152.872 39.8916 156.118 39.8916C159.364 39.8916 159.772 39.8781 161.046 39.8193C162.318 39.7613 163.187 39.5597 163.947 39.2644C164.733 38.9586 165.399 38.5503 166.064 37.8865C166.73 37.2227 167.137 36.5559 167.443 35.7704C167.738 35.011 167.941 34.1425 167.998 32.8708C168.056 31.5962 168.07 31.1899 168.07 27.9458C168.07 24.7017 168.056 24.2945 167.998 23.0208C167.94 21.749 167.738 20.8801 167.443 20.1212C167.137 19.3357 166.729 18.6699 166.064 18.0051C165.4 17.3402 164.733 16.9322 163.948 16.6272C163.187 16.3319 162.318 16.1293 161.047 16.0723C159.773 16.0144 159.365 16 156.119 16C152.873 16 152.466 16.0135 151.191 16.0723Z" fill="#0BAB7C"/>
</svg>
