<svg width="25" height="27" viewBox="0 0 25 27" fill="none" xmlns="http://www.w3.org/2000/svg">
<path d="M15.4166 13.5V24.9917C15.4749 25.4292 15.3291 25.8958 14.9937 26.2021C14.8588 26.3373 14.6985 26.4445 14.5221 26.5177C14.3457 26.5909 14.1566 26.6286 13.9656 26.6286C13.7746 26.6286 13.5855 26.5909 13.409 26.5177C13.2326 26.4445 13.0724 26.3373 12.9374 26.2021L10.0062 23.2708C9.84723 23.1153 9.72636 22.9251 9.653 22.7151C9.57964 22.5052 9.55578 22.2811 9.58328 22.0604V13.5H9.53953L1.13953 2.7375C0.902709 2.43348 0.79585 2.04808 0.842304 1.66552C0.888758 1.28296 1.08475 0.934338 1.38745 0.695833C1.66453 0.491667 1.97078 0.375 2.29161 0.375H22.7083C23.0291 0.375 23.3354 0.491667 23.6124 0.695833C23.9151 0.934338 24.1111 1.28296 24.1576 1.66552C24.204 2.04808 24.0972 2.43348 23.8604 2.7375L15.4604 13.5H15.4166Z" fill="#1F397A"/>
</svg>
