<svg width="271" height="33" viewBox="0 0 271 33" fill="none" xmlns="http://www.w3.org/2000/svg">
<path d="M3.4932 26.324C2.5812 26.324 1.8732 26.072 1.3692 25.568C0.889201 25.064 0.649201 24.332 0.649201 23.372V3.536C0.649201 2.6 0.901201 1.88 1.4052 1.376C1.9092 0.871999 2.6292 0.619998 3.5652 0.619998H15.8772C16.5972 0.619998 17.1372 0.811999 17.4972 1.196C17.8812 1.556 18.0732 2.084 18.0732 2.78C18.0732 3.5 17.8812 4.052 17.4972 4.436C17.1372 4.796 16.5972 4.976 15.8772 4.976H6.2292V11.168H15.0852C15.8052 11.168 16.3572 11.36 16.7412 11.744C17.1252 12.104 17.3172 12.632 17.3172 13.328C17.3172 14.024 17.1252 14.564 16.7412 14.948C16.3572 15.332 15.8052 15.524 15.0852 15.524H6.2292V23.372C6.2292 25.34 5.3172 26.324 3.4932 26.324ZM27.5308 26.396C25.6348 26.396 23.9788 26.024 22.5628 25.28C21.1708 24.536 20.0908 23.468 19.3228 22.076C18.5548 20.684 18.1708 19.04 18.1708 17.144C18.1708 15.728 18.3868 14.456 18.8188 13.328C19.2508 12.2 19.8748 11.24 20.6908 10.448C21.5308 9.632 22.5268 9.02 23.6788 8.612C24.8308 8.18 26.1148 7.964 27.5308 7.964C29.4268 7.964 31.0708 8.336 32.4628 9.08C33.8788 9.824 34.9708 10.88 35.7388 12.248C36.5308 13.616 36.9268 15.248 36.9268 17.144C36.9268 18.584 36.6988 19.868 36.2428 20.996C35.8108 22.124 35.1868 23.096 34.3708 23.912C33.5548 24.728 32.5588 25.352 31.3828 25.784C30.2308 26.192 28.9468 26.396 27.5308 26.396ZM27.5308 22.328C28.3228 22.328 29.0068 22.136 29.5828 21.752C30.1588 21.368 30.6148 20.804 30.9508 20.06C31.2868 19.292 31.4548 18.32 31.4548 17.144C31.4548 15.392 31.0948 14.108 30.3748 13.292C29.6548 12.452 28.7068 12.032 27.5308 12.032C26.7628 12.032 26.0788 12.212 25.4788 12.572C24.9028 12.932 24.4468 13.496 24.1108 14.264C23.7988 15.008 23.6428 15.968 23.6428 17.144C23.6428 18.896 24.0028 20.204 24.7228 21.068C25.4428 21.908 26.3788 22.328 27.5308 22.328ZM41.962 26.324C41.05 26.324 40.354 26.084 39.874 25.604C39.394 25.124 39.154 24.44 39.154 23.552V10.772C39.154 9.884 39.382 9.212 39.838 8.756C40.318 8.276 40.978 8.036 41.818 8.036C42.682 8.036 43.342 8.276 43.798 8.756C44.254 9.212 44.482 9.884 44.482 10.772V12.644H44.122C44.41 11.204 45.046 10.088 46.03 9.296C47.014 8.504 48.286 8.06 49.846 7.964C50.446 7.916 50.902 8.072 51.214 8.432C51.55 8.768 51.73 9.332 51.754 10.124C51.802 10.868 51.646 11.456 51.286 11.888C50.95 12.32 50.374 12.584 49.558 12.68L48.73 12.752C47.362 12.872 46.342 13.268 45.67 13.94C45.022 14.612 44.698 15.584 44.698 16.856V23.552C44.698 24.44 44.458 25.124 43.978 25.604C43.522 26.084 42.85 26.324 41.962 26.324ZM61.0895 32.876C59.7935 32.876 58.5455 32.768 57.3455 32.552C56.1695 32.336 55.1255 32.012 54.2135 31.58C53.6615 31.34 53.2655 31.028 53.0255 30.644C52.8095 30.26 52.7135 29.852 52.7375 29.42C52.7855 28.988 52.9295 28.604 53.1695 28.268C53.4335 27.932 53.7575 27.692 54.1415 27.548C54.5255 27.428 54.9335 27.464 55.3655 27.656C56.4215 28.136 57.3935 28.448 58.2815 28.592C59.1935 28.736 59.9735 28.808 60.6215 28.808C62.1575 28.808 63.3095 28.46 64.0775 27.764C64.8455 27.068 65.2295 26 65.2295 24.56V21.824H65.5535C65.1935 22.928 64.4495 23.828 63.3215 24.524C62.1935 25.22 60.9455 25.568 59.5775 25.568C57.9935 25.568 56.6135 25.208 55.4375 24.488C54.2615 23.744 53.3495 22.712 52.7015 21.392C52.0535 20.048 51.7295 18.5 51.7295 16.748C51.7295 15.428 51.9095 14.228 52.2695 13.148C52.6535 12.068 53.1815 11.144 53.8535 10.376C54.5495 9.608 55.3775 9.02 56.3375 8.612C57.3215 8.18 58.4015 7.964 59.5775 7.964C60.9935 7.964 62.2415 8.312 63.3215 9.008C64.4255 9.68 65.1575 10.568 65.5175 11.672L65.1575 12.824V10.772C65.1575 9.884 65.3855 9.212 65.8415 8.756C66.3215 8.276 66.9935 8.036 67.8575 8.036C68.7215 8.036 69.3815 8.276 69.8375 8.756C70.2935 9.212 70.5215 9.884 70.5215 10.772V23.948C70.5215 26.9 69.7055 29.12 68.0735 30.608C66.4655 32.12 64.1375 32.876 61.0895 32.876ZM61.1975 21.5C62.0135 21.5 62.7095 21.308 63.2855 20.924C63.8855 20.54 64.3535 20 64.6895 19.304C65.0255 18.584 65.1935 17.732 65.1935 16.748C65.1935 15.26 64.8215 14.108 64.0775 13.292C63.3575 12.452 62.3975 12.032 61.1975 12.032C60.3815 12.032 59.6735 12.224 59.0735 12.608C58.4735 12.968 58.0055 13.508 57.6695 14.228C57.3575 14.924 57.2015 15.764 57.2015 16.748C57.2015 18.236 57.5615 19.4 58.2815 20.24C59.0015 21.08 59.9735 21.5 61.1975 21.5ZM82.158 26.396C80.262 26.396 78.606 26.024 77.19 25.28C75.798 24.536 74.718 23.468 73.95 22.076C73.182 20.684 72.798 19.04 72.798 17.144C72.798 15.728 73.014 14.456 73.446 13.328C73.878 12.2 74.502 11.24 75.318 10.448C76.158 9.632 77.154 9.02 78.306 8.612C79.458 8.18 80.742 7.964 82.158 7.964C84.054 7.964 85.698 8.336 87.09 9.08C88.506 9.824 89.598 10.88 90.366 12.248C91.158 13.616 91.554 15.248 91.554 17.144C91.554 18.584 91.326 19.868 90.87 20.996C90.438 22.124 89.814 23.096 88.998 23.912C88.182 24.728 87.186 25.352 86.01 25.784C84.858 26.192 83.574 26.396 82.158 26.396ZM82.158 22.328C82.95 22.328 83.634 22.136 84.21 21.752C84.786 21.368 85.242 20.804 85.578 20.06C85.914 19.292 86.082 18.32 86.082 17.144C86.082 15.392 85.722 14.108 85.002 13.292C84.282 12.452 83.334 12.032 82.158 12.032C81.39 12.032 80.706 12.212 80.106 12.572C79.53 12.932 79.074 13.496 78.738 14.264C78.426 15.008 78.27 15.968 78.27 17.144C78.27 18.896 78.63 20.204 79.35 21.068C80.07 21.908 81.006 22.328 82.158 22.328ZM102.281 26.396C100.625 26.396 99.2334 26.12 98.1054 25.568C97.0014 25.016 96.1734 24.212 95.6214 23.156C95.0934 22.1 94.8294 20.768 94.8294 19.16V12.392H93.3174C92.6454 12.392 92.1174 12.212 91.7334 11.852C91.3734 11.492 91.1934 11 91.1934 10.376C91.1934 9.704 91.3734 9.2 91.7334 8.864C92.1174 8.504 92.6454 8.324 93.3174 8.324H94.8294V5.588C94.8294 4.676 95.0694 3.992 95.5494 3.536C96.0294 3.056 96.7014 2.816 97.5654 2.816C98.4534 2.816 99.1254 3.056 99.5814 3.536C100.037 3.992 100.265 4.676 100.265 5.588V8.324H103.685C104.357 8.324 104.873 8.504 105.233 8.864C105.593 9.2 105.773 9.704 105.773 10.376C105.773 11 105.593 11.492 105.233 11.852C104.873 12.212 104.357 12.392 103.685 12.392H100.265V18.944C100.265 19.952 100.493 20.708 100.949 21.212C101.429 21.716 102.185 21.968 103.217 21.968C103.577 21.968 103.913 21.932 104.225 21.86C104.537 21.788 104.825 21.74 105.089 21.716C105.425 21.692 105.701 21.8 105.917 22.04C106.133 22.256 106.241 22.748 106.241 23.516C106.241 24.092 106.145 24.596 105.953 25.028C105.761 25.46 105.425 25.772 104.945 25.964C104.633 26.084 104.201 26.18 103.649 26.252C103.121 26.348 102.665 26.396 102.281 26.396ZM119.331 26.324C118.419 26.324 117.723 26.072 117.243 25.568C116.763 25.064 116.523 24.356 116.523 23.444V3.464C116.523 2.528 116.763 1.82 117.243 1.34C117.747 0.859998 118.455 0.619998 119.367 0.619998H128.115C130.947 0.619998 133.131 1.34 134.667 2.78C136.203 4.196 136.971 6.176 136.971 8.72C136.971 11.264 136.203 13.256 134.667 14.696C133.131 16.136 130.947 16.856 128.115 16.856H122.103V23.444C122.103 24.356 121.863 25.064 121.383 25.568C120.927 26.072 120.243 26.324 119.331 26.324ZM122.103 12.536H127.179C128.619 12.536 129.711 12.212 130.455 11.564C131.223 10.916 131.607 9.968 131.607 8.72C131.607 7.472 131.223 6.536 130.455 5.912C129.711 5.288 128.619 4.976 127.179 4.976H122.103V12.536ZM144.048 26.396C142.752 26.396 141.588 26.144 140.556 25.64C139.524 25.136 138.72 24.452 138.144 23.588C137.568 22.724 137.28 21.752 137.28 20.672C137.28 19.376 137.616 18.356 138.288 17.612C138.96 16.844 140.052 16.304 141.564 15.992C143.076 15.656 145.08 15.488 147.576 15.488H149.484V18.296H147.612C146.388 18.296 145.392 18.368 144.624 18.512C143.88 18.632 143.34 18.848 143.004 19.16C142.692 19.472 142.536 19.904 142.536 20.456C142.536 21.128 142.764 21.68 143.22 22.112C143.7 22.544 144.384 22.76 145.272 22.76C145.968 22.76 146.58 22.604 147.108 22.292C147.66 21.956 148.092 21.512 148.404 20.96C148.716 20.384 148.872 19.736 148.872 19.016V14.876C148.872 13.82 148.632 13.076 148.152 12.644C147.672 12.188 146.856 11.96 145.704 11.96C145.056 11.96 144.348 12.044 143.58 12.212C142.836 12.356 142.008 12.608 141.096 12.968C140.568 13.208 140.1 13.268 139.692 13.148C139.284 13.004 138.972 12.764 138.756 12.428C138.54 12.068 138.432 11.684 138.432 11.276C138.432 10.844 138.552 10.436 138.792 10.052C139.032 9.644 139.428 9.344 139.98 9.152C141.108 8.696 142.164 8.384 143.148 8.216C144.156 8.048 145.08 7.964 145.92 7.964C147.768 7.964 149.28 8.24 150.456 8.792C151.656 9.32 152.556 10.148 153.156 11.276C153.756 12.38 154.056 13.808 154.056 15.56V23.552C154.056 24.44 153.84 25.124 153.408 25.604C152.976 26.084 152.352 26.324 151.536 26.324C150.72 26.324 150.084 26.084 149.628 25.604C149.196 25.124 148.98 24.44 148.98 23.552V22.22L149.232 22.436C149.088 23.252 148.776 23.96 148.296 24.56C147.84 25.136 147.252 25.592 146.532 25.928C145.812 26.24 144.984 26.396 144.048 26.396ZM163.8 26.396C162.744 26.396 161.652 26.3 160.524 26.108C159.42 25.916 158.412 25.592 157.5 25.136C157.02 24.896 156.672 24.596 156.456 24.236C156.264 23.852 156.18 23.468 156.204 23.084C156.228 22.7 156.348 22.352 156.564 22.04C156.804 21.728 157.104 21.524 157.464 21.428C157.848 21.308 158.268 21.344 158.724 21.536C159.708 21.944 160.608 22.232 161.424 22.4C162.24 22.568 163.044 22.652 163.836 22.652C164.868 22.652 165.612 22.496 166.068 22.184C166.548 21.848 166.788 21.416 166.788 20.888C166.788 20.408 166.632 20.048 166.32 19.808C166.008 19.568 165.552 19.4 164.952 19.304L161.172 18.62C159.684 18.356 158.532 17.816 157.716 17C156.924 16.16 156.528 15.092 156.528 13.796C156.528 12.596 156.864 11.564 157.536 10.7C158.208 9.812 159.132 9.14 160.308 8.684C161.508 8.204 162.864 7.964 164.376 7.964C165.456 7.964 166.452 8.06 167.364 8.252C168.276 8.444 169.152 8.756 169.992 9.188C170.424 9.404 170.724 9.692 170.892 10.052C171.084 10.412 171.144 10.784 171.072 11.168C171.024 11.552 170.88 11.9 170.64 12.212C170.4 12.524 170.088 12.728 169.704 12.824C169.344 12.92 168.924 12.872 168.444 12.68C167.676 12.32 166.968 12.068 166.32 11.924C165.672 11.756 165.048 11.672 164.448 11.672C163.368 11.672 162.588 11.852 162.108 12.212C161.628 12.548 161.388 12.98 161.388 13.508C161.388 13.916 161.52 14.264 161.784 14.552C162.072 14.816 162.504 14.996 163.08 15.092L166.86 15.776C168.42 16.04 169.608 16.568 170.424 17.36C171.24 18.128 171.648 19.184 171.648 20.528C171.648 22.352 170.928 23.792 169.488 24.848C168.072 25.88 166.176 26.396 163.8 26.396ZM180.438 26.396C179.382 26.396 178.29 26.3 177.162 26.108C176.058 25.916 175.05 25.592 174.138 25.136C173.658 24.896 173.31 24.596 173.094 24.236C172.902 23.852 172.818 23.468 172.842 23.084C172.866 22.7 172.986 22.352 173.202 22.04C173.442 21.728 173.742 21.524 174.102 21.428C174.486 21.308 174.906 21.344 175.362 21.536C176.346 21.944 177.246 22.232 178.062 22.4C178.878 22.568 179.682 22.652 180.474 22.652C181.506 22.652 182.25 22.496 182.706 22.184C183.186 21.848 183.426 21.416 183.426 20.888C183.426 20.408 183.27 20.048 182.958 19.808C182.646 19.568 182.19 19.4 181.59 19.304L177.81 18.62C176.322 18.356 175.17 17.816 174.354 17C173.562 16.16 173.166 15.092 173.166 13.796C173.166 12.596 173.502 11.564 174.174 10.7C174.846 9.812 175.77 9.14 176.946 8.684C178.146 8.204 179.502 7.964 181.014 7.964C182.094 7.964 183.09 8.06 184.002 8.252C184.914 8.444 185.79 8.756 186.63 9.188C187.062 9.404 187.362 9.692 187.53 10.052C187.722 10.412 187.782 10.784 187.71 11.168C187.662 11.552 187.518 11.9 187.278 12.212C187.038 12.524 186.726 12.728 186.342 12.824C185.982 12.92 185.562 12.872 185.082 12.68C184.314 12.32 183.606 12.068 182.958 11.924C182.31 11.756 181.686 11.672 181.086 11.672C180.006 11.672 179.226 11.852 178.746 12.212C178.266 12.548 178.026 12.98 178.026 13.508C178.026 13.916 178.158 14.264 178.422 14.552C178.71 14.816 179.142 14.996 179.718 15.092L183.498 15.776C185.058 16.04 186.246 16.568 187.062 17.36C187.878 18.128 188.286 19.184 188.286 20.528C188.286 22.352 187.566 23.792 186.126 24.848C184.71 25.88 182.814 26.396 180.438 26.396ZM197.229 26.324C196.509 26.324 195.897 26.156 195.393 25.82C194.889 25.46 194.481 24.896 194.169 24.128L189.093 11.564C188.829 10.892 188.745 10.304 188.841 9.8C188.937 9.272 189.189 8.852 189.597 8.54C190.029 8.204 190.617 8.036 191.361 8.036C191.985 8.036 192.501 8.192 192.909 8.504C193.317 8.792 193.665 9.356 193.953 10.196L197.913 20.744H197.085L201.189 9.728C201.381 9.152 201.657 8.732 202.017 8.468C202.401 8.18 202.893 8.036 203.493 8.036C204.093 8.036 204.573 8.18 204.933 8.468C205.317 8.756 205.617 9.176 205.833 9.728L209.865 20.744H209.181L213.105 10.052C213.393 9.284 213.765 8.756 214.221 8.468C214.677 8.18 215.169 8.036 215.697 8.036C216.369 8.036 216.885 8.204 217.245 8.54C217.629 8.876 217.845 9.308 217.893 9.836C217.965 10.364 217.869 10.94 217.605 11.564L212.565 24.128C212.277 24.872 211.869 25.424 211.341 25.784C210.837 26.144 210.225 26.324 209.505 26.324C208.809 26.324 208.197 26.144 207.669 25.784C207.165 25.424 206.757 24.872 206.445 24.128L202.125 12.896H204.465L200.253 24.092C199.965 24.836 199.569 25.4 199.065 25.784C198.561 26.144 197.949 26.324 197.229 26.324ZM227.959 26.396C226.063 26.396 224.407 26.024 222.991 25.28C221.599 24.536 220.519 23.468 219.751 22.076C218.983 20.684 218.599 19.04 218.599 17.144C218.599 15.728 218.815 14.456 219.247 13.328C219.679 12.2 220.303 11.24 221.119 10.448C221.959 9.632 222.955 9.02 224.107 8.612C225.259 8.18 226.543 7.964 227.959 7.964C229.855 7.964 231.499 8.336 232.891 9.08C234.307 9.824 235.399 10.88 236.167 12.248C236.959 13.616 237.355 15.248 237.355 17.144C237.355 18.584 237.127 19.868 236.671 20.996C236.239 22.124 235.615 23.096 234.799 23.912C233.983 24.728 232.987 25.352 231.811 25.784C230.659 26.192 229.375 26.396 227.959 26.396ZM227.959 22.328C228.751 22.328 229.435 22.136 230.011 21.752C230.587 21.368 231.043 20.804 231.379 20.06C231.715 19.292 231.883 18.32 231.883 17.144C231.883 15.392 231.523 14.108 230.803 13.292C230.083 12.452 229.135 12.032 227.959 12.032C227.191 12.032 226.507 12.212 225.907 12.572C225.331 12.932 224.875 13.496 224.539 14.264C224.227 15.008 224.071 15.968 224.071 17.144C224.071 18.896 224.431 20.204 225.151 21.068C225.871 21.908 226.807 22.328 227.959 22.328ZM242.391 26.324C241.479 26.324 240.783 26.084 240.303 25.604C239.823 25.124 239.583 24.44 239.583 23.552V10.772C239.583 9.884 239.811 9.212 240.267 8.756C240.747 8.276 241.407 8.036 242.247 8.036C243.111 8.036 243.771 8.276 244.227 8.756C244.683 9.212 244.911 9.884 244.911 10.772V12.644H244.551C244.839 11.204 245.475 10.088 246.459 9.296C247.443 8.504 248.715 8.06 250.275 7.964C250.875 7.916 251.331 8.072 251.643 8.432C251.979 8.768 252.159 9.332 252.183 10.124C252.231 10.868 252.075 11.456 251.715 11.888C251.379 12.32 250.803 12.584 249.987 12.68L249.159 12.752C247.791 12.872 246.771 13.268 246.099 13.94C245.451 14.612 245.127 15.584 245.127 16.856V23.552C245.127 24.44 244.887 25.124 244.407 25.604C243.951 26.084 243.279 26.324 242.391 26.324ZM259.898 26.396C258.362 26.396 257.006 26.024 255.83 25.28C254.678 24.536 253.778 23.468 253.13 22.076C252.482 20.684 252.158 19.04 252.158 17.144C252.158 15.248 252.482 13.616 253.13 12.248C253.778 10.88 254.678 9.824 255.83 9.08C257.006 8.336 258.362 7.964 259.898 7.964C261.29 7.964 262.514 8.3 263.57 8.972C264.65 9.644 265.382 10.52 265.766 11.6H265.37V3.068C265.37 2.156 265.598 1.472 266.054 1.016C266.51 0.535999 267.182 0.295998 268.07 0.295998C268.934 0.295998 269.606 0.535999 270.086 1.016C270.566 1.472 270.806 2.156 270.806 3.068V23.552C270.806 24.44 270.566 25.124 270.086 25.604C269.63 26.084 268.97 26.324 268.106 26.324C267.242 26.324 266.57 26.084 266.09 25.604C265.634 25.124 265.406 24.44 265.406 23.552V21.104L265.802 22.508C265.466 23.684 264.746 24.632 263.642 25.352C262.562 26.048 261.314 26.396 259.898 26.396ZM261.518 22.328C262.31 22.328 262.994 22.136 263.57 21.752C264.146 21.368 264.602 20.804 264.938 20.06C265.274 19.292 265.442 18.32 265.442 17.144C265.442 15.392 265.082 14.108 264.362 13.292C263.642 12.452 262.694 12.032 261.518 12.032C260.75 12.032 260.066 12.212 259.466 12.572C258.89 12.932 258.434 13.496 258.098 14.264C257.786 15.008 257.63 15.968 257.63 17.144C257.63 18.896 257.99 20.204 258.71 21.068C259.43 21.908 260.366 22.328 261.518 22.328Z" fill="#09BA86"/>
</svg>
