<svg width="144" height="13" viewBox="0 0 144 13" fill="none" xmlns="http://www.w3.org/2000/svg">
<path d="M2.31703 10.098C2.07436 10.098 1.88303 10.0327 1.74302 9.902C1.61236 9.77133 1.54702 9.58 1.54702 9.328V0.913999C1.54702 0.661999 1.61236 0.470666 1.74302 0.339999C1.88303 0.199999 2.07903 0.129999 2.33103 0.129999H7.31503C7.52036 0.129999 7.66969 0.181333 7.76303 0.284C7.86569 0.377333 7.91702 0.517333 7.91702 0.704C7.91702 0.9 7.86569 1.04933 7.76303 1.152C7.66969 1.25467 7.52036 1.306 7.31503 1.306H3.00303V4.456H7.03503C7.22169 4.456 7.36636 4.50733 7.46902 4.61C7.58103 4.70333 7.63703 4.84333 7.63703 5.03C7.63703 5.226 7.58103 5.37533 7.46902 5.478C7.36636 5.58067 7.22169 5.632 7.03503 5.632H3.00303V9.328C3.00303 9.84133 2.77436 10.098 2.31703 10.098ZM11.7132 10.126C11.0225 10.126 10.4252 9.98133 9.92121 9.692C9.42655 9.40267 9.03921 8.992 8.75921 8.46C8.47921 7.928 8.33921 7.30267 8.33921 6.584C8.33921 6.03333 8.41855 5.54333 8.57721 5.114C8.73588 4.68467 8.95988 4.316 9.24921 4.008C9.54788 3.69067 9.90255 3.45267 10.3132 3.294C10.7332 3.126 11.1999 3.042 11.7132 3.042C12.3945 3.042 12.9825 3.18667 13.4772 3.476C13.9812 3.76533 14.3732 4.176 14.6532 4.708C14.9332 5.23067 15.0732 5.856 15.0732 6.584C15.0732 7.12533 14.9939 7.61533 14.8352 8.054C14.6765 8.49267 14.4479 8.866 14.1492 9.174C13.8599 9.482 13.5052 9.72 13.0852 9.888C12.6745 10.0467 12.2172 10.126 11.7132 10.126ZM11.7132 9.034C12.0959 9.034 12.4319 8.94067 12.7212 8.754C13.0105 8.56733 13.2345 8.292 13.3932 7.928C13.5612 7.564 13.6452 7.116 13.6452 6.584C13.6452 5.78133 13.4679 5.17467 13.1132 4.764C12.7585 4.35333 12.2919 4.148 11.7132 4.148C11.3212 4.148 10.9805 4.24133 10.6912 4.428C10.4019 4.60533 10.1732 4.876 10.0052 5.24C9.84655 5.604 9.76721 6.052 9.76721 6.584C9.76721 7.37733 9.94455 7.984 10.2992 8.404C10.6539 8.824 11.1252 9.034 11.7132 9.034ZM17.2352 10.098C17.0019 10.098 16.8246 10.0373 16.7032 9.916C16.5819 9.78533 16.5212 9.608 16.5212 9.384V3.784C16.5212 3.55067 16.5819 3.37333 16.7032 3.252C16.8246 3.13067 16.9926 3.07 17.2072 3.07C17.4312 3.07 17.5992 3.13067 17.7112 3.252C17.8326 3.37333 17.8932 3.55067 17.8932 3.784V4.806H17.7532C17.9026 4.246 18.1779 3.82133 18.5792 3.532C18.9806 3.24267 19.4939 3.07467 20.1192 3.028C20.2872 3.01867 20.4179 3.06067 20.5112 3.154C20.6139 3.24733 20.6699 3.392 20.6792 3.588C20.6979 3.784 20.6559 3.94267 20.5532 4.064C20.4506 4.176 20.2919 4.24133 20.0772 4.26L19.8112 4.288C19.2046 4.344 18.7426 4.53533 18.4252 4.862C18.1079 5.18867 17.9492 5.63667 17.9492 6.206V9.384C17.9492 9.608 17.8886 9.78533 17.7672 9.916C17.6552 10.0373 17.4779 10.098 17.2352 10.098ZM24.6022 12.646C24.0982 12.646 23.6082 12.5947 23.1322 12.492C22.6655 12.3893 22.2408 12.2213 21.8582 11.988C21.7182 11.9133 21.6248 11.82 21.5782 11.708C21.5315 11.6053 21.5175 11.498 21.5362 11.386C21.5642 11.274 21.6155 11.176 21.6902 11.092C21.7648 11.008 21.8535 10.952 21.9562 10.924C22.0682 10.896 22.1848 10.9147 22.3062 10.98C22.7168 11.204 23.1042 11.3533 23.4682 11.428C23.8415 11.512 24.1868 11.554 24.5042 11.554C25.1575 11.554 25.6475 11.386 25.9742 11.05C26.3008 10.7233 26.4642 10.238 26.4642 9.594V8.166H26.5902C26.4502 8.67933 26.1562 9.08533 25.7082 9.384C25.2602 9.68267 24.7422 9.832 24.1542 9.832C23.5382 9.832 23.0015 9.692 22.5442 9.412C22.0868 9.12267 21.7322 8.726 21.4802 8.222C21.2282 7.70867 21.1022 7.11133 21.1022 6.43C21.1022 5.91667 21.1722 5.45467 21.3122 5.044C21.4615 4.63333 21.6668 4.27867 21.9282 3.98C22.1988 3.68133 22.5208 3.45267 22.8942 3.294C23.2768 3.126 23.6968 3.042 24.1542 3.042C24.7515 3.042 25.2695 3.19133 25.7082 3.49C26.1562 3.78867 26.4455 4.19467 26.5762 4.708L26.4362 4.946V3.784C26.4362 3.55067 26.4968 3.37333 26.6182 3.252C26.7488 3.13067 26.9215 3.07 27.1362 3.07C27.3602 3.07 27.5328 3.13067 27.6542 3.252C27.7755 3.37333 27.8362 3.55067 27.8362 3.784V9.426C27.8362 10.49 27.5608 11.2927 27.0102 11.834C26.4595 12.3753 25.6568 12.646 24.6022 12.646ZM24.4902 8.726C24.9008 8.726 25.2508 8.63267 25.5402 8.446C25.8295 8.25933 26.0535 7.99333 26.2122 7.648C26.3708 7.30267 26.4502 6.89667 26.4502 6.43C26.4502 5.73 26.2728 5.17467 25.9182 4.764C25.5728 4.35333 25.0968 4.148 24.4902 4.148C24.0888 4.148 23.7435 4.24133 23.4542 4.428C23.1648 4.61467 22.9362 4.88067 22.7682 5.226C22.6095 5.562 22.5302 5.96333 22.5302 6.43C22.5302 7.13933 22.7075 7.69933 23.0622 8.11C23.4168 8.52067 23.8928 8.726 24.4902 8.726ZM32.6487 10.126C31.958 10.126 31.3607 9.98133 30.8567 9.692C30.362 9.40267 29.9747 8.992 29.6947 8.46C29.4147 7.928 29.2747 7.30267 29.2747 6.584C29.2747 6.03333 29.354 5.54333 29.5127 5.114C29.6713 4.68467 29.8953 4.316 30.1847 4.008C30.4833 3.69067 30.838 3.45267 31.2487 3.294C31.6687 3.126 32.1353 3.042 32.6487 3.042C33.33 3.042 33.918 3.18667 34.4127 3.476C34.9167 3.76533 35.3087 4.176 35.5887 4.708C35.8687 5.23067 36.0087 5.856 36.0087 6.584C36.0087 7.12533 35.9293 7.61533 35.7707 8.054C35.612 8.49267 35.3833 8.866 35.0847 9.174C34.7953 9.482 34.4407 9.72 34.0207 9.888C33.61 10.0467 33.1527 10.126 32.6487 10.126ZM32.6487 9.034C33.0313 9.034 33.3673 8.94067 33.6567 8.754C33.946 8.56733 34.17 8.292 34.3287 7.928C34.4967 7.564 34.5807 7.116 34.5807 6.584C34.5807 5.78133 34.4033 5.17467 34.0487 4.764C33.694 4.35333 33.2273 4.148 32.6487 4.148C32.2567 4.148 31.916 4.24133 31.6267 4.428C31.3373 4.60533 31.1087 4.876 30.9407 5.24C30.782 5.604 30.7027 6.052 30.7027 6.584C30.7027 7.37733 30.88 7.984 31.2347 8.404C31.5893 8.824 32.0607 9.034 32.6487 9.034ZM40.3003 10.126C39.7403 10.126 39.269 10.028 38.8863 9.832C38.5037 9.636 38.219 9.34667 38.0323 8.964C37.8457 8.58133 37.7523 8.11467 37.7523 7.564V4.26H36.9123C36.7257 4.26 36.581 4.21333 36.4783 4.12C36.3757 4.01733 36.3243 3.882 36.3243 3.714C36.3243 3.53667 36.3757 3.40133 36.4783 3.308C36.581 3.21467 36.7257 3.168 36.9123 3.168H37.7523V1.726C37.7523 1.49267 37.813 1.31533 37.9343 1.194C38.065 1.07267 38.2423 1.012 38.4663 1.012C38.6903 1.012 38.863 1.07267 38.9843 1.194C39.1057 1.31533 39.1663 1.49267 39.1663 1.726V3.168H40.8043C40.991 3.168 41.1357 3.21467 41.2383 3.308C41.341 3.40133 41.3923 3.53667 41.3923 3.714C41.3923 3.882 41.341 4.01733 41.2383 4.12C41.1357 4.21333 40.991 4.26 40.8043 4.26H39.1663V7.452C39.1663 7.94667 39.269 8.32 39.4743 8.572C39.689 8.824 40.0343 8.95 40.5103 8.95C40.6783 8.95 40.823 8.936 40.9443 8.908C41.075 8.87067 41.1823 8.84733 41.2663 8.838C41.369 8.838 41.453 8.87533 41.5183 8.95C41.5837 9.01533 41.6163 9.146 41.6163 9.342C41.6163 9.482 41.5883 9.61267 41.5323 9.734C41.4857 9.85533 41.397 9.93467 41.2663 9.972C41.1543 10.0093 41.0003 10.042 40.8043 10.07C40.6177 10.1073 40.4497 10.126 40.3003 10.126ZM47.523 12.618C47.355 12.618 47.215 12.5713 47.103 12.478C47.0004 12.394 46.9397 12.2773 46.921 12.128C46.9117 11.988 46.9397 11.834 47.005 11.666L47.957 9.524V10.126L45.339 4.036C45.2737 3.868 45.2504 3.70933 45.269 3.56C45.2877 3.41067 45.3577 3.294 45.479 3.21C45.6004 3.11667 45.7637 3.07 45.969 3.07C46.1464 3.07 46.2864 3.112 46.389 3.196C46.4917 3.28 46.585 3.42467 46.669 3.63L48.783 8.852H48.391L50.533 3.63C50.617 3.41533 50.715 3.27067 50.827 3.196C50.939 3.112 51.093 3.07 51.289 3.07C51.457 3.07 51.5877 3.11667 51.681 3.21C51.7837 3.294 51.8444 3.41067 51.863 3.56C51.891 3.7 51.8677 3.854 51.793 4.022L48.293 12.072C48.1997 12.2867 48.0924 12.4313 47.971 12.506C47.859 12.5807 47.7097 12.618 47.523 12.618ZM55.8914 10.126C55.2008 10.126 54.6034 9.98133 54.0994 9.692C53.6048 9.40267 53.2174 8.992 52.9374 8.46C52.6574 7.928 52.5174 7.30267 52.5174 6.584C52.5174 6.03333 52.5968 5.54333 52.7554 5.114C52.9141 4.68467 53.1381 4.316 53.4274 4.008C53.7261 3.69067 54.0808 3.45267 54.4914 3.294C54.9114 3.126 55.3781 3.042 55.8914 3.042C56.5728 3.042 57.1608 3.18667 57.6554 3.476C58.1594 3.76533 58.5514 4.176 58.8314 4.708C59.1114 5.23067 59.2514 5.856 59.2514 6.584C59.2514 7.12533 59.1721 7.61533 59.0134 8.054C58.8548 8.49267 58.6261 8.866 58.3274 9.174C58.0381 9.482 57.6834 9.72 57.2634 9.888C56.8528 10.0467 56.3954 10.126 55.8914 10.126ZM55.8914 9.034C56.2741 9.034 56.6101 8.94067 56.8994 8.754C57.1888 8.56733 57.4128 8.292 57.5714 7.928C57.7394 7.564 57.8234 7.116 57.8234 6.584C57.8234 5.78133 57.6461 5.17467 57.2914 4.764C56.9368 4.35333 56.4701 4.148 55.8914 4.148C55.4994 4.148 55.1588 4.24133 54.8694 4.428C54.5801 4.60533 54.3514 4.876 54.1834 5.24C54.0248 5.604 53.9454 6.052 53.9454 6.584C53.9454 7.37733 54.1228 7.984 54.4774 8.404C54.8321 8.824 55.3034 9.034 55.8914 9.034ZM63.1354 10.126C62.5848 10.126 62.1228 10.0233 61.7494 9.818C61.3854 9.61267 61.1101 9.30933 60.9234 8.908C60.7461 8.49733 60.6574 7.984 60.6574 7.368V3.784C60.6574 3.54133 60.7181 3.364 60.8394 3.252C60.9608 3.13067 61.1334 3.07 61.3574 3.07C61.5814 3.07 61.7541 3.13067 61.8754 3.252C62.0061 3.364 62.0714 3.54133 62.0714 3.784V7.382C62.0714 7.93267 62.1834 8.33867 62.4074 8.6C62.6314 8.86133 62.9861 8.992 63.4714 8.992C64.0034 8.992 64.4328 8.81467 64.7594 8.46C65.0954 8.096 65.2634 7.62 65.2634 7.032V3.784C65.2634 3.54133 65.3241 3.364 65.4454 3.252C65.5668 3.13067 65.7441 3.07 65.9774 3.07C66.2014 3.07 66.3741 3.13067 66.4954 3.252C66.6168 3.364 66.6774 3.54133 66.6774 3.784V9.384C66.6774 9.86 66.4488 10.098 65.9914 10.098C65.7768 10.098 65.6088 10.0373 65.4874 9.916C65.3661 9.78533 65.3054 9.608 65.3054 9.384V8.194L65.4874 8.502C65.3008 9.02467 65.0021 9.426 64.5914 9.706C64.1808 9.986 63.6954 10.126 63.1354 10.126ZM69.2441 10.098C69.0108 10.098 68.8335 10.0373 68.7121 9.916C68.5908 9.78533 68.5301 9.608 68.5301 9.384V3.784C68.5301 3.55067 68.5908 3.37333 68.7121 3.252C68.8335 3.13067 69.0015 3.07 69.2161 3.07C69.4401 3.07 69.6081 3.13067 69.7201 3.252C69.8415 3.37333 69.9021 3.55067 69.9021 3.784V4.806H69.7621C69.9115 4.246 70.1868 3.82133 70.5881 3.532C70.9895 3.24267 71.5028 3.07467 72.1281 3.028C72.2961 3.01867 72.4268 3.06067 72.5201 3.154C72.6228 3.24733 72.6788 3.392 72.6881 3.588C72.7068 3.784 72.6648 3.94267 72.5621 4.064C72.4595 4.176 72.3008 4.24133 72.0861 4.26L71.8201 4.288C71.2135 4.344 70.7515 4.53533 70.4341 4.862C70.1168 5.18867 69.9581 5.63667 69.9581 6.206V9.384C69.9581 9.608 69.8975 9.78533 69.7761 9.916C69.6641 10.0373 69.4868 10.098 69.2441 10.098ZM77.8642 12.618C77.6402 12.618 77.4675 12.5573 77.3462 12.436C77.2249 12.3147 77.1642 12.1373 77.1642 11.904V3.784C77.1642 3.55067 77.2249 3.37333 77.3462 3.252C77.4675 3.13067 77.6355 3.07 77.8502 3.07C78.0742 3.07 78.2469 3.13067 78.3682 3.252C78.4895 3.37333 78.5502 3.55067 78.5502 3.784V5.002L78.3962 4.708C78.5455 4.204 78.8395 3.80267 79.2782 3.504C79.7169 3.196 80.2349 3.042 80.8322 3.042C81.4389 3.042 81.9662 3.18667 82.4142 3.476C82.8715 3.76533 83.2215 4.17133 83.4642 4.694C83.7162 5.21667 83.8422 5.84667 83.8422 6.584C83.8422 7.30267 83.7162 7.93267 83.4642 8.474C83.2215 9.006 82.8762 9.41667 82.4282 9.706C81.9802 9.986 81.4482 10.126 80.8322 10.126C80.2442 10.126 79.7309 9.97667 79.2922 9.678C78.8535 9.37933 78.5595 8.98267 78.4102 8.488H78.5782V11.904C78.5782 12.1373 78.5129 12.3147 78.3822 12.436C78.2609 12.5573 78.0882 12.618 77.8642 12.618ZM80.4822 9.034C80.8742 9.034 81.2149 8.94067 81.5042 8.754C81.7935 8.56733 82.0175 8.292 82.1762 7.928C82.3349 7.564 82.4142 7.116 82.4142 6.584C82.4142 5.78133 82.2369 5.17467 81.8822 4.764C81.5369 4.35333 81.0702 4.148 80.4822 4.148C80.0995 4.148 79.7589 4.24133 79.4602 4.428C79.1709 4.60533 78.9469 4.876 78.7882 5.24C78.6295 5.604 78.5502 6.052 78.5502 6.584C78.5502 7.37733 78.7275 7.984 79.0822 8.404C79.4369 8.824 79.9035 9.034 80.4822 9.034ZM87.4797 10.126C87.0037 10.126 86.5743 10.0327 86.1917 9.846C85.8183 9.65933 85.5243 9.40733 85.3097 9.09C85.095 8.77267 84.9877 8.41333 84.9877 8.012C84.9877 7.508 85.1137 7.11133 85.3657 6.822C85.627 6.52333 86.0517 6.31333 86.6397 6.192C87.237 6.06133 88.0397 5.996 89.0477 5.996H89.7057V6.864H89.0617C88.3897 6.864 87.8577 6.89667 87.4657 6.962C87.0737 7.02733 86.7937 7.13933 86.6257 7.298C86.467 7.44733 86.3877 7.65733 86.3877 7.928C86.3877 8.28267 86.509 8.572 86.7517 8.796C86.9943 9.01067 87.3303 9.118 87.7597 9.118C88.105 9.118 88.4083 9.03867 88.6697 8.88C88.931 8.712 89.1363 8.488 89.2857 8.208C89.4443 7.928 89.5237 7.606 89.5237 7.242V5.632C89.5237 5.1 89.4117 4.71733 89.1877 4.484C88.9637 4.25067 88.595 4.134 88.0817 4.134C87.783 4.134 87.4703 4.17133 87.1437 4.246C86.8263 4.32067 86.495 4.44667 86.1497 4.624C85.991 4.69867 85.8557 4.722 85.7437 4.694C85.6317 4.666 85.543 4.60533 85.4777 4.512C85.4123 4.40933 85.375 4.302 85.3657 4.19C85.3657 4.06867 85.3937 3.952 85.4497 3.84C85.515 3.728 85.6223 3.644 85.7717 3.588C86.1823 3.392 86.5883 3.252 86.9897 3.168C87.391 3.084 87.769 3.042 88.1237 3.042C88.749 3.042 89.2623 3.14 89.6637 3.336C90.0743 3.532 90.3777 3.83067 90.5737 4.232C90.7697 4.63333 90.8677 5.15133 90.8677 5.786V9.384C90.8677 9.608 90.8117 9.78533 90.6997 9.916C90.5877 10.0373 90.4243 10.098 90.2097 10.098C90.0043 10.098 89.841 10.0373 89.7197 9.916C89.5983 9.78533 89.5377 9.608 89.5377 9.384V8.474H89.6637C89.589 8.81933 89.449 9.118 89.2437 9.37C89.0477 9.61267 88.8003 9.79933 88.5017 9.93C88.203 10.0607 87.8623 10.126 87.4797 10.126ZM95.0692 10.126C94.6585 10.126 94.2339 10.0793 93.7952 9.986C93.3659 9.89267 92.9692 9.734 92.6052 9.51C92.4839 9.426 92.3999 9.33267 92.3532 9.23C92.3065 9.12733 92.2879 9.02467 92.2972 8.922C92.3159 8.81 92.3579 8.71667 92.4232 8.642C92.4979 8.558 92.5865 8.50667 92.6892 8.488C92.8012 8.46933 92.9179 8.49267 93.0392 8.558C93.4032 8.76333 93.7532 8.908 94.0892 8.992C94.4252 9.06667 94.7565 9.104 95.0832 9.104C95.5779 9.104 95.9512 9.01533 96.2032 8.838C96.4552 8.66067 96.5812 8.42267 96.5812 8.124C96.5812 7.88133 96.4972 7.69467 96.3292 7.564C96.1612 7.424 95.9092 7.31667 95.5732 7.242L94.2432 6.976C93.6645 6.85467 93.2259 6.64 92.9272 6.332C92.6285 6.024 92.4792 5.632 92.4792 5.156C92.4792 4.72667 92.5959 4.35333 92.8292 4.036C93.0625 3.71867 93.3892 3.476 93.8092 3.308C94.2292 3.13067 94.7145 3.042 95.2652 3.042C95.6759 3.042 96.0632 3.09333 96.4272 3.196C96.7912 3.29867 97.1272 3.45267 97.4352 3.658C97.5565 3.72333 97.6359 3.812 97.6732 3.924C97.7105 4.02667 97.7152 4.12933 97.6872 4.232C97.6685 4.33467 97.6219 4.428 97.5472 4.512C97.4725 4.58667 97.3792 4.63333 97.2672 4.652C97.1645 4.66133 97.0479 4.63333 96.9172 4.568C96.6372 4.39067 96.3572 4.26467 96.0772 4.19C95.8065 4.11533 95.5359 4.078 95.2652 4.078C94.7705 4.078 94.3972 4.17133 94.1452 4.358C93.9025 4.53533 93.7812 4.778 93.7812 5.086C93.7812 5.31933 93.8559 5.51067 94.0052 5.66C94.1545 5.80933 94.3879 5.91667 94.7052 5.982L96.0352 6.248C96.6419 6.36933 97.0992 6.57467 97.4072 6.864C97.7245 7.15333 97.8832 7.54533 97.8832 8.04C97.8832 8.684 97.6265 9.19267 97.1132 9.566C96.5999 9.93933 95.9185 10.126 95.0692 10.126ZM101.71 10.126C101.3 10.126 100.875 10.0793 100.436 9.986C100.007 9.89267 99.6105 9.734 99.2465 9.51C99.1251 9.426 99.0411 9.33267 98.9945 9.23C98.9478 9.12733 98.9291 9.02467 98.9385 8.922C98.9571 8.81 98.9991 8.71667 99.0645 8.642C99.1391 8.558 99.2278 8.50667 99.3305 8.488C99.4425 8.46933 99.5591 8.49267 99.6805 8.558C100.044 8.76333 100.394 8.908 100.73 8.992C101.066 9.06667 101.398 9.104 101.724 9.104C102.219 9.104 102.592 9.01533 102.844 8.838C103.096 8.66067 103.222 8.42267 103.222 8.124C103.222 7.88133 103.138 7.69467 102.97 7.564C102.802 7.424 102.55 7.31667 102.214 7.242L100.884 6.976C100.306 6.85467 99.8671 6.64 99.5685 6.332C99.2698 6.024 99.1205 5.632 99.1205 5.156C99.1205 4.72667 99.2371 4.35333 99.4705 4.036C99.7038 3.71867 100.03 3.476 100.45 3.308C100.87 3.13067 101.356 3.042 101.906 3.042C102.317 3.042 102.704 3.09333 103.068 3.196C103.432 3.29867 103.768 3.45267 104.076 3.658C104.198 3.72333 104.277 3.812 104.314 3.924C104.352 4.02667 104.356 4.12933 104.328 4.232C104.31 4.33467 104.263 4.428 104.188 4.512C104.114 4.58667 104.02 4.63333 103.908 4.652C103.806 4.66133 103.689 4.63333 103.558 4.568C103.278 4.39067 102.998 4.26467 102.718 4.19C102.448 4.11533 102.177 4.078 101.906 4.078C101.412 4.078 101.038 4.17133 100.786 4.358C100.544 4.53533 100.422 4.778 100.422 5.086C100.422 5.31933 100.497 5.51067 100.646 5.66C100.796 5.80933 101.029 5.91667 101.346 5.982L102.676 6.248C103.283 6.36933 103.74 6.57467 104.048 6.864C104.366 7.15333 104.524 7.54533 104.524 8.04C104.524 8.684 104.268 9.19267 103.754 9.566C103.241 9.93933 102.56 10.126 101.71 10.126ZM108.313 10.098C108.117 10.098 107.944 10.0513 107.795 9.958C107.655 9.85533 107.543 9.69667 107.459 9.482L105.401 4.036C105.326 3.84933 105.303 3.686 105.331 3.546C105.359 3.39667 105.429 3.28 105.541 3.196C105.662 3.112 105.816 3.07 106.003 3.07C106.171 3.07 106.306 3.112 106.409 3.196C106.521 3.27067 106.614 3.42 106.689 3.644L108.523 8.81H108.187L110.091 3.588C110.156 3.41067 110.245 3.28 110.357 3.196C110.469 3.112 110.614 3.07 110.791 3.07C110.968 3.07 111.113 3.112 111.225 3.196C111.346 3.28 111.435 3.41067 111.491 3.588L113.353 8.81H113.045L114.907 3.616C114.982 3.40133 115.075 3.25667 115.187 3.182C115.308 3.10733 115.444 3.07 115.593 3.07C115.78 3.07 115.92 3.11667 116.013 3.21C116.116 3.30333 116.172 3.42467 116.181 3.574C116.2 3.714 116.176 3.868 116.111 4.036L114.053 9.482C113.969 9.68733 113.852 9.84133 113.703 9.944C113.563 10.0467 113.4 10.098 113.213 10.098C113.017 10.098 112.844 10.0467 112.695 9.944C112.555 9.84133 112.443 9.68733 112.359 9.482L110.399 4.176H111.099L109.153 9.482C109.078 9.68733 108.966 9.84133 108.817 9.944C108.677 10.0467 108.509 10.098 108.313 10.098ZM120.366 10.126C119.675 10.126 119.078 9.98133 118.574 9.692C118.079 9.40267 117.692 8.992 117.412 8.46C117.132 7.928 116.992 7.30267 116.992 6.584C116.992 6.03333 117.071 5.54333 117.23 5.114C117.388 4.68467 117.612 4.316 117.902 4.008C118.2 3.69067 118.555 3.45267 118.966 3.294C119.386 3.126 119.852 3.042 120.366 3.042C121.047 3.042 121.635 3.18667 122.13 3.476C122.634 3.76533 123.026 4.176 123.306 4.708C123.586 5.23067 123.726 5.856 123.726 6.584C123.726 7.12533 123.646 7.61533 123.488 8.054C123.329 8.49267 123.1 8.866 122.802 9.174C122.512 9.482 122.158 9.72 121.738 9.888C121.327 10.0467 120.87 10.126 120.366 10.126ZM120.366 9.034C120.748 9.034 121.084 8.94067 121.374 8.754C121.663 8.56733 121.887 8.292 122.046 7.928C122.214 7.564 122.298 7.116 122.298 6.584C122.298 5.78133 122.12 5.17467 121.766 4.764C121.411 4.35333 120.944 4.148 120.366 4.148C119.974 4.148 119.633 4.24133 119.344 4.428C119.054 4.60533 118.826 4.876 118.658 5.24C118.499 5.604 118.42 6.052 118.42 6.584C118.42 7.37733 118.597 7.984 118.952 8.404C119.306 8.824 119.778 9.034 120.366 9.034ZM125.888 10.098C125.654 10.098 125.477 10.0373 125.356 9.916C125.234 9.78533 125.174 9.608 125.174 9.384V3.784C125.174 3.55067 125.234 3.37333 125.356 3.252C125.477 3.13067 125.645 3.07 125.86 3.07C126.084 3.07 126.252 3.13067 126.364 3.252C126.485 3.37333 126.546 3.55067 126.546 3.784V4.806H126.406C126.555 4.246 126.83 3.82133 127.232 3.532C127.633 3.24267 128.146 3.07467 128.772 3.028C128.94 3.01867 129.07 3.06067 129.164 3.154C129.266 3.24733 129.322 3.392 129.332 3.588C129.35 3.784 129.308 3.94267 129.206 4.064C129.103 4.176 128.944 4.24133 128.73 4.26L128.464 4.288C127.857 4.344 127.395 4.53533 127.078 4.862C126.76 5.18867 126.602 5.63667 126.602 6.206V9.384C126.602 9.608 126.541 9.78533 126.42 9.916C126.308 10.0373 126.13 10.098 125.888 10.098ZM132.765 10.126C132.167 10.126 131.64 9.986 131.183 9.706C130.735 9.41667 130.385 9.006 130.133 8.474C129.881 7.93267 129.755 7.30267 129.755 6.584C129.755 5.84667 129.881 5.21667 130.133 4.694C130.385 4.17133 130.735 3.76533 131.183 3.476C131.64 3.18667 132.167 3.042 132.765 3.042C133.362 3.042 133.875 3.19133 134.305 3.49C134.743 3.77933 135.037 4.17133 135.187 4.666H135.033V0.746C135.033 0.512666 135.093 0.335333 135.215 0.213999C135.336 0.0926663 135.509 0.0319998 135.733 0.0319998C135.957 0.0319998 136.129 0.0926663 136.251 0.213999C136.381 0.335333 136.447 0.512666 136.447 0.746V9.384C136.447 9.608 136.386 9.78533 136.265 9.916C136.143 10.0373 135.971 10.098 135.747 10.098C135.523 10.098 135.35 10.0373 135.229 9.916C135.107 9.78533 135.047 9.608 135.047 9.384V8.152L135.201 8.46C135.051 8.964 134.757 9.37 134.319 9.678C133.889 9.97667 133.371 10.126 132.765 10.126ZM133.129 9.034C133.511 9.034 133.847 8.94067 134.137 8.754C134.426 8.56733 134.65 8.292 134.809 7.928C134.977 7.564 135.061 7.116 135.061 6.584C135.061 5.78133 134.883 5.17467 134.529 4.764C134.174 4.35333 133.707 4.148 133.129 4.148C132.737 4.148 132.396 4.24133 132.107 4.428C131.817 4.60533 131.589 4.876 131.421 5.24C131.262 5.604 131.183 6.052 131.183 6.584C131.183 7.37733 131.36 7.984 131.715 8.404C132.069 8.824 132.541 9.034 133.129 9.034ZM140.308 7.326C140.168 7.326 140.056 7.27933 139.972 7.186C139.888 7.08333 139.846 6.95267 139.846 6.794C139.846 6.486 139.884 6.19667 139.958 5.926C140.033 5.646 140.154 5.366 140.322 5.086C140.49 4.806 140.714 4.50733 140.994 4.19C141.218 3.938 141.391 3.714 141.512 3.518C141.643 3.322 141.736 3.13533 141.792 2.958C141.848 2.77133 141.876 2.58 141.876 2.384C141.876 2.02933 141.75 1.74933 141.498 1.544C141.246 1.33867 140.892 1.236 140.434 1.236C140.033 1.236 139.664 1.29667 139.328 1.418C138.992 1.53 138.666 1.69333 138.348 1.908C138.171 2.02 138.012 2.07133 137.872 2.062C137.742 2.05267 137.63 2.01067 137.536 1.936C137.452 1.852 137.396 1.74933 137.368 1.628C137.35 1.49733 137.368 1.36667 137.424 1.236C137.49 1.096 137.602 0.969999 137.76 0.857999C138.134 0.587333 138.568 0.377333 139.062 0.228C139.557 0.0786662 140.042 0.00399935 140.518 0.00399935C141.078 0.00399935 141.568 0.0973329 141.988 0.284C142.408 0.470666 142.735 0.732 142.968 1.068C143.202 1.404 143.318 1.80067 143.318 2.258C143.318 2.54733 143.276 2.82267 143.192 3.084C143.108 3.34533 142.973 3.61133 142.786 3.882C142.609 4.14333 142.357 4.43267 142.03 4.75C141.741 5.03933 141.508 5.30533 141.33 5.548C141.153 5.78133 141.022 6.01 140.938 6.234C140.864 6.44867 140.812 6.67733 140.784 6.92C140.775 7.04133 140.728 7.13933 140.644 7.214C140.56 7.28867 140.448 7.326 140.308 7.326ZM140.294 10.056C140.024 10.056 139.804 9.972 139.636 9.804C139.468 9.636 139.384 9.42133 139.384 9.16C139.384 8.89867 139.468 8.68867 139.636 8.53C139.804 8.362 140.024 8.278 140.294 8.278C140.574 8.278 140.789 8.362 140.938 8.53C141.097 8.68867 141.176 8.89867 141.176 9.16C141.176 9.42133 141.097 9.636 140.938 9.804C140.789 9.972 140.574 10.056 140.294 10.056Z" fill="#0BAB7C"/>
<path d="M0.399025 11.316H143.598V11.708H0.399025V11.316Z" fill="#0BAB7C"/>
</svg>
