<svg width="325" height="41" viewBox="0 0 325 41" fill="none" xmlns="http://www.w3.org/2000/svg">
<path d="M0.814 12C0.600667 12 0.435333 11.9413 0.318 11.824C0.200667 11.696 0.142 11.5253 0.142 11.312V1.328C0.142 1.104 0.195333 0.933333 0.302 0.815999C0.419333 0.698666 0.584667 0.639999 0.798 0.639999C1.01133 0.639999 1.17133 0.698666 1.278 0.815999C1.39533 0.933333 1.454 1.104 1.454 1.328V10.848H6.702C6.894 10.848 7.04333 10.9013 7.15 11.008C7.25667 11.104 7.31 11.2427 7.31 11.424C7.31 11.6053 7.25667 11.7493 7.15 11.856C7.04333 11.952 6.894 12 6.702 12H0.814ZM12.0574 12.144C11.3 12.144 10.644 11.9787 10.0894 11.648C9.53471 11.3173 9.10271 10.8533 8.79338 10.256C8.49471 9.648 8.34538 8.93333 8.34538 8.112C8.34538 7.49333 8.43071 6.93867 8.60138 6.448C8.77204 5.94667 9.02271 5.52 9.35338 5.168C9.68404 4.816 10.0734 4.54933 10.5214 4.368C10.98 4.176 11.492 4.08 12.0574 4.08C12.8147 4.08 13.4707 4.24533 14.0254 4.576C14.58 4.90667 15.0067 5.376 15.3054 5.984C15.6147 6.58133 15.7694 7.29067 15.7694 8.112C15.7694 8.73067 15.684 9.28533 15.5134 9.776C15.3427 10.2667 15.092 10.6933 14.7614 11.056C14.4307 11.408 14.036 11.68 13.5774 11.872C13.1294 12.0533 12.6227 12.144 12.0574 12.144ZM12.0574 11.104C12.5374 11.104 12.9587 10.9867 13.3214 10.752C13.684 10.5173 13.9614 10.176 14.1534 9.728C14.356 9.28 14.4574 8.74133 14.4574 8.112C14.4574 7.14133 14.2387 6.4 13.8014 5.888C13.3747 5.376 12.7934 5.12 12.0574 5.12C11.5667 5.12 11.14 5.23733 10.7774 5.472C10.4254 5.696 10.148 6.032 9.94538 6.48C9.75338 6.91733 9.65738 7.46133 9.65738 8.112C9.65738 9.072 9.87604 9.81333 10.3134 10.336C10.7507 10.848 11.332 11.104 12.0574 11.104ZM21.406 15.024C20.8407 15.024 20.286 14.9547 19.742 14.816C19.2087 14.688 18.7233 14.48 18.286 14.192C18.158 14.1173 18.0727 14.0267 18.03 13.92C17.998 13.8133 17.9927 13.7067 18.014 13.6C18.0353 13.504 18.0833 13.4133 18.158 13.328C18.2327 13.2533 18.318 13.2053 18.414 13.184C18.5207 13.1627 18.6273 13.1787 18.734 13.232C19.2033 13.52 19.6513 13.7173 20.078 13.824C20.5047 13.9307 20.926 13.984 21.342 13.984C22.0993 13.984 22.67 13.7813 23.054 13.376C23.4487 12.9707 23.646 12.384 23.646 11.616V9.808H23.806C23.646 10.4267 23.3047 10.9173 22.782 11.28C22.27 11.6427 21.6673 11.824 20.974 11.824C20.2593 11.824 19.6407 11.664 19.118 11.344C18.5953 11.0133 18.19 10.5547 17.902 9.968C17.6247 9.38133 17.486 8.704 17.486 7.936C17.486 7.36 17.566 6.83733 17.726 6.368C17.886 5.888 18.1153 5.48267 18.414 5.152C18.7233 4.81067 19.0913 4.54933 19.518 4.368C19.9553 4.176 20.4407 4.08 20.974 4.08C21.678 4.08 22.286 4.26133 22.798 4.624C23.31 4.976 23.6407 5.456 23.79 6.064L23.63 6.256V4.768C23.63 4.55467 23.6833 4.39467 23.79 4.288C23.9073 4.17067 24.0673 4.112 24.27 4.112C24.4833 4.112 24.6433 4.17067 24.75 4.288C24.8567 4.39467 24.91 4.55467 24.91 4.768V11.44C24.91 12.624 24.6113 13.5147 24.014 14.112C23.4273 14.72 22.558 15.024 21.406 15.024ZM21.214 10.768C21.7153 10.768 22.1473 10.656 22.51 10.432C22.8727 10.1973 23.15 9.86667 23.342 9.44C23.5447 9.01333 23.646 8.512 23.646 7.936C23.646 7.072 23.4273 6.38933 22.99 5.888C22.5527 5.376 21.9607 5.12 21.214 5.12C20.7233 5.12 20.2967 5.23733 19.934 5.472C19.5713 5.696 19.2887 6.02133 19.086 6.448C18.894 6.864 18.798 7.36 18.798 7.936C18.798 8.8 19.0167 9.488 19.454 10C19.8913 10.512 20.478 10.768 21.214 10.768ZM32.606 12.08C32.3927 12.08 32.2327 12.0213 32.126 11.904C32.0193 11.776 31.966 11.6 31.966 11.376V4.832C31.966 4.608 32.0193 4.43733 32.126 4.32C32.2327 4.20267 32.3927 4.144 32.606 4.144C32.8087 4.144 32.9687 4.20267 33.086 4.32C33.2033 4.43733 33.262 4.608 33.262 4.832V11.376C33.262 11.6 33.2033 11.776 33.086 11.904C32.9793 12.0213 32.8193 12.08 32.606 12.08ZM32.606 2.352C32.3393 2.352 32.1313 2.28267 31.982 2.144C31.8327 1.99467 31.758 1.79733 31.758 1.552C31.758 1.296 31.8327 1.104 31.982 0.976C32.1313 0.837333 32.3393 0.768 32.606 0.768C32.8833 0.768 33.0913 0.837333 33.23 0.976C33.3793 1.104 33.454 1.296 33.454 1.552C33.454 1.79733 33.3793 1.99467 33.23 2.144C33.0913 2.28267 32.8833 2.352 32.606 2.352ZM36.5748 12.112C36.3614 12.112 36.2014 12.0533 36.0948 11.936C35.9881 11.8187 35.9348 11.6533 35.9348 11.44V4.768C35.9348 4.55467 35.9881 4.39467 36.0948 4.288C36.2014 4.17067 36.3561 4.112 36.5588 4.112C36.7614 4.112 36.9161 4.17067 37.0228 4.288C37.1401 4.39467 37.1988 4.55467 37.1988 4.768V6.144L37.0228 5.952C37.2468 5.33333 37.6094 4.86933 38.1108 4.56C38.6228 4.24 39.2094 4.08 39.8708 4.08C40.4894 4.08 41.0014 4.192 41.4068 4.416C41.8228 4.64 42.1321 4.98133 42.3348 5.44C42.5374 5.888 42.6388 6.45867 42.6388 7.152V11.44C42.6388 11.6533 42.5801 11.8187 42.4628 11.936C42.3561 12.0533 42.2014 12.112 41.9988 12.112C41.7854 12.112 41.6201 12.0533 41.5028 11.936C41.3961 11.8187 41.3428 11.6533 41.3428 11.44V7.232C41.3428 6.50667 41.1988 5.97867 40.9108 5.648C40.6334 5.30667 40.1854 5.136 39.5668 5.136C38.8521 5.136 38.2814 5.36 37.8548 5.808C37.4388 6.24533 37.2308 6.832 37.2308 7.568V11.44C37.2308 11.888 37.0121 12.112 36.5748 12.112ZM52.7735 12.144C52.1655 12.144 51.6535 12.0373 51.2375 11.824C50.8322 11.6 50.5282 11.28 50.3255 10.864C50.1228 10.4373 50.0215 9.92 50.0215 9.312V5.232H48.9495C48.7682 5.232 48.6295 5.18933 48.5335 5.104C48.4375 5.008 48.3895 4.88 48.3895 4.72C48.3895 4.56 48.4375 4.43733 48.5335 4.352C48.6295 4.26667 48.7682 4.224 48.9495 4.224H50.0215V2.384C50.0215 2.17067 50.0802 2.01067 50.1975 1.904C50.3148 1.78667 50.4748 1.728 50.6775 1.728C50.8802 1.728 51.0348 1.78667 51.1415 1.904C51.2588 2.01067 51.3175 2.17067 51.3175 2.384V4.224H53.3335C53.5148 4.224 53.6535 4.26667 53.7495 4.352C53.8455 4.43733 53.8935 4.56 53.8935 4.72C53.8935 4.88 53.8455 5.008 53.7495 5.104C53.6535 5.18933 53.5148 5.232 53.3335 5.232H51.3175V9.184C51.3175 9.792 51.4455 10.256 51.7015 10.576C51.9575 10.8853 52.3735 11.04 52.9495 11.04C53.1522 11.04 53.3228 11.0187 53.4615 10.976C53.6108 10.9333 53.7335 10.912 53.8295 10.912C53.9255 10.9013 54.0055 10.9333 54.0695 11.008C54.1335 11.0827 54.1655 11.2107 54.1655 11.392C54.1655 11.52 54.1388 11.6373 54.0855 11.744C54.0428 11.8507 53.9628 11.9253 53.8455 11.968C53.7175 12.0107 53.5468 12.048 53.3335 12.08C53.1308 12.1227 52.9442 12.144 52.7735 12.144ZM58.6511 12.144C57.8938 12.144 57.2378 11.9787 56.6831 11.648C56.1285 11.3173 55.6965 10.8533 55.3871 10.256C55.0885 9.648 54.9391 8.93333 54.9391 8.112C54.9391 7.49333 55.0245 6.93867 55.1951 6.448C55.3658 5.94667 55.6165 5.52 55.9471 5.168C56.2778 4.816 56.6671 4.54933 57.1151 4.368C57.5738 4.176 58.0858 4.08 58.6511 4.08C59.4085 4.08 60.0645 4.24533 60.6191 4.576C61.1738 4.90667 61.6005 5.376 61.8991 5.984C62.2085 6.58133 62.3631 7.29067 62.3631 8.112C62.3631 8.73067 62.2778 9.28533 62.1071 9.776C61.9365 10.2667 61.6858 10.6933 61.3551 11.056C61.0245 11.408 60.6298 11.68 60.1711 11.872C59.7231 12.0533 59.2165 12.144 58.6511 12.144ZM58.6511 11.104C59.1311 11.104 59.5525 10.9867 59.9151 10.752C60.2778 10.5173 60.5551 10.176 60.7471 9.728C60.9498 9.28 61.0511 8.74133 61.0511 8.112C61.0511 7.14133 60.8325 6.4 60.3951 5.888C59.9685 5.376 59.3871 5.12 58.6511 5.12C58.1605 5.12 57.7338 5.23733 57.3711 5.472C57.0191 5.696 56.7418 6.032 56.5391 6.48C56.3471 6.91733 56.2511 7.46133 56.2511 8.112C56.2511 9.072 56.4698 9.81333 56.9071 10.336C57.3445 10.848 57.9258 11.104 58.6511 11.104ZM71.3828 12.144C70.8494 12.144 70.3694 12.0427 69.9428 11.84C69.5268 11.6267 69.1961 11.3387 68.9508 10.976C68.7054 10.6133 68.5828 10.208 68.5828 9.76C68.5828 9.184 68.7268 8.73067 69.0148 8.4C69.3134 8.06933 69.7988 7.83467 70.4708 7.696C71.1534 7.55733 72.0814 7.488 73.2548 7.488H73.9748V8.336H73.2708C72.4068 8.336 71.7241 8.37867 71.2228 8.464C70.7321 8.53867 70.3854 8.672 70.1828 8.864C69.9908 9.056 69.8948 9.328 69.8948 9.68C69.8948 10.1173 70.0441 10.4747 70.3428 10.752C70.6521 11.0293 71.0681 11.168 71.5908 11.168C72.0174 11.168 72.3908 11.0667 72.7108 10.864C73.0414 10.6613 73.2974 10.384 73.4788 10.032C73.6708 9.68 73.7668 9.27467 73.7668 8.816V6.992C73.7668 6.33067 73.6334 5.856 73.3668 5.568C73.1001 5.26933 72.6628 5.12 72.0548 5.12C71.6814 5.12 71.3081 5.168 70.9348 5.264C70.5614 5.36 70.1668 5.51467 69.7508 5.728C69.6014 5.80267 69.4734 5.82933 69.3668 5.808C69.2601 5.776 69.1748 5.71733 69.1108 5.632C69.0468 5.54667 69.0094 5.45067 68.9988 5.344C68.9881 5.22667 69.0094 5.11467 69.0628 5.008C69.1268 4.90133 69.2228 4.816 69.3508 4.752C69.8201 4.51733 70.2841 4.34667 70.7428 4.24C71.2014 4.13333 71.6388 4.08 72.0548 4.08C72.7268 4.08 73.2814 4.192 73.7188 4.416C74.1561 4.62933 74.4814 4.96 74.6948 5.408C74.9081 5.84533 75.0148 6.41067 75.0148 7.104V11.44C75.0148 11.6533 74.9614 11.8187 74.8548 11.936C74.7588 12.0533 74.6148 12.112 74.4228 12.112C74.2201 12.112 74.0654 12.0533 73.9588 11.936C73.8521 11.8187 73.7988 11.6533 73.7988 11.44V10.192H73.9428C73.8574 10.5973 73.6921 10.944 73.4468 11.232C73.2121 11.52 72.9188 11.744 72.5668 11.904C72.2148 12.064 71.8201 12.144 71.3828 12.144ZM80.9651 12.144C80.1865 12.144 79.5145 11.9733 78.9491 11.632C78.3838 11.2907 77.9465 10.816 77.6371 10.208C77.3385 9.58933 77.1891 8.87467 77.1891 8.064C77.1891 7.44533 77.2745 6.89067 77.4451 6.4C77.6158 5.90933 77.8665 5.49333 78.1971 5.152C78.5278 4.8 78.9225 4.53333 79.3811 4.352C79.8505 4.17067 80.3785 4.08 80.9651 4.08C81.3491 4.08 81.7491 4.13867 82.1651 4.256C82.5811 4.37333 82.9598 4.576 83.3011 4.864C83.4078 4.93867 83.4771 5.02933 83.5091 5.136C83.5411 5.24267 83.5411 5.34933 83.5091 5.456C83.4771 5.552 83.4238 5.63733 83.3491 5.712C83.2745 5.776 83.1785 5.81333 83.0611 5.824C82.9545 5.83467 82.8425 5.79733 82.7251 5.712C82.4478 5.49867 82.1651 5.34933 81.8771 5.264C81.5891 5.17867 81.3118 5.136 81.0451 5.136C80.6291 5.136 80.2665 5.20533 79.9571 5.344C79.6478 5.472 79.3865 5.65867 79.1731 5.904C78.9598 6.14933 78.7945 6.45333 78.6771 6.816C78.5705 7.17867 78.5171 7.6 78.5171 8.08C78.5171 9.008 78.7358 9.744 79.1731 10.288C79.6105 10.8213 80.2345 11.088 81.0451 11.088C81.3118 11.088 81.5838 11.0453 81.8611 10.96C82.1491 10.8747 82.4371 10.7253 82.7251 10.512C82.8425 10.4267 82.9545 10.3893 83.0611 10.4C83.1678 10.4107 83.2585 10.4533 83.3331 10.528C83.4078 10.592 83.4558 10.6773 83.4771 10.784C83.5091 10.8907 83.5091 10.9973 83.4771 11.104C83.4451 11.2 83.3758 11.2853 83.2691 11.36C82.9278 11.6373 82.5545 11.84 82.1491 11.968C81.7438 12.0853 81.3491 12.144 80.9651 12.144ZM88.4651 12.144C87.6865 12.144 87.0145 11.9733 86.4491 11.632C85.8838 11.2907 85.4465 10.816 85.1371 10.208C84.8385 9.58933 84.6891 8.87467 84.6891 8.064C84.6891 7.44533 84.7745 6.89067 84.9451 6.4C85.1158 5.90933 85.3665 5.49333 85.6971 5.152C86.0278 4.8 86.4225 4.53333 86.8811 4.352C87.3505 4.17067 87.8785 4.08 88.4651 4.08C88.8491 4.08 89.2491 4.13867 89.6651 4.256C90.0811 4.37333 90.4598 4.576 90.8011 4.864C90.9078 4.93867 90.9771 5.02933 91.0091 5.136C91.0411 5.24267 91.0411 5.34933 91.0091 5.456C90.9771 5.552 90.9238 5.63733 90.8491 5.712C90.7745 5.776 90.6785 5.81333 90.5611 5.824C90.4545 5.83467 90.3425 5.79733 90.2251 5.712C89.9478 5.49867 89.6651 5.34933 89.3771 5.264C89.0891 5.17867 88.8118 5.136 88.5451 5.136C88.1291 5.136 87.7665 5.20533 87.4571 5.344C87.1478 5.472 86.8865 5.65867 86.6731 5.904C86.4598 6.14933 86.2945 6.45333 86.1771 6.816C86.0705 7.17867 86.0171 7.6 86.0171 8.08C86.0171 9.008 86.2358 9.744 86.6731 10.288C87.1105 10.8213 87.7345 11.088 88.5451 11.088C88.8118 11.088 89.0838 11.0453 89.3611 10.96C89.6491 10.8747 89.9371 10.7253 90.2251 10.512C90.3425 10.4267 90.4545 10.3893 90.5611 10.4C90.6678 10.4107 90.7585 10.4533 90.8331 10.528C90.9078 10.592 90.9558 10.6773 90.9771 10.784C91.0091 10.8907 91.0091 10.9973 90.9771 11.104C90.9451 11.2 90.8758 11.2853 90.7691 11.36C90.4278 11.6373 90.0545 11.84 89.6491 11.968C89.2438 12.0853 88.8491 12.144 88.4651 12.144ZM96.1731 12.144C95.3518 12.144 94.6425 11.984 94.0451 11.664C93.4585 11.3333 92.9998 10.8693 92.6691 10.272C92.3491 9.67467 92.1891 8.96 92.1891 8.128C92.1891 7.31733 92.3491 6.61333 92.6691 6.016C92.9891 5.408 93.4265 4.93333 93.9811 4.592C94.5465 4.25067 95.1971 4.08 95.9331 4.08C96.4558 4.08 96.9251 4.17067 97.3411 4.352C97.7571 4.52267 98.1091 4.77333 98.3971 5.104C98.6958 5.43467 98.9198 5.83467 99.0691 6.304C99.2291 6.77333 99.3091 7.30133 99.3091 7.888C99.3091 8.05867 99.2611 8.18667 99.1651 8.272C99.0691 8.34667 98.9305 8.384 98.7491 8.384H93.1811V7.536H98.4451L98.1891 7.744C98.1891 7.168 98.1038 6.68267 97.9331 6.288C97.7625 5.88267 97.5118 5.57333 97.1811 5.36C96.8611 5.14667 96.4558 5.04 95.9651 5.04C95.4211 5.04 94.9571 5.168 94.5731 5.424C94.1998 5.66933 93.9171 6.016 93.7251 6.464C93.5331 6.90133 93.4371 7.41333 93.4371 8V8.096C93.4371 9.07733 93.6718 9.824 94.1411 10.336C94.6211 10.848 95.2985 11.104 96.1731 11.104C96.5358 11.104 96.8931 11.056 97.2451 10.96C97.6078 10.864 97.9598 10.704 98.3011 10.48C98.4505 10.384 98.5838 10.3413 98.7011 10.352C98.8291 10.352 98.9305 10.3893 99.0051 10.464C99.0798 10.528 99.1278 10.6133 99.1491 10.72C99.1811 10.816 99.1705 10.9227 99.1171 11.04C99.0745 11.1573 98.9838 11.2587 98.8451 11.344C98.4931 11.6 98.0771 11.7973 97.5971 11.936C97.1171 12.0747 96.6425 12.144 96.1731 12.144ZM104.059 12.144C103.579 12.144 103.093 12.0853 102.603 11.968C102.123 11.8507 101.675 11.648 101.259 11.36C101.152 11.2853 101.077 11.2 101.035 11.104C100.992 10.9973 100.976 10.896 100.987 10.8C101.008 10.6933 101.051 10.6027 101.115 10.528C101.189 10.4533 101.275 10.4107 101.371 10.4C101.477 10.3787 101.595 10.4 101.723 10.464C102.139 10.72 102.539 10.9013 102.923 11.008C103.317 11.104 103.707 11.152 104.091 11.152C104.699 11.152 105.157 11.04 105.467 10.816C105.776 10.592 105.931 10.288 105.931 9.904C105.931 9.60533 105.829 9.37067 105.627 9.2C105.424 9.01867 105.104 8.88 104.667 8.784L103.211 8.464C102.539 8.32533 102.037 8.08533 101.707 7.744C101.387 7.40267 101.227 6.96 101.227 6.416C101.227 5.936 101.349 5.52533 101.595 5.184C101.851 4.832 102.208 4.56 102.667 4.368C103.125 4.176 103.659 4.08 104.267 4.08C104.736 4.08 105.179 4.144 105.595 4.272C106.021 4.38933 106.405 4.58133 106.747 4.848C106.853 4.92267 106.923 5.01333 106.955 5.12C106.997 5.216 107.003 5.31733 106.971 5.424C106.949 5.52 106.901 5.60533 106.827 5.68C106.752 5.744 106.661 5.78133 106.555 5.792C106.448 5.80267 106.336 5.77067 106.219 5.696C105.899 5.48267 105.573 5.328 105.243 5.232C104.912 5.12533 104.587 5.072 104.267 5.072C103.669 5.072 103.216 5.18933 102.907 5.424C102.597 5.65867 102.443 5.968 102.443 6.352C102.443 6.65067 102.539 6.896 102.731 7.088C102.923 7.28 103.221 7.41867 103.627 7.504L105.083 7.808C105.776 7.95733 106.293 8.19733 106.635 8.528C106.987 8.848 107.163 9.28533 107.163 9.84C107.163 10.544 106.88 11.104 106.315 11.52C105.749 11.936 104.997 12.144 104.059 12.144ZM112.012 12.144C111.532 12.144 111.047 12.0853 110.556 11.968C110.076 11.8507 109.628 11.648 109.212 11.36C109.105 11.2853 109.031 11.2 108.988 11.104C108.945 10.9973 108.929 10.896 108.94 10.8C108.961 10.6933 109.004 10.6027 109.068 10.528C109.143 10.4533 109.228 10.4107 109.324 10.4C109.431 10.3787 109.548 10.4 109.676 10.464C110.092 10.72 110.492 10.9013 110.876 11.008C111.271 11.104 111.66 11.152 112.044 11.152C112.652 11.152 113.111 11.04 113.42 10.816C113.729 10.592 113.884 10.288 113.884 9.904C113.884 9.60533 113.783 9.37067 113.58 9.2C113.377 9.01867 113.057 8.88 112.62 8.784L111.164 8.464C110.492 8.32533 109.991 8.08533 109.66 7.744C109.34 7.40267 109.18 6.96 109.18 6.416C109.18 5.936 109.303 5.52533 109.548 5.184C109.804 4.832 110.161 4.56 110.62 4.368C111.079 4.176 111.612 4.08 112.22 4.08C112.689 4.08 113.132 4.144 113.548 4.272C113.975 4.38933 114.359 4.58133 114.7 4.848C114.807 4.92267 114.876 5.01333 114.908 5.12C114.951 5.216 114.956 5.31733 114.924 5.424C114.903 5.52 114.855 5.60533 114.78 5.68C114.705 5.744 114.615 5.78133 114.508 5.792C114.401 5.80267 114.289 5.77067 114.172 5.696C113.852 5.48267 113.527 5.328 113.196 5.232C112.865 5.12533 112.54 5.072 112.22 5.072C111.623 5.072 111.169 5.18933 110.86 5.424C110.551 5.65867 110.396 5.968 110.396 6.352C110.396 6.65067 110.492 6.896 110.684 7.088C110.876 7.28 111.175 7.41867 111.58 7.504L113.036 7.808C113.729 7.95733 114.247 8.19733 114.588 8.528C114.94 8.848 115.116 9.28533 115.116 9.84C115.116 10.544 114.833 11.104 114.268 11.52C113.703 11.936 112.951 12.144 112.012 12.144ZM123.444 14.992C123.284 14.992 123.156 14.9493 123.06 14.864C122.964 14.7787 122.905 14.6613 122.884 14.512C122.873 14.3733 122.9 14.2293 122.964 14.08L124.068 11.6V12.16L120.996 5.024C120.932 4.864 120.911 4.71467 120.932 4.576C120.953 4.43733 121.017 4.32533 121.124 4.24C121.231 4.15467 121.38 4.112 121.572 4.112C121.743 4.112 121.876 4.14933 121.972 4.224C122.068 4.29867 122.153 4.432 122.228 4.624L124.852 11.056H124.42L127.076 4.624C127.161 4.432 127.252 4.29867 127.348 4.224C127.444 4.14933 127.583 4.112 127.764 4.112C127.935 4.112 128.063 4.15467 128.148 4.24C128.244 4.32533 128.297 4.43733 128.308 4.576C128.329 4.704 128.308 4.848 128.244 5.008L124.148 14.48C124.063 14.672 123.967 14.8053 123.86 14.88C123.764 14.9547 123.625 14.992 123.444 14.992ZM133.307 12.144C132.55 12.144 131.894 11.9787 131.339 11.648C130.785 11.3173 130.353 10.8533 130.043 10.256C129.745 9.648 129.595 8.93333 129.595 8.112C129.595 7.49333 129.681 6.93867 129.851 6.448C130.022 5.94667 130.273 5.52 130.603 5.168C130.934 4.816 131.323 4.54933 131.771 4.368C132.23 4.176 132.742 4.08 133.307 4.08C134.065 4.08 134.721 4.24533 135.275 4.576C135.83 4.90667 136.257 5.376 136.555 5.984C136.865 6.58133 137.019 7.29067 137.019 8.112C137.019 8.73067 136.934 9.28533 136.763 9.776C136.593 10.2667 136.342 10.6933 136.011 11.056C135.681 11.408 135.286 11.68 134.827 11.872C134.379 12.0533 133.873 12.144 133.307 12.144ZM133.307 11.104C133.787 11.104 134.209 10.9867 134.571 10.752C134.934 10.5173 135.211 10.176 135.403 9.728C135.606 9.28 135.707 8.74133 135.707 8.112C135.707 7.14133 135.489 6.4 135.051 5.888C134.625 5.376 134.043 5.12 133.307 5.12C132.817 5.12 132.39 5.23733 132.027 5.472C131.675 5.696 131.398 6.032 131.195 6.48C131.003 6.91733 130.907 7.46133 130.907 8.112C130.907 9.072 131.126 9.81333 131.563 10.336C132.001 10.848 132.582 11.104 133.307 11.104ZM141.968 12.144C141.339 12.144 140.816 12.032 140.4 11.808C139.995 11.5733 139.685 11.2267 139.472 10.768C139.269 10.3093 139.168 9.73867 139.168 9.056V4.768C139.168 4.544 139.221 4.37867 139.328 4.272C139.445 4.16533 139.605 4.112 139.808 4.112C140.021 4.112 140.181 4.16533 140.288 4.272C140.405 4.37867 140.464 4.544 140.464 4.768V9.04C140.464 9.72267 140.603 10.2347 140.88 10.576C141.168 10.9067 141.616 11.072 142.224 11.072C142.885 11.072 143.424 10.848 143.84 10.4C144.256 9.952 144.464 9.36533 144.464 8.64V4.768C144.464 4.544 144.517 4.37867 144.624 4.272C144.741 4.16533 144.907 4.112 145.12 4.112C145.323 4.112 145.477 4.16533 145.584 4.272C145.701 4.37867 145.76 4.544 145.76 4.768V11.44C145.76 11.888 145.552 12.112 145.136 12.112C144.933 12.112 144.773 12.0533 144.656 11.936C144.549 11.8187 144.496 11.6533 144.496 11.44V9.984L144.704 10.208C144.491 10.8373 144.139 11.3173 143.648 11.648C143.168 11.9787 142.608 12.144 141.968 12.144ZM149.091 12.112C148.877 12.112 148.712 12.0533 148.595 11.936C148.488 11.8187 148.435 11.6533 148.435 11.44V4.768C148.435 4.55467 148.488 4.39467 148.595 4.288C148.701 4.17067 148.856 4.112 149.059 4.112C149.261 4.112 149.416 4.17067 149.523 4.288C149.64 4.39467 149.699 4.55467 149.699 4.768V6.064H149.539C149.709 5.43467 150.035 4.94933 150.515 4.608C150.995 4.26667 151.587 4.08533 152.291 4.064C152.451 4.05333 152.579 4.09067 152.675 4.176C152.771 4.25067 152.824 4.384 152.835 4.576C152.845 4.75733 152.803 4.90133 152.707 5.008C152.611 5.11467 152.461 5.17867 152.259 5.2L152.003 5.232C151.277 5.296 150.717 5.53067 150.323 5.936C149.939 6.33067 149.747 6.87467 149.747 7.568V11.44C149.747 11.6533 149.688 11.8187 149.571 11.936C149.464 12.0533 149.304 12.112 149.091 12.112ZM159.434 14.992C159.221 14.992 159.061 14.9333 158.954 14.816C158.847 14.7093 158.794 14.5493 158.794 14.336V4.768C158.794 4.55467 158.847 4.39467 158.954 4.288C159.061 4.17067 159.215 4.112 159.418 4.112C159.631 4.112 159.791 4.17067 159.898 4.288C160.015 4.39467 160.074 4.55467 160.074 4.768V6.288L159.898 6.064C160.069 5.456 160.405 4.976 160.906 4.624C161.418 4.26133 162.026 4.08 162.73 4.08C163.423 4.08 164.026 4.24533 164.538 4.576C165.061 4.896 165.461 5.36 165.738 5.968C166.026 6.56533 166.17 7.28 166.17 8.112C166.17 8.93333 166.026 9.648 165.738 10.256C165.461 10.8533 165.066 11.3173 164.554 11.648C164.042 11.9787 163.434 12.144 162.73 12.144C162.026 12.144 161.423 11.968 160.922 11.616C160.421 11.2533 160.079 10.7733 159.898 10.176H160.09V14.336C160.09 14.5493 160.031 14.7093 159.914 14.816C159.797 14.9333 159.637 14.992 159.434 14.992ZM162.458 11.104C162.949 11.104 163.37 10.9867 163.722 10.752C164.085 10.5173 164.362 10.176 164.554 9.728C164.757 9.28 164.858 8.74133 164.858 8.112C164.858 7.14133 164.639 6.4 164.202 5.888C163.775 5.376 163.194 5.12 162.458 5.12C161.978 5.12 161.557 5.23733 161.194 5.472C160.831 5.696 160.549 6.032 160.346 6.48C160.154 6.91733 160.058 7.46133 160.058 8.112C160.058 9.072 160.277 9.81333 160.714 10.336C161.151 10.848 161.733 11.104 162.458 11.104ZM171.876 12.144C171.055 12.144 170.346 11.984 169.748 11.664C169.162 11.3333 168.703 10.8693 168.372 10.272C168.052 9.67467 167.892 8.96 167.892 8.128C167.892 7.31733 168.052 6.61333 168.372 6.016C168.692 5.408 169.13 4.93333 169.684 4.592C170.25 4.25067 170.9 4.08 171.636 4.08C172.159 4.08 172.628 4.17067 173.044 4.352C173.46 4.52267 173.812 4.77333 174.1 5.104C174.399 5.43467 174.623 5.83467 174.772 6.304C174.932 6.77333 175.012 7.30133 175.012 7.888C175.012 8.05867 174.964 8.18667 174.868 8.272C174.772 8.34667 174.634 8.384 174.452 8.384H168.884V7.536H174.148L173.892 7.744C173.892 7.168 173.807 6.68267 173.636 6.288C173.466 5.88267 173.215 5.57333 172.884 5.36C172.564 5.14667 172.159 5.04 171.668 5.04C171.124 5.04 170.66 5.168 170.276 5.424C169.903 5.66933 169.62 6.016 169.428 6.464C169.236 6.90133 169.14 7.41333 169.14 8V8.096C169.14 9.07733 169.375 9.824 169.844 10.336C170.324 10.848 171.002 11.104 171.876 11.104C172.239 11.104 172.596 11.056 172.948 10.96C173.311 10.864 173.663 10.704 174.004 10.48C174.154 10.384 174.287 10.3413 174.404 10.352C174.532 10.352 174.634 10.3893 174.708 10.464C174.783 10.528 174.831 10.6133 174.852 10.72C174.884 10.816 174.874 10.9227 174.82 11.04C174.778 11.1573 174.687 11.2587 174.548 11.344C174.196 11.6 173.78 11.7973 173.3 11.936C172.82 12.0747 172.346 12.144 171.876 12.144ZM177.794 12.112C177.581 12.112 177.415 12.0533 177.298 11.936C177.191 11.8187 177.138 11.6533 177.138 11.44V4.768C177.138 4.55467 177.191 4.39467 177.298 4.288C177.405 4.17067 177.559 4.112 177.762 4.112C177.965 4.112 178.119 4.17067 178.226 4.288C178.343 4.39467 178.402 4.55467 178.402 4.768V6.064H178.242C178.413 5.43467 178.738 4.94933 179.218 4.608C179.698 4.26667 180.29 4.08533 180.994 4.064C181.154 4.05333 181.282 4.09067 181.378 4.176C181.474 4.25067 181.527 4.384 181.538 4.576C181.549 4.75733 181.506 4.90133 181.41 5.008C181.314 5.11467 181.165 5.17867 180.962 5.2L180.706 5.232C179.981 5.296 179.421 5.53067 179.026 5.936C178.642 6.33067 178.45 6.87467 178.45 7.568V11.44C178.45 11.6533 178.391 11.8187 178.274 11.936C178.167 12.0533 178.007 12.112 177.794 12.112ZM185.668 12.144C185.188 12.144 184.703 12.0853 184.212 11.968C183.732 11.8507 183.284 11.648 182.868 11.36C182.761 11.2853 182.687 11.2 182.644 11.104C182.601 10.9973 182.585 10.896 182.596 10.8C182.617 10.6933 182.66 10.6027 182.724 10.528C182.799 10.4533 182.884 10.4107 182.98 10.4C183.087 10.3787 183.204 10.4 183.332 10.464C183.748 10.72 184.148 10.9013 184.532 11.008C184.927 11.104 185.316 11.152 185.7 11.152C186.308 11.152 186.767 11.04 187.076 10.816C187.385 10.592 187.54 10.288 187.54 9.904C187.54 9.60533 187.439 9.37067 187.236 9.2C187.033 9.01867 186.713 8.88 186.276 8.784L184.82 8.464C184.148 8.32533 183.647 8.08533 183.316 7.744C182.996 7.40267 182.836 6.96 182.836 6.416C182.836 5.936 182.959 5.52533 183.204 5.184C183.46 4.832 183.817 4.56 184.276 4.368C184.735 4.176 185.268 4.08 185.876 4.08C186.345 4.08 186.788 4.144 187.204 4.272C187.631 4.38933 188.015 4.58133 188.356 4.848C188.463 4.92267 188.532 5.01333 188.564 5.12C188.607 5.216 188.612 5.31733 188.58 5.424C188.559 5.52 188.511 5.60533 188.436 5.68C188.361 5.744 188.271 5.78133 188.164 5.792C188.057 5.80267 187.945 5.77067 187.828 5.696C187.508 5.48267 187.183 5.328 186.852 5.232C186.521 5.12533 186.196 5.072 185.876 5.072C185.279 5.072 184.825 5.18933 184.516 5.424C184.207 5.65867 184.052 5.968 184.052 6.352C184.052 6.65067 184.148 6.896 184.34 7.088C184.532 7.28 184.831 7.41867 185.236 7.504L186.692 7.808C187.385 7.95733 187.903 8.19733 188.244 8.528C188.596 8.848 188.772 9.28533 188.772 9.84C188.772 10.544 188.489 11.104 187.924 11.52C187.359 11.936 186.607 12.144 185.668 12.144ZM194.229 12.144C193.472 12.144 192.816 11.9787 192.261 11.648C191.707 11.3173 191.275 10.8533 190.965 10.256C190.667 9.648 190.517 8.93333 190.517 8.112C190.517 7.49333 190.603 6.93867 190.773 6.448C190.944 5.94667 191.195 5.52 191.525 5.168C191.856 4.816 192.245 4.54933 192.693 4.368C193.152 4.176 193.664 4.08 194.229 4.08C194.987 4.08 195.643 4.24533 196.197 4.576C196.752 4.90667 197.179 5.376 197.477 5.984C197.787 6.58133 197.941 7.29067 197.941 8.112C197.941 8.73067 197.856 9.28533 197.685 9.776C197.515 10.2667 197.264 10.6933 196.933 11.056C196.603 11.408 196.208 11.68 195.749 11.872C195.301 12.0533 194.795 12.144 194.229 12.144ZM194.229 11.104C194.709 11.104 195.131 10.9867 195.493 10.752C195.856 10.5173 196.133 10.176 196.325 9.728C196.528 9.28 196.629 8.74133 196.629 8.112C196.629 7.14133 196.411 6.4 195.973 5.888C195.547 5.376 194.965 5.12 194.229 5.12C193.739 5.12 193.312 5.23733 192.949 5.472C192.597 5.696 192.32 6.032 192.117 6.48C191.925 6.91733 191.829 7.46133 191.829 8.112C191.829 9.072 192.048 9.81333 192.485 10.336C192.923 10.848 193.504 11.104 194.229 11.104ZM200.778 12.112C200.565 12.112 200.405 12.0533 200.298 11.936C200.191 11.8187 200.138 11.6533 200.138 11.44V4.768C200.138 4.55467 200.191 4.39467 200.298 4.288C200.405 4.17067 200.559 4.112 200.762 4.112C200.965 4.112 201.119 4.17067 201.226 4.288C201.343 4.39467 201.402 4.55467 201.402 4.768V6.144L201.226 5.952C201.45 5.33333 201.813 4.86933 202.314 4.56C202.826 4.24 203.413 4.08 204.074 4.08C204.693 4.08 205.205 4.192 205.61 4.416C206.026 4.64 206.335 4.98133 206.538 5.44C206.741 5.888 206.842 6.45867 206.842 7.152V11.44C206.842 11.6533 206.783 11.8187 206.666 11.936C206.559 12.0533 206.405 12.112 206.202 12.112C205.989 12.112 205.823 12.0533 205.706 11.936C205.599 11.8187 205.546 11.6533 205.546 11.44V7.232C205.546 6.50667 205.402 5.97867 205.114 5.648C204.837 5.30667 204.389 5.136 203.77 5.136C203.055 5.136 202.485 5.36 202.058 5.808C201.642 6.24533 201.434 6.832 201.434 7.568V11.44C201.434 11.888 201.215 12.112 200.778 12.112ZM211.93 12.144C211.396 12.144 210.916 12.0427 210.49 11.84C210.074 11.6267 209.743 11.3387 209.498 10.976C209.252 10.6133 209.13 10.208 209.13 9.76C209.13 9.184 209.274 8.73067 209.562 8.4C209.86 8.06933 210.346 7.83467 211.018 7.696C211.7 7.55733 212.628 7.488 213.802 7.488H214.522V8.336H213.818C212.954 8.336 212.271 8.37867 211.77 8.464C211.279 8.53867 210.932 8.672 210.73 8.864C210.538 9.056 210.442 9.328 210.442 9.68C210.442 10.1173 210.591 10.4747 210.89 10.752C211.199 11.0293 211.615 11.168 212.138 11.168C212.564 11.168 212.938 11.0667 213.258 10.864C213.588 10.6613 213.844 10.384 214.026 10.032C214.218 9.68 214.314 9.27467 214.314 8.816V6.992C214.314 6.33067 214.18 5.856 213.914 5.568C213.647 5.26933 213.21 5.12 212.602 5.12C212.228 5.12 211.855 5.168 211.482 5.264C211.108 5.36 210.714 5.51467 210.298 5.728C210.148 5.80267 210.02 5.82933 209.914 5.808C209.807 5.776 209.722 5.71733 209.658 5.632C209.594 5.54667 209.556 5.45067 209.546 5.344C209.535 5.22667 209.556 5.11467 209.61 5.008C209.674 4.90133 209.77 4.816 209.898 4.752C210.367 4.51733 210.831 4.34667 211.29 4.24C211.748 4.13333 212.186 4.08 212.602 4.08C213.274 4.08 213.828 4.192 214.266 4.416C214.703 4.62933 215.028 4.96 215.242 5.408C215.455 5.84533 215.562 6.41067 215.562 7.104V11.44C215.562 11.6533 215.508 11.8187 215.402 11.936C215.306 12.0533 215.162 12.112 214.97 12.112C214.767 12.112 214.612 12.0533 214.506 11.936C214.399 11.8187 214.346 11.6533 214.346 11.44V10.192H214.49C214.404 10.5973 214.239 10.944 213.994 11.232C213.759 11.52 213.466 11.744 213.114 11.904C212.762 12.064 212.367 12.144 211.93 12.144ZM220.584 12.144C219.816 12.144 219.229 11.9093 218.824 11.44C218.419 10.9707 218.216 10.2987 218.216 9.424V1.264C218.216 1.05067 218.269 0.890666 218.376 0.783999C218.483 0.666666 218.643 0.608 218.856 0.608C219.059 0.608 219.219 0.666666 219.336 0.783999C219.453 0.890666 219.512 1.05067 219.512 1.264V9.328C219.512 9.904 219.624 10.336 219.848 10.624C220.083 10.9013 220.424 11.04 220.872 11.04C220.968 11.04 221.053 11.0347 221.128 11.024C221.203 11.0133 221.277 11.008 221.352 11.008C221.469 10.9973 221.549 11.024 221.592 11.088C221.645 11.152 221.672 11.28 221.672 11.472C221.672 11.664 221.629 11.808 221.544 11.904C221.459 12 221.32 12.064 221.128 12.096C221.043 12.1067 220.952 12.1173 220.856 12.128C220.76 12.1387 220.669 12.144 220.584 12.144ZM223.84 12.08C223.627 12.08 223.467 12.0213 223.36 11.904C223.254 11.776 223.2 11.6 223.2 11.376V4.832C223.2 4.608 223.254 4.43733 223.36 4.32C223.467 4.20267 223.627 4.144 223.84 4.144C224.043 4.144 224.203 4.20267 224.32 4.32C224.438 4.43733 224.496 4.608 224.496 4.832V11.376C224.496 11.6 224.438 11.776 224.32 11.904C224.214 12.0213 224.054 12.08 223.84 12.08ZM223.84 2.352C223.574 2.352 223.366 2.28267 223.216 2.144C223.067 1.99467 222.992 1.79733 222.992 1.552C222.992 1.296 223.067 1.104 223.216 0.976C223.366 0.837333 223.574 0.768 223.84 0.768C224.118 0.768 224.326 0.837333 224.464 0.976C224.614 1.104 224.688 1.296 224.688 1.552C224.688 1.79733 224.614 1.99467 224.464 2.144C224.326 2.28267 224.118 2.352 223.84 2.352ZM227.313 12C227.174 12 227.062 11.968 226.977 11.904C226.892 11.84 226.833 11.7547 226.801 11.648C226.769 11.5413 226.769 11.424 226.801 11.296C226.833 11.168 226.902 11.0453 227.009 10.928L231.521 4.896V5.232H227.249C227.078 5.232 226.945 5.18933 226.849 5.104C226.764 5.008 226.721 4.88 226.721 4.72C226.721 4.56 226.764 4.43733 226.849 4.352C226.945 4.26667 227.078 4.224 227.249 4.224H232.161C232.321 4.224 232.449 4.256 232.545 4.32C232.652 4.384 232.721 4.46933 232.753 4.576C232.785 4.672 232.785 4.784 232.753 4.912C232.732 5.02933 232.673 5.14667 232.577 5.264L227.985 11.36V10.992H232.481C232.833 10.992 233.009 11.1573 233.009 11.488C233.009 11.648 232.961 11.776 232.865 11.872C232.78 11.9573 232.652 12 232.481 12H227.313ZM238.173 12.144C237.352 12.144 236.642 11.984 236.045 11.664C235.458 11.3333 235 10.8693 234.669 10.272C234.349 9.67467 234.189 8.96 234.189 8.128C234.189 7.31733 234.349 6.61333 234.669 6.016C234.989 5.408 235.426 4.93333 235.981 4.592C236.546 4.25067 237.197 4.08 237.933 4.08C238.456 4.08 238.925 4.17067 239.341 4.352C239.757 4.52267 240.109 4.77333 240.397 5.104C240.696 5.43467 240.92 5.83467 241.069 6.304C241.229 6.77333 241.309 7.30133 241.309 7.888C241.309 8.05867 241.261 8.18667 241.165 8.272C241.069 8.34667 240.93 8.384 240.749 8.384H235.181V7.536H240.445L240.189 7.744C240.189 7.168 240.104 6.68267 239.933 6.288C239.762 5.88267 239.512 5.57333 239.181 5.36C238.861 5.14667 238.456 5.04 237.965 5.04C237.421 5.04 236.957 5.168 236.573 5.424C236.2 5.66933 235.917 6.016 235.725 6.464C235.533 6.90133 235.437 7.41333 235.437 8V8.096C235.437 9.07733 235.672 9.824 236.141 10.336C236.621 10.848 237.298 11.104 238.173 11.104C238.536 11.104 238.893 11.056 239.245 10.96C239.608 10.864 239.96 10.704 240.301 10.48C240.45 10.384 240.584 10.3413 240.701 10.352C240.829 10.352 240.93 10.3893 241.005 10.464C241.08 10.528 241.128 10.6133 241.149 10.72C241.181 10.816 241.17 10.9227 241.117 11.04C241.074 11.1573 240.984 11.2587 240.845 11.344C240.493 11.6 240.077 11.7973 239.597 11.936C239.117 12.0747 238.642 12.144 238.173 12.144ZM246.395 12.144C245.701 12.144 245.093 11.9787 244.571 11.648C244.059 11.3173 243.659 10.8533 243.371 10.256C243.093 9.648 242.955 8.93333 242.955 8.112C242.955 7.28 243.093 6.56533 243.371 5.968C243.659 5.36 244.059 4.896 244.571 4.576C245.093 4.24533 245.701 4.08 246.395 4.08C247.099 4.08 247.701 4.256 248.203 4.608C248.704 4.96 249.04 5.43467 249.211 6.032H249.035V1.264C249.035 1.05067 249.088 0.890666 249.195 0.783999C249.312 0.666666 249.477 0.608 249.691 0.608C249.893 0.608 250.048 0.666666 250.155 0.783999C250.272 0.890666 250.331 1.05067 250.331 1.264V11.44C250.331 11.6533 250.277 11.8187 250.171 11.936C250.064 12.0533 249.904 12.112 249.691 12.112C249.488 12.112 249.328 12.0533 249.211 11.936C249.104 11.8187 249.051 11.6533 249.051 11.44V9.92L249.227 10.144C249.056 10.752 248.715 11.2373 248.203 11.6C247.701 11.9627 247.099 12.144 246.395 12.144ZM246.667 11.104C247.147 11.104 247.568 10.9867 247.931 10.752C248.293 10.5173 248.571 10.176 248.763 9.728C248.965 9.28 249.067 8.74133 249.067 8.112C249.067 7.14133 248.848 6.4 248.411 5.888C247.984 5.376 247.403 5.12 246.667 5.12C246.176 5.12 245.749 5.23733 245.387 5.472C245.035 5.696 244.757 6.032 244.555 6.48C244.363 6.91733 244.267 7.46133 244.267 8.112C244.267 9.072 244.485 9.81333 244.923 10.336C245.36 10.848 245.941 11.104 246.667 11.104ZM258.204 12.112C258.012 12.112 257.863 12.0587 257.756 11.952C257.649 11.8347 257.596 11.6747 257.596 11.472V1.248C257.596 1.03467 257.649 0.874666 257.756 0.768C257.863 0.661333 258.012 0.608 258.204 0.608C258.375 0.608 258.508 0.645333 258.604 0.719999C258.711 0.783999 258.807 0.895999 258.892 1.056L263.276 9.312H262.796L267.164 1.056C267.249 0.895999 267.34 0.783999 267.436 0.719999C267.532 0.645333 267.671 0.608 267.852 0.608C268.033 0.608 268.177 0.661333 268.284 0.768C268.391 0.874666 268.444 1.03467 268.444 1.248V11.472C268.444 11.6747 268.391 11.8347 268.284 11.952C268.188 12.0587 268.039 12.112 267.836 12.112C267.644 12.112 267.495 12.0587 267.388 11.952C267.281 11.8347 267.228 11.6747 267.228 11.472V2.48H267.612L263.612 9.984C263.537 10.1227 263.457 10.224 263.372 10.288C263.297 10.3413 263.185 10.368 263.036 10.368C262.887 10.368 262.769 10.336 262.684 10.272C262.599 10.208 262.524 10.112 262.46 9.984L258.412 2.464H258.796V11.472C258.796 11.6747 258.743 11.8347 258.636 11.952C258.54 12.0587 258.396 12.112 258.204 12.112ZM274.829 12.144C274.008 12.144 273.299 11.984 272.701 11.664C272.115 11.3333 271.656 10.8693 271.325 10.272C271.005 9.67467 270.845 8.96 270.845 8.128C270.845 7.31733 271.005 6.61333 271.325 6.016C271.645 5.408 272.083 4.93333 272.637 4.592C273.203 4.25067 273.853 4.08 274.589 4.08C275.112 4.08 275.581 4.17067 275.997 4.352C276.413 4.52267 276.765 4.77333 277.053 5.104C277.352 5.43467 277.576 5.83467 277.725 6.304C277.885 6.77333 277.965 7.30133 277.965 7.888C277.965 8.05867 277.917 8.18667 277.821 8.272C277.725 8.34667 277.587 8.384 277.405 8.384H271.837V7.536H277.101L276.845 7.744C276.845 7.168 276.76 6.68267 276.589 6.288C276.419 5.88267 276.168 5.57333 275.837 5.36C275.517 5.14667 275.112 5.04 274.621 5.04C274.077 5.04 273.613 5.168 273.229 5.424C272.856 5.66933 272.573 6.016 272.381 6.464C272.189 6.90133 272.093 7.41333 272.093 8V8.096C272.093 9.07733 272.328 9.824 272.797 10.336C273.277 10.848 273.955 11.104 274.829 11.104C275.192 11.104 275.549 11.056 275.901 10.96C276.264 10.864 276.616 10.704 276.957 10.48C277.107 10.384 277.24 10.3413 277.357 10.352C277.485 10.352 277.587 10.3893 277.661 10.464C277.736 10.528 277.784 10.6133 277.805 10.72C277.837 10.816 277.827 10.9227 277.773 11.04C277.731 11.1573 277.64 11.2587 277.501 11.344C277.149 11.6 276.733 11.7973 276.253 11.936C275.773 12.0747 275.299 12.144 274.829 12.144ZM283.051 12.144C282.358 12.144 281.75 11.9787 281.227 11.648C280.715 11.3173 280.315 10.8533 280.027 10.256C279.75 9.648 279.611 8.93333 279.611 8.112C279.611 7.28 279.75 6.56533 280.027 5.968C280.315 5.36 280.715 4.896 281.227 4.576C281.75 4.24533 282.358 4.08 283.051 4.08C283.755 4.08 284.358 4.256 284.859 4.608C285.36 4.96 285.696 5.43467 285.867 6.032H285.691V1.264C285.691 1.05067 285.744 0.890666 285.851 0.783999C285.968 0.666666 286.134 0.608 286.347 0.608C286.55 0.608 286.704 0.666666 286.811 0.783999C286.928 0.890666 286.987 1.05067 286.987 1.264V11.44C286.987 11.6533 286.934 11.8187 286.827 11.936C286.72 12.0533 286.56 12.112 286.347 12.112C286.144 12.112 285.984 12.0533 285.867 11.936C285.76 11.8187 285.707 11.6533 285.707 11.44V9.92L285.883 10.144C285.712 10.752 285.371 11.2373 284.859 11.6C284.358 11.9627 283.755 12.144 283.051 12.144ZM283.323 11.104C283.803 11.104 284.224 10.9867 284.587 10.752C284.95 10.5173 285.227 10.176 285.419 9.728C285.622 9.28 285.723 8.74133 285.723 8.112C285.723 7.14133 285.504 6.4 285.067 5.888C284.64 5.376 284.059 5.12 283.323 5.12C282.832 5.12 282.406 5.23733 282.043 5.472C281.691 5.696 281.414 6.032 281.211 6.48C281.019 6.91733 280.923 7.46133 280.923 8.112C280.923 9.072 281.142 9.81333 281.579 10.336C282.016 10.848 282.598 11.104 283.323 11.104ZM290.309 12.08C290.096 12.08 289.936 12.0213 289.829 11.904C289.722 11.776 289.669 11.6 289.669 11.376V4.832C289.669 4.608 289.722 4.43733 289.829 4.32C289.936 4.20267 290.096 4.144 290.309 4.144C290.512 4.144 290.672 4.20267 290.789 4.32C290.906 4.43733 290.965 4.608 290.965 4.832V11.376C290.965 11.6 290.906 11.776 290.789 11.904C290.682 12.0213 290.522 12.08 290.309 12.08ZM290.309 2.352C290.042 2.352 289.834 2.28267 289.685 2.144C289.536 1.99467 289.461 1.79733 289.461 1.552C289.461 1.296 289.536 1.104 289.685 0.976C289.834 0.837333 290.042 0.768 290.309 0.768C290.586 0.768 290.794 0.837333 290.933 0.976C291.082 1.104 291.157 1.296 291.157 1.552C291.157 1.79733 291.082 1.99467 290.933 2.144C290.794 2.28267 290.586 2.352 290.309 2.352ZM294.278 12.112C294.065 12.112 293.905 12.0533 293.798 11.936C293.691 11.8187 293.638 11.6533 293.638 11.44V4.768C293.638 4.55467 293.691 4.39467 293.798 4.288C293.905 4.17067 294.059 4.112 294.262 4.112C294.465 4.112 294.619 4.17067 294.726 4.288C294.843 4.39467 294.902 4.55467 294.902 4.768V6.144L294.726 5.952C294.95 5.33333 295.313 4.86933 295.814 4.56C296.326 4.24 296.913 4.08 297.574 4.08C298.193 4.08 298.705 4.192 299.11 4.416C299.526 4.64 299.835 4.98133 300.038 5.44C300.241 5.888 300.342 6.45867 300.342 7.152V11.44C300.342 11.6533 300.283 11.8187 300.166 11.936C300.059 12.0533 299.905 12.112 299.702 12.112C299.489 12.112 299.323 12.0533 299.206 11.936C299.099 11.8187 299.046 11.6533 299.046 11.44V7.232C299.046 6.50667 298.902 5.97867 298.614 5.648C298.337 5.30667 297.889 5.136 297.27 5.136C296.555 5.136 295.985 5.36 295.558 5.808C295.142 6.24533 294.934 6.832 294.934 7.568V11.44C294.934 11.888 294.715 12.112 294.278 12.112ZM306.486 12.144C305.664 12.144 304.955 11.984 304.358 11.664C303.771 11.3333 303.312 10.8693 302.982 10.272C302.662 9.67467 302.502 8.96 302.502 8.128C302.502 7.31733 302.662 6.61333 302.982 6.016C303.302 5.408 303.739 4.93333 304.294 4.592C304.859 4.25067 305.51 4.08 306.246 4.08C306.768 4.08 307.238 4.17067 307.654 4.352C308.07 4.52267 308.422 4.77333 308.71 5.104C309.008 5.43467 309.232 5.83467 309.382 6.304C309.542 6.77333 309.622 7.30133 309.622 7.888C309.622 8.05867 309.574 8.18667 309.478 8.272C309.382 8.34667 309.243 8.384 309.062 8.384H303.494V7.536H308.758L308.502 7.744C308.502 7.168 308.416 6.68267 308.246 6.288C308.075 5.88267 307.824 5.57333 307.494 5.36C307.174 5.14667 306.768 5.04 306.278 5.04C305.734 5.04 305.27 5.168 304.886 5.424C304.512 5.66933 304.23 6.016 304.038 6.464C303.846 6.90133 303.75 7.41333 303.75 8V8.096C303.75 9.07733 303.984 9.824 304.454 10.336C304.934 10.848 305.611 11.104 306.486 11.104C306.848 11.104 307.206 11.056 307.558 10.96C307.92 10.864 308.272 10.704 308.614 10.48C308.763 10.384 308.896 10.3413 309.014 10.352C309.142 10.352 309.243 10.3893 309.318 10.464C309.392 10.528 309.44 10.6133 309.462 10.72C309.494 10.816 309.483 10.9227 309.43 11.04C309.387 11.1573 309.296 11.2587 309.158 11.344C308.806 11.6 308.39 11.7973 307.91 11.936C307.43 12.0747 306.955 12.144 306.486 12.144ZM314.371 12.144C313.891 12.144 313.406 12.0853 312.915 11.968C312.435 11.8507 311.987 11.648 311.571 11.36C311.465 11.2853 311.39 11.2 311.347 11.104C311.305 10.9973 311.289 10.896 311.299 10.8C311.321 10.6933 311.363 10.6027 311.427 10.528C311.502 10.4533 311.587 10.4107 311.683 10.4C311.79 10.3787 311.907 10.4 312.035 10.464C312.451 10.72 312.851 10.9013 313.235 11.008C313.63 11.104 314.019 11.152 314.403 11.152C315.011 11.152 315.47 11.04 315.779 10.816C316.089 10.592 316.243 10.288 316.243 9.904C316.243 9.60533 316.142 9.37067 315.939 9.2C315.737 9.01867 315.417 8.88 314.979 8.784L313.523 8.464C312.851 8.32533 312.35 8.08533 312.019 7.744C311.699 7.40267 311.539 6.96 311.539 6.416C311.539 5.936 311.662 5.52533 311.907 5.184C312.163 4.832 312.521 4.56 312.979 4.368C313.438 4.176 313.971 4.08 314.579 4.08C315.049 4.08 315.491 4.144 315.907 4.272C316.334 4.38933 316.718 4.58133 317.059 4.848C317.166 4.92267 317.235 5.01333 317.267 5.12C317.31 5.216 317.315 5.31733 317.283 5.424C317.262 5.52 317.214 5.60533 317.139 5.68C317.065 5.744 316.974 5.78133 316.867 5.792C316.761 5.80267 316.649 5.77067 316.531 5.696C316.211 5.48267 315.886 5.328 315.555 5.232C315.225 5.12533 314.899 5.072 314.579 5.072C313.982 5.072 313.529 5.18933 313.219 5.424C312.91 5.65867 312.755 5.968 312.755 6.352C312.755 6.65067 312.851 6.896 313.043 7.088C313.235 7.28 313.534 7.41867 313.939 7.504L315.395 7.808C316.089 7.95733 316.606 8.19733 316.947 8.528C317.299 8.848 317.475 9.28533 317.475 9.84C317.475 10.544 317.193 11.104 316.627 11.52C316.062 11.936 315.31 12.144 314.371 12.144ZM322.742 12.144C322.134 12.144 321.622 12.0373 321.206 11.824C320.801 11.6 320.497 11.28 320.294 10.864C320.092 10.4373 319.99 9.92 319.99 9.312V5.232H318.918C318.737 5.232 318.598 5.18933 318.502 5.104C318.406 5.008 318.358 4.88 318.358 4.72C318.358 4.56 318.406 4.43733 318.502 4.352C318.598 4.26667 318.737 4.224 318.918 4.224H319.99V2.384C319.99 2.17067 320.049 2.01067 320.166 1.904C320.284 1.78667 320.444 1.728 320.646 1.728C320.849 1.728 321.004 1.78667 321.11 1.904C321.228 2.01067 321.286 2.17067 321.286 2.384V4.224H323.302C323.484 4.224 323.622 4.26667 323.718 4.352C323.814 4.43733 323.862 4.56 323.862 4.72C323.862 4.88 323.814 5.008 323.718 5.104C323.622 5.18933 323.484 5.232 323.302 5.232H321.286V9.184C321.286 9.792 321.414 10.256 321.67 10.576C321.926 10.8853 322.342 11.04 322.918 11.04C323.121 11.04 323.292 11.0187 323.43 10.976C323.58 10.9333 323.702 10.912 323.798 10.912C323.894 10.9013 323.974 10.9333 324.038 11.008C324.102 11.0827 324.134 11.2107 324.134 11.392C324.134 11.52 324.108 11.6373 324.054 11.744C324.012 11.8507 323.932 11.9253 323.814 11.968C323.686 12.0107 323.516 12.048 323.302 12.08C323.1 12.1227 322.913 12.144 322.742 12.144ZM126.329 38.144C125.508 38.144 124.799 37.984 124.201 37.664C123.615 37.3333 123.156 36.8693 122.825 36.272C122.505 35.6747 122.345 34.96 122.345 34.128C122.345 33.3173 122.505 32.6133 122.825 32.016C123.145 31.408 123.583 30.9333 124.137 30.592C124.703 30.2507 125.353 30.08 126.089 30.08C126.612 30.08 127.081 30.1707 127.497 30.352C127.913 30.5227 128.265 30.7733 128.553 31.104C128.852 31.4347 129.076 31.8347 129.225 32.304C129.385 32.7733 129.465 33.3013 129.465 33.888C129.465 34.0587 129.417 34.1867 129.321 34.272C129.225 34.3467 129.087 34.384 128.905 34.384H123.337V33.536H128.601L128.345 33.744C128.345 33.168 128.26 32.6827 128.089 32.288C127.919 31.8827 127.668 31.5733 127.337 31.36C127.017 31.1467 126.612 31.04 126.121 31.04C125.577 31.04 125.113 31.168 124.729 31.424C124.356 31.6693 124.073 32.016 123.881 32.464C123.689 32.9013 123.593 33.4133 123.593 34V34.096C123.593 35.0773 123.828 35.824 124.297 36.336C124.777 36.848 125.455 37.104 126.329 37.104C126.692 37.104 127.049 37.056 127.401 36.96C127.764 36.864 128.116 36.704 128.457 36.48C128.607 36.384 128.74 36.3413 128.857 36.352C128.985 36.352 129.087 36.3893 129.161 36.464C129.236 36.528 129.284 36.6133 129.305 36.72C129.337 36.816 129.327 36.9227 129.273 37.04C129.231 37.1573 129.14 37.2587 129.001 37.344C128.649 37.6 128.233 37.7973 127.753 37.936C127.273 38.0747 126.799 38.144 126.329 38.144ZM131.561 38.096C131.422 38.096 131.299 38.0533 131.193 37.968C131.086 37.8827 131.027 37.7707 131.017 37.632C131.017 37.4827 131.086 37.328 131.225 37.168L134.025 33.648V34.32L131.401 31.04C131.262 30.8693 131.193 30.7147 131.193 30.576C131.203 30.4373 131.262 30.3253 131.368 30.24C131.475 30.1547 131.598 30.112 131.737 30.112C131.897 30.112 132.03 30.144 132.137 30.208C132.254 30.2613 132.361 30.352 132.457 30.48L134.745 33.376H134.297L136.601 30.48C136.697 30.352 136.798 30.2613 136.905 30.208C137.011 30.144 137.145 30.112 137.305 30.112C137.454 30.112 137.577 30.1547 137.673 30.24C137.779 30.3253 137.833 30.4427 137.833 30.592C137.843 30.7307 137.779 30.8853 137.641 31.056L135.033 34.288V33.696L137.833 37.168C137.961 37.328 138.019 37.4827 138.009 37.632C138.009 37.7707 137.955 37.8827 137.849 37.968C137.742 38.0533 137.614 38.096 137.465 38.096C137.315 38.096 137.182 38.064 137.065 38C136.958 37.9467 136.851 37.856 136.745 37.728L134.281 34.624H134.745L132.281 37.728C132.185 37.8453 132.078 37.936 131.961 38C131.854 38.064 131.721 38.096 131.561 38.096ZM140.825 40.992C140.611 40.992 140.451 40.9333 140.345 40.816C140.238 40.7093 140.185 40.5493 140.185 40.336V30.768C140.185 30.5547 140.238 30.3947 140.345 30.288C140.451 30.1707 140.606 30.112 140.809 30.112C141.022 30.112 141.182 30.1707 141.289 30.288C141.406 30.3947 141.465 30.5547 141.465 30.768V32.288L141.289 32.064C141.459 31.456 141.795 30.976 142.297 30.624C142.809 30.2613 143.417 30.08 144.121 30.08C144.814 30.08 145.417 30.2453 145.929 30.576C146.451 30.896 146.851 31.36 147.129 31.968C147.417 32.5653 147.561 33.28 147.561 34.112C147.561 34.9333 147.417 35.648 147.129 36.256C146.851 36.8533 146.457 37.3173 145.945 37.648C145.433 37.9787 144.825 38.144 144.121 38.144C143.417 38.144 142.814 37.968 142.313 37.616C141.811 37.2533 141.47 36.7733 141.289 36.176H141.481V40.336C141.481 40.5493 141.422 40.7093 141.305 40.816C141.187 40.9333 141.027 40.992 140.825 40.992ZM143.849 37.104C144.339 37.104 144.761 36.9867 145.113 36.752C145.475 36.5173 145.753 36.176 145.945 35.728C146.147 35.28 146.249 34.7413 146.249 34.112C146.249 33.1413 146.03 32.4 145.593 31.888C145.166 31.376 144.585 31.12 143.849 31.12C143.369 31.12 142.947 31.2373 142.585 31.472C142.222 31.696 141.939 32.032 141.737 32.48C141.545 32.9173 141.449 33.4613 141.449 34.112C141.449 35.072 141.667 35.8133 142.105 36.336C142.542 36.848 143.123 37.104 143.849 37.104ZM153.267 38.144C152.446 38.144 151.736 37.984 151.139 37.664C150.552 37.3333 150.094 36.8693 149.763 36.272C149.443 35.6747 149.283 34.96 149.283 34.128C149.283 33.3173 149.443 32.6133 149.763 32.016C150.083 31.408 150.52 30.9333 151.075 30.592C151.64 30.2507 152.291 30.08 153.027 30.08C153.55 30.08 154.019 30.1707 154.435 30.352C154.851 30.5227 155.203 30.7733 155.491 31.104C155.79 31.4347 156.014 31.8347 156.163 32.304C156.323 32.7733 156.403 33.3013 156.403 33.888C156.403 34.0587 156.355 34.1867 156.259 34.272C156.163 34.3467 156.024 34.384 155.843 34.384H150.275V33.536H155.539L155.283 33.744C155.283 33.168 155.198 32.6827 155.027 32.288C154.856 31.8827 154.606 31.5733 154.275 31.36C153.955 31.1467 153.55 31.04 153.059 31.04C152.515 31.04 152.051 31.168 151.667 31.424C151.294 31.6693 151.011 32.016 150.819 32.464C150.627 32.9013 150.531 33.4133 150.531 34V34.096C150.531 35.0773 150.766 35.824 151.235 36.336C151.715 36.848 152.392 37.104 153.267 37.104C153.63 37.104 153.987 37.056 154.339 36.96C154.702 36.864 155.054 36.704 155.395 36.48C155.544 36.384 155.678 36.3413 155.795 36.352C155.923 36.352 156.024 36.3893 156.099 36.464C156.174 36.528 156.222 36.6133 156.243 36.72C156.275 36.816 156.264 36.9227 156.211 37.04C156.168 37.1573 156.078 37.2587 155.939 37.344C155.587 37.6 155.171 37.7973 154.691 37.936C154.211 38.0747 153.736 38.144 153.267 38.144ZM159.185 38.112C158.971 38.112 158.806 38.0533 158.689 37.936C158.582 37.8187 158.529 37.6533 158.529 37.44V30.768C158.529 30.5547 158.582 30.3947 158.689 30.288C158.795 30.1707 158.95 30.112 159.153 30.112C159.355 30.112 159.51 30.1707 159.617 30.288C159.734 30.3947 159.793 30.5547 159.793 30.768V32.064H159.633C159.803 31.4347 160.129 30.9493 160.609 30.608C161.089 30.2667 161.681 30.0853 162.385 30.064C162.545 30.0533 162.673 30.0907 162.769 30.176C162.865 30.2507 162.918 30.384 162.929 30.576C162.939 30.7573 162.897 30.9013 162.801 31.008C162.705 31.1147 162.555 31.1787 162.353 31.2L162.097 31.232C161.371 31.296 160.811 31.5307 160.417 31.936C160.033 32.3307 159.841 32.8747 159.841 33.568V37.44C159.841 37.6533 159.782 37.8187 159.664 37.936C159.558 38.0533 159.398 38.112 159.185 38.112ZM165.153 38.08C164.94 38.08 164.78 38.0213 164.673 37.904C164.566 37.776 164.513 37.6 164.513 37.376V30.832C164.513 30.608 164.566 30.4373 164.673 30.32C164.78 30.2027 164.94 30.144 165.153 30.144C165.356 30.144 165.516 30.2027 165.633 30.32C165.75 30.4373 165.809 30.608 165.809 30.832V37.376C165.809 37.6 165.75 37.776 165.633 37.904C165.526 38.0213 165.366 38.08 165.153 38.08ZM165.153 28.352C164.886 28.352 164.678 28.2827 164.529 28.144C164.38 27.9947 164.305 27.7973 164.305 27.552C164.305 27.296 164.38 27.104 164.529 26.976C164.678 26.8373 164.886 26.768 165.153 26.768C165.43 26.768 165.638 26.8373 165.777 26.976C165.926 27.104 166.001 27.296 166.001 27.552C166.001 27.7973 165.926 27.9947 165.777 28.144C165.638 28.2827 165.43 28.352 165.153 28.352ZM171.986 38.144C171.164 38.144 170.455 37.984 169.858 37.664C169.271 37.3333 168.812 36.8693 168.482 36.272C168.162 35.6747 168.002 34.96 168.002 34.128C168.002 33.3173 168.162 32.6133 168.482 32.016C168.802 31.408 169.239 30.9333 169.794 30.592C170.359 30.2507 171.01 30.08 171.746 30.08C172.268 30.08 172.738 30.1707 173.154 30.352C173.57 30.5227 173.922 30.7733 174.21 31.104C174.508 31.4347 174.732 31.8347 174.882 32.304C175.042 32.7733 175.122 33.3013 175.122 33.888C175.122 34.0587 175.074 34.1867 174.978 34.272C174.882 34.3467 174.743 34.384 174.562 34.384H168.994V33.536H174.258L174.002 33.744C174.002 33.168 173.916 32.6827 173.746 32.288C173.575 31.8827 173.324 31.5733 172.994 31.36C172.674 31.1467 172.268 31.04 171.778 31.04C171.234 31.04 170.77 31.168 170.386 31.424C170.012 31.6693 169.73 32.016 169.538 32.464C169.346 32.9013 169.25 33.4133 169.25 34V34.096C169.25 35.0773 169.484 35.824 169.954 36.336C170.434 36.848 171.111 37.104 171.986 37.104C172.348 37.104 172.706 37.056 173.058 36.96C173.42 36.864 173.772 36.704 174.114 36.48C174.263 36.384 174.396 36.3413 174.514 36.352C174.642 36.352 174.743 36.3893 174.818 36.464C174.892 36.528 174.94 36.6133 174.962 36.72C174.994 36.816 174.983 36.9227 174.93 37.04C174.887 37.1573 174.796 37.2587 174.658 37.344C174.306 37.6 173.89 37.7973 173.41 37.936C172.93 38.0747 172.455 38.144 171.986 38.144ZM177.887 38.112C177.674 38.112 177.514 38.0533 177.407 37.936C177.301 37.8187 177.247 37.6533 177.247 37.44V30.768C177.247 30.5547 177.301 30.3947 177.407 30.288C177.514 30.1707 177.669 30.112 177.871 30.112C178.074 30.112 178.229 30.1707 178.335 30.288C178.453 30.3947 178.511 30.5547 178.511 30.768V32.144L178.335 31.952C178.559 31.3333 178.922 30.8693 179.423 30.56C179.935 30.24 180.522 30.08 181.183 30.08C181.802 30.08 182.314 30.192 182.719 30.416C183.135 30.64 183.445 30.9813 183.647 31.44C183.85 31.888 183.951 32.4587 183.951 33.152V37.44C183.951 37.6533 183.893 37.8187 183.775 37.936C183.669 38.0533 183.514 38.112 183.311 38.112C183.098 38.112 182.933 38.0533 182.815 37.936C182.709 37.8187 182.655 37.6533 182.655 37.44V33.232C182.655 32.5067 182.511 31.9787 182.223 31.648C181.946 31.3067 181.498 31.136 180.879 31.136C180.165 31.136 179.594 31.36 179.167 31.808C178.751 32.2453 178.543 32.832 178.543 33.568V37.44C178.543 37.888 178.325 38.112 177.887 38.112ZM189.887 38.144C189.108 38.144 188.436 37.9733 187.871 37.632C187.306 37.2907 186.868 36.816 186.559 36.208C186.26 35.5893 186.111 34.8747 186.111 34.064C186.111 33.4453 186.196 32.8907 186.367 32.4C186.538 31.9093 186.788 31.4933 187.119 31.152C187.45 30.8 187.844 30.5333 188.303 30.352C188.772 30.1707 189.3 30.08 189.887 30.08C190.271 30.08 190.671 30.1387 191.087 30.256C191.503 30.3733 191.882 30.576 192.223 30.864C192.33 30.9387 192.399 31.0293 192.431 31.136C192.463 31.2427 192.463 31.3493 192.431 31.456C192.399 31.552 192.346 31.6373 192.271 31.712C192.196 31.776 192.1 31.8133 191.983 31.824C191.876 31.8347 191.764 31.7973 191.647 31.712C191.37 31.4987 191.087 31.3493 190.799 31.264C190.511 31.1787 190.234 31.136 189.967 31.136C189.551 31.136 189.188 31.2053 188.879 31.344C188.57 31.472 188.308 31.6587 188.095 31.904C187.882 32.1493 187.716 32.4533 187.599 32.816C187.492 33.1787 187.439 33.6 187.439 34.08C187.439 35.008 187.658 35.744 188.095 36.288C188.532 36.8213 189.156 37.088 189.967 37.088C190.234 37.088 190.506 37.0453 190.783 36.96C191.071 36.8747 191.359 36.7253 191.647 36.512C191.764 36.4267 191.876 36.3893 191.983 36.4C192.09 36.4107 192.18 36.4533 192.255 36.528C192.33 36.592 192.378 36.6773 192.399 36.784C192.431 36.8907 192.431 36.9973 192.399 37.104C192.367 37.2 192.298 37.2853 192.191 37.36C191.85 37.6373 191.476 37.84 191.071 37.968C190.666 38.0853 190.271 38.144 189.887 38.144ZM197.595 38.144C196.774 38.144 196.064 37.984 195.467 37.664C194.88 37.3333 194.422 36.8693 194.091 36.272C193.771 35.6747 193.611 34.96 193.611 34.128C193.611 33.3173 193.771 32.6133 194.091 32.016C194.411 31.408 194.848 30.9333 195.403 30.592C195.968 30.2507 196.619 30.08 197.355 30.08C197.878 30.08 198.347 30.1707 198.763 30.352C199.179 30.5227 199.531 30.7733 199.819 31.104C200.118 31.4347 200.342 31.8347 200.491 32.304C200.651 32.7733 200.731 33.3013 200.731 33.888C200.731 34.0587 200.683 34.1867 200.587 34.272C200.491 34.3467 200.352 34.384 200.171 34.384H194.603V33.536H199.867L199.611 33.744C199.611 33.168 199.526 32.6827 199.355 32.288C199.184 31.8827 198.934 31.5733 198.603 31.36C198.283 31.1467 197.878 31.04 197.387 31.04C196.843 31.04 196.379 31.168 195.995 31.424C195.622 31.6693 195.339 32.016 195.147 32.464C194.955 32.9013 194.859 33.4133 194.859 34V34.096C194.859 35.0773 195.094 35.824 195.563 36.336C196.043 36.848 196.72 37.104 197.595 37.104C197.958 37.104 198.315 37.056 198.667 36.96C199.03 36.864 199.382 36.704 199.723 36.48C199.872 36.384 200.006 36.3413 200.123 36.352C200.251 36.352 200.352 36.3893 200.427 36.464C200.502 36.528 200.55 36.6133 200.571 36.72C200.603 36.816 200.592 36.9227 200.539 37.04C200.496 37.1573 200.406 37.2587 200.267 37.344C199.915 37.6 199.499 37.7973 199.019 37.936C198.539 38.0747 198.064 38.144 197.595 38.144Z" fill="white"/>
</svg>
