<svg width="325" height="41" viewBox="0 0 325 41" fill="none" xmlns="http://www.w3.org/2000/svg">
<path d="M0.941182 12C0.727849 12 0.562515 11.9413 0.445182 11.824C0.327849 11.696 0.269182 11.5253 0.269182 11.312V1.328C0.269182 1.104 0.322515 0.933333 0.429182 0.815999C0.546515 0.698666 0.711849 0.639999 0.925182 0.639999C1.13852 0.639999 1.29852 0.698666 1.40518 0.815999C1.52252 0.933333 1.58118 1.104 1.58118 1.328V10.848H6.82918C7.02118 10.848 7.17052 10.9013 7.27718 11.008C7.38385 11.104 7.43718 11.2427 7.43718 11.424C7.43718 11.6053 7.38385 11.7493 7.27718 11.856C7.17052 11.952 7.02118 12 6.82918 12H0.941182ZM12.0466 12.144C11.2252 12.144 10.5159 11.984 9.91856 11.664C9.33189 11.3333 8.87322 10.8693 8.54256 10.272C8.22256 9.67467 8.06256 8.96 8.06256 8.128C8.06256 7.31733 8.22256 6.61333 8.54256 6.016C8.86256 5.408 9.29989 4.93333 9.85456 4.592C10.4199 4.25067 11.0706 4.08 11.8066 4.08C12.3292 4.08 12.7986 4.17067 13.2146 4.352C13.6306 4.52267 13.9826 4.77333 14.2706 5.104C14.5692 5.43467 14.7932 5.83467 14.9426 6.304C15.1026 6.77333 15.1826 7.30133 15.1826 7.888C15.1826 8.05867 15.1346 8.18667 15.0386 8.272C14.9426 8.34667 14.8039 8.384 14.6226 8.384H9.05456V7.536H14.3186L14.0626 7.744C14.0626 7.168 13.9772 6.68267 13.8066 6.288C13.6359 5.88267 13.3852 5.57333 13.0546 5.36C12.7346 5.14667 12.3292 5.04 11.8386 5.04C11.2946 5.04 10.8306 5.168 10.4466 5.424C10.0732 5.66933 9.79056 6.016 9.59856 6.464C9.40656 6.90133 9.31056 7.41333 9.31056 8V8.096C9.31056 9.07733 9.54522 9.824 10.0146 10.336C10.4946 10.848 11.1719 11.104 12.0466 11.104C12.4092 11.104 12.7666 11.056 13.1186 10.96C13.4812 10.864 13.8332 10.704 14.1746 10.48C14.3239 10.384 14.4572 10.3413 14.5746 10.352C14.7026 10.352 14.8039 10.3893 14.8786 10.464C14.9532 10.528 15.0012 10.6133 15.0226 10.72C15.0546 10.816 15.0439 10.9227 14.9906 11.04C14.9479 11.1573 14.8572 11.2587 14.7186 11.344C14.3666 11.6 13.9506 11.7973 13.4706 11.936C12.9906 12.0747 12.5159 12.144 12.0466 12.144ZM20.0182 12.144C19.4102 12.144 18.8982 12.0373 18.4822 11.824C18.0768 11.6 17.7728 11.28 17.5702 10.864C17.3675 10.4373 17.2662 9.92 17.2662 9.312V5.232H16.1942C16.0128 5.232 15.8742 5.18933 15.7782 5.104C15.6822 5.008 15.6342 4.88 15.6342 4.72C15.6342 4.56 15.6822 4.43733 15.7782 4.352C15.8742 4.26667 16.0128 4.224 16.1942 4.224H17.2662V2.384C17.2662 2.17067 17.3248 2.01067 17.4422 1.904C17.5595 1.78667 17.7195 1.728 17.9222 1.728C18.1248 1.728 18.2795 1.78667 18.3862 1.904C18.5035 2.01067 18.5622 2.17067 18.5622 2.384V4.224H20.5782C20.7595 4.224 20.8982 4.26667 20.9942 4.352C21.0902 4.43733 21.1382 4.56 21.1382 4.72C21.1382 4.88 21.0902 5.008 20.9942 5.104C20.8982 5.18933 20.7595 5.232 20.5782 5.232H18.5622V9.184C18.5622 9.792 18.6902 10.256 18.9462 10.576C19.2022 10.8853 19.6182 11.04 20.1942 11.04C20.3968 11.04 20.5675 11.0187 20.7062 10.976C20.8555 10.9333 20.9782 10.912 21.0742 10.912C21.1702 10.9013 21.2502 10.9333 21.3142 11.008C21.3782 11.0827 21.4102 11.2107 21.4102 11.392C21.4102 11.52 21.3835 11.6373 21.3302 11.744C21.2875 11.8507 21.2075 11.9253 21.0902 11.968C20.9622 12.0107 20.7915 12.048 20.5782 12.08C20.3755 12.1227 20.1888 12.144 20.0182 12.144ZM23.0218 3.872C22.9151 4.01067 22.8031 4.09067 22.6858 4.112C22.5685 4.12267 22.4671 4.10133 22.3818 4.048C22.2965 3.984 22.2485 3.89333 22.2378 3.776C22.2378 3.65867 22.2911 3.53067 22.3978 3.392C22.5685 3.168 22.6858 2.944 22.7498 2.72C22.8138 2.48533 22.8458 2.27733 22.8458 2.096L22.9098 2.416C22.6325 2.416 22.4085 2.336 22.2378 2.176C22.0778 2.00533 21.9978 1.792 21.9978 1.536C21.9978 1.26933 22.0725 1.056 22.2218 0.896C22.3818 0.735999 22.5898 0.655999 22.8458 0.655999C23.1231 0.655999 23.3418 0.751999 23.5018 0.943999C23.6618 1.12533 23.7418 1.392 23.7418 1.744C23.7418 1.968 23.7205 2.20267 23.6778 2.448C23.6351 2.68267 23.5605 2.92267 23.4538 3.168C23.3471 3.41333 23.2031 3.648 23.0218 3.872ZM27.8897 12.144C27.4097 12.144 26.9243 12.0853 26.4337 11.968C25.9537 11.8507 25.5057 11.648 25.0897 11.36C24.983 11.2853 24.9083 11.2 24.8657 11.104C24.823 10.9973 24.807 10.896 24.8177 10.8C24.839 10.6933 24.8817 10.6027 24.9457 10.528C25.0203 10.4533 25.1057 10.4107 25.2017 10.4C25.3083 10.3787 25.4257 10.4 25.5537 10.464C25.9697 10.72 26.3697 10.9013 26.7537 11.008C27.1483 11.104 27.5377 11.152 27.9217 11.152C28.5297 11.152 28.9883 11.04 29.2977 10.816C29.607 10.592 29.7617 10.288 29.7617 9.904C29.7617 9.60533 29.6603 9.37067 29.4577 9.2C29.255 9.01867 28.935 8.88 28.4977 8.784L27.0417 8.464C26.3697 8.32533 25.8683 8.08533 25.5377 7.744C25.2177 7.40267 25.0577 6.96 25.0577 6.416C25.0577 5.936 25.1803 5.52533 25.4257 5.184C25.6817 4.832 26.039 4.56 26.4977 4.368C26.9563 4.176 27.4897 4.08 28.0977 4.08C28.567 4.08 29.0097 4.144 29.4257 4.272C29.8523 4.38933 30.2363 4.58133 30.5777 4.848C30.6843 4.92267 30.7537 5.01333 30.7857 5.12C30.8283 5.216 30.8337 5.31733 30.8017 5.424C30.7803 5.52 30.7323 5.60533 30.6577 5.68C30.583 5.744 30.4923 5.78133 30.3857 5.792C30.279 5.80267 30.167 5.77067 30.0497 5.696C29.7297 5.48267 29.4043 5.328 29.0737 5.232C28.743 5.12533 28.4177 5.072 28.0977 5.072C27.5003 5.072 27.047 5.18933 26.7377 5.424C26.4283 5.65867 26.2737 5.968 26.2737 6.352C26.2737 6.65067 26.3697 6.896 26.5617 7.088C26.7537 7.28 27.0523 7.41867 27.4577 7.504L28.9137 7.808C29.607 7.95733 30.1243 8.19733 30.4657 8.528C30.8177 8.848 30.9937 9.28533 30.9937 9.84C30.9937 10.544 30.711 11.104 30.1457 11.52C29.5803 11.936 28.8283 12.144 27.8897 12.144ZM40.2778 12.144C39.4565 12.144 38.7471 11.984 38.1498 11.664C37.5631 11.3333 37.1045 10.8693 36.7738 10.272C36.4538 9.67467 36.2938 8.96 36.2938 8.128C36.2938 7.31733 36.4538 6.61333 36.7738 6.016C37.0938 5.408 37.5311 4.93333 38.0858 4.592C38.6511 4.25067 39.3018 4.08 40.0378 4.08C40.5605 4.08 41.0298 4.17067 41.4458 4.352C41.8618 4.52267 42.2138 4.77333 42.5018 5.104C42.8005 5.43467 43.0245 5.83467 43.1738 6.304C43.3338 6.77333 43.4138 7.30133 43.4138 7.888C43.4138 8.05867 43.3658 8.18667 43.2698 8.272C43.1738 8.34667 43.0351 8.384 42.8538 8.384H37.2858V7.536H42.5498L42.2938 7.744C42.2938 7.168 42.2085 6.68267 42.0378 6.288C41.8671 5.88267 41.6165 5.57333 41.2858 5.36C40.9658 5.14667 40.5605 5.04 40.0698 5.04C39.5258 5.04 39.0618 5.168 38.6778 5.424C38.3045 5.66933 38.0218 6.016 37.8298 6.464C37.6378 6.90133 37.5418 7.41333 37.5418 8V8.096C37.5418 9.07733 37.7765 9.824 38.2458 10.336C38.7258 10.848 39.4031 11.104 40.2778 11.104C40.6405 11.104 40.9978 11.056 41.3498 10.96C41.7125 10.864 42.0645 10.704 42.4058 10.48C42.5551 10.384 42.6885 10.3413 42.8058 10.352C42.9338 10.352 43.0351 10.3893 43.1098 10.464C43.1845 10.528 43.2325 10.6133 43.2538 10.72C43.2858 10.816 43.2751 10.9227 43.2218 11.04C43.1791 11.1573 43.0885 11.2587 42.9498 11.344C42.5978 11.6 42.1818 11.7973 41.7018 11.936C41.2218 12.0747 40.7471 12.144 40.2778 12.144ZM45.0989 12.096C44.9603 12.096 44.8376 12.0533 44.7309 11.968C44.6243 11.8827 44.5656 11.7707 44.5549 11.632C44.5549 11.4827 44.6243 11.328 44.7629 11.168L47.5629 7.648V8.32L44.9389 5.04C44.8003 4.86933 44.7309 4.71467 44.7309 4.576C44.7416 4.43733 44.8003 4.32533 44.9069 4.24C45.0136 4.15467 45.1363 4.112 45.2749 4.112C45.4349 4.112 45.5683 4.144 45.6749 4.208C45.7923 4.26133 45.8989 4.352 45.9949 4.48L48.2829 7.376H47.8349L50.1389 4.48C50.2349 4.352 50.3363 4.26133 50.4429 4.208C50.5496 4.144 50.6829 4.112 50.8429 4.112C50.9923 4.112 51.1149 4.15467 51.2109 4.24C51.3176 4.32533 51.3709 4.44267 51.3709 4.592C51.3816 4.73067 51.3176 4.88533 51.1789 5.056L48.5709 8.288V7.696L51.3709 11.168C51.4989 11.328 51.5576 11.4827 51.5469 11.632C51.5469 11.7707 51.4936 11.8827 51.3869 11.968C51.2803 12.0533 51.1523 12.096 51.0029 12.096C50.8536 12.096 50.7203 12.064 50.6029 12C50.4963 11.9467 50.3896 11.856 50.2829 11.728L47.8189 8.624H48.2829L45.8189 11.728C45.7229 11.8453 45.6163 11.936 45.4989 12C45.3923 12.064 45.2589 12.096 45.0989 12.096ZM53.9532 14.992C53.7398 14.992 53.5798 14.9333 53.4732 14.816C53.3665 14.7093 53.3132 14.5493 53.3132 14.336V4.768C53.3132 4.55467 53.3665 4.39467 53.4732 4.288C53.5798 4.17067 53.7345 4.112 53.9372 4.112C54.1505 4.112 54.3105 4.17067 54.4172 4.288C54.5345 4.39467 54.5932 4.55467 54.5932 4.768V6.288L54.4172 6.064C54.5879 5.456 54.9239 4.976 55.4252 4.624C55.9372 4.26133 56.5452 4.08 57.2492 4.08C57.9425 4.08 58.5452 4.24533 59.0572 4.576C59.5799 4.896 59.9799 5.36 60.2572 5.968C60.5452 6.56533 60.6892 7.28 60.6892 8.112C60.6892 8.93333 60.5452 9.648 60.2572 10.256C59.9799 10.8533 59.5852 11.3173 59.0732 11.648C58.5612 11.9787 57.9532 12.144 57.2492 12.144C56.5452 12.144 55.9425 11.968 55.4412 11.616C54.9398 11.2533 54.5985 10.7733 54.4172 10.176H54.6092V14.336C54.6092 14.5493 54.5505 14.7093 54.4332 14.816C54.3159 14.9333 54.1558 14.992 53.9532 14.992ZM56.9772 11.104C57.4679 11.104 57.8892 10.9867 58.2412 10.752C58.6039 10.5173 58.8812 10.176 59.0732 9.728C59.2759 9.28 59.3772 8.74133 59.3772 8.112C59.3772 7.14133 59.1585 6.4 58.7212 5.888C58.2945 5.376 57.7132 5.12 56.9772 5.12C56.4972 5.12 56.0759 5.23733 55.7132 5.472C55.3505 5.696 55.0678 6.032 54.8652 6.48C54.6732 6.91733 54.5772 7.46133 54.5772 8.112C54.5772 9.072 54.7958 9.81333 55.2332 10.336C55.6705 10.848 56.2519 11.104 56.9772 11.104ZM65.9853 12.144C65.164 12.144 64.4546 11.984 63.8573 11.664C63.2706 11.3333 62.812 10.8693 62.4813 10.272C62.1613 9.67467 62.0013 8.96 62.0013 8.128C62.0013 7.31733 62.1613 6.61333 62.4813 6.016C62.8013 5.408 63.2386 4.93333 63.7933 4.592C64.3586 4.25067 65.0093 4.08 65.7453 4.08C66.268 4.08 66.7373 4.17067 67.1533 4.352C67.5693 4.52267 67.9213 4.77333 68.2093 5.104C68.508 5.43467 68.732 5.83467 68.8813 6.304C69.0413 6.77333 69.1213 7.30133 69.1213 7.888C69.1213 8.05867 69.0733 8.18667 68.9773 8.272C68.8813 8.34667 68.7426 8.384 68.5613 8.384H62.9933V7.536H68.2573L68.0013 7.744C68.0013 7.168 67.916 6.68267 67.7453 6.288C67.5746 5.88267 67.324 5.57333 66.9933 5.36C66.6733 5.14667 66.268 5.04 65.7773 5.04C65.2333 5.04 64.7693 5.168 64.3853 5.424C64.012 5.66933 63.7293 6.016 63.5373 6.464C63.3453 6.90133 63.2493 7.41333 63.2493 8V8.096C63.2493 9.07733 63.484 9.824 63.9533 10.336C64.4333 10.848 65.1106 11.104 65.9853 11.104C66.348 11.104 66.7053 11.056 67.0573 10.96C67.42 10.864 67.772 10.704 68.1133 10.48C68.2626 10.384 68.396 10.3413 68.5133 10.352C68.6413 10.352 68.7426 10.3893 68.8173 10.464C68.892 10.528 68.94 10.6133 68.9613 10.72C68.9933 10.816 68.9826 10.9227 68.9293 11.04C68.8866 11.1573 68.796 11.2587 68.6573 11.344C68.3053 11.6 67.8893 11.7973 67.4093 11.936C66.9293 12.0747 66.4546 12.144 65.9853 12.144ZM71.4929 12.112C71.2796 12.112 71.1143 12.0533 70.9969 11.936C70.8903 11.8187 70.8369 11.6533 70.8369 11.44V4.768C70.8369 4.55467 70.8903 4.39467 70.9969 4.288C71.1036 4.17067 71.2583 4.112 71.4609 4.112C71.6636 4.112 71.8183 4.17067 71.9249 4.288C72.0423 4.39467 72.1009 4.55467 72.1009 4.768V6.064H71.9409C72.1116 5.43467 72.4369 4.94933 72.9169 4.608C73.3969 4.26667 73.9889 4.08533 74.6929 4.064C74.8529 4.05333 74.9809 4.09067 75.0769 4.176C75.1729 4.25067 75.2263 4.384 75.2369 4.576C75.2476 4.75733 75.2049 4.90133 75.1089 5.008C75.0129 5.11467 74.8636 5.17867 74.6609 5.2L74.4049 5.232C73.6796 5.296 73.1196 5.53067 72.7249 5.936C72.3409 6.33067 72.1489 6.87467 72.1489 7.568V11.44C72.1489 11.6533 72.0903 11.8187 71.9729 11.936C71.8663 12.0533 71.7063 12.112 71.4929 12.112ZM77.0513 12.08C76.838 12.08 76.678 12.0213 76.5713 11.904C76.4646 11.776 76.4113 11.6 76.4113 11.376V4.832C76.4113 4.608 76.4646 4.43733 76.5713 4.32C76.678 4.20267 76.838 4.144 77.0513 4.144C77.254 4.144 77.414 4.20267 77.5313 4.32C77.6486 4.43733 77.7073 4.608 77.7073 4.832V11.376C77.7073 11.6 77.6486 11.776 77.5313 11.904C77.4246 12.0213 77.2646 12.08 77.0513 12.08ZM77.0513 2.352C76.7846 2.352 76.5766 2.28267 76.4273 2.144C76.278 1.99467 76.2033 1.79733 76.2033 1.552C76.2033 1.296 76.278 1.104 76.4273 0.976C76.5766 0.837333 76.7846 0.768 77.0513 0.768C77.3286 0.768 77.5366 0.837333 77.6753 0.976C77.8246 1.104 77.8993 1.296 77.8993 1.552C77.8993 1.79733 77.8246 1.99467 77.6753 2.144C77.5366 2.28267 77.3286 2.352 77.0513 2.352ZM83.4741 12.144C82.6527 12.144 81.9434 11.984 81.3461 11.664C80.7594 11.3333 80.3007 10.8693 79.9701 10.272C79.6501 9.67467 79.4901 8.96 79.4901 8.128C79.4901 7.31733 79.6501 6.61333 79.9701 6.016C80.2901 5.408 80.7274 4.93333 81.2821 4.592C81.8474 4.25067 82.4981 4.08 83.2341 4.08C83.7567 4.08 84.2261 4.17067 84.6421 4.352C85.0581 4.52267 85.4101 4.77333 85.6981 5.104C85.9967 5.43467 86.2207 5.83467 86.3701 6.304C86.5301 6.77333 86.6101 7.30133 86.6101 7.888C86.6101 8.05867 86.5621 8.18667 86.4661 8.272C86.3701 8.34667 86.2314 8.384 86.0501 8.384H80.4821V7.536H85.7461L85.4901 7.744C85.4901 7.168 85.4047 6.68267 85.2341 6.288C85.0634 5.88267 84.8127 5.57333 84.4821 5.36C84.1621 5.14667 83.7567 5.04 83.2661 5.04C82.7221 5.04 82.2581 5.168 81.8741 5.424C81.5007 5.66933 81.2181 6.016 81.0261 6.464C80.8341 6.90133 80.7381 7.41333 80.7381 8V8.096C80.7381 9.07733 80.9727 9.824 81.4421 10.336C81.9221 10.848 82.5994 11.104 83.4741 11.104C83.8367 11.104 84.1941 11.056 84.5461 10.96C84.9087 10.864 85.2607 10.704 85.6021 10.48C85.7514 10.384 85.8847 10.3413 86.0021 10.352C86.1301 10.352 86.2314 10.3893 86.3061 10.464C86.3807 10.528 86.4287 10.6133 86.4501 10.72C86.4821 10.816 86.4714 10.9227 86.4181 11.04C86.3754 11.1573 86.2847 11.2587 86.1461 11.344C85.7941 11.6 85.3781 11.7973 84.8981 11.936C84.4181 12.0747 83.9434 12.144 83.4741 12.144ZM88.9657 12.112C88.7523 12.112 88.5923 12.0533 88.4857 11.936C88.379 11.8187 88.3257 11.6533 88.3257 11.44V4.768C88.3257 4.55467 88.379 4.39467 88.4857 4.288C88.5923 4.17067 88.747 4.112 88.9497 4.112C89.1523 4.112 89.307 4.17067 89.4137 4.288C89.531 4.39467 89.5897 4.55467 89.5897 4.768V6.144L89.4137 5.952C89.6377 5.33333 90.0003 4.86933 90.5017 4.56C91.0137 4.24 91.6003 4.08 92.2617 4.08C92.8803 4.08 93.3923 4.192 93.7977 4.416C94.2137 4.64 94.523 4.98133 94.7257 5.44C94.9283 5.888 95.0297 6.45867 95.0297 7.152V11.44C95.0297 11.6533 94.971 11.8187 94.8537 11.936C94.747 12.0533 94.5923 12.112 94.3897 12.112C94.1763 12.112 94.011 12.0533 93.8937 11.936C93.787 11.8187 93.7337 11.6533 93.7337 11.44V7.232C93.7337 6.50667 93.5897 5.97867 93.3017 5.648C93.0243 5.30667 92.5763 5.136 91.9577 5.136C91.243 5.136 90.6723 5.36 90.2457 5.808C89.8297 6.24533 89.6217 6.832 89.6217 7.568V11.44C89.6217 11.888 89.403 12.112 88.9657 12.112ZM100.555 12.144C99.7768 12.144 99.1048 11.9733 98.5394 11.632C97.9741 11.2907 97.5368 10.816 97.2274 10.208C96.9288 9.58933 96.7794 8.87467 96.7794 8.064C96.7794 7.44533 96.8648 6.89067 97.0354 6.4C97.2061 5.90933 97.4568 5.49333 97.7874 5.152C98.1181 4.8 98.5128 4.53333 98.9714 4.352C99.4408 4.17067 99.9688 4.08 100.555 4.08C100.939 4.08 101.339 4.13867 101.755 4.256C102.171 4.37333 102.55 4.576 102.891 4.864C102.998 4.93867 103.067 5.02933 103.099 5.136C103.131 5.24267 103.131 5.34933 103.099 5.456C103.067 5.552 103.014 5.63733 102.939 5.712C102.865 5.776 102.769 5.81333 102.651 5.824C102.545 5.83467 102.433 5.79733 102.315 5.712C102.038 5.49867 101.755 5.34933 101.467 5.264C101.179 5.17867 100.902 5.136 100.635 5.136C100.219 5.136 99.8568 5.20533 99.5474 5.344C99.2381 5.472 98.9768 5.65867 98.7634 5.904C98.5501 6.14933 98.3848 6.45333 98.2674 6.816C98.1608 7.17867 98.1074 7.6 98.1074 8.08C98.1074 9.008 98.3261 9.744 98.7634 10.288C99.2008 10.8213 99.8248 11.088 100.635 11.088C100.902 11.088 101.174 11.0453 101.451 10.96C101.739 10.8747 102.027 10.7253 102.315 10.512C102.433 10.4267 102.545 10.3893 102.651 10.4C102.758 10.4107 102.849 10.4533 102.923 10.528C102.998 10.592 103.046 10.6773 103.067 10.784C103.099 10.8907 103.099 10.9973 103.067 11.104C103.035 11.2 102.966 11.2853 102.859 11.36C102.518 11.6373 102.145 11.84 101.739 11.968C101.334 12.0853 100.939 12.144 100.555 12.144ZM107.853 12.144C107.032 12.144 106.323 11.984 105.725 11.664C105.139 11.3333 104.68 10.8693 104.349 10.272C104.029 9.67467 103.869 8.96 103.869 8.128C103.869 7.31733 104.029 6.61333 104.349 6.016C104.669 5.408 105.107 4.93333 105.661 4.592C106.227 4.25067 106.877 4.08 107.613 4.08C108.136 4.08 108.605 4.17067 109.021 4.352C109.437 4.52267 109.789 4.77333 110.077 5.104C110.376 5.43467 110.6 5.83467 110.749 6.304C110.909 6.77333 110.989 7.30133 110.989 7.888C110.989 8.05867 110.941 8.18667 110.845 8.272C110.749 8.34667 110.611 8.384 110.429 8.384H104.861V7.536H110.125L109.869 7.744C109.869 7.168 109.784 6.68267 109.613 6.288C109.443 5.88267 109.192 5.57333 108.861 5.36C108.541 5.14667 108.136 5.04 107.645 5.04C107.101 5.04 106.637 5.168 106.253 5.424C105.88 5.66933 105.597 6.016 105.405 6.464C105.213 6.90133 105.117 7.41333 105.117 8V8.096C105.117 9.07733 105.352 9.824 105.821 10.336C106.301 10.848 106.979 11.104 107.853 11.104C108.216 11.104 108.573 11.056 108.925 10.96C109.288 10.864 109.64 10.704 109.981 10.48C110.131 10.384 110.264 10.3413 110.381 10.352C110.509 10.352 110.611 10.3893 110.685 10.464C110.76 10.528 110.808 10.6133 110.829 10.72C110.861 10.816 110.851 10.9227 110.797 11.04C110.755 11.1573 110.664 11.2587 110.525 11.344C110.173 11.6 109.757 11.7973 109.277 11.936C108.797 12.0747 108.323 12.144 107.853 12.144ZM119.79 12.144C119.182 12.144 118.67 12.0373 118.254 11.824C117.849 11.6 117.545 11.28 117.342 10.864C117.139 10.4373 117.038 9.92 117.038 9.312V5.232H115.966C115.785 5.232 115.646 5.18933 115.55 5.104C115.454 5.008 115.406 4.88 115.406 4.72C115.406 4.56 115.454 4.43733 115.55 4.352C115.646 4.26667 115.785 4.224 115.966 4.224H117.038V2.384C117.038 2.17067 117.097 2.01067 117.214 1.904C117.331 1.78667 117.491 1.728 117.694 1.728C117.897 1.728 118.051 1.78667 118.158 1.904C118.275 2.01067 118.334 2.17067 118.334 2.384V4.224H120.35C120.531 4.224 120.67 4.26667 120.766 4.352C120.862 4.43733 120.91 4.56 120.91 4.72C120.91 4.88 120.862 5.008 120.766 5.104C120.67 5.18933 120.531 5.232 120.35 5.232H118.334V9.184C118.334 9.792 118.462 10.256 118.718 10.576C118.974 10.8853 119.39 11.04 119.966 11.04C120.169 11.04 120.339 11.0187 120.478 10.976C120.627 10.9333 120.75 10.912 120.846 10.912C120.942 10.9013 121.022 10.9333 121.086 11.008C121.15 11.0827 121.182 11.2107 121.182 11.392C121.182 11.52 121.155 11.6373 121.102 11.744C121.059 11.8507 120.979 11.9253 120.862 11.968C120.734 12.0107 120.563 12.048 120.35 12.08C120.147 12.1227 119.961 12.144 119.79 12.144ZM122.838 12.112C122.624 12.112 122.464 12.0533 122.358 11.936C122.251 11.8187 122.198 11.6533 122.198 11.44V1.264C122.198 1.05067 122.251 0.890666 122.358 0.783999C122.464 0.666666 122.624 0.608 122.838 0.608C123.04 0.608 123.2 0.666666 123.318 0.783999C123.435 0.890666 123.494 1.05067 123.494 1.264V5.952H123.286C123.51 5.33333 123.872 4.86933 124.374 4.56C124.886 4.24 125.472 4.08 126.134 4.08C126.752 4.08 127.264 4.192 127.67 4.416C128.086 4.64 128.395 4.98133 128.598 5.44C128.8 5.888 128.902 6.45867 128.902 7.152V11.44C128.902 11.6533 128.843 11.8187 128.726 11.936C128.619 12.0533 128.464 12.112 128.262 12.112C128.048 12.112 127.883 12.0533 127.766 11.936C127.659 11.8187 127.606 11.6533 127.606 11.44V7.232C127.606 6.50667 127.462 5.97867 127.174 5.648C126.896 5.30667 126.448 5.136 125.83 5.136C125.115 5.136 124.544 5.36 124.118 5.808C123.702 6.24533 123.494 6.832 123.494 7.568V11.44C123.494 11.888 123.275 12.112 122.838 12.112ZM134.635 12.144C133.814 12.144 133.105 11.984 132.507 11.664C131.921 11.3333 131.462 10.8693 131.131 10.272C130.811 9.67467 130.651 8.96 130.651 8.128C130.651 7.31733 130.811 6.61333 131.131 6.016C131.451 5.408 131.889 4.93333 132.443 4.592C133.009 4.25067 133.659 4.08 134.395 4.08C134.918 4.08 135.387 4.17067 135.803 4.352C136.219 4.52267 136.571 4.77333 136.859 5.104C137.158 5.43467 137.382 5.83467 137.531 6.304C137.691 6.77333 137.771 7.30133 137.771 7.888C137.771 8.05867 137.723 8.18667 137.627 8.272C137.531 8.34667 137.393 8.384 137.211 8.384H131.643V7.536H136.907L136.651 7.744C136.651 7.168 136.566 6.68267 136.395 6.288C136.225 5.88267 135.974 5.57333 135.643 5.36C135.323 5.14667 134.918 5.04 134.427 5.04C133.883 5.04 133.419 5.168 133.035 5.424C132.662 5.66933 132.379 6.016 132.187 6.464C131.995 6.90133 131.899 7.41333 131.899 8V8.096C131.899 9.07733 132.134 9.824 132.603 10.336C133.083 10.848 133.761 11.104 134.635 11.104C134.998 11.104 135.355 11.056 135.707 10.96C136.07 10.864 136.422 10.704 136.763 10.48C136.913 10.384 137.046 10.3413 137.163 10.352C137.291 10.352 137.393 10.3893 137.467 10.464C137.542 10.528 137.59 10.6133 137.611 10.72C137.643 10.816 137.633 10.9227 137.579 11.04C137.537 11.1573 137.446 11.2587 137.307 11.344C136.955 11.6 136.539 11.7973 136.059 11.936C135.579 12.0747 135.105 12.144 134.635 12.144ZM141.964 15.056C141.804 15.0667 141.676 15.04 141.58 14.976C141.473 14.912 141.404 14.8267 141.372 14.72C141.329 14.624 141.319 14.5227 141.34 14.416C141.351 14.32 141.393 14.2347 141.468 14.16C141.543 14.0853 141.644 14.048 141.772 14.048C142.359 14.016 142.791 13.856 143.068 13.568C143.356 13.2907 143.5 12.848 143.5 12.24V4.768C143.5 4.55467 143.553 4.39467 143.66 4.288C143.777 4.17067 143.943 4.112 144.156 4.112C144.359 4.112 144.513 4.17067 144.62 4.288C144.737 4.39467 144.796 4.55467 144.796 4.768V12.144C144.796 12.7947 144.684 13.328 144.46 13.744C144.247 14.1707 143.932 14.4853 143.516 14.688C143.1 14.9013 142.583 15.024 141.964 15.056ZM144.14 2.352C143.873 2.352 143.665 2.28267 143.516 2.144C143.367 1.99467 143.292 1.79733 143.292 1.552C143.292 1.296 143.367 1.104 143.516 0.976C143.665 0.837333 143.873 0.768 144.14 0.768C144.417 0.768 144.631 0.837333 144.78 0.976C144.929 1.104 145.004 1.296 145.004 1.552C145.004 1.79733 144.929 1.99467 144.78 2.144C144.631 2.28267 144.417 2.352 144.14 2.352ZM150.305 12.144C149.548 12.144 148.892 11.9787 148.337 11.648C147.783 11.3173 147.351 10.8533 147.041 10.256C146.743 9.648 146.593 8.93333 146.593 8.112C146.593 7.49333 146.679 6.93867 146.849 6.448C147.02 5.94667 147.271 5.52 147.601 5.168C147.932 4.816 148.321 4.54933 148.769 4.368C149.228 4.176 149.74 4.08 150.305 4.08C151.063 4.08 151.719 4.24533 152.273 4.576C152.828 4.90667 153.255 5.376 153.553 5.984C153.863 6.58133 154.017 7.29067 154.017 8.112C154.017 8.73067 153.932 9.28533 153.761 9.776C153.591 10.2667 153.34 10.6933 153.009 11.056C152.679 11.408 152.284 11.68 151.825 11.872C151.377 12.0533 150.871 12.144 150.305 12.144ZM150.305 11.104C150.785 11.104 151.207 10.9867 151.569 10.752C151.932 10.5173 152.209 10.176 152.401 9.728C152.604 9.28 152.705 8.74133 152.705 8.112C152.705 7.14133 152.487 6.4 152.049 5.888C151.623 5.376 151.041 5.12 150.305 5.12C149.815 5.12 149.388 5.23733 149.025 5.472C148.673 5.696 148.396 6.032 148.193 6.48C148.001 6.91733 147.905 7.46133 147.905 8.112C147.905 9.072 148.124 9.81333 148.561 10.336C148.999 10.848 149.58 11.104 150.305 11.104ZM157.422 14.992C157.262 14.992 157.134 14.9493 157.038 14.864C156.942 14.7787 156.884 14.6613 156.862 14.512C156.852 14.3733 156.878 14.2293 156.942 14.08L158.046 11.6V12.16L154.974 5.024C154.91 4.864 154.889 4.71467 154.91 4.576C154.932 4.43733 154.996 4.32533 155.102 4.24C155.209 4.15467 155.358 4.112 155.55 4.112C155.721 4.112 155.854 4.14933 155.95 4.224C156.046 4.29867 156.132 4.432 156.206 4.624L158.83 11.056H158.398L161.054 4.624C161.14 4.432 161.23 4.29867 161.326 4.224C161.422 4.14933 161.561 4.112 161.742 4.112C161.913 4.112 162.041 4.15467 162.126 4.24C162.222 4.32533 162.276 4.43733 162.286 4.576C162.308 4.704 162.286 4.848 162.222 5.008L158.126 14.48C158.041 14.672 157.945 14.8053 157.838 14.88C157.742 14.9547 157.604 14.992 157.422 14.992ZM170.95 12.144C170.193 12.144 169.537 11.9787 168.982 11.648C168.428 11.3173 167.996 10.8533 167.686 10.256C167.388 9.648 167.238 8.93333 167.238 8.112C167.238 7.49333 167.324 6.93867 167.494 6.448C167.665 5.94667 167.916 5.52 168.246 5.168C168.577 4.816 168.966 4.54933 169.414 4.368C169.873 4.176 170.385 4.08 170.95 4.08C171.708 4.08 172.364 4.24533 172.918 4.576C173.473 4.90667 173.9 5.376 174.198 5.984C174.508 6.58133 174.662 7.29067 174.662 8.112C174.662 8.73067 174.577 9.28533 174.406 9.776C174.236 10.2667 173.985 10.6933 173.654 11.056C173.324 11.408 172.929 11.68 172.47 11.872C172.022 12.0533 171.516 12.144 170.95 12.144ZM170.95 11.104C171.43 11.104 171.852 10.9867 172.214 10.752C172.577 10.5173 172.854 10.176 173.046 9.728C173.249 9.28 173.35 8.74133 173.35 8.112C173.35 7.14133 173.132 6.4 172.694 5.888C172.268 5.376 171.686 5.12 170.95 5.12C170.46 5.12 170.033 5.23733 169.67 5.472C169.318 5.696 169.041 6.032 168.838 6.48C168.646 6.91733 168.55 7.46133 168.55 8.112C168.55 9.072 168.769 9.81333 169.206 10.336C169.644 10.848 170.225 11.104 170.95 11.104ZM177.427 12.112C177.224 12.112 177.064 12.0533 176.947 11.936C176.84 11.8187 176.787 11.6533 176.787 11.44V5.232H175.763C175.592 5.232 175.453 5.18933 175.347 5.104C175.251 5.008 175.203 4.88 175.203 4.72C175.203 4.56 175.251 4.43733 175.347 4.352C175.453 4.26667 175.592 4.224 175.763 4.224H177.139L176.787 4.56V3.952C176.787 2.93867 177.032 2.16533 177.523 1.632C178.024 1.09867 178.755 0.789333 179.715 0.704L180.179 0.655999C180.328 0.645333 180.445 0.671999 180.531 0.735999C180.627 0.8 180.685 0.88 180.707 0.976C180.739 1.072 180.744 1.17333 180.723 1.28C180.701 1.376 180.653 1.46133 180.579 1.536C180.504 1.61067 180.413 1.65333 180.307 1.664L179.939 1.696C179.288 1.74933 178.813 1.94667 178.515 2.288C178.227 2.62933 178.083 3.13067 178.083 3.792V4.464L177.891 4.224H179.811C179.992 4.224 180.131 4.26667 180.227 4.352C180.323 4.43733 180.371 4.56 180.371 4.72C180.371 4.88 180.323 5.008 180.227 5.104C180.131 5.18933 179.992 5.232 179.811 5.232H178.083V11.44C178.083 11.888 177.864 12.112 177.427 12.112ZM188.624 12.144C188.016 12.144 187.504 12.0373 187.088 11.824C186.682 11.6 186.378 11.28 186.176 10.864C185.973 10.4373 185.872 9.92 185.872 9.312V5.232H184.8C184.618 5.232 184.48 5.18933 184.384 5.104C184.288 5.008 184.24 4.88 184.24 4.72C184.24 4.56 184.288 4.43733 184.384 4.352C184.48 4.26667 184.618 4.224 184.8 4.224H185.872V2.384C185.872 2.17067 185.93 2.01067 186.048 1.904C186.165 1.78667 186.325 1.728 186.528 1.728C186.73 1.728 186.885 1.78667 186.992 1.904C187.109 2.01067 187.168 2.17067 187.168 2.384V4.224H189.184C189.365 4.224 189.504 4.26667 189.6 4.352C189.696 4.43733 189.744 4.56 189.744 4.72C189.744 4.88 189.696 5.008 189.6 5.104C189.504 5.18933 189.365 5.232 189.184 5.232H187.168V9.184C187.168 9.792 187.296 10.256 187.552 10.576C187.808 10.8853 188.224 11.04 188.8 11.04C189.002 11.04 189.173 11.0187 189.312 10.976C189.461 10.9333 189.584 10.912 189.68 10.912C189.776 10.9013 189.856 10.9333 189.92 11.008C189.984 11.0827 190.016 11.2107 190.016 11.392C190.016 11.52 189.989 11.6373 189.936 11.744C189.893 11.8507 189.813 11.9253 189.696 11.968C189.568 12.0107 189.397 12.048 189.184 12.08C188.981 12.1227 188.794 12.144 188.624 12.144ZM194.363 12.144C193.542 12.144 192.833 11.984 192.235 11.664C191.649 11.3333 191.19 10.8693 190.859 10.272C190.539 9.67467 190.379 8.96 190.379 8.128C190.379 7.31733 190.539 6.61333 190.859 6.016C191.179 5.408 191.617 4.93333 192.171 4.592C192.737 4.25067 193.387 4.08 194.123 4.08C194.646 4.08 195.115 4.17067 195.531 4.352C195.947 4.52267 196.299 4.77333 196.587 5.104C196.886 5.43467 197.11 5.83467 197.259 6.304C197.419 6.77333 197.499 7.30133 197.499 7.888C197.499 8.05867 197.451 8.18667 197.355 8.272C197.259 8.34667 197.121 8.384 196.939 8.384H191.371V7.536H196.635L196.379 7.744C196.379 7.168 196.294 6.68267 196.123 6.288C195.953 5.88267 195.702 5.57333 195.371 5.36C195.051 5.14667 194.646 5.04 194.155 5.04C193.611 5.04 193.147 5.168 192.763 5.424C192.39 5.66933 192.107 6.016 191.915 6.464C191.723 6.90133 191.627 7.41333 191.627 8V8.096C191.627 9.07733 191.862 9.824 192.331 10.336C192.811 10.848 193.489 11.104 194.363 11.104C194.726 11.104 195.083 11.056 195.435 10.96C195.798 10.864 196.15 10.704 196.491 10.48C196.641 10.384 196.774 10.3413 196.891 10.352C197.019 10.352 197.121 10.3893 197.195 10.464C197.27 10.528 197.318 10.6133 197.339 10.72C197.371 10.816 197.361 10.9227 197.307 11.04C197.265 11.1573 197.174 11.2587 197.035 11.344C196.683 11.6 196.267 11.7973 195.787 11.936C195.307 12.0747 194.833 12.144 194.363 12.144ZM201.583 12.144C200.815 12.144 200.228 11.9093 199.823 11.44C199.418 10.9707 199.215 10.2987 199.215 9.424V1.264C199.215 1.05067 199.268 0.890666 199.375 0.783999C199.482 0.666666 199.642 0.608 199.855 0.608C200.058 0.608 200.218 0.666666 200.335 0.783999C200.452 0.890666 200.511 1.05067 200.511 1.264V9.328C200.511 9.904 200.623 10.336 200.847 10.624C201.082 10.9013 201.423 11.04 201.871 11.04C201.967 11.04 202.052 11.0347 202.127 11.024C202.202 11.0133 202.276 11.008 202.351 11.008C202.468 10.9973 202.548 11.024 202.591 11.088C202.644 11.152 202.671 11.28 202.671 11.472C202.671 11.664 202.628 11.808 202.543 11.904C202.458 12 202.319 12.064 202.127 12.096C202.042 12.1067 201.951 12.1173 201.855 12.128C201.759 12.1387 201.668 12.144 201.583 12.144ZM207.215 12.144C206.394 12.144 205.685 11.984 205.087 11.664C204.501 11.3333 204.042 10.8693 203.711 10.272C203.391 9.67467 203.231 8.96 203.231 8.128C203.231 7.31733 203.391 6.61333 203.711 6.016C204.031 5.408 204.469 4.93333 205.023 4.592C205.589 4.25067 206.239 4.08 206.975 4.08C207.498 4.08 207.967 4.17067 208.383 4.352C208.799 4.52267 209.151 4.77333 209.439 5.104C209.738 5.43467 209.962 5.83467 210.111 6.304C210.271 6.77333 210.351 7.30133 210.351 7.888C210.351 8.05867 210.303 8.18667 210.207 8.272C210.111 8.34667 209.973 8.384 209.791 8.384H204.223V7.536H209.487L209.231 7.744C209.231 7.168 209.146 6.68267 208.975 6.288C208.805 5.88267 208.554 5.57333 208.223 5.36C207.903 5.14667 207.498 5.04 207.007 5.04C206.463 5.04 205.999 5.168 205.615 5.424C205.242 5.66933 204.959 6.016 204.767 6.464C204.575 6.90133 204.479 7.41333 204.479 8V8.096C204.479 9.07733 204.714 9.824 205.183 10.336C205.663 10.848 206.341 11.104 207.215 11.104C207.578 11.104 207.935 11.056 208.287 10.96C208.65 10.864 209.002 10.704 209.343 10.48C209.493 10.384 209.626 10.3413 209.743 10.352C209.871 10.352 209.973 10.3893 210.047 10.464C210.122 10.528 210.17 10.6133 210.191 10.72C210.223 10.816 210.213 10.9227 210.159 11.04C210.117 11.1573 210.026 11.2587 209.887 11.344C209.535 11.6 209.119 11.7973 208.639 11.936C208.159 12.0747 207.685 12.144 207.215 12.144ZM212.707 12.112C212.494 12.112 212.334 12.0533 212.227 11.936C212.12 11.8187 212.067 11.6533 212.067 11.44V1.264C212.067 1.05067 212.12 0.890666 212.227 0.783999C212.334 0.666666 212.494 0.608 212.707 0.608C212.91 0.608 213.07 0.666666 213.187 0.783999C213.304 0.890666 213.363 1.05067 213.363 1.264V5.952H213.155C213.379 5.33333 213.742 4.86933 214.243 4.56C214.755 4.24 215.342 4.08 216.003 4.08C216.622 4.08 217.134 4.192 217.539 4.416C217.955 4.64 218.264 4.98133 218.467 5.44C218.67 5.888 218.771 6.45867 218.771 7.152V11.44C218.771 11.6533 218.712 11.8187 218.595 11.936C218.488 12.0533 218.334 12.112 218.131 12.112C217.918 12.112 217.752 12.0533 217.635 11.936C217.528 11.8187 217.475 11.6533 217.475 11.44V7.232C217.475 6.50667 217.331 5.97867 217.043 5.648C216.766 5.30667 216.318 5.136 215.699 5.136C214.984 5.136 214.414 5.36 213.987 5.808C213.571 6.24533 213.363 6.832 213.363 7.568V11.44C213.363 11.888 213.144 12.112 212.707 12.112ZM224.505 12.144C223.683 12.144 222.974 11.984 222.377 11.664C221.79 11.3333 221.331 10.8693 221.001 10.272C220.681 9.67467 220.521 8.96 220.521 8.128C220.521 7.31733 220.681 6.61333 221.001 6.016C221.321 5.408 221.758 4.93333 222.313 4.592C222.878 4.25067 223.529 4.08 224.265 4.08C224.787 4.08 225.257 4.17067 225.673 4.352C226.089 4.52267 226.441 4.77333 226.729 5.104C227.027 5.43467 227.251 5.83467 227.401 6.304C227.561 6.77333 227.641 7.30133 227.641 7.888C227.641 8.05867 227.593 8.18667 227.497 8.272C227.401 8.34667 227.262 8.384 227.081 8.384H221.513V7.536H226.777L226.521 7.744C226.521 7.168 226.435 6.68267 226.265 6.288C226.094 5.88267 225.843 5.57333 225.513 5.36C225.193 5.14667 224.787 5.04 224.297 5.04C223.753 5.04 223.289 5.168 222.905 5.424C222.531 5.66933 222.249 6.016 222.057 6.464C221.865 6.90133 221.769 7.41333 221.769 8V8.096C221.769 9.07733 222.003 9.824 222.473 10.336C222.953 10.848 223.63 11.104 224.505 11.104C224.867 11.104 225.225 11.056 225.577 10.96C225.939 10.864 226.291 10.704 226.633 10.48C226.782 10.384 226.915 10.3413 227.033 10.352C227.161 10.352 227.262 10.3893 227.337 10.464C227.411 10.528 227.459 10.6133 227.481 10.72C227.513 10.816 227.502 10.9227 227.449 11.04C227.406 11.1573 227.315 11.2587 227.177 11.344C226.825 11.6 226.409 11.7973 225.929 11.936C225.449 12.0747 224.974 12.144 224.505 12.144ZM231.804 12.144C231.271 12.144 230.791 12.0427 230.364 11.84C229.948 11.6267 229.618 11.3387 229.372 10.976C229.127 10.6133 229.004 10.208 229.004 9.76C229.004 9.184 229.148 8.73067 229.436 8.4C229.735 8.06933 230.22 7.83467 230.892 7.696C231.575 7.55733 232.503 7.488 233.676 7.488H234.396V8.336H233.692C232.828 8.336 232.146 8.37867 231.644 8.464C231.154 8.53867 230.807 8.672 230.604 8.864C230.412 9.056 230.316 9.328 230.316 9.68C230.316 10.1173 230.466 10.4747 230.764 10.752C231.074 11.0293 231.49 11.168 232.012 11.168C232.439 11.168 232.812 11.0667 233.132 10.864C233.463 10.6613 233.719 10.384 233.9 10.032C234.092 9.68 234.188 9.27467 234.188 8.816V6.992C234.188 6.33067 234.055 5.856 233.788 5.568C233.522 5.26933 233.084 5.12 232.476 5.12C232.103 5.12 231.73 5.168 231.356 5.264C230.983 5.36 230.588 5.51467 230.172 5.728C230.023 5.80267 229.895 5.82933 229.788 5.808C229.682 5.776 229.596 5.71733 229.532 5.632C229.468 5.54667 229.431 5.45067 229.42 5.344C229.41 5.22667 229.431 5.11467 229.484 5.008C229.548 4.90133 229.644 4.816 229.772 4.752C230.242 4.51733 230.706 4.34667 231.164 4.24C231.623 4.13333 232.06 4.08 232.476 4.08C233.148 4.08 233.703 4.192 234.14 4.416C234.578 4.62933 234.903 4.96 235.116 5.408C235.33 5.84533 235.436 6.41067 235.436 7.104V11.44C235.436 11.6533 235.383 11.8187 235.276 11.936C235.18 12.0533 235.036 12.112 234.844 12.112C234.642 12.112 234.487 12.0533 234.38 11.936C234.274 11.8187 234.22 11.6533 234.22 11.44V10.192H234.364C234.279 10.5973 234.114 10.944 233.868 11.232C233.634 11.52 233.34 11.744 232.988 11.904C232.636 12.064 232.242 12.144 231.804 12.144ZM240.049 12.144C239.281 12.144 238.694 11.9093 238.289 11.44C237.883 10.9707 237.681 10.2987 237.681 9.424V1.264C237.681 1.05067 237.734 0.890666 237.841 0.783999C237.947 0.666666 238.107 0.608 238.321 0.608C238.523 0.608 238.683 0.666666 238.801 0.783999C238.918 0.890666 238.977 1.05067 238.977 1.264V9.328C238.977 9.904 239.089 10.336 239.313 10.624C239.547 10.9013 239.889 11.04 240.337 11.04C240.433 11.04 240.518 11.0347 240.593 11.024C240.667 11.0133 240.742 11.008 240.817 11.008C240.934 10.9973 241.014 11.024 241.057 11.088C241.11 11.152 241.137 11.28 241.137 11.472C241.137 11.664 241.094 11.808 241.009 11.904C240.923 12 240.785 12.064 240.593 12.096C240.507 12.1067 240.417 12.1173 240.321 12.128C240.225 12.1387 240.134 12.144 240.049 12.144ZM245.234 12.144C244.626 12.144 244.114 12.0373 243.698 11.824C243.293 11.6 242.989 11.28 242.786 10.864C242.584 10.4373 242.482 9.92 242.482 9.312V5.232H241.41C241.229 5.232 241.09 5.18933 240.994 5.104C240.898 5.008 240.85 4.88 240.85 4.72C240.85 4.56 240.898 4.43733 240.994 4.352C241.09 4.26667 241.229 4.224 241.41 4.224H242.482V2.384C242.482 2.17067 242.541 2.01067 242.658 1.904C242.776 1.78667 242.936 1.728 243.138 1.728C243.341 1.728 243.496 1.78667 243.602 1.904C243.72 2.01067 243.778 2.17067 243.778 2.384V4.224H245.794C245.976 4.224 246.114 4.26667 246.21 4.352C246.306 4.43733 246.354 4.56 246.354 4.72C246.354 4.88 246.306 5.008 246.21 5.104C246.114 5.18933 245.976 5.232 245.794 5.232H243.778V9.184C243.778 9.792 243.906 10.256 244.162 10.576C244.418 10.8853 244.834 11.04 245.41 11.04C245.613 11.04 245.784 11.0187 245.922 10.976C246.072 10.9333 246.194 10.912 246.29 10.912C246.386 10.9013 246.466 10.9333 246.53 11.008C246.594 11.0827 246.626 11.2107 246.626 11.392C246.626 11.52 246.6 11.6373 246.546 11.744C246.504 11.8507 246.424 11.9253 246.306 11.968C246.178 12.0107 246.008 12.048 245.794 12.08C245.592 12.1227 245.405 12.144 245.234 12.144ZM248.282 12.112C248.069 12.112 247.909 12.0533 247.802 11.936C247.695 11.8187 247.642 11.6533 247.642 11.44V1.264C247.642 1.05067 247.695 0.890666 247.802 0.783999C247.909 0.666666 248.069 0.608 248.282 0.608C248.485 0.608 248.645 0.666666 248.762 0.783999C248.879 0.890666 248.938 1.05067 248.938 1.264V5.952H248.73C248.954 5.33333 249.317 4.86933 249.818 4.56C250.33 4.24 250.917 4.08 251.578 4.08C252.197 4.08 252.709 4.192 253.114 4.416C253.53 4.64 253.839 4.98133 254.042 5.44C254.245 5.888 254.346 6.45867 254.346 7.152V11.44C254.346 11.6533 254.287 11.8187 254.17 11.936C254.063 12.0533 253.909 12.112 253.706 12.112C253.493 12.112 253.327 12.0533 253.21 11.936C253.103 11.8187 253.05 11.6533 253.05 11.44V7.232C253.05 6.50667 252.906 5.97867 252.618 5.648C252.341 5.30667 251.893 5.136 251.274 5.136C250.559 5.136 249.989 5.36 249.562 5.808C249.146 6.24533 248.938 6.832 248.938 7.568V11.44C248.938 11.888 248.719 12.112 248.282 12.112ZM261.357 12.112C261.165 12.112 261.015 12.0587 260.909 11.952C260.802 11.8347 260.749 11.6747 260.749 11.472V1.248C260.749 1.03467 260.802 0.874666 260.909 0.768C261.015 0.661333 261.165 0.608 261.357 0.608C261.527 0.608 261.661 0.645333 261.757 0.719999C261.863 0.783999 261.959 0.895999 262.045 1.056L266.429 9.312H265.949L270.317 1.056C270.402 0.895999 270.493 0.783999 270.589 0.719999C270.685 0.645333 270.823 0.608 271.005 0.608C271.186 0.608 271.33 0.661333 271.437 0.768C271.543 0.874666 271.597 1.03467 271.597 1.248V11.472C271.597 11.6747 271.543 11.8347 271.437 11.952C271.341 12.0587 271.191 12.112 270.989 12.112C270.797 12.112 270.647 12.0587 270.541 11.952C270.434 11.8347 270.381 11.6747 270.381 11.472V2.48H270.765L266.765 9.984C266.69 10.1227 266.61 10.224 266.525 10.288C266.45 10.3413 266.338 10.368 266.189 10.368C266.039 10.368 265.922 10.336 265.837 10.272C265.751 10.208 265.677 10.112 265.613 9.984L261.565 2.464H261.949V11.472C261.949 11.6747 261.895 11.8347 261.789 11.952C261.693 12.0587 261.549 12.112 261.357 12.112ZM277.572 12.144C276.751 12.144 276.042 11.984 275.444 11.664C274.858 11.3333 274.399 10.8693 274.068 10.272C273.748 9.67467 273.588 8.96 273.588 8.128C273.588 7.31733 273.748 6.61333 274.068 6.016C274.388 5.408 274.826 4.93333 275.38 4.592C275.946 4.25067 276.596 4.08 277.332 4.08C277.855 4.08 278.324 4.17067 278.74 4.352C279.156 4.52267 279.508 4.77333 279.796 5.104C280.095 5.43467 280.319 5.83467 280.468 6.304C280.628 6.77333 280.708 7.30133 280.708 7.888C280.708 8.05867 280.66 8.18667 280.564 8.272C280.468 8.34667 280.33 8.384 280.148 8.384H274.58V7.536H279.844L279.588 7.744C279.588 7.168 279.503 6.68267 279.332 6.288C279.162 5.88267 278.911 5.57333 278.58 5.36C278.26 5.14667 277.855 5.04 277.364 5.04C276.82 5.04 276.356 5.168 275.972 5.424C275.599 5.66933 275.316 6.016 275.124 6.464C274.932 6.90133 274.836 7.41333 274.836 8V8.096C274.836 9.07733 275.071 9.824 275.54 10.336C276.02 10.848 276.698 11.104 277.572 11.104C277.935 11.104 278.292 11.056 278.644 10.96C279.007 10.864 279.359 10.704 279.7 10.48C279.85 10.384 279.983 10.3413 280.1 10.352C280.228 10.352 280.33 10.3893 280.404 10.464C280.479 10.528 280.527 10.6133 280.548 10.72C280.58 10.816 280.57 10.9227 280.516 11.04C280.474 11.1573 280.383 11.2587 280.244 11.344C279.892 11.6 279.476 11.7973 278.996 11.936C278.516 12.0747 278.042 12.144 277.572 12.144ZM285.384 12.144C284.69 12.144 284.082 11.9787 283.56 11.648C283.048 11.3173 282.648 10.8533 282.36 10.256C282.082 9.648 281.944 8.93333 281.944 8.112C281.944 7.28 282.082 6.56533 282.36 5.968C282.648 5.36 283.048 4.896 283.56 4.576C284.082 4.24533 284.69 4.08 285.384 4.08C286.088 4.08 286.69 4.256 287.192 4.608C287.693 4.96 288.029 5.43467 288.2 6.032H288.024V1.264C288.024 1.05067 288.077 0.890666 288.184 0.783999C288.301 0.666666 288.466 0.608 288.68 0.608C288.882 0.608 289.037 0.666666 289.144 0.783999C289.261 0.890666 289.32 1.05067 289.32 1.264V11.44C289.32 11.6533 289.266 11.8187 289.16 11.936C289.053 12.0533 288.893 12.112 288.68 12.112C288.477 12.112 288.317 12.0533 288.2 11.936C288.093 11.8187 288.04 11.6533 288.04 11.44V9.92L288.216 10.144C288.045 10.752 287.704 11.2373 287.192 11.6C286.69 11.9627 286.088 12.144 285.384 12.144ZM285.656 11.104C286.136 11.104 286.557 10.9867 286.92 10.752C287.282 10.5173 287.56 10.176 287.752 9.728C287.954 9.28 288.056 8.74133 288.056 8.112C288.056 7.14133 287.837 6.4 287.4 5.888C286.973 5.376 286.392 5.12 285.656 5.12C285.165 5.12 284.738 5.23733 284.376 5.472C284.024 5.696 283.746 6.032 283.544 6.48C283.352 6.91733 283.256 7.46133 283.256 8.112C283.256 9.072 283.474 9.81333 283.912 10.336C284.349 10.848 284.93 11.104 285.656 11.104ZM292.232 12.08C292.019 12.08 291.859 12.0213 291.752 11.904C291.645 11.776 291.592 11.6 291.592 11.376V4.832C291.592 4.608 291.645 4.43733 291.752 4.32C291.859 4.20267 292.019 4.144 292.232 4.144C292.435 4.144 292.595 4.20267 292.712 4.32C292.829 4.43733 292.888 4.608 292.888 4.832V11.376C292.888 11.6 292.829 11.776 292.712 11.904C292.605 12.0213 292.445 12.08 292.232 12.08ZM292.232 2.352C291.965 2.352 291.757 2.28267 291.608 2.144C291.459 1.99467 291.384 1.79733 291.384 1.552C291.384 1.296 291.459 1.104 291.608 0.976C291.757 0.837333 291.965 0.768 292.232 0.768C292.509 0.768 292.717 0.837333 292.856 0.976C293.005 1.104 293.08 1.296 293.08 1.552C293.08 1.79733 293.005 1.99467 292.856 2.144C292.717 2.28267 292.509 2.352 292.232 2.352ZM295.791 12.112C295.577 12.112 295.417 12.0533 295.311 11.936C295.204 11.8187 295.151 11.6533 295.151 11.44V4.768C295.151 4.55467 295.204 4.39467 295.311 4.288C295.417 4.17067 295.572 4.112 295.775 4.112C295.977 4.112 296.132 4.17067 296.239 4.288C296.356 4.39467 296.415 4.55467 296.415 4.768V6.144L296.239 5.952C296.463 5.33333 296.825 4.86933 297.327 4.56C297.839 4.24 298.425 4.08 299.087 4.08C299.705 4.08 300.217 4.192 300.623 4.416C301.039 4.64 301.348 4.98133 301.551 5.44C301.753 5.888 301.855 6.45867 301.855 7.152V11.44C301.855 11.6533 301.796 11.8187 301.679 11.936C301.572 12.0533 301.417 12.112 301.215 12.112C301.001 12.112 300.836 12.0533 300.719 11.936C300.612 11.8187 300.559 11.6533 300.559 11.44V7.232C300.559 6.50667 300.415 5.97867 300.127 5.648C299.849 5.30667 299.401 5.136 298.783 5.136C298.068 5.136 297.497 5.36 297.071 5.808C296.655 6.24533 296.447 6.832 296.447 7.568V11.44C296.447 11.888 296.228 12.112 295.791 12.112ZM307.588 12.144C306.767 12.144 306.058 11.984 305.46 11.664C304.874 11.3333 304.415 10.8693 304.084 10.272C303.764 9.67467 303.604 8.96 303.604 8.128C303.604 7.31733 303.764 6.61333 304.084 6.016C304.404 5.408 304.842 4.93333 305.396 4.592C305.962 4.25067 306.612 4.08 307.348 4.08C307.871 4.08 308.34 4.17067 308.756 4.352C309.172 4.52267 309.524 4.77333 309.812 5.104C310.111 5.43467 310.335 5.83467 310.484 6.304C310.644 6.77333 310.724 7.30133 310.724 7.888C310.724 8.05867 310.676 8.18667 310.58 8.272C310.484 8.34667 310.346 8.384 310.164 8.384H304.596V7.536H309.86L309.604 7.744C309.604 7.168 309.519 6.68267 309.348 6.288C309.178 5.88267 308.927 5.57333 308.596 5.36C308.276 5.14667 307.871 5.04 307.38 5.04C306.836 5.04 306.372 5.168 305.988 5.424C305.615 5.66933 305.332 6.016 305.14 6.464C304.948 6.90133 304.852 7.41333 304.852 8V8.096C304.852 9.07733 305.087 9.824 305.556 10.336C306.036 10.848 306.714 11.104 307.588 11.104C307.951 11.104 308.308 11.056 308.66 10.96C309.023 10.864 309.375 10.704 309.716 10.48C309.866 10.384 309.999 10.3413 310.116 10.352C310.244 10.352 310.346 10.3893 310.42 10.464C310.495 10.528 310.543 10.6133 310.564 10.72C310.596 10.816 310.586 10.9227 310.532 11.04C310.49 11.1573 310.399 11.2587 310.26 11.344C309.908 11.6 309.492 11.7973 309.012 11.936C308.532 12.0747 308.058 12.144 307.588 12.144ZM315.064 12.144C314.584 12.144 314.099 12.0853 313.608 11.968C313.128 11.8507 312.68 11.648 312.264 11.36C312.157 11.2853 312.083 11.2 312.04 11.104C311.997 10.9973 311.981 10.896 311.992 10.8C312.013 10.6933 312.056 10.6027 312.12 10.528C312.195 10.4533 312.28 10.4107 312.376 10.4C312.483 10.3787 312.6 10.4 312.728 10.464C313.144 10.72 313.544 10.9013 313.928 11.008C314.323 11.104 314.712 11.152 315.096 11.152C315.704 11.152 316.163 11.04 316.472 10.816C316.781 10.592 316.936 10.288 316.936 9.904C316.936 9.60533 316.835 9.37067 316.632 9.2C316.429 9.01867 316.109 8.88 315.672 8.784L314.216 8.464C313.544 8.32533 313.043 8.08533 312.712 7.744C312.392 7.40267 312.232 6.96 312.232 6.416C312.232 5.936 312.355 5.52533 312.6 5.184C312.856 4.832 313.213 4.56 313.672 4.368C314.131 4.176 314.664 4.08 315.272 4.08C315.741 4.08 316.184 4.144 316.6 4.272C317.027 4.38933 317.411 4.58133 317.752 4.848C317.859 4.92267 317.928 5.01333 317.96 5.12C318.003 5.216 318.008 5.31733 317.976 5.424C317.955 5.52 317.907 5.60533 317.832 5.68C317.757 5.744 317.667 5.78133 317.56 5.792C317.453 5.80267 317.341 5.77067 317.224 5.696C316.904 5.48267 316.579 5.328 316.248 5.232C315.917 5.12533 315.592 5.072 315.272 5.072C314.675 5.072 314.221 5.18933 313.912 5.424C313.603 5.65867 313.448 5.968 313.448 6.352C313.448 6.65067 313.544 6.896 313.736 7.088C313.928 7.28 314.227 7.41867 314.632 7.504L316.088 7.808C316.781 7.95733 317.299 8.19733 317.64 8.528C317.992 8.848 318.168 9.28533 318.168 9.84C318.168 10.544 317.885 11.104 317.32 11.52C316.755 11.936 316.003 12.144 315.064 12.144ZM323.025 12.144C322.417 12.144 321.905 12.0373 321.489 11.824C321.084 11.6 320.78 11.28 320.577 10.864C320.374 10.4373 320.273 9.92 320.273 9.312V5.232H319.201C319.02 5.232 318.881 5.18933 318.785 5.104C318.689 5.008 318.641 4.88 318.641 4.72C318.641 4.56 318.689 4.43733 318.785 4.352C318.881 4.26667 319.02 4.224 319.201 4.224H320.273V2.384C320.273 2.17067 320.332 2.01067 320.449 1.904C320.566 1.78667 320.726 1.728 320.929 1.728C321.132 1.728 321.286 1.78667 321.393 1.904C321.51 2.01067 321.569 2.17067 321.569 2.384V4.224H323.585C323.766 4.224 323.905 4.26667 324.001 4.352C324.097 4.43733 324.145 4.56 324.145 4.72C324.145 4.88 324.097 5.008 324.001 5.104C323.905 5.18933 323.766 5.232 323.585 5.232H321.569V9.184C321.569 9.792 321.697 10.256 321.953 10.576C322.209 10.8853 322.625 11.04 323.201 11.04C323.404 11.04 323.574 11.0187 323.713 10.976C323.862 10.9333 323.985 10.912 324.081 10.912C324.177 10.9013 324.257 10.9333 324.321 11.008C324.385 11.0827 324.417 11.2107 324.417 11.392C324.417 11.52 324.39 11.6373 324.337 11.744C324.294 11.8507 324.214 11.9253 324.097 11.968C323.969 12.0107 323.798 12.048 323.585 12.08C323.382 12.1227 323.196 12.144 323.025 12.144ZM110.247 38.112C110.076 38.112 109.937 38.0747 109.831 38C109.735 37.9147 109.676 37.808 109.655 37.68C109.644 37.5413 109.676 37.3867 109.751 37.216L114.151 27.2C114.247 26.9867 114.359 26.8373 114.487 26.752C114.625 26.656 114.775 26.608 114.935 26.608C115.095 26.608 115.239 26.656 115.367 26.752C115.505 26.8373 115.617 26.9867 115.703 27.2L120.119 37.216C120.204 37.3867 120.236 37.5413 120.215 37.68C120.204 37.8187 120.151 37.9253 120.055 38C119.959 38.0747 119.825 38.112 119.655 38.112C119.463 38.112 119.308 38.064 119.191 37.968C119.073 37.8613 118.977 37.712 118.903 37.52L117.719 34.784L118.359 35.12H111.479L112.135 34.784L110.967 37.52C110.871 37.7227 110.769 37.872 110.663 37.968C110.556 38.064 110.417 38.112 110.247 38.112ZM114.919 28.256L112.343 34.32L111.959 34.016H117.879L117.527 34.32L114.951 28.256H114.919ZM124.175 38.144C123.407 38.144 122.82 37.9093 122.415 37.44C122.01 36.9707 121.807 36.2987 121.807 35.424V27.264C121.807 27.0507 121.86 26.8907 121.967 26.784C122.074 26.6667 122.234 26.608 122.447 26.608C122.65 26.608 122.81 26.6667 122.927 26.784C123.044 26.8907 123.103 27.0507 123.103 27.264V35.328C123.103 35.904 123.215 36.336 123.439 36.624C123.674 36.9013 124.015 37.04 124.463 37.04C124.559 37.04 124.644 37.0347 124.719 37.024C124.794 37.0133 124.868 37.008 124.943 37.008C125.06 36.9973 125.14 37.024 125.183 37.088C125.236 37.152 125.263 37.28 125.263 37.472C125.263 37.664 125.22 37.808 125.135 37.904C125.05 38 124.911 38.064 124.719 38.096C124.634 38.1067 124.543 38.1173 124.447 38.128C124.351 38.1387 124.26 38.144 124.175 38.144ZM128.749 38.144C127.981 38.144 127.395 37.9093 126.989 37.44C126.584 36.9707 126.381 36.2987 126.381 35.424V27.264C126.381 27.0507 126.435 26.8907 126.541 26.784C126.648 26.6667 126.808 26.608 127.021 26.608C127.224 26.608 127.384 26.6667 127.501 26.784C127.619 26.8907 127.677 27.0507 127.677 27.264V35.328C127.677 35.904 127.789 36.336 128.013 36.624C128.248 36.9013 128.589 37.04 129.037 37.04C129.133 37.04 129.219 37.0347 129.293 37.024C129.368 37.0133 129.443 37.008 129.517 37.008C129.635 36.9973 129.715 37.024 129.757 37.088C129.811 37.152 129.837 37.28 129.837 37.472C129.837 37.664 129.795 37.808 129.709 37.904C129.624 38 129.485 38.064 129.293 38.096C129.208 38.1067 129.117 38.1173 129.021 38.128C128.925 38.1387 128.835 38.144 128.749 38.144ZM135.753 38.112C135.539 38.112 135.374 38.0533 135.257 37.936C135.15 37.808 135.097 37.6373 135.097 37.424V27.296C135.097 27.072 135.15 26.9013 135.257 26.784C135.374 26.6667 135.539 26.608 135.753 26.608C135.966 26.608 136.126 26.6667 136.233 26.784C136.35 26.9013 136.409 27.072 136.409 27.296V37.424C136.409 37.6373 136.355 37.808 136.249 37.936C136.142 38.0533 135.977 38.112 135.753 38.112ZM139.51 38.112C139.297 38.112 139.137 38.0533 139.03 37.936C138.923 37.8187 138.87 37.6533 138.87 37.44V30.768C138.87 30.5547 138.923 30.3947 139.03 30.288C139.137 30.1707 139.291 30.112 139.494 30.112C139.697 30.112 139.851 30.1707 139.958 30.288C140.075 30.3947 140.134 30.5547 140.134 30.768V32.144L139.958 31.952C140.182 31.3333 140.545 30.8693 141.046 30.56C141.558 30.24 142.145 30.08 142.806 30.08C143.425 30.08 143.937 30.192 144.342 30.416C144.758 30.64 145.067 30.9813 145.27 31.44C145.473 31.888 145.574 32.4587 145.574 33.152V37.44C145.574 37.6533 145.515 37.8187 145.398 37.936C145.291 38.0533 145.137 38.112 144.934 38.112C144.721 38.112 144.555 38.0533 144.438 37.936C144.331 37.8187 144.278 37.6533 144.278 37.44V33.232C144.278 32.5067 144.134 31.9787 143.846 31.648C143.569 31.3067 143.121 31.136 142.502 31.136C141.787 31.136 141.217 31.36 140.79 31.808C140.374 32.2453 140.166 32.832 140.166 33.568V37.44C140.166 37.888 139.947 38.112 139.51 38.112ZM156.681 38.144C155.635 38.144 154.723 37.9093 153.945 37.44C153.177 36.96 152.579 36.288 152.153 35.424C151.737 34.56 151.529 33.536 151.529 32.352C151.529 31.456 151.646 30.656 151.881 29.952C152.126 29.2373 152.473 28.6347 152.921 28.144C153.369 27.6427 153.907 27.2587 154.537 26.992C155.177 26.7147 155.891 26.576 156.681 26.576C157.747 26.576 158.665 26.8107 159.433 27.28C160.211 27.7493 160.809 28.416 161.225 29.28C161.651 30.1333 161.865 31.152 161.865 32.336C161.865 33.232 161.742 34.0373 161.497 34.752C161.251 35.4667 160.905 36.0747 160.457 36.576C160.009 37.0773 159.465 37.4667 158.825 37.744C158.195 38.0107 157.481 38.144 156.681 38.144ZM156.681 36.976C157.491 36.976 158.174 36.7947 158.729 36.432C159.294 36.0693 159.726 35.5413 160.025 34.848C160.323 34.1547 160.473 33.3227 160.473 32.352C160.473 30.8907 160.142 29.76 159.481 28.96C158.83 28.1493 157.897 27.744 156.681 27.744C155.891 27.744 155.214 27.9253 154.649 28.288C154.094 28.6507 153.667 29.1787 153.369 29.872C153.07 30.5547 152.921 31.3813 152.921 32.352C152.921 33.8027 153.251 34.9387 153.913 35.76C154.574 36.5707 155.497 36.976 156.681 36.976ZM164.514 38.112C164.301 38.112 164.141 38.0533 164.034 37.936C163.928 37.8187 163.874 37.6533 163.874 37.44V30.768C163.874 30.5547 163.928 30.3947 164.034 30.288C164.141 30.1707 164.296 30.112 164.498 30.112C164.701 30.112 164.856 30.1707 164.962 30.288C165.08 30.3947 165.138 30.5547 165.138 30.768V32.144L164.962 31.952C165.186 31.3333 165.549 30.8693 166.05 30.56C166.562 30.24 167.149 30.08 167.81 30.08C168.429 30.08 168.941 30.192 169.346 30.416C169.762 30.64 170.072 30.9813 170.274 31.44C170.477 31.888 170.578 32.4587 170.578 33.152V37.44C170.578 37.6533 170.52 37.8187 170.402 37.936C170.296 38.0533 170.141 38.112 169.938 38.112C169.725 38.112 169.56 38.0533 169.442 37.936C169.336 37.8187 169.282 37.6533 169.282 37.44V33.232C169.282 32.5067 169.138 31.9787 168.85 31.648C168.573 31.3067 168.125 31.136 167.506 31.136C166.792 31.136 166.221 31.36 165.794 31.808C165.378 32.2453 165.17 32.832 165.17 33.568V37.44C165.17 37.888 164.952 38.112 164.514 38.112ZM176.312 38.144C175.491 38.144 174.782 37.984 174.184 37.664C173.598 37.3333 173.139 36.8693 172.808 36.272C172.488 35.6747 172.328 34.96 172.328 34.128C172.328 33.3173 172.488 32.6133 172.808 32.016C173.128 31.408 173.566 30.9333 174.12 30.592C174.686 30.2507 175.336 30.08 176.072 30.08C176.595 30.08 177.064 30.1707 177.48 30.352C177.896 30.5227 178.248 30.7733 178.536 31.104C178.835 31.4347 179.059 31.8347 179.208 32.304C179.368 32.7733 179.448 33.3013 179.448 33.888C179.448 34.0587 179.4 34.1867 179.304 34.272C179.208 34.3467 179.07 34.384 178.888 34.384H173.32V33.536H178.584L178.328 33.744C178.328 33.168 178.243 32.6827 178.072 32.288C177.902 31.8827 177.651 31.5733 177.32 31.36C177 31.1467 176.595 31.04 176.104 31.04C175.56 31.04 175.096 31.168 174.712 31.424C174.339 31.6693 174.056 32.016 173.864 32.464C173.672 32.9013 173.576 33.4133 173.576 34V34.096C173.576 35.0773 173.811 35.824 174.28 36.336C174.76 36.848 175.438 37.104 176.312 37.104C176.675 37.104 177.032 37.056 177.384 36.96C177.747 36.864 178.099 36.704 178.44 36.48C178.59 36.384 178.723 36.3413 178.84 36.352C178.968 36.352 179.07 36.3893 179.144 36.464C179.219 36.528 179.267 36.6133 179.288 36.72C179.32 36.816 179.31 36.9227 179.256 37.04C179.214 37.1573 179.123 37.2587 178.984 37.344C178.632 37.6 178.216 37.7973 177.736 37.936C177.256 38.0747 176.782 38.144 176.312 38.144ZM185.065 38.112C184.894 38.112 184.755 38.0747 184.649 38C184.553 37.9147 184.494 37.808 184.473 37.68C184.462 37.5413 184.494 37.3867 184.569 37.216L188.969 27.2C189.065 26.9867 189.177 26.8373 189.305 26.752C189.443 26.656 189.593 26.608 189.753 26.608C189.913 26.608 190.057 26.656 190.185 26.752C190.323 26.8373 190.435 26.9867 190.521 27.2L194.937 37.216C195.022 37.3867 195.054 37.5413 195.033 37.68C195.022 37.8187 194.969 37.9253 194.873 38C194.777 38.0747 194.643 38.112 194.473 38.112C194.281 38.112 194.126 38.064 194.009 37.968C193.891 37.8613 193.795 37.712 193.721 37.52L192.537 34.784L193.177 35.12H186.297L186.953 34.784L185.785 37.52C185.689 37.7227 185.587 37.872 185.481 37.968C185.374 38.064 185.235 38.112 185.065 38.112ZM189.737 28.256L187.161 34.32L186.777 34.016H192.697L192.345 34.32L189.769 28.256H189.737ZM197.265 40.992C197.052 40.992 196.892 40.9333 196.785 40.816C196.678 40.7093 196.625 40.5493 196.625 40.336V30.768C196.625 30.5547 196.678 30.3947 196.785 30.288C196.892 30.1707 197.046 30.112 197.249 30.112C197.462 30.112 197.622 30.1707 197.729 30.288C197.846 30.3947 197.905 30.5547 197.905 30.768V32.288L197.729 32.064C197.9 31.456 198.236 30.976 198.737 30.624C199.249 30.2613 199.857 30.08 200.561 30.08C201.254 30.08 201.857 30.2453 202.369 30.576C202.892 30.896 203.292 31.36 203.569 31.968C203.857 32.5653 204.001 33.28 204.001 34.112C204.001 34.9333 203.857 35.648 203.569 36.256C203.292 36.8533 202.897 37.3173 202.385 37.648C201.873 37.9787 201.265 38.144 200.561 38.144C199.857 38.144 199.254 37.968 198.753 37.616C198.252 37.2533 197.91 36.7733 197.729 36.176H197.921V40.336C197.921 40.5493 197.862 40.7093 197.745 40.816C197.628 40.9333 197.468 40.992 197.265 40.992ZM200.289 37.104C200.78 37.104 201.201 36.9867 201.553 36.752C201.916 36.5173 202.193 36.176 202.385 35.728C202.588 35.28 202.689 34.7413 202.689 34.112C202.689 33.1413 202.47 32.4 202.033 31.888C201.606 31.376 201.025 31.12 200.289 31.12C199.809 31.12 199.388 31.2373 199.025 31.472C198.662 31.696 198.38 32.032 198.177 32.48C197.985 32.9173 197.889 33.4613 197.889 34.112C197.889 35.072 198.108 35.8133 198.545 36.336C198.982 36.848 199.564 37.104 200.289 37.104ZM206.433 40.992C206.22 40.992 206.06 40.9333 205.953 40.816C205.847 40.7093 205.793 40.5493 205.793 40.336V30.768C205.793 30.5547 205.847 30.3947 205.953 30.288C206.06 30.1707 206.215 30.112 206.417 30.112C206.631 30.112 206.791 30.1707 206.897 30.288C207.015 30.3947 207.073 30.5547 207.073 30.768V32.288L206.897 32.064C207.068 31.456 207.404 30.976 207.905 30.624C208.417 30.2613 209.025 30.08 209.729 30.08C210.423 30.08 211.025 30.2453 211.537 30.576C212.06 30.896 212.46 31.36 212.737 31.968C213.025 32.5653 213.169 33.28 213.169 34.112C213.169 34.9333 213.025 35.648 212.737 36.256C212.46 36.8533 212.065 37.3173 211.553 37.648C211.041 37.9787 210.433 38.144 209.729 38.144C209.025 38.144 208.423 37.968 207.921 37.616C207.42 37.2533 207.079 36.7733 206.897 36.176H207.089V40.336C207.089 40.5493 207.031 40.7093 206.913 40.816C206.796 40.9333 206.636 40.992 206.433 40.992ZM209.457 37.104C209.948 37.104 210.369 36.9867 210.721 36.752C211.084 36.5173 211.361 36.176 211.553 35.728C211.756 35.28 211.857 34.7413 211.857 34.112C211.857 33.1413 211.639 32.4 211.201 31.888C210.775 31.376 210.193 31.12 209.457 31.12C208.977 31.12 208.556 31.2373 208.193 31.472C207.831 31.696 207.548 32.032 207.345 32.48C207.153 32.9173 207.057 33.4613 207.057 34.112C207.057 35.072 207.276 35.8133 207.713 36.336C208.151 36.848 208.732 37.104 209.457 37.104Z" fill="white"/>
</svg>
