<svg width="5" height="25" viewBox="0 0 5 25" fill="none" xmlns="http://www.w3.org/2000/svg">
<path d="M2.49669 24.1668C1.90753 24.1668 1.40428 23.9571 0.986952 23.5376C0.569626 23.118 0.360962 22.6137 0.360962 22.0245C0.360962 21.4354 0.570719 20.9321 0.990233 20.5148C1.40999 20.0977 1.91433 19.8892 2.50325 19.8892C3.09242 19.8892 3.59567 20.0989 4.01299 20.5184C4.43032 20.938 4.63898 21.4423 4.63898 22.0315C4.63898 22.6206 4.42923 23.1238 4.00971 23.5408C3.58995 23.9582 3.08562 24.1668 2.49669 24.1668ZM2.49669 14.6392C1.90753 14.6392 1.40428 14.4294 0.986952 14.0099C0.569626 13.5901 0.360962 13.0858 0.360962 12.4969C0.360962 11.9077 0.570719 11.4045 0.990233 10.9871C1.40999 10.5698 1.91433 10.3612 2.50325 10.3612C3.09242 10.3612 3.59567 10.5709 4.01299 10.9904C4.43032 11.4102 4.63898 11.9145 4.63898 12.5034C4.63898 13.0926 4.42923 13.5959 4.00971 14.0132C3.58995 14.4305 3.08562 14.6392 2.49669 14.6392ZM2.49669 5.11115C1.90753 5.11115 1.40428 4.9014 0.986952 4.48188C0.569626 4.06237 0.360962 3.55803 0.360962 2.96886C0.360962 2.37969 0.570719 1.87657 0.990233 1.45949C1.40999 1.04216 1.91433 0.833496 2.50325 0.833496C3.09242 0.833496 3.59567 1.04325 4.01299 1.46277C4.43032 1.88228 4.63898 2.38662 4.63898 2.97579C4.63898 3.56495 4.42923 4.0682 4.00971 4.48553C3.58995 4.90261 3.08562 5.11115 2.49669 5.11115Z" fill="#5F6368"/>
</svg>
