<svg width="18" height="25" viewBox="0 0 18 25" fill="none" xmlns="http://www.w3.org/2000/svg">
<path d="M9 15.5C7.95833 15.5 7.07292 15.1354 6.34375 14.4062C5.61458 13.6771 5.25 12.7917 5.25 11.75V4.25C5.25 3.20833 5.61458 2.32292 6.34375 1.59375C7.07292 0.864583 7.95833 0.5 9 0.5C10.0417 0.5 10.9271 0.864583 11.6562 1.59375C12.3854 2.32292 12.75 3.20833 12.75 4.25V11.75C12.75 12.7917 12.3854 13.6771 11.6562 14.4062C10.9271 15.1354 10.0417 15.5 9 15.5ZM7.75 24.25V20.4062C5.58333 20.1146 3.79167 19.1458 2.375 17.5C0.958333 15.8542 0.25 13.9375 0.25 11.75H2.75C2.75 13.4792 3.35938 14.9531 4.57812 16.1719C5.79688 17.3906 7.27083 18 9 18C10.7292 18 12.2031 17.3906 13.4219 16.1719C14.6406 14.9531 15.25 13.4792 15.25 11.75H17.75C17.75 13.9375 17.0417 15.8542 15.625 17.5C14.2083 19.1458 12.4167 20.1146 10.25 20.4062V24.25H7.75ZM9 13C9.35417 13 9.65104 12.8802 9.89062 12.6406C10.1302 12.401 10.25 12.1042 10.25 11.75V4.25C10.25 3.89583 10.1302 3.59896 9.89062 3.35938C9.65104 3.11979 9.35417 3 9 3C8.64583 3 8.34896 3.11979 8.10938 3.35938C7.86979 3.59896 7.75 3.89583 7.75 4.25V11.75C7.75 12.1042 7.86979 12.401 8.10938 12.6406C8.34896 12.8802 8.64583 13 9 13Z" fill="#1F397A"/>
</svg>
