<svg width="247" height="27" viewBox="0 0 247 27" fill="none" xmlns="http://www.w3.org/2000/svg">
<path d="M3.49004 26C2.55404 26 1.83404 25.748 1.33004 25.244C0.826044 24.74 0.574044 24.02 0.574044 23.084V3.536C0.574044 2.6 0.826044 1.88 1.33004 1.376C1.83404 0.871999 2.55404 0.619998 3.49004 0.619998H16.054C16.774 0.619998 17.314 0.811999 17.674 1.196C18.058 1.556 18.25 2.084 18.25 2.78C18.25 3.5 18.058 4.052 17.674 4.436C17.314 4.796 16.774 4.976 16.054 4.976H5.90204V10.916H15.226C15.97 10.916 16.522 11.108 16.882 11.492C17.266 11.852 17.458 12.392 17.458 13.112C17.458 13.832 17.266 14.384 16.882 14.768C16.522 15.128 15.97 15.308 15.226 15.308H5.90204V21.644H16.054C16.774 21.644 17.314 21.836 17.674 22.22C18.058 22.58 18.25 23.108 18.25 23.804C18.25 24.524 18.058 25.076 17.674 25.46C17.314 25.82 16.774 26 16.054 26H3.49004ZM23.5589 26.324C22.6709 26.324 21.9869 26.084 21.5069 25.604C21.0509 25.124 20.8229 24.44 20.8229 23.552V10.772C20.8229 9.884 21.0509 9.212 21.5069 8.756C21.9869 8.276 22.6469 8.036 23.4869 8.036C24.3509 8.036 25.0109 8.276 25.4669 8.756C25.9229 9.212 26.1509 9.884 26.1509 10.772V12.824L25.7549 11.636C26.3069 10.46 27.1229 9.56 28.2029 8.936C29.3069 8.288 30.5549 7.964 31.9469 7.964C33.3629 7.964 34.5269 8.24 35.4389 8.792C36.3509 9.32 37.0349 10.136 37.4909 11.24C37.9469 12.32 38.1749 13.7 38.1749 15.38V23.552C38.1749 24.44 37.9349 25.124 37.4549 25.604C36.9989 26.084 36.3269 26.324 35.4389 26.324C34.5749 26.324 33.9029 26.084 33.4229 25.604C32.9669 25.124 32.7389 24.44 32.7389 23.552V15.632C32.7389 14.408 32.5109 13.532 32.0549 13.004C31.6229 12.452 30.9509 12.176 30.0389 12.176C28.8869 12.176 27.9629 12.536 27.2669 13.256C26.5949 13.976 26.2589 14.936 26.2589 16.136V23.552C26.2589 25.4 25.3589 26.324 23.5589 26.324ZM49.8291 26.396C48.1731 26.396 46.7811 26.12 45.6531 25.568C44.5491 25.016 43.7211 24.212 43.1691 23.156C42.6411 22.1 42.3771 20.768 42.3771 19.16V12.392H40.8651C40.1931 12.392 39.6651 12.212 39.2811 11.852C38.9211 11.492 38.7411 11 38.7411 10.376C38.7411 9.704 38.9211 9.2 39.2811 8.864C39.6651 8.504 40.1931 8.324 40.8651 8.324H42.3771V5.588C42.3771 4.676 42.6171 3.992 43.0971 3.536C43.5771 3.056 44.2491 2.816 45.1131 2.816C46.0011 2.816 46.6731 3.056 47.1291 3.536C47.5851 3.992 47.8131 4.676 47.8131 5.588V8.324H51.2331C51.9051 8.324 52.4211 8.504 52.7811 8.864C53.1411 9.2 53.3211 9.704 53.3211 10.376C53.3211 11 53.1411 11.492 52.7811 11.852C52.4211 12.212 51.9051 12.392 51.2331 12.392H47.8131V18.944C47.8131 19.952 48.0411 20.708 48.4971 21.212C48.9771 21.716 49.7331 21.968 50.7651 21.968C51.1251 21.968 51.4611 21.932 51.7731 21.86C52.0851 21.788 52.3731 21.74 52.6371 21.716C52.9731 21.692 53.2491 21.8 53.4651 22.04C53.6811 22.256 53.7891 22.748 53.7891 23.516C53.7891 24.092 53.6931 24.596 53.5011 25.028C53.3091 25.46 52.9731 25.772 52.4931 25.964C52.1811 26.084 51.7491 26.18 51.1971 26.252C50.6691 26.348 50.2131 26.396 49.8291 26.396ZM63.632 26.396C61.544 26.396 59.744 26.024 58.232 25.28C56.744 24.512 55.592 23.444 54.776 22.076C53.984 20.684 53.588 19.052 53.588 17.18C53.588 15.356 53.972 13.76 54.74 12.392C55.508 11 56.576 9.92 57.944 9.152C59.336 8.36 60.908 7.964 62.66 7.964C63.932 7.964 65.084 8.18 66.116 8.612C67.148 9.02 68.036 9.62 68.78 10.412C69.524 11.18 70.088 12.128 70.472 13.256C70.856 14.36 71.048 15.596 71.048 16.964C71.048 17.42 70.904 17.768 70.616 18.008C70.328 18.224 69.908 18.332 69.356 18.332H58.052V15.524H67.124L66.548 16.028C66.548 15.044 66.404 14.228 66.116 13.58C65.828 12.908 65.408 12.404 64.856 12.068C64.328 11.732 63.668 11.564 62.876 11.564C61.988 11.564 61.232 11.768 60.608 12.176C59.984 12.584 59.504 13.172 59.168 13.94C58.832 14.708 58.664 15.632 58.664 16.712V17C58.664 18.824 59.084 20.168 59.924 21.032C60.788 21.896 62.06 22.328 63.74 22.328C64.316 22.328 64.976 22.256 65.72 22.112C66.464 21.968 67.16 21.74 67.808 21.428C68.36 21.164 68.852 21.08 69.284 21.176C69.716 21.248 70.052 21.44 70.292 21.752C70.532 22.064 70.664 22.424 70.688 22.832C70.736 23.24 70.652 23.648 70.436 24.056C70.22 24.44 69.86 24.764 69.356 25.028C68.54 25.484 67.616 25.82 66.584 26.036C65.576 26.276 64.592 26.396 63.632 26.396ZM75.9378 26.324C75.0258 26.324 74.3298 26.084 73.8498 25.604C73.3698 25.124 73.1298 24.44 73.1298 23.552V10.772C73.1298 9.884 73.3578 9.212 73.8138 8.756C74.2938 8.276 74.9538 8.036 75.7938 8.036C76.6578 8.036 77.3178 8.276 77.7738 8.756C78.2298 9.212 78.4578 9.884 78.4578 10.772V12.644H78.0978C78.3858 11.204 79.0218 10.088 80.0058 9.296C80.9898 8.504 82.2618 8.06 83.8218 7.964C84.4218 7.916 84.8778 8.072 85.1898 8.432C85.5258 8.768 85.7058 9.332 85.7298 10.124C85.7778 10.868 85.6218 11.456 85.2618 11.888C84.9258 12.32 84.3498 12.584 83.5338 12.68L82.7058 12.752C81.3378 12.872 80.3178 13.268 79.6458 13.94C78.9978 14.612 78.6738 15.584 78.6738 16.856V23.552C78.6738 24.44 78.4338 25.124 77.9538 25.604C77.4978 26.084 76.8258 26.324 75.9378 26.324ZM105.148 26.324C104.236 26.324 103.54 26.072 103.06 25.568C102.58 25.064 102.34 24.344 102.34 23.408V12.968L103.492 16.172L94.9964 4.112C94.6604 3.608 94.5164 3.068 94.5644 2.492C94.6124 1.892 94.8524 1.376 95.2844 0.943999C95.7164 0.511998 96.3284 0.295998 97.1204 0.295998C97.6964 0.295998 98.2124 0.439999 98.6684 0.727999C99.1484 1.016 99.6044 1.472 100.036 2.096L105.796 10.412H104.644L110.404 2.096C110.86 1.448 111.304 0.991999 111.736 0.727999C112.192 0.439999 112.72 0.295998 113.32 0.295998C114.088 0.295998 114.688 0.499999 115.12 0.907999C115.552 1.292 115.78 1.784 115.804 2.384C115.828 2.96 115.624 3.56 115.192 4.184L106.804 16.172L107.92 12.968V23.408C107.92 25.352 106.996 26.324 105.148 26.324ZM122.929 26.396C121.033 26.396 119.377 26.024 117.961 25.28C116.569 24.536 115.489 23.468 114.721 22.076C113.953 20.684 113.569 19.04 113.569 17.144C113.569 15.728 113.785 14.456 114.217 13.328C114.649 12.2 115.273 11.24 116.089 10.448C116.929 9.632 117.925 9.02 119.077 8.612C120.229 8.18 121.513 7.964 122.929 7.964C124.825 7.964 126.469 8.336 127.861 9.08C129.277 9.824 130.369 10.88 131.137 12.248C131.929 13.616 132.325 15.248 132.325 17.144C132.325 18.584 132.097 19.868 131.641 20.996C131.209 22.124 130.585 23.096 129.769 23.912C128.953 24.728 127.957 25.352 126.781 25.784C125.629 26.192 124.345 26.396 122.929 26.396ZM122.929 22.328C123.721 22.328 124.405 22.136 124.981 21.752C125.557 21.368 126.013 20.804 126.349 20.06C126.685 19.292 126.853 18.32 126.853 17.144C126.853 15.392 126.493 14.108 125.773 13.292C125.053 12.452 124.105 12.032 122.929 12.032C122.161 12.032 121.477 12.212 120.877 12.572C120.301 12.932 119.845 13.496 119.509 14.264C119.197 15.008 119.041 15.968 119.041 17.144C119.041 18.896 119.401 20.204 120.121 21.068C120.841 21.908 121.777 22.328 122.929 22.328ZM141.068 26.396C139.58 26.396 138.344 26.12 137.36 25.568C136.376 25.016 135.644 24.188 135.164 23.084C134.708 21.956 134.48 20.564 134.48 18.908V10.772C134.48 9.86 134.708 9.176 135.164 8.72C135.644 8.264 136.316 8.036 137.18 8.036C138.044 8.036 138.716 8.264 139.196 8.72C139.676 9.176 139.916 9.86 139.916 10.772V19.052C139.916 20.108 140.132 20.9 140.564 21.428C140.996 21.932 141.68 22.184 142.616 22.184C143.648 22.184 144.488 21.824 145.136 21.104C145.808 20.36 146.144 19.388 146.144 18.188V10.772C146.144 9.86 146.372 9.176 146.828 8.72C147.308 8.264 147.98 8.036 148.844 8.036C149.732 8.036 150.404 8.264 150.86 8.72C151.34 9.176 151.58 9.86 151.58 10.772V23.552C151.58 25.4 150.704 26.324 148.952 26.324C148.088 26.324 147.428 26.084 146.972 25.604C146.516 25.124 146.288 24.44 146.288 23.552V21.14L146.828 22.544C146.3 23.768 145.544 24.716 144.56 25.388C143.576 26.06 142.412 26.396 141.068 26.396ZM157.514 26.324C156.602 26.324 155.906 26.084 155.426 25.604C154.946 25.124 154.706 24.44 154.706 23.552V10.772C154.706 9.884 154.934 9.212 155.39 8.756C155.87 8.276 156.53 8.036 157.37 8.036C158.234 8.036 158.894 8.276 159.35 8.756C159.806 9.212 160.034 9.884 160.034 10.772V12.644H159.674C159.962 11.204 160.598 10.088 161.582 9.296C162.566 8.504 163.838 8.06 165.398 7.964C165.998 7.916 166.454 8.072 166.766 8.432C167.102 8.768 167.282 9.332 167.306 10.124C167.354 10.868 167.198 11.456 166.838 11.888C166.502 12.32 165.926 12.584 165.11 12.68L164.282 12.752C162.914 12.872 161.894 13.268 161.222 13.94C160.574 14.612 160.25 15.584 160.25 16.856V23.552C160.25 24.44 160.01 25.124 159.53 25.604C159.074 26.084 158.402 26.324 157.514 26.324ZM189.677 26.396C187.181 26.396 184.985 25.856 183.089 24.776C181.217 23.672 179.753 22.136 178.697 20.168C177.665 18.2 177.149 15.908 177.149 13.292C177.149 11.3 177.437 9.512 178.013 7.928C178.613 6.32 179.465 4.952 180.569 3.824C181.673 2.672 182.993 1.784 184.529 1.16C186.089 0.535999 187.805 0.223999 189.677 0.223999C192.221 0.223999 194.429 0.763999 196.301 1.844C198.173 2.924 199.625 4.448 200.657 6.416C201.713 8.36 202.241 10.64 202.241 13.256C202.241 15.248 201.941 17.048 201.341 18.656C200.741 20.264 199.889 21.644 198.785 22.796C197.681 23.948 196.361 24.836 194.825 25.46C193.289 26.084 191.573 26.396 189.677 26.396ZM189.677 21.644C191.093 21.644 192.293 21.32 193.277 20.672C194.285 20 195.053 19.04 195.581 17.792C196.133 16.52 196.409 15.02 196.409 13.292C196.409 10.652 195.821 8.612 194.645 7.172C193.469 5.708 191.813 4.976 189.677 4.976C188.285 4.976 187.085 5.3 186.077 5.948C185.069 6.596 184.301 7.544 183.773 8.792C183.245 10.04 182.981 11.54 182.981 13.292C182.981 15.908 183.569 17.96 184.745 19.448C185.921 20.912 187.565 21.644 189.677 21.644ZM212.822 26.324C211.91 26.324 211.214 26.072 210.734 25.568C210.254 25.064 210.014 24.356 210.014 23.444V5.228H203.642C202.898 5.228 202.322 5.024 201.914 4.616C201.506 4.208 201.302 3.644 201.302 2.924C201.302 2.18 201.506 1.616 201.914 1.232C202.322 0.823999 202.898 0.619998 203.642 0.619998H221.966C222.71 0.619998 223.286 0.823999 223.694 1.232C224.102 1.616 224.306 2.18 224.306 2.924C224.306 3.644 224.102 4.208 223.694 4.616C223.286 5.024 222.71 5.228 221.966 5.228H215.594V23.444C215.594 24.356 215.354 25.064 214.874 25.568C214.418 26.072 213.734 26.324 212.822 26.324ZM228.44 26.324C227.528 26.324 226.832 26.072 226.352 25.568C225.872 25.064 225.632 24.356 225.632 23.444V3.464C225.632 2.528 225.872 1.82 226.352 1.34C226.856 0.859998 227.564 0.619998 228.476 0.619998H237.224C240.056 0.619998 242.24 1.34 243.776 2.78C245.312 4.196 246.08 6.176 246.08 8.72C246.08 11.264 245.312 13.256 243.776 14.696C242.24 16.136 240.056 16.856 237.224 16.856H231.212V23.444C231.212 24.356 230.972 25.064 230.492 25.568C230.036 26.072 229.352 26.324 228.44 26.324ZM231.212 12.536H236.288C237.728 12.536 238.82 12.212 239.564 11.564C240.332 10.916 240.716 9.968 240.716 8.72C240.716 7.472 240.332 6.536 239.564 5.912C238.82 5.288 237.728 4.976 236.288 4.976H231.212V12.536Z" fill="#09BA86"/>
</svg>
