<svg width="28" height="28" viewBox="0 0 28 28" fill="none" xmlns="http://www.w3.org/2000/svg">
<path d="M10.0001 14.6667H11.3334V12H12.6667C13.0445 12 13.3612 11.8722 13.6167 11.6167C13.8723 11.3611 14.0001 11.0444 14.0001 10.6667V9.33332C14.0001 8.95554 13.8723 8.63888 13.6167 8.38332C13.3612 8.12777 13.0445 7.99999 12.6667 7.99999H10.0001V14.6667ZM11.3334 10.6667V9.33332H12.6667V10.6667H11.3334ZM15.3334 14.6667H18.0001C18.3779 14.6667 18.6945 14.5389 18.9501 14.2833C19.2056 14.0278 19.3334 13.7111 19.3334 13.3333V9.33332C19.3334 8.95554 19.2056 8.63888 18.9501 8.38332C18.6945 8.12777 18.3779 7.99999 18.0001 7.99999H15.3334V14.6667ZM16.6667 13.3333V9.33332H18.0001V13.3333H16.6667ZM20.6667 14.6667H22.0001V12H23.3334V10.6667H22.0001V9.33332H23.3334V7.99999H20.6667V14.6667ZM8.66675 22C7.93341 22 7.30564 21.7389 6.78341 21.2167C6.26119 20.6944 6.00008 20.0667 6.00008 19.3333V3.33332C6.00008 2.59999 6.26119 1.97221 6.78341 1.44999C7.30564 0.927768 7.93341 0.666656 8.66675 0.666656H24.6667C25.4001 0.666656 26.0279 0.927768 26.5501 1.44999C27.0723 1.97221 27.3334 2.59999 27.3334 3.33332V19.3333C27.3334 20.0667 27.0723 20.6944 26.5501 21.2167C26.0279 21.7389 25.4001 22 24.6667 22H8.66675ZM8.66675 19.3333H24.6667V3.33332H8.66675V19.3333ZM3.33341 27.3333C2.60008 27.3333 1.9723 27.0722 1.45008 26.55C0.927859 26.0278 0.666748 25.4 0.666748 24.6667V5.99999H3.33341V24.6667H22.0001V27.3333H3.33341Z" fill="#1F397A"/>
</svg>
