<svg width="22" height="28" viewBox="0 0 22 28" fill="none" xmlns="http://www.w3.org/2000/svg">
<path d="M13.6666 0.666656H2.99992C2.29267 0.666656 1.6144 0.947608 1.1143 1.4477C0.614203 1.9478 0.333252 2.62608 0.333252 3.33332V24.6667C0.333252 25.3739 0.614203 26.0522 1.1143 26.5523C1.6144 27.0524 2.29267 27.3333 2.99992 27.3333H18.9999C19.7072 27.3333 20.3854 27.0524 20.8855 26.5523C21.3856 26.0522 21.6666 25.3739 21.6666 24.6667V8.66666L13.6666 0.666656ZM7.03992 19.4733C6.62259 19.864 6.00792 20.0413 5.28925 20.0413C5.12925 20.0413 4.98392 20.032 4.87325 20.016V21.9427H3.66525V16.6267C4.21016 16.5445 4.76092 16.5075 5.31192 16.516C6.06259 16.516 6.59992 16.6587 6.95859 16.9467C7.30259 17.2187 7.53459 17.6667 7.53459 18.1947C7.53459 18.7227 7.35992 19.1693 7.03992 19.4733ZM12.7759 21.944H11.4959L10.3453 19.864C10.0253 19.288 9.67325 18.5933 9.41059 17.9613L9.38525 17.9693C9.41725 18.6813 9.43325 19.4413 9.43325 20.32V21.944H8.31325V16.5547H9.73592L10.8559 18.5293C11.1759 19.0973 11.4946 19.7693 11.7346 20.376H11.7599C11.6824 19.6297 11.6477 18.8796 11.6559 18.1293V16.5533H12.7759V21.944ZM18.3346 21.696C17.754 21.8882 17.1474 21.9907 16.5359 22C15.5533 22 14.8413 21.752 14.3439 21.272C13.8493 20.808 13.5773 20.1053 13.5853 19.3133C13.5933 17.5213 14.8959 16.4987 16.6639 16.4987C17.3586 16.4987 17.8959 16.636 18.1586 16.7627L17.9039 17.7373C17.6079 17.6093 17.2399 17.5053 16.6493 17.5053C15.6333 17.5053 14.8653 18.0813 14.8653 19.2493C14.8653 20.36 15.5613 21.016 16.5599 21.016C16.8399 21.016 17.0639 20.984 17.1599 20.9347V19.8067H16.3279V18.856H18.3346V21.696ZM13.6666 9.99999H12.3333V3.33332L18.9999 9.99999H13.6666Z" fill="#1F397A"/>
</svg>
