<svg width="61" height="61" viewBox="0 0 61 61" fill="none" xmlns="http://www.w3.org/2000/svg">
<circle cx="30.5" cy="30.5" r="30.5" fill="#1F397A"/>
<path d="M30.4999 18.8335C32.047 18.8335 33.5307 19.4481 34.6247 20.542C35.7187 21.636 36.3333 23.1197 36.3333 24.6668C36.3333 26.2139 35.7187 27.6977 34.6247 28.7916C33.5307 29.8856 32.047 30.5002 30.4999 30.5002C28.9528 30.5002 27.4691 29.8856 26.3751 28.7916C25.2812 27.6977 24.6666 26.2139 24.6666 24.6668C24.6666 23.1197 25.2812 21.636 26.3751 20.542C27.4691 19.4481 28.9528 18.8335 30.4999 18.8335ZM30.4999 21.7502C29.7264 21.7502 28.9845 22.0575 28.4375 22.6044C27.8905 23.1514 27.5833 23.8933 27.5833 24.6668C27.5833 25.4404 27.8905 26.1822 28.4375 26.7292C28.9845 27.2762 29.7264 27.5835 30.4999 27.5835C31.2735 27.5835 32.0153 27.2762 32.5623 26.7292C33.1093 26.1822 33.4166 25.4404 33.4166 24.6668C33.4166 23.8933 33.1093 23.1514 32.5623 22.6044C32.0153 22.0575 31.2735 21.7502 30.4999 21.7502ZM30.4999 31.9585C34.3937 31.9585 42.1666 33.8981 42.1666 37.7918V42.1668H18.8333V37.7918C18.8333 33.8981 26.6062 31.9585 30.4999 31.9585ZM30.4999 34.7293C26.1687 34.7293 21.6041 36.8585 21.6041 37.7918V39.396H39.3958V37.7918C39.3958 36.8585 34.8312 34.7293 30.4999 34.7293Z" fill="#F9F9F9"/>
</svg>
