<svg width="327" height="26" viewBox="0 0 327 26" fill="none" xmlns="http://www.w3.org/2000/svg">
<line y1="12.5" x2="139" y2="12.5" stroke="#BDBDBD"/>
<path d="M160.152 19.162C159.3 19.162 158.562 18.976 157.938 18.604C157.314 18.232 156.828 17.71 156.48 17.038C156.144 16.354 155.976 15.55 155.976 14.626C155.976 13.93 156.072 13.306 156.264 12.754C156.456 12.19 156.738 11.71 157.11 11.314C157.482 10.918 157.92 10.618 158.424 10.414C158.94 10.198 159.516 10.09 160.152 10.09C161.004 10.09 161.742 10.276 162.366 10.648C162.99 11.02 163.47 11.548 163.806 12.232C164.154 12.904 164.328 13.702 164.328 14.626C164.328 15.322 164.232 15.946 164.04 16.498C163.848 17.05 163.566 17.53 163.194 17.938C162.822 18.334 162.378 18.64 161.862 18.856C161.358 19.06 160.788 19.162 160.152 19.162ZM160.152 17.992C160.692 17.992 161.166 17.86 161.574 17.596C161.982 17.332 162.294 16.948 162.51 16.444C162.738 15.94 162.852 15.334 162.852 14.626C162.852 13.534 162.606 12.7 162.114 12.124C161.634 11.548 160.98 11.26 160.152 11.26C159.6 11.26 159.12 11.392 158.712 11.656C158.316 11.908 158.004 12.286 157.776 12.79C157.56 13.282 157.452 13.894 157.452 14.626C157.452 15.706 157.698 16.54 158.19 17.128C158.682 17.704 159.336 17.992 160.152 17.992ZM167.506 19.126C167.266 19.126 167.08 19.06 166.948 18.928C166.828 18.796 166.768 18.61 166.768 18.37V10.864C166.768 10.624 166.828 10.444 166.948 10.324C167.068 10.192 167.242 10.126 167.47 10.126C167.698 10.126 167.872 10.192 167.992 10.324C168.124 10.444 168.19 10.624 168.19 10.864V12.322H168.01C168.202 11.614 168.568 11.068 169.108 10.684C169.648 10.3 170.314 10.096 171.106 10.072C171.286 10.06 171.43 10.102 171.538 10.198C171.646 10.282 171.706 10.432 171.718 10.648C171.73 10.852 171.682 11.014 171.574 11.134C171.466 11.254 171.298 11.326 171.07 11.35L170.782 11.386C169.966 11.458 169.336 11.722 168.892 12.178C168.46 12.622 168.244 13.234 168.244 14.014V18.37C168.244 18.61 168.178 18.796 168.046 18.928C167.926 19.06 167.746 19.126 167.506 19.126Z" fill="#555555"/>
<line x1="188" y1="12.5" x2="327" y2="12.5" stroke="#BDBDBD"/>
</svg>
