<svg width="145" height="11" viewBox="0 0 145 11" fill="none" xmlns="http://www.w3.org/2000/svg">
<path d="M0.974 10.112C0.684667 10.112 0.460667 10.0327 0.302 9.874C0.152667 9.706 0.0780001 9.47733 0.0780001 9.188V1.04C0.0780001 0.741333 0.157333 0.517333 0.316 0.368C0.474667 0.209333 0.698667 0.129999 0.988 0.129999H4.362C5.44467 0.129999 6.28 0.391333 6.868 0.913999C7.456 1.42733 7.75 2.15067 7.75 3.084C7.75 3.69067 7.61467 4.21333 7.344 4.652C7.08267 5.09067 6.7 5.42667 6.196 5.66C5.692 5.89333 5.08067 6.01 4.362 6.01L4.488 5.8H4.95C5.33267 5.8 5.664 5.89333 5.944 6.08C6.23333 6.26667 6.48533 6.56067 6.7 6.962L7.75 8.908C7.862 9.104 7.91333 9.29533 7.904 9.482C7.89467 9.66867 7.82467 9.82267 7.694 9.944C7.56333 10.056 7.372 10.112 7.12 10.112C6.868 10.112 6.66267 10.0607 6.504 9.958C6.34533 9.846 6.20533 9.678 6.084 9.454L4.67 6.85C4.502 6.53267 4.30133 6.32267 4.068 6.22C3.844 6.108 3.55467 6.052 3.2 6.052H1.87V9.188C1.87 9.47733 1.79533 9.706 1.646 9.874C1.49667 10.0327 1.27267 10.112 0.974 10.112ZM1.87 4.722H4.054C4.698 4.722 5.18333 4.59133 5.51 4.33C5.846 4.05933 6.014 3.658 6.014 3.126C6.014 2.60333 5.846 2.21133 5.51 1.95C5.18333 1.67933 4.698 1.544 4.054 1.544H1.87V4.722ZM12.4239 10.14C11.6493 10.14 10.9819 9.99533 10.4219 9.706C9.86192 9.41667 9.42792 9.006 9.11992 8.474C8.82126 7.942 8.67192 7.312 8.67192 6.584C8.67192 5.87467 8.81659 5.254 9.10592 4.722C9.40459 4.19 9.81059 3.77467 10.3239 3.476C10.8466 3.168 11.4393 3.014 12.1019 3.014C12.5873 3.014 13.0213 3.09333 13.4039 3.252C13.7959 3.41067 14.1273 3.63933 14.3979 3.938C14.6779 4.23667 14.8879 4.60067 15.0279 5.03C15.1773 5.45 15.2519 5.926 15.2519 6.458C15.2519 6.626 15.1913 6.75667 15.0699 6.85C14.9579 6.934 14.7946 6.976 14.5799 6.976H10.0859V5.968H14.0199L13.7959 6.178C13.7959 5.74867 13.7306 5.38933 13.5999 5.1C13.4786 4.81067 13.2966 4.59133 13.0539 4.442C12.8206 4.28333 12.5266 4.204 12.1719 4.204C11.7799 4.204 11.4439 4.29733 11.1639 4.484C10.8933 4.66133 10.6833 4.918 10.5339 5.254C10.3939 5.58067 10.3239 5.97267 10.3239 6.43V6.528C10.3239 7.29333 10.5013 7.86733 10.8559 8.25C11.2199 8.62333 11.7519 8.81 12.4519 8.81C12.6946 8.81 12.9653 8.782 13.2639 8.726C13.5719 8.66067 13.8613 8.55333 14.1319 8.404C14.3279 8.292 14.5006 8.24533 14.6499 8.264C14.7993 8.27333 14.9159 8.32467 14.9999 8.418C15.0933 8.51133 15.1493 8.628 15.1679 8.768C15.1866 8.89867 15.1586 9.034 15.0839 9.174C15.0186 9.314 14.9019 9.43533 14.7339 9.538C14.4073 9.74333 14.0293 9.89733 13.5999 10C13.1799 10.0933 12.7879 10.14 12.4239 10.14ZM17.1795 6.948C16.9742 6.948 16.8015 6.88267 16.6615 6.752C16.5309 6.612 16.4655 6.444 16.4655 6.248C16.4655 6.04267 16.5309 5.87467 16.6615 5.744C16.8015 5.61333 16.9742 5.548 17.1795 5.548H20.1615C20.3575 5.548 20.5209 5.61333 20.6515 5.744C20.7915 5.87467 20.8615 6.04267 20.8615 6.248C20.8615 6.444 20.7915 6.612 20.6515 6.752C20.5209 6.88267 20.3575 6.948 20.1615 6.948H17.1795ZM25.6224 10.14C25.2118 10.14 24.8011 10.1073 24.3904 10.042C23.9798 9.986 23.5924 9.89733 23.2284 9.776C22.8644 9.64533 22.5378 9.48667 22.2484 9.3C22.0804 9.188 21.9638 9.05267 21.8984 8.894C21.8331 8.73533 21.8098 8.58133 21.8284 8.432C21.8564 8.27333 21.9171 8.138 22.0104 8.026C22.1131 7.90467 22.2391 7.83 22.3884 7.802C22.5378 7.774 22.7011 7.816 22.8784 7.928C23.2891 8.17067 23.7231 8.348 24.1804 8.46C24.6378 8.572 25.1184 8.628 25.6224 8.628C26.3598 8.628 26.8964 8.50667 27.2324 8.264C27.5684 8.012 27.7364 7.69 27.7364 7.298C27.7364 6.97133 27.6151 6.71467 27.3724 6.528C27.1391 6.34133 26.7331 6.18733 26.1544 6.066L24.6144 5.744C23.7278 5.55733 23.0651 5.24467 22.6264 4.806C22.1971 4.358 21.9824 3.77 21.9824 3.042C21.9824 2.58467 22.0758 2.16933 22.2624 1.796C22.4491 1.42267 22.7104 1.10067 23.0464 0.83C23.3918 0.559333 23.7978 0.354 24.2644 0.213999C24.7404 0.0646661 25.2631 -0.0100005 25.8324 -0.0100005C26.3924 -0.0100005 26.9244 0.0599995 27.4284 0.199999C27.9324 0.339999 28.3851 0.545333 28.7864 0.816C28.9358 0.918666 29.0338 1.04467 29.0804 1.194C29.1364 1.34333 29.1504 1.49267 29.1224 1.642C29.0944 1.782 29.0291 1.90333 28.9264 2.006C28.8238 2.10867 28.6931 2.16933 28.5344 2.188C28.3851 2.20667 28.2124 2.16 28.0164 2.048C27.6711 1.852 27.3211 1.712 26.9664 1.628C26.6118 1.544 26.2291 1.502 25.8184 1.502C25.3891 1.502 25.0204 1.56267 24.7124 1.684C24.4044 1.80533 24.1664 1.978 23.9984 2.202C23.8398 2.41667 23.7604 2.67333 23.7604 2.972C23.7604 3.308 23.8724 3.57867 24.0964 3.784C24.3204 3.98 24.7031 4.134 25.2444 4.246L26.7704 4.568C27.6944 4.764 28.3804 5.072 28.8284 5.492C29.2858 5.912 29.5144 6.472 29.5144 7.172C29.5144 7.62 29.4211 8.026 29.2344 8.39C29.0571 8.754 28.7958 9.06667 28.4504 9.328C28.1144 9.58933 27.7084 9.79 27.2324 9.93C26.7564 10.07 26.2198 10.14 25.6224 10.14ZM33.9785 10.14C33.2038 10.14 32.5365 9.99533 31.9765 9.706C31.4165 9.41667 30.9825 9.006 30.6745 8.474C30.3758 7.942 30.2265 7.312 30.2265 6.584C30.2265 5.87467 30.3711 5.254 30.6605 4.722C30.9591 4.19 31.3651 3.77467 31.8785 3.476C32.4011 3.168 32.9938 3.014 33.6565 3.014C34.1418 3.014 34.5758 3.09333 34.9585 3.252C35.3505 3.41067 35.6818 3.63933 35.9525 3.938C36.2325 4.23667 36.4425 4.60067 36.5825 5.03C36.7318 5.45 36.8065 5.926 36.8065 6.458C36.8065 6.626 36.7458 6.75667 36.6245 6.85C36.5125 6.934 36.3491 6.976 36.1345 6.976H31.6405V5.968H35.5745L35.3505 6.178C35.3505 5.74867 35.2851 5.38933 35.1545 5.1C35.0331 4.81067 34.8511 4.59133 34.6085 4.442C34.3751 4.28333 34.0811 4.204 33.7265 4.204C33.3345 4.204 32.9985 4.29733 32.7185 4.484C32.4478 4.66133 32.2378 4.918 32.0885 5.254C31.9485 5.58067 31.8785 5.97267 31.8785 6.43V6.528C31.8785 7.29333 32.0558 7.86733 32.4105 8.25C32.7745 8.62333 33.3065 8.81 34.0065 8.81C34.2491 8.81 34.5198 8.782 34.8185 8.726C35.1265 8.66067 35.4158 8.55333 35.6865 8.404C35.8825 8.292 36.0551 8.24533 36.2045 8.264C36.3538 8.27333 36.4705 8.32467 36.5545 8.418C36.6478 8.51133 36.7038 8.628 36.7225 8.768C36.7411 8.89867 36.7131 9.034 36.6385 9.174C36.5731 9.314 36.4565 9.43533 36.2885 9.538C35.9618 9.74333 35.5838 9.89733 35.1545 10C34.7345 10.0933 34.3425 10.14 33.9785 10.14ZM38.7803 10.112C38.5003 10.112 38.2857 10.0373 38.1363 9.888C37.987 9.72933 37.9123 9.50533 37.9123 9.216V3.924C37.9123 3.63467 37.987 3.41533 38.1363 3.266C38.2857 3.11667 38.4957 3.042 38.7663 3.042C39.037 3.042 39.247 3.11667 39.3963 3.266C39.5457 3.41533 39.6203 3.63467 39.6203 3.924V4.876L39.4663 4.526C39.6717 4.03133 39.989 3.658 40.4183 3.406C40.857 3.14467 41.3517 3.014 41.9023 3.014C42.453 3.014 42.9057 3.11667 43.2603 3.322C43.615 3.52733 43.881 3.84 44.0583 4.26C44.2357 4.67067 44.3243 5.19333 44.3243 5.828V9.216C44.3243 9.50533 44.2497 9.72933 44.1003 9.888C43.951 10.0373 43.7363 10.112 43.4563 10.112C43.1763 10.112 42.957 10.0373 42.7983 9.888C42.649 9.72933 42.5743 9.50533 42.5743 9.216V5.912C42.5743 5.38 42.4717 4.99267 42.2663 4.75C42.0703 4.50733 41.7623 4.386 41.3423 4.386C40.829 4.386 40.4183 4.54933 40.1103 4.876C39.8117 5.19333 39.6623 5.618 39.6623 6.15V9.216C39.6623 9.81333 39.3683 10.112 38.7803 10.112ZM48.4538 10.14C47.8565 10.14 47.3291 9.99533 46.8718 9.706C46.4238 9.41667 46.0738 9.006 45.8218 8.474C45.5698 7.93267 45.4438 7.298 45.4438 6.57C45.4438 5.83267 45.5698 5.20267 45.8218 4.68C46.0738 4.148 46.4238 3.73733 46.8718 3.448C47.3291 3.15867 47.8565 3.014 48.4538 3.014C49.0231 3.014 49.5178 3.154 49.9378 3.434C50.3671 3.714 50.6565 4.08267 50.8058 4.54H50.6518V0.899999C50.6518 0.610666 50.7265 0.391333 50.8758 0.242C51.0251 0.092666 51.2398 0.0179992 51.5198 0.0179992C51.7998 0.0179992 52.0145 0.092666 52.1638 0.242C52.3225 0.391333 52.4018 0.610666 52.4018 0.899999V9.216C52.4018 9.50533 52.3271 9.72933 52.1778 9.888C52.0285 10.0373 51.8138 10.112 51.5338 10.112C51.2538 10.112 51.0391 10.0373 50.8898 9.888C50.7405 9.72933 50.6658 9.50533 50.6658 9.216V8.124L50.8198 8.544C50.6798 9.02933 50.3951 9.41667 49.9658 9.706C49.5365 9.99533 49.0325 10.14 48.4538 10.14ZM48.9438 8.81C49.2891 8.81 49.5925 8.726 49.8538 8.558C50.1151 8.39 50.3158 8.14267 50.4558 7.816C50.6051 7.48 50.6798 7.06467 50.6798 6.57C50.6798 5.82333 50.5211 5.268 50.2038 4.904C49.8865 4.53067 49.4665 4.344 48.9438 4.344C48.5985 4.344 48.2951 4.428 48.0338 4.596C47.7725 4.75467 47.5671 5.002 47.4178 5.338C47.2778 5.66467 47.2078 6.07533 47.2078 6.57C47.2078 7.30733 47.3665 7.86733 47.6838 8.25C48.0011 8.62333 48.4211 8.81 48.9438 8.81ZM60.9011 10.112C60.6118 10.112 60.3878 10.0327 60.2291 9.874C60.0798 9.706 60.0051 9.47733 60.0051 9.188V1.628H57.2751C57.0324 1.628 56.8411 1.56267 56.7011 1.432C56.5704 1.292 56.5051 1.10533 56.5051 0.872C56.5051 0.629333 56.5704 0.447333 56.7011 0.325999C56.8411 0.195333 57.0324 0.129999 57.2751 0.129999H64.5271C64.7698 0.129999 64.9564 0.195333 65.0871 0.325999C65.2271 0.447333 65.2971 0.629333 65.2971 0.872C65.2971 1.10533 65.2271 1.292 65.0871 1.432C64.9564 1.56267 64.7698 1.628 64.5271 1.628H61.7971V9.188C61.7971 9.47733 61.7224 9.706 61.5731 9.874C61.4238 10.0327 61.1998 10.112 60.9011 10.112ZM67.5061 10.112C67.2261 10.112 67.0114 10.0373 66.8621 9.888C66.7127 9.72933 66.6381 9.50533 66.6381 9.216V0.899999C66.6381 0.610666 66.7127 0.391333 66.8621 0.242C67.0114 0.092666 67.2261 0.0179992 67.5061 0.0179992C67.7861 0.0179992 68.0007 0.092666 68.1501 0.242C68.3087 0.391333 68.3881 0.610666 68.3881 0.899999V4.526H68.1921C68.3974 4.03133 68.7147 3.658 69.1441 3.406C69.5827 3.14467 70.0774 3.014 70.6281 3.014C71.1787 3.014 71.6314 3.11667 71.9861 3.322C72.3407 3.52733 72.6067 3.84 72.7841 4.26C72.9614 4.67067 73.0501 5.19333 73.0501 5.828V9.216C73.0501 9.50533 72.9754 9.72933 72.8261 9.888C72.6767 10.0373 72.4621 10.112 72.1821 10.112C71.9021 10.112 71.6827 10.0373 71.5241 9.888C71.3747 9.72933 71.3001 9.50533 71.3001 9.216V5.912C71.3001 5.38 71.1974 4.99267 70.9921 4.75C70.7961 4.50733 70.4881 4.386 70.0681 4.386C69.5547 4.386 69.1441 4.54933 68.8361 4.876C68.5374 5.19333 68.3881 5.618 68.3881 6.15V9.216C68.3881 9.81333 68.0941 10.112 67.5061 10.112ZM77.9215 10.14C77.1468 10.14 76.4795 9.99533 75.9195 9.706C75.3595 9.41667 74.9255 9.006 74.6175 8.474C74.3188 7.942 74.1695 7.312 74.1695 6.584C74.1695 5.87467 74.3142 5.254 74.6035 4.722C74.9022 4.19 75.3082 3.77467 75.8215 3.476C76.3442 3.168 76.9368 3.014 77.5995 3.014C78.0848 3.014 78.5188 3.09333 78.9015 3.252C79.2935 3.41067 79.6248 3.63933 79.8955 3.938C80.1755 4.23667 80.3855 4.60067 80.5255 5.03C80.6748 5.45 80.7495 5.926 80.7495 6.458C80.7495 6.626 80.6888 6.75667 80.5675 6.85C80.4555 6.934 80.2922 6.976 80.0775 6.976H75.5835V5.968H79.5175L79.2935 6.178C79.2935 5.74867 79.2282 5.38933 79.0975 5.1C78.9762 4.81067 78.7942 4.59133 78.5515 4.442C78.3182 4.28333 78.0242 4.204 77.6695 4.204C77.2775 4.204 76.9415 4.29733 76.6615 4.484C76.3908 4.66133 76.1808 4.918 76.0315 5.254C75.8915 5.58067 75.8215 5.97267 75.8215 6.43V6.528C75.8215 7.29333 75.9988 7.86733 76.3535 8.25C76.7175 8.62333 77.2495 8.81 77.9495 8.81C78.1922 8.81 78.4628 8.782 78.7615 8.726C79.0695 8.66067 79.3588 8.55333 79.6295 8.404C79.8255 8.292 79.9982 8.24533 80.1475 8.264C80.2968 8.27333 80.4135 8.32467 80.4975 8.418C80.5908 8.51133 80.6468 8.628 80.6655 8.768C80.6842 8.89867 80.6562 9.034 80.5815 9.174C80.5162 9.314 80.3995 9.43533 80.2315 9.538C79.9048 9.74333 79.5268 9.89733 79.0975 10C78.6775 10.0933 78.2855 10.14 77.9215 10.14ZM89.9682 10.14C89.0162 10.14 88.1808 9.93 87.4622 9.51C86.7528 9.09 86.2022 8.502 85.8102 7.746C85.4182 6.98067 85.2222 6.08467 85.2222 5.058C85.2222 4.28333 85.3342 3.588 85.5582 2.972C85.7822 2.34667 86.0995 1.81467 86.5102 1.376C86.9302 0.927999 87.4295 0.587333 88.0082 0.354C88.5962 0.111333 89.2495 -0.0100005 89.9682 -0.0100005C90.9295 -0.0100005 91.7648 0.2 92.4742 0.62C93.1835 1.03067 93.7342 1.614 94.1262 2.37C94.5182 3.126 94.7142 4.01733 94.7142 5.044C94.7142 5.81867 94.6022 6.51867 94.3782 7.144C94.1542 7.76933 93.8322 8.306 93.4122 8.754C93.0015 9.202 92.5022 9.54733 91.9142 9.79C91.3355 10.0233 90.6868 10.14 89.9682 10.14ZM89.9682 8.6C90.5748 8.6 91.0882 8.46 91.5082 8.18C91.9375 7.9 92.2642 7.494 92.4882 6.962C92.7215 6.43 92.8382 5.79533 92.8382 5.058C92.8382 3.938 92.5862 3.07 92.0822 2.454C91.5875 1.838 90.8828 1.53 89.9682 1.53C89.3708 1.53 88.8575 1.67 88.4282 1.95C87.9988 2.22067 87.6675 2.622 87.4342 3.154C87.2102 3.67667 87.0982 4.31133 87.0982 5.058C87.0982 6.16867 87.3502 7.03667 87.8542 7.662C88.3582 8.28733 89.0628 8.6 89.9682 8.6ZM98.9308 10.112C98.6415 10.112 98.4175 10.0327 98.2588 9.874C98.1095 9.706 98.0348 9.47733 98.0348 9.188V1.628H95.3048C95.0621 1.628 94.8708 1.56267 94.7308 1.432C94.6001 1.292 94.5348 1.10533 94.5348 0.872C94.5348 0.629333 94.6001 0.447333 94.7308 0.325999C94.8708 0.195333 95.0621 0.129999 95.3048 0.129999H102.557C102.799 0.129999 102.986 0.195333 103.117 0.325999C103.257 0.447333 103.327 0.629333 103.327 0.872C103.327 1.10533 103.257 1.292 103.117 1.432C102.986 1.56267 102.799 1.628 102.557 1.628H99.8268V9.188C99.8268 9.47733 99.7521 9.706 99.6028 9.874C99.4535 10.0327 99.2295 10.112 98.9308 10.112ZM104.966 10.112C104.677 10.112 104.453 10.0327 104.294 9.874C104.145 9.706 104.07 9.47733 104.07 9.188V1.04C104.07 0.741333 104.149 0.517333 104.308 0.368C104.467 0.209333 104.691 0.129999 104.98 0.129999H108.354C109.437 0.129999 110.272 0.400666 110.86 0.942C111.448 1.48333 111.742 2.23933 111.742 3.21C111.742 4.18067 111.448 4.94133 110.86 5.492C110.272 6.03333 109.437 6.304 108.354 6.304H105.862V9.188C105.862 9.47733 105.787 9.706 105.638 9.874C105.489 10.0327 105.265 10.112 104.966 10.112ZM105.862 4.89H108.074C108.709 4.89 109.189 4.75 109.516 4.47C109.843 4.18067 110.006 3.76067 110.006 3.21C110.006 2.65933 109.843 2.244 109.516 1.964C109.189 1.684 108.709 1.544 108.074 1.544H105.862V4.89ZM117.284 10.112C117.013 10.112 116.803 10.0373 116.654 9.888C116.514 9.73867 116.444 9.524 116.444 9.244V0.913999C116.444 0.624666 116.514 0.405333 116.654 0.255999C116.803 0.0973326 116.994 0.0179992 117.228 0.0179992C117.442 0.0179992 117.601 0.0599992 117.704 0.143999C117.816 0.218666 117.946 0.349333 118.096 0.535999L123.458 7.494H123.094V0.872C123.094 0.601333 123.164 0.391333 123.304 0.242C123.453 0.092666 123.663 0.0179992 123.934 0.0179992C124.204 0.0179992 124.41 0.092666 124.55 0.242C124.69 0.391333 124.76 0.601333 124.76 0.872V9.272C124.76 9.53333 124.694 9.73867 124.564 9.888C124.433 10.0373 124.256 10.112 124.032 10.112C123.817 10.112 123.644 10.07 123.514 9.986C123.392 9.902 123.257 9.76667 123.108 9.58L117.76 2.622H118.11V9.244C118.11 9.524 118.04 9.73867 117.9 9.888C117.76 10.0373 117.554 10.112 117.284 10.112ZM129.59 10.14C128.881 10.14 128.265 9.99533 127.742 9.706C127.22 9.41667 126.814 9.006 126.524 8.474C126.235 7.93267 126.09 7.298 126.09 6.57C126.09 6.01933 126.17 5.52933 126.328 5.1C126.496 4.66133 126.734 4.288 127.042 3.98C127.35 3.66267 127.719 3.42467 128.148 3.266C128.578 3.098 129.058 3.014 129.59 3.014C130.3 3.014 130.916 3.15867 131.438 3.448C131.961 3.73733 132.367 4.148 132.656 4.68C132.946 5.212 133.09 5.842 133.09 6.57C133.09 7.12067 133.006 7.61533 132.838 8.054C132.68 8.49267 132.446 8.87067 132.138 9.188C131.83 9.496 131.462 9.734 131.032 9.902C130.603 10.0607 130.122 10.14 129.59 10.14ZM129.59 8.81C129.936 8.81 130.239 8.726 130.5 8.558C130.762 8.39 130.962 8.14267 131.102 7.816C131.252 7.48 131.326 7.06467 131.326 6.57C131.326 5.82333 131.168 5.268 130.85 4.904C130.533 4.53067 130.113 4.344 129.59 4.344C129.245 4.344 128.942 4.428 128.68 4.596C128.419 4.75467 128.214 5.002 128.064 5.338C127.924 5.66467 127.854 6.07533 127.854 6.57C127.854 7.30733 128.013 7.86733 128.33 8.25C128.648 8.62333 129.068 8.81 129.59 8.81ZM136.764 10.112C136.531 10.112 136.33 10.056 136.162 9.944C135.994 9.82267 135.859 9.636 135.756 9.384L133.726 4.204C133.642 3.98 133.614 3.784 133.642 3.616C133.679 3.43867 133.768 3.29867 133.908 3.196C134.048 3.09333 134.235 3.042 134.468 3.042C134.673 3.042 134.841 3.09333 134.972 3.196C135.103 3.28933 135.215 3.47133 135.308 3.742L137.002 8.404H136.68L138.43 3.63C138.505 3.42467 138.603 3.27533 138.724 3.182C138.855 3.08867 139.023 3.042 139.228 3.042C139.433 3.042 139.601 3.09333 139.732 3.196C139.863 3.28933 139.961 3.434 140.026 3.63L141.748 8.404H141.454L143.162 3.7C143.255 3.448 143.372 3.27533 143.512 3.182C143.661 3.08867 143.825 3.042 144.002 3.042C144.226 3.042 144.399 3.098 144.52 3.21C144.641 3.322 144.711 3.46667 144.73 3.644C144.749 3.812 144.716 3.99867 144.632 4.204L142.616 9.384C142.523 9.62667 142.387 9.80867 142.21 9.93C142.042 10.0513 141.841 10.112 141.608 10.112C141.375 10.112 141.169 10.0513 140.992 9.93C140.824 9.80867 140.693 9.62667 140.6 9.384L138.766 4.526H139.564L137.772 9.37C137.679 9.622 137.548 9.80867 137.38 9.93C137.212 10.0513 137.007 10.112 136.764 10.112Z" fill="#F44336"/>
</svg>
