<svg width="343" height="56" viewBox="0 0 343 56" fill="none" xmlns="http://www.w3.org/2000/svg">
<rect width="343" height="56" rx="16" fill="#0BAB7C"/>
<path d="M88.182 33.662C87.726 33.662 87.378 33.536 87.138 33.284C86.898 33.032 86.778 32.678 86.778 32.222V22.232C86.778 21.764 86.898 21.41 87.138 21.17C87.39 20.93 87.744 20.81 88.2 20.81H92.574C93.99 20.81 95.082 21.152 95.85 21.836C96.618 22.52 97.002 23.474 97.002 24.698C97.002 25.49 96.828 26.174 96.48 26.75C96.132 27.326 95.628 27.77 94.968 28.082C94.32 28.394 93.522 28.55 92.574 28.55L92.718 28.244H93.456C93.96 28.244 94.398 28.37 94.77 28.622C95.154 28.862 95.484 29.234 95.76 29.738L96.876 31.808C97.044 32.108 97.122 32.402 97.11 32.69C97.098 32.978 96.99 33.212 96.786 33.392C96.582 33.572 96.282 33.662 95.886 33.662C95.49 33.662 95.166 33.578 94.914 33.41C94.674 33.242 94.458 32.984 94.266 32.636L92.538 29.45C92.358 29.114 92.136 28.886 91.872 28.766C91.62 28.646 91.308 28.586 90.936 28.586H89.568V32.222C89.568 32.678 89.448 33.032 89.208 33.284C88.98 33.536 88.638 33.662 88.182 33.662ZM89.568 26.57H92.07C92.814 26.57 93.372 26.42 93.744 26.12C94.128 25.82 94.32 25.37 94.32 24.77C94.32 24.182 94.128 23.738 93.744 23.438C93.372 23.138 92.814 22.988 92.07 22.988H89.568V26.57ZM103.061 33.698C102.017 33.698 101.117 33.512 100.361 33.14C99.6171 32.756 99.0411 32.222 98.6331 31.538C98.2371 30.842 98.0391 30.026 98.0391 29.09C98.0391 28.178 98.2311 27.38 98.6151 26.696C98.9991 26 99.5331 25.46 100.217 25.076C100.913 24.68 101.699 24.482 102.575 24.482C103.211 24.482 103.787 24.59 104.303 24.806C104.819 25.01 105.263 25.31 105.635 25.706C106.007 26.09 106.289 26.564 106.481 27.128C106.673 27.68 106.769 28.298 106.769 28.982C106.769 29.21 106.697 29.384 106.553 29.504C106.409 29.612 106.199 29.666 105.923 29.666H100.271V28.262H104.807L104.519 28.514C104.519 28.022 104.447 27.614 104.303 27.29C104.159 26.954 103.949 26.702 103.673 26.534C103.409 26.366 103.079 26.282 102.683 26.282C102.239 26.282 101.861 26.384 101.549 26.588C101.237 26.792 100.997 27.086 100.829 27.47C100.661 27.854 100.577 28.316 100.577 28.856V29C100.577 29.912 100.787 30.584 101.207 31.016C101.639 31.448 102.275 31.664 103.115 31.664C103.403 31.664 103.733 31.628 104.105 31.556C104.477 31.484 104.825 31.37 105.149 31.214C105.425 31.082 105.671 31.04 105.887 31.088C106.103 31.124 106.271 31.22 106.391 31.376C106.511 31.532 106.577 31.712 106.589 31.916C106.613 32.12 106.571 32.324 106.463 32.528C106.355 32.72 106.175 32.882 105.923 33.014C105.515 33.242 105.053 33.41 104.537 33.518C104.033 33.638 103.541 33.698 103.061 33.698ZM111.374 33.698C110.846 33.698 110.3 33.65 109.736 33.554C109.184 33.458 108.68 33.296 108.224 33.068C107.984 32.948 107.81 32.798 107.702 32.618C107.606 32.426 107.564 32.234 107.576 32.042C107.588 31.85 107.648 31.676 107.756 31.52C107.876 31.364 108.026 31.262 108.206 31.214C108.398 31.154 108.608 31.172 108.836 31.268C109.328 31.472 109.778 31.616 110.186 31.7C110.594 31.784 110.996 31.826 111.392 31.826C111.908 31.826 112.28 31.748 112.508 31.592C112.748 31.424 112.868 31.208 112.868 30.944C112.868 30.704 112.79 30.524 112.634 30.404C112.478 30.284 112.25 30.2 111.95 30.152L110.06 29.81C109.316 29.678 108.74 29.408 108.332 29C107.936 28.58 107.738 28.046 107.738 27.398C107.738 26.798 107.906 26.282 108.242 25.85C108.578 25.406 109.04 25.07 109.628 24.842C110.228 24.602 110.906 24.482 111.662 24.482C112.202 24.482 112.7 24.53 113.156 24.626C113.612 24.722 114.05 24.878 114.47 25.094C114.686 25.202 114.836 25.346 114.92 25.526C115.016 25.706 115.046 25.892 115.01 26.084C114.986 26.276 114.914 26.45 114.794 26.606C114.674 26.762 114.518 26.864 114.326 26.912C114.146 26.96 113.936 26.936 113.696 26.84C113.312 26.66 112.958 26.534 112.634 26.462C112.31 26.378 111.998 26.336 111.698 26.336C111.158 26.336 110.768 26.426 110.528 26.606C110.288 26.774 110.168 26.99 110.168 27.254C110.168 27.458 110.234 27.632 110.366 27.776C110.51 27.908 110.726 27.998 111.014 28.046L112.904 28.388C113.684 28.52 114.278 28.784 114.686 29.18C115.094 29.564 115.298 30.092 115.298 30.764C115.298 31.676 114.938 32.396 114.218 32.924C113.51 33.44 112.562 33.698 111.374 33.698ZM121.079 33.698C120.035 33.698 119.135 33.512 118.379 33.14C117.635 32.756 117.059 32.222 116.651 31.538C116.255 30.842 116.057 30.026 116.057 29.09C116.057 28.178 116.249 27.38 116.633 26.696C117.017 26 117.551 25.46 118.235 25.076C118.931 24.68 119.717 24.482 120.593 24.482C121.229 24.482 121.805 24.59 122.321 24.806C122.837 25.01 123.281 25.31 123.653 25.706C124.025 26.09 124.307 26.564 124.499 27.128C124.691 27.68 124.787 28.298 124.787 28.982C124.787 29.21 124.715 29.384 124.571 29.504C124.427 29.612 124.217 29.666 123.941 29.666H118.289V28.262H122.825L122.537 28.514C122.537 28.022 122.465 27.614 122.321 27.29C122.177 26.954 121.967 26.702 121.691 26.534C121.427 26.366 121.097 26.282 120.701 26.282C120.257 26.282 119.879 26.384 119.567 26.588C119.255 26.792 119.015 27.086 118.847 27.47C118.679 27.854 118.595 28.316 118.595 28.856V29C118.595 29.912 118.805 30.584 119.225 31.016C119.657 31.448 120.293 31.664 121.133 31.664C121.421 31.664 121.751 31.628 122.123 31.556C122.495 31.484 122.843 31.37 123.167 31.214C123.443 31.082 123.689 31.04 123.905 31.088C124.121 31.124 124.289 31.22 124.409 31.376C124.529 31.532 124.595 31.712 124.607 31.916C124.631 32.12 124.589 32.324 124.481 32.528C124.373 32.72 124.193 32.882 123.941 33.014C123.533 33.242 123.071 33.41 122.555 33.518C122.051 33.638 121.559 33.698 121.079 33.698ZM130.294 33.698C129.466 33.698 128.77 33.56 128.206 33.284C127.654 33.008 127.24 32.606 126.964 32.078C126.7 31.55 126.568 30.884 126.568 30.08V26.696H125.812C125.476 26.696 125.212 26.606 125.02 26.426C124.84 26.246 124.75 26 124.75 25.688C124.75 25.352 124.84 25.1 125.02 24.932C125.212 24.752 125.476 24.662 125.812 24.662H126.568V23.294C126.568 22.838 126.688 22.496 126.928 22.268C127.168 22.028 127.504 21.908 127.936 21.908C128.38 21.908 128.716 22.028 128.944 22.268C129.172 22.496 129.286 22.838 129.286 23.294V24.662H130.996C131.332 24.662 131.59 24.752 131.77 24.932C131.95 25.1 132.04 25.352 132.04 25.688C132.04 26 131.95 26.246 131.77 26.426C131.59 26.606 131.332 26.696 130.996 26.696H129.286V29.972C129.286 30.476 129.4 30.854 129.628 31.106C129.868 31.358 130.246 31.484 130.762 31.484C130.942 31.484 131.11 31.466 131.266 31.43C131.422 31.394 131.566 31.37 131.698 31.358C131.866 31.346 132.004 31.4 132.112 31.52C132.22 31.628 132.274 31.874 132.274 32.258C132.274 32.546 132.226 32.798 132.13 33.014C132.034 33.23 131.866 33.386 131.626 33.482C131.47 33.542 131.254 33.59 130.978 33.626C130.714 33.674 130.486 33.698 130.294 33.698ZM139.178 33.662C138.722 33.662 138.374 33.536 138.134 33.284C137.894 33.032 137.774 32.678 137.774 32.222V22.232C137.774 21.764 137.894 21.41 138.134 21.17C138.386 20.93 138.74 20.81 139.196 20.81H143.57C144.986 20.81 146.078 21.17 146.846 21.89C147.614 22.598 147.998 23.588 147.998 24.86C147.998 26.132 147.614 27.128 146.846 27.848C146.078 28.568 144.986 28.928 143.57 28.928H140.564V32.222C140.564 32.678 140.444 33.032 140.204 33.284C139.976 33.536 139.634 33.662 139.178 33.662ZM140.564 26.768H143.102C143.822 26.768 144.368 26.606 144.74 26.282C145.124 25.958 145.316 25.484 145.316 24.86C145.316 24.236 145.124 23.768 144.74 23.456C144.368 23.144 143.822 22.988 143.102 22.988H140.564V26.768ZM151.717 33.698C151.069 33.698 150.487 33.572 149.971 33.32C149.455 33.068 149.053 32.726 148.765 32.294C148.477 31.862 148.333 31.376 148.333 30.836C148.333 30.188 148.501 29.678 148.837 29.306C149.173 28.922 149.719 28.652 150.475 28.496C151.231 28.328 152.233 28.244 153.481 28.244H154.435V29.648H153.499C152.887 29.648 152.389 29.684 152.005 29.756C151.633 29.816 151.363 29.924 151.195 30.08C151.039 30.236 150.961 30.452 150.961 30.728C150.961 31.064 151.075 31.34 151.303 31.556C151.543 31.772 151.885 31.88 152.329 31.88C152.677 31.88 152.983 31.802 153.247 31.646C153.523 31.478 153.739 31.256 153.895 30.98C154.051 30.692 154.129 30.368 154.129 30.008V27.938C154.129 27.41 154.009 27.038 153.769 26.822C153.529 26.594 153.121 26.48 152.545 26.48C152.221 26.48 151.867 26.522 151.483 26.606C151.111 26.678 150.697 26.804 150.241 26.984C149.977 27.104 149.743 27.134 149.539 27.074C149.335 27.002 149.179 26.882 149.071 26.714C148.963 26.534 148.909 26.342 148.909 26.138C148.909 25.922 148.969 25.718 149.089 25.526C149.209 25.322 149.407 25.172 149.683 25.076C150.247 24.848 150.775 24.692 151.267 24.608C151.771 24.524 152.233 24.482 152.653 24.482C153.577 24.482 154.333 24.62 154.921 24.896C155.521 25.16 155.971 25.574 156.271 26.138C156.571 26.69 156.721 27.404 156.721 28.28V32.276C156.721 32.72 156.613 33.062 156.397 33.302C156.181 33.542 155.869 33.662 155.461 33.662C155.053 33.662 154.735 33.542 154.507 33.302C154.291 33.062 154.183 32.72 154.183 32.276V31.61L154.309 31.718C154.237 32.126 154.081 32.48 153.841 32.78C153.613 33.068 153.319 33.296 152.959 33.464C152.599 33.62 152.185 33.698 151.717 33.698ZM161.773 33.698C161.245 33.698 160.699 33.65 160.135 33.554C159.583 33.458 159.079 33.296 158.623 33.068C158.383 32.948 158.209 32.798 158.101 32.618C158.005 32.426 157.963 32.234 157.975 32.042C157.987 31.85 158.047 31.676 158.155 31.52C158.275 31.364 158.425 31.262 158.605 31.214C158.797 31.154 159.007 31.172 159.235 31.268C159.727 31.472 160.177 31.616 160.585 31.7C160.993 31.784 161.395 31.826 161.791 31.826C162.307 31.826 162.679 31.748 162.907 31.592C163.147 31.424 163.267 31.208 163.267 30.944C163.267 30.704 163.189 30.524 163.033 30.404C162.877 30.284 162.649 30.2 162.349 30.152L160.459 29.81C159.715 29.678 159.139 29.408 158.731 29C158.335 28.58 158.137 28.046 158.137 27.398C158.137 26.798 158.305 26.282 158.641 25.85C158.977 25.406 159.439 25.07 160.027 24.842C160.627 24.602 161.305 24.482 162.061 24.482C162.601 24.482 163.099 24.53 163.555 24.626C164.011 24.722 164.449 24.878 164.869 25.094C165.085 25.202 165.235 25.346 165.319 25.526C165.415 25.706 165.445 25.892 165.409 26.084C165.385 26.276 165.313 26.45 165.193 26.606C165.073 26.762 164.917 26.864 164.725 26.912C164.545 26.96 164.335 26.936 164.095 26.84C163.711 26.66 163.357 26.534 163.033 26.462C162.709 26.378 162.397 26.336 162.097 26.336C161.557 26.336 161.167 26.426 160.927 26.606C160.687 26.774 160.567 26.99 160.567 27.254C160.567 27.458 160.633 27.632 160.765 27.776C160.909 27.908 161.125 27.998 161.413 28.046L163.303 28.388C164.083 28.52 164.677 28.784 165.085 29.18C165.493 29.564 165.697 30.092 165.697 30.764C165.697 31.676 165.337 32.396 164.617 32.924C163.909 33.44 162.961 33.698 161.773 33.698ZM170.272 33.698C169.744 33.698 169.198 33.65 168.634 33.554C168.082 33.458 167.578 33.296 167.122 33.068C166.882 32.948 166.708 32.798 166.6 32.618C166.504 32.426 166.462 32.234 166.474 32.042C166.486 31.85 166.546 31.676 166.654 31.52C166.774 31.364 166.924 31.262 167.104 31.214C167.296 31.154 167.506 31.172 167.734 31.268C168.226 31.472 168.676 31.616 169.084 31.7C169.492 31.784 169.894 31.826 170.29 31.826C170.806 31.826 171.178 31.748 171.406 31.592C171.646 31.424 171.766 31.208 171.766 30.944C171.766 30.704 171.688 30.524 171.532 30.404C171.376 30.284 171.148 30.2 170.848 30.152L168.958 29.81C168.214 29.678 167.638 29.408 167.23 29C166.834 28.58 166.636 28.046 166.636 27.398C166.636 26.798 166.804 26.282 167.14 25.85C167.476 25.406 167.938 25.07 168.526 24.842C169.126 24.602 169.804 24.482 170.56 24.482C171.1 24.482 171.598 24.53 172.054 24.626C172.51 24.722 172.948 24.878 173.368 25.094C173.584 25.202 173.734 25.346 173.818 25.526C173.914 25.706 173.944 25.892 173.908 26.084C173.884 26.276 173.812 26.45 173.692 26.606C173.572 26.762 173.416 26.864 173.224 26.912C173.044 26.96 172.834 26.936 172.594 26.84C172.21 26.66 171.856 26.534 171.532 26.462C171.208 26.378 170.896 26.336 170.596 26.336C170.056 26.336 169.666 26.426 169.426 26.606C169.186 26.774 169.066 26.99 169.066 27.254C169.066 27.458 169.132 27.632 169.264 27.776C169.408 27.908 169.624 27.998 169.912 28.046L171.802 28.388C172.582 28.52 173.176 28.784 173.584 29.18C173.992 29.564 174.196 30.092 174.196 30.764C174.196 31.676 173.836 32.396 173.116 32.924C172.408 33.44 171.46 33.698 170.272 33.698ZM178.848 33.662C178.488 33.662 178.182 33.578 177.93 33.41C177.678 33.23 177.474 32.948 177.318 32.564L174.78 26.282C174.648 25.946 174.606 25.652 174.654 25.4C174.702 25.136 174.828 24.926 175.032 24.77C175.248 24.602 175.542 24.518 175.914 24.518C176.226 24.518 176.484 24.596 176.688 24.752C176.892 24.896 177.066 25.178 177.21 25.598L179.19 30.872H178.776L180.828 25.364C180.924 25.076 181.062 24.866 181.242 24.734C181.434 24.59 181.68 24.518 181.98 24.518C182.28 24.518 182.52 24.59 182.7 24.734C182.892 24.878 183.042 25.088 183.15 25.364L185.166 30.872H184.824L186.786 25.526C186.93 25.142 187.116 24.878 187.344 24.734C187.572 24.59 187.818 24.518 188.082 24.518C188.418 24.518 188.676 24.602 188.856 24.77C189.048 24.938 189.156 25.154 189.18 25.418C189.216 25.682 189.168 25.97 189.036 26.282L186.516 32.564C186.372 32.936 186.168 33.212 185.904 33.392C185.652 33.572 185.346 33.662 184.986 33.662C184.638 33.662 184.332 33.572 184.068 33.392C183.816 33.212 183.612 32.936 183.456 32.564L181.296 26.948H182.466L180.36 32.546C180.216 32.918 180.018 33.2 179.766 33.392C179.514 33.572 179.208 33.662 178.848 33.662ZM194.393 33.698C193.445 33.698 192.617 33.512 191.909 33.14C191.213 32.768 190.673 32.234 190.289 31.538C189.905 30.842 189.713 30.02 189.713 29.072C189.713 28.364 189.821 27.728 190.037 27.164C190.253 26.6 190.565 26.12 190.973 25.724C191.393 25.316 191.891 25.01 192.467 24.806C193.043 24.59 193.685 24.482 194.393 24.482C195.341 24.482 196.163 24.668 196.859 25.04C197.567 25.412 198.113 25.94 198.497 26.624C198.893 27.308 199.091 28.124 199.091 29.072C199.091 29.792 198.977 30.434 198.749 30.998C198.533 31.562 198.221 32.048 197.813 32.456C197.405 32.864 196.907 33.176 196.319 33.392C195.743 33.596 195.101 33.698 194.393 33.698ZM194.393 31.664C194.789 31.664 195.131 31.568 195.419 31.376C195.707 31.184 195.935 30.902 196.103 30.53C196.271 30.146 196.355 29.66 196.355 29.072C196.355 28.196 196.175 27.554 195.815 27.146C195.455 26.726 194.981 26.516 194.393 26.516C194.009 26.516 193.667 26.606 193.367 26.786C193.079 26.966 192.851 27.248 192.683 27.632C192.527 28.004 192.449 28.484 192.449 29.072C192.449 29.948 192.629 30.602 192.989 31.034C193.349 31.454 193.817 31.664 194.393 31.664ZM201.788 33.662C201.332 33.662 200.984 33.542 200.744 33.302C200.504 33.062 200.384 32.72 200.384 32.276V25.886C200.384 25.442 200.498 25.106 200.726 24.878C200.966 24.638 201.296 24.518 201.716 24.518C202.148 24.518 202.478 24.638 202.706 24.878C202.934 25.106 203.048 25.442 203.048 25.886V26.822H202.868C203.012 26.102 203.33 25.544 203.822 25.148C204.314 24.752 204.95 24.53 205.73 24.482C206.03 24.458 206.258 24.536 206.414 24.716C206.582 24.884 206.672 25.166 206.684 25.562C206.708 25.934 206.63 26.228 206.45 26.444C206.282 26.66 205.994 26.792 205.586 26.84L205.172 26.876C204.488 26.936 203.978 27.134 203.642 27.47C203.318 27.806 203.156 28.292 203.156 28.928V32.276C203.156 32.72 203.036 33.062 202.796 33.302C202.568 33.542 202.232 33.662 201.788 33.662ZM210.722 33.698C209.954 33.698 209.276 33.512 208.688 33.14C208.112 32.768 207.662 32.234 207.338 31.538C207.014 30.842 206.852 30.02 206.852 29.072C206.852 28.124 207.014 27.308 207.338 26.624C207.662 25.94 208.112 25.412 208.688 25.04C209.276 24.668 209.954 24.482 210.722 24.482C211.418 24.482 212.03 24.65 212.558 24.986C213.098 25.322 213.464 25.76 213.656 26.3H213.458V22.034C213.458 21.578 213.572 21.236 213.8 21.008C214.028 20.768 214.364 20.648 214.808 20.648C215.24 20.648 215.576 20.768 215.816 21.008C216.056 21.236 216.176 21.578 216.176 22.034V32.276C216.176 32.72 216.056 33.062 215.816 33.302C215.588 33.542 215.258 33.662 214.826 33.662C214.394 33.662 214.058 33.542 213.818 33.302C213.59 33.062 213.476 32.72 213.476 32.276V31.052L213.674 31.754C213.506 32.342 213.146 32.816 212.594 33.176C212.054 33.524 211.43 33.698 210.722 33.698ZM211.532 31.664C211.928 31.664 212.27 31.568 212.558 31.376C212.846 31.184 213.074 30.902 213.242 30.53C213.41 30.146 213.494 29.66 213.494 29.072C213.494 28.196 213.314 27.554 212.954 27.146C212.594 26.726 212.12 26.516 211.532 26.516C211.148 26.516 210.806 26.606 210.506 26.786C210.218 26.966 209.99 27.248 209.822 27.632C209.666 28.004 209.588 28.484 209.588 29.072C209.588 29.948 209.768 30.602 210.128 31.034C210.488 31.454 210.956 31.664 211.532 31.664Z" fill="white"/>
<path d="M236.5 28L253.5 28" stroke="white" stroke-width="2" stroke-linecap="round" stroke-linejoin="round"/>
<path d="M249.5 22L250.975 23.4745C252.559 25.0586 253.351 25.8506 253.647 26.7639C253.908 27.5673 253.908 28.4327 253.647 29.2361C253.351 30.1494 252.559 30.9414 250.975 32.5255L249.5 34" stroke="white" stroke-width="2" stroke-linecap="round" stroke-linejoin="round"/>
</svg>
