<svg width="109" height="34" viewBox="0 0 109 34" fill="none" xmlns="http://www.w3.org/2000/svg">
<path d="M10.1649 27.396C9.15688 27.396 8.12488 27.312 7.06888 27.144C6.03688 27 5.04088 26.784 4.08088 26.496C3.14488 26.208 2.30488 25.848 1.56088 25.416C1.03288 25.128 0.660881 24.756 0.444881 24.3C0.228881 23.82 0.144881 23.34 0.192881 22.86C0.264881 22.38 0.444881 21.96 0.732881 21.6C1.04488 21.216 1.42888 20.976 1.88488 20.88C2.36488 20.76 2.89288 20.844 3.46888 21.132C4.45288 21.684 5.52088 22.092 6.67288 22.356C7.84888 22.62 9.01288 22.752 10.1649 22.752C11.9169 22.752 13.1649 22.488 13.9089 21.96C14.6529 21.408 15.0249 20.724 15.0249 19.908C15.0249 19.212 14.7609 18.66 14.2329 18.252C13.7049 17.844 12.7809 17.496 11.4609 17.208L7.39288 16.344C5.08888 15.864 3.37288 15.048 2.24488 13.896C1.14088 12.72 0.588881 11.184 0.588881 9.288C0.588881 8.088 0.840881 6.996 1.34488 6.012C1.84888 5.028 2.55688 4.176 3.46888 3.456C4.38088 2.736 5.46088 2.184 6.70888 1.8C7.98088 1.416 9.37288 1.224 10.8849 1.224C12.2289 1.224 13.5489 1.392 14.8449 1.728C16.1409 2.04 17.2809 2.508 18.2649 3.132C18.7449 3.42 19.0689 3.792 19.2369 4.248C19.4289 4.68 19.4889 5.124 19.4169 5.58C19.3689 6.012 19.1889 6.396 18.8769 6.732C18.5889 7.068 18.2169 7.284 17.7609 7.38C17.3049 7.476 16.7529 7.368 16.1049 7.056C15.3129 6.648 14.4729 6.348 13.5849 6.156C12.6969 5.964 11.7849 5.868 10.8489 5.868C9.84088 5.868 8.97688 6 8.25688 6.264C7.56088 6.528 7.02088 6.9 6.63688 7.38C6.27688 7.86 6.09688 8.412 6.09688 9.036C6.09688 9.732 6.34888 10.296 6.85288 10.728C7.35688 11.16 8.23288 11.508 9.48088 11.772L13.5489 12.636C15.9009 13.14 17.6529 13.956 18.8049 15.084C19.9569 16.188 20.5329 17.652 20.5329 19.476C20.5329 20.676 20.2929 21.768 19.8129 22.752C19.3329 23.712 18.6369 24.54 17.7249 25.236C16.8129 25.932 15.7209 26.472 14.4489 26.856C13.1769 27.216 11.7489 27.396 10.1649 27.396ZM25.3434 27.288C24.4554 27.288 23.7714 27.036 23.2914 26.532C22.8354 26.004 22.6074 25.272 22.6074 24.336V12.024C22.6074 11.064 22.8354 10.332 23.2914 9.828C23.7714 9.3 24.4554 9.036 25.3434 9.036C26.2074 9.036 26.8674 9.3 27.3234 9.828C27.8034 10.332 28.0434 11.064 28.0434 12.024V24.336C28.0434 25.272 27.8154 26.004 27.3594 26.532C26.9034 27.036 26.2314 27.288 25.3434 27.288ZM25.3434 6.084C24.3354 6.084 23.5554 5.856 23.0034 5.4C22.4754 4.92 22.2114 4.248 22.2114 3.384C22.2114 2.496 22.4754 1.824 23.0034 1.368C23.5554 0.887999 24.3354 0.647998 25.3434 0.647998C26.3514 0.647998 27.1194 0.887999 27.6474 1.368C28.1754 1.824 28.4394 2.496 28.4394 3.384C28.4394 4.248 28.1754 4.92 27.6474 5.4C27.1194 5.856 26.3514 6.084 25.3434 6.084ZM39.6562 33.876C38.3602 33.876 37.1122 33.768 35.9122 33.552C34.7362 33.336 33.6922 33.012 32.7802 32.58C32.2282 32.34 31.8322 32.028 31.5922 31.644C31.3762 31.26 31.2802 30.852 31.3042 30.42C31.3522 29.988 31.4962 29.604 31.7362 29.268C32.0002 28.932 32.3242 28.692 32.7082 28.548C33.0922 28.428 33.5002 28.464 33.9322 28.656C34.9882 29.136 35.9602 29.448 36.8482 29.592C37.7602 29.736 38.5402 29.808 39.1882 29.808C40.7242 29.808 41.8762 29.46 42.6442 28.764C43.4122 28.068 43.7962 27 43.7962 25.56V22.824H44.1202C43.7602 23.928 43.0162 24.828 41.8882 25.524C40.7602 26.22 39.5122 26.568 38.1442 26.568C36.5602 26.568 35.1802 26.208 34.0042 25.488C32.8282 24.744 31.9162 23.712 31.2682 22.392C30.6202 21.048 30.2962 19.5 30.2962 17.748C30.2962 16.428 30.4762 15.228 30.8362 14.148C31.2202 13.068 31.7482 12.144 32.4202 11.376C33.1162 10.608 33.9442 10.02 34.9042 9.612C35.8882 9.18 36.9682 8.964 38.1442 8.964C39.5602 8.964 40.8082 9.312 41.8882 10.008C42.9922 10.68 43.7242 11.568 44.0842 12.672L43.7242 13.824V11.772C43.7242 10.884 43.9522 10.212 44.4082 9.756C44.8882 9.276 45.5602 9.036 46.4242 9.036C47.2882 9.036 47.9482 9.276 48.4042 9.756C48.8602 10.212 49.0882 10.884 49.0882 11.772V24.948C49.0882 27.9 48.2722 30.12 46.6402 31.608C45.0322 33.12 42.7042 33.876 39.6562 33.876ZM39.7642 22.5C40.5802 22.5 41.2762 22.308 41.8522 21.924C42.4522 21.54 42.9202 21 43.2562 20.304C43.5922 19.584 43.7602 18.732 43.7602 17.748C43.7602 16.26 43.3882 15.108 42.6442 14.292C41.9242 13.452 40.9642 13.032 39.7642 13.032C38.9482 13.032 38.2402 13.224 37.6402 13.608C37.0402 13.968 36.5722 14.508 36.2362 15.228C35.9242 15.924 35.7682 16.764 35.7682 17.748C35.7682 19.236 36.1282 20.4 36.8482 21.24C37.5682 22.08 38.5402 22.5 39.7642 22.5ZM54.9646 27.324C54.0766 27.324 53.3926 27.084 52.9126 26.604C52.4566 26.124 52.2286 25.44 52.2286 24.552V11.772C52.2286 10.884 52.4566 10.212 52.9126 9.756C53.3926 9.276 54.0526 9.036 54.8926 9.036C55.7566 9.036 56.4166 9.276 56.8726 9.756C57.3286 10.212 57.5566 10.884 57.5566 11.772V13.824L57.1606 12.636C57.7126 11.46 58.5286 10.56 59.6086 9.936C60.7126 9.288 61.9606 8.964 63.3526 8.964C64.7686 8.964 65.9326 9.24 66.8446 9.792C67.7566 10.32 68.4406 11.136 68.8966 12.24C69.3526 13.32 69.5806 14.7 69.5806 16.38V24.552C69.5806 25.44 69.3406 26.124 68.8606 26.604C68.4046 27.084 67.7326 27.324 66.8446 27.324C65.9806 27.324 65.3086 27.084 64.8286 26.604C64.3726 26.124 64.1446 25.44 64.1446 24.552V16.632C64.1446 15.408 63.9166 14.532 63.4606 14.004C63.0286 13.452 62.3566 13.176 61.4446 13.176C60.2926 13.176 59.3686 13.536 58.6726 14.256C58.0006 14.976 57.6646 15.936 57.6646 17.136V24.552C57.6646 26.4 56.7646 27.324 54.9646 27.324ZM84.8095 27.324C83.8975 27.324 83.2015 27.072 82.7215 26.568C82.2415 26.064 82.0015 25.356 82.0015 24.444V4.176C82.0015 3.264 82.2415 2.556 82.7215 2.052C83.2015 1.548 83.8975 1.296 84.8095 1.296C85.6975 1.296 86.3815 1.548 86.8615 2.052C87.3415 2.556 87.5815 3.264 87.5815 4.176V24.444C87.5815 25.356 87.3415 26.064 86.8615 26.568C86.4055 27.072 85.7215 27.324 84.8095 27.324ZM93.877 27.324C92.989 27.324 92.305 27.084 91.825 26.604C91.369 26.124 91.141 25.44 91.141 24.552V11.772C91.141 10.884 91.369 10.212 91.825 9.756C92.305 9.276 92.965 9.036 93.805 9.036C94.669 9.036 95.329 9.276 95.785 9.756C96.241 10.212 96.469 10.884 96.469 11.772V13.824L96.073 12.636C96.625 11.46 97.441 10.56 98.521 9.936C99.625 9.288 100.873 8.964 102.265 8.964C103.681 8.964 104.845 9.24 105.757 9.792C106.669 10.32 107.353 11.136 107.809 12.24C108.265 13.32 108.493 14.7 108.493 16.38V24.552C108.493 25.44 108.253 26.124 107.773 26.604C107.317 27.084 106.645 27.324 105.757 27.324C104.893 27.324 104.221 27.084 103.741 26.604C103.285 26.124 103.057 25.44 103.057 24.552V16.632C103.057 15.408 102.829 14.532 102.373 14.004C101.941 13.452 101.269 13.176 100.357 13.176C99.205 13.176 98.281 13.536 97.585 14.256C96.913 14.976 96.577 15.936 96.577 17.136V24.552C96.577 26.4 95.677 27.324 93.877 27.324Z" fill="#09BA86"/>
</svg>
