<svg width="343" height="56" viewBox="0 0 343 56" fill="none" xmlns="http://www.w3.org/2000/svg">
<rect width="343" height="56" rx="16" fill="#0BAB7C"/>
<path d="M128.314 33.698C127.81 33.698 127.294 33.656 126.766 33.572C126.25 33.5 125.752 33.392 125.272 33.248C124.804 33.104 124.384 32.924 124.012 32.708C123.748 32.564 123.562 32.378 123.454 32.15C123.346 31.91 123.304 31.67 123.328 31.43C123.364 31.19 123.454 30.98 123.598 30.8C123.754 30.608 123.946 30.488 124.174 30.44C124.414 30.38 124.678 30.422 124.966 30.566C125.458 30.842 125.992 31.046 126.568 31.178C127.156 31.31 127.738 31.376 128.314 31.376C129.19 31.376 129.814 31.244 130.186 30.98C130.558 30.704 130.744 30.362 130.744 29.954C130.744 29.606 130.612 29.33 130.348 29.126C130.084 28.922 129.622 28.748 128.962 28.604L126.928 28.172C125.776 27.932 124.918 27.524 124.354 26.948C123.802 26.36 123.526 25.592 123.526 24.644C123.526 24.044 123.652 23.498 123.904 23.006C124.156 22.514 124.51 22.088 124.966 21.728C125.422 21.368 125.962 21.092 126.586 20.9C127.222 20.708 127.918 20.612 128.674 20.612C129.346 20.612 130.006 20.696 130.654 20.864C131.302 21.02 131.872 21.254 132.364 21.566C132.604 21.71 132.766 21.896 132.85 22.124C132.946 22.34 132.976 22.562 132.94 22.79C132.916 23.006 132.826 23.198 132.67 23.366C132.526 23.534 132.34 23.642 132.112 23.69C131.884 23.738 131.608 23.684 131.284 23.528C130.888 23.324 130.468 23.174 130.024 23.078C129.58 22.982 129.124 22.934 128.656 22.934C128.152 22.934 127.72 23 127.36 23.132C127.012 23.264 126.742 23.45 126.55 23.69C126.37 23.93 126.28 24.206 126.28 24.518C126.28 24.866 126.406 25.148 126.658 25.364C126.91 25.58 127.348 25.754 127.972 25.886L130.006 26.318C131.182 26.57 132.058 26.978 132.634 27.542C133.21 28.094 133.498 28.826 133.498 29.738C133.498 30.338 133.378 30.884 133.138 31.376C132.898 31.856 132.55 32.27 132.094 32.618C131.638 32.966 131.092 33.236 130.456 33.428C129.82 33.608 129.106 33.698 128.314 33.698ZM136.083 33.644C135.639 33.644 135.297 33.518 135.057 33.266C134.829 33.002 134.715 32.636 134.715 32.168V26.012C134.715 25.532 134.829 25.166 135.057 24.914C135.297 24.65 135.639 24.518 136.083 24.518C136.515 24.518 136.845 24.65 137.073 24.914C137.313 25.166 137.433 25.532 137.433 26.012V32.168C137.433 32.636 137.319 33.002 137.091 33.266C136.863 33.518 136.527 33.644 136.083 33.644ZM136.083 23.042C135.579 23.042 135.189 22.928 134.913 22.7C134.649 22.46 134.517 22.124 134.517 21.692C134.517 21.248 134.649 20.912 134.913 20.684C135.189 20.444 135.579 20.324 136.083 20.324C136.587 20.324 136.971 20.444 137.235 20.684C137.499 20.912 137.631 21.248 137.631 21.692C137.631 22.124 137.499 22.46 137.235 22.7C136.971 22.928 136.587 23.042 136.083 23.042ZM143.42 36.938C142.772 36.938 142.148 36.884 141.548 36.776C140.96 36.668 140.438 36.506 139.982 36.29C139.706 36.17 139.508 36.014 139.388 35.822C139.28 35.63 139.232 35.426 139.244 35.21C139.268 34.994 139.34 34.802 139.46 34.634C139.592 34.466 139.754 34.346 139.946 34.274C140.138 34.214 140.342 34.232 140.558 34.328C141.086 34.568 141.572 34.724 142.016 34.796C142.472 34.868 142.862 34.904 143.186 34.904C143.954 34.904 144.53 34.73 144.914 34.382C145.298 34.034 145.49 33.5 145.49 32.78V31.412H145.652C145.472 31.964 145.1 32.414 144.536 32.762C143.972 33.11 143.348 33.284 142.664 33.284C141.872 33.284 141.182 33.104 140.594 32.744C140.006 32.372 139.55 31.856 139.226 31.196C138.902 30.524 138.74 29.75 138.74 28.874C138.74 28.214 138.83 27.614 139.01 27.074C139.202 26.534 139.466 26.072 139.802 25.688C140.15 25.304 140.564 25.01 141.044 24.806C141.536 24.59 142.076 24.482 142.664 24.482C143.372 24.482 143.996 24.656 144.536 25.004C145.088 25.34 145.454 25.784 145.634 26.336L145.454 26.912V25.886C145.454 25.442 145.568 25.106 145.796 24.878C146.036 24.638 146.372 24.518 146.804 24.518C147.236 24.518 147.566 24.638 147.794 24.878C148.022 25.106 148.136 25.442 148.136 25.886V32.474C148.136 33.95 147.728 35.06 146.912 35.804C146.108 36.56 144.944 36.938 143.42 36.938ZM143.474 31.25C143.882 31.25 144.23 31.154 144.518 30.962C144.818 30.77 145.052 30.5 145.22 30.152C145.388 29.792 145.472 29.366 145.472 28.874C145.472 28.13 145.286 27.554 144.914 27.146C144.554 26.726 144.074 26.516 143.474 26.516C143.066 26.516 142.712 26.612 142.412 26.804C142.112 26.984 141.878 27.254 141.71 27.614C141.554 27.962 141.476 28.382 141.476 28.874C141.476 29.618 141.656 30.2 142.016 30.62C142.376 31.04 142.862 31.25 143.474 31.25ZM151.254 33.662C150.81 33.662 150.468 33.542 150.228 33.302C150 33.062 149.886 32.72 149.886 32.276V25.886C149.886 25.442 150 25.106 150.228 24.878C150.468 24.638 150.798 24.518 151.218 24.518C151.65 24.518 151.98 24.638 152.208 24.878C152.436 25.106 152.55 25.442 152.55 25.886V26.912L152.352 26.318C152.628 25.73 153.036 25.28 153.576 24.968C154.128 24.644 154.752 24.482 155.448 24.482C156.156 24.482 156.738 24.62 157.194 24.896C157.65 25.16 157.992 25.568 158.22 26.12C158.448 26.66 158.562 27.35 158.562 28.19V32.276C158.562 32.72 158.442 33.062 158.202 33.302C157.974 33.542 157.638 33.662 157.194 33.662C156.762 33.662 156.426 33.542 156.186 33.302C155.958 33.062 155.844 32.72 155.844 32.276V28.316C155.844 27.704 155.73 27.266 155.502 27.002C155.286 26.726 154.95 26.588 154.494 26.588C153.918 26.588 153.456 26.768 153.108 27.128C152.772 27.488 152.604 27.968 152.604 28.568V32.276C152.604 33.2 152.154 33.662 151.254 33.662ZM166.536 33.662C166.08 33.662 165.732 33.536 165.492 33.284C165.252 33.032 165.132 32.678 165.132 32.222V22.088C165.132 21.632 165.252 21.278 165.492 21.026C165.732 20.774 166.08 20.648 166.536 20.648C166.98 20.648 167.322 20.774 167.562 21.026C167.802 21.278 167.922 21.632 167.922 22.088V32.222C167.922 32.678 167.802 33.032 167.562 33.284C167.334 33.536 166.992 33.662 166.536 33.662ZM171.25 33.662C170.806 33.662 170.464 33.542 170.224 33.302C169.996 33.062 169.882 32.72 169.882 32.276V25.886C169.882 25.442 169.996 25.106 170.224 24.878C170.464 24.638 170.794 24.518 171.214 24.518C171.646 24.518 171.976 24.638 172.204 24.878C172.432 25.106 172.546 25.442 172.546 25.886V26.912L172.348 26.318C172.624 25.73 173.032 25.28 173.572 24.968C174.124 24.644 174.748 24.482 175.444 24.482C176.152 24.482 176.734 24.62 177.19 24.896C177.646 25.16 177.988 25.568 178.216 26.12C178.444 26.66 178.558 27.35 178.558 28.19V32.276C178.558 32.72 178.438 33.062 178.198 33.302C177.97 33.542 177.634 33.662 177.19 33.662C176.758 33.662 176.422 33.542 176.182 33.302C175.954 33.062 175.84 32.72 175.84 32.276V28.316C175.84 27.704 175.726 27.266 175.498 27.002C175.282 26.726 174.946 26.588 174.49 26.588C173.914 26.588 173.452 26.768 173.104 27.128C172.768 27.488 172.6 27.968 172.6 28.568V32.276C172.6 33.2 172.15 33.662 171.25 33.662Z" fill="#FBFAF3"/>
<path d="M199.5 28L216.5 28" stroke="#FBFAF3" stroke-width="2" stroke-linecap="round" stroke-linejoin="round"/>
<path d="M212.5 22L213.975 23.4745C215.559 25.0586 216.351 25.8506 216.647 26.7639C216.908 27.5673 216.908 28.4327 216.647 29.2361C216.351 30.1494 215.559 30.9414 213.975 32.5255L212.5 34" stroke="#FBFAF3" stroke-width="2" stroke-linecap="round" stroke-linejoin="round"/>
</svg>
