<svg width="343" height="56" viewBox="0 0 343 56" fill="none" xmlns="http://www.w3.org/2000/svg">
<rect width="343" height="56" rx="16" fill="#0BAB7C"/>
<path d="M124.314 33.698C123.81 33.698 123.294 33.656 122.766 33.572C122.25 33.5 121.752 33.392 121.272 33.248C120.804 33.104 120.384 32.924 120.012 32.708C119.748 32.564 119.562 32.378 119.454 32.15C119.346 31.91 119.304 31.67 119.328 31.43C119.364 31.19 119.454 30.98 119.598 30.8C119.754 30.608 119.946 30.488 120.174 30.44C120.414 30.38 120.678 30.422 120.966 30.566C121.458 30.842 121.992 31.046 122.568 31.178C123.156 31.31 123.738 31.376 124.314 31.376C125.19 31.376 125.814 31.244 126.186 30.98C126.558 30.704 126.744 30.362 126.744 29.954C126.744 29.606 126.612 29.33 126.348 29.126C126.084 28.922 125.622 28.748 124.962 28.604L122.928 28.172C121.776 27.932 120.918 27.524 120.354 26.948C119.802 26.36 119.526 25.592 119.526 24.644C119.526 24.044 119.652 23.498 119.904 23.006C120.156 22.514 120.51 22.088 120.966 21.728C121.422 21.368 121.962 21.092 122.586 20.9C123.222 20.708 123.918 20.612 124.674 20.612C125.346 20.612 126.006 20.696 126.654 20.864C127.302 21.02 127.872 21.254 128.364 21.566C128.604 21.71 128.766 21.896 128.85 22.124C128.946 22.34 128.976 22.562 128.94 22.79C128.916 23.006 128.826 23.198 128.67 23.366C128.526 23.534 128.34 23.642 128.112 23.69C127.884 23.738 127.608 23.684 127.284 23.528C126.888 23.324 126.468 23.174 126.024 23.078C125.58 22.982 125.124 22.934 124.656 22.934C124.152 22.934 123.72 23 123.36 23.132C123.012 23.264 122.742 23.45 122.55 23.69C122.37 23.93 122.28 24.206 122.28 24.518C122.28 24.866 122.406 25.148 122.658 25.364C122.91 25.58 123.348 25.754 123.972 25.886L126.006 26.318C127.182 26.57 128.058 26.978 128.634 27.542C129.21 28.094 129.498 28.826 129.498 29.738C129.498 30.338 129.378 30.884 129.138 31.376C128.898 31.856 128.55 32.27 128.094 32.618C127.638 32.966 127.092 33.236 126.456 33.428C125.82 33.608 125.106 33.698 124.314 33.698ZM132.083 33.644C131.639 33.644 131.297 33.518 131.057 33.266C130.829 33.002 130.715 32.636 130.715 32.168V26.012C130.715 25.532 130.829 25.166 131.057 24.914C131.297 24.65 131.639 24.518 132.083 24.518C132.515 24.518 132.845 24.65 133.073 24.914C133.313 25.166 133.433 25.532 133.433 26.012V32.168C133.433 32.636 133.319 33.002 133.091 33.266C132.863 33.518 132.527 33.644 132.083 33.644ZM132.083 23.042C131.579 23.042 131.189 22.928 130.913 22.7C130.649 22.46 130.517 22.124 130.517 21.692C130.517 21.248 130.649 20.912 130.913 20.684C131.189 20.444 131.579 20.324 132.083 20.324C132.587 20.324 132.971 20.444 133.235 20.684C133.499 20.912 133.631 21.248 133.631 21.692C133.631 22.124 133.499 22.46 133.235 22.7C132.971 22.928 132.587 23.042 132.083 23.042ZM139.42 36.938C138.772 36.938 138.148 36.884 137.548 36.776C136.96 36.668 136.438 36.506 135.982 36.29C135.706 36.17 135.508 36.014 135.388 35.822C135.28 35.63 135.232 35.426 135.244 35.21C135.268 34.994 135.34 34.802 135.46 34.634C135.592 34.466 135.754 34.346 135.946 34.274C136.138 34.214 136.342 34.232 136.558 34.328C137.086 34.568 137.572 34.724 138.016 34.796C138.472 34.868 138.862 34.904 139.186 34.904C139.954 34.904 140.53 34.73 140.914 34.382C141.298 34.034 141.49 33.5 141.49 32.78V31.412H141.652C141.472 31.964 141.1 32.414 140.536 32.762C139.972 33.11 139.348 33.284 138.664 33.284C137.872 33.284 137.182 33.104 136.594 32.744C136.006 32.372 135.55 31.856 135.226 31.196C134.902 30.524 134.74 29.75 134.74 28.874C134.74 28.214 134.83 27.614 135.01 27.074C135.202 26.534 135.466 26.072 135.802 25.688C136.15 25.304 136.564 25.01 137.044 24.806C137.536 24.59 138.076 24.482 138.664 24.482C139.372 24.482 139.996 24.656 140.536 25.004C141.088 25.34 141.454 25.784 141.634 26.336L141.454 26.912V25.886C141.454 25.442 141.568 25.106 141.796 24.878C142.036 24.638 142.372 24.518 142.804 24.518C143.236 24.518 143.566 24.638 143.794 24.878C144.022 25.106 144.136 25.442 144.136 25.886V32.474C144.136 33.95 143.728 35.06 142.912 35.804C142.108 36.56 140.944 36.938 139.42 36.938ZM139.474 31.25C139.882 31.25 140.23 31.154 140.518 30.962C140.818 30.77 141.052 30.5 141.22 30.152C141.388 29.792 141.472 29.366 141.472 28.874C141.472 28.13 141.286 27.554 140.914 27.146C140.554 26.726 140.074 26.516 139.474 26.516C139.066 26.516 138.712 26.612 138.412 26.804C138.112 26.984 137.878 27.254 137.71 27.614C137.554 27.962 137.476 28.382 137.476 28.874C137.476 29.618 137.656 30.2 138.016 30.62C138.376 31.04 138.862 31.25 139.474 31.25ZM147.254 33.662C146.81 33.662 146.468 33.542 146.228 33.302C146 33.062 145.886 32.72 145.886 32.276V25.886C145.886 25.442 146 25.106 146.228 24.878C146.468 24.638 146.798 24.518 147.218 24.518C147.65 24.518 147.98 24.638 148.208 24.878C148.436 25.106 148.55 25.442 148.55 25.886V26.912L148.352 26.318C148.628 25.73 149.036 25.28 149.576 24.968C150.128 24.644 150.752 24.482 151.448 24.482C152.156 24.482 152.738 24.62 153.194 24.896C153.65 25.16 153.992 25.568 154.22 26.12C154.448 26.66 154.562 27.35 154.562 28.19V32.276C154.562 32.72 154.442 33.062 154.202 33.302C153.974 33.542 153.638 33.662 153.194 33.662C152.762 33.662 152.426 33.542 152.186 33.302C151.958 33.062 151.844 32.72 151.844 32.276V28.316C151.844 27.704 151.73 27.266 151.502 27.002C151.286 26.726 150.95 26.588 150.494 26.588C149.918 26.588 149.456 26.768 149.108 27.128C148.772 27.488 148.604 27.968 148.604 28.568V32.276C148.604 33.2 148.154 33.662 147.254 33.662ZM166.568 33.698C165.668 33.698 164.87 33.584 164.174 33.356C163.49 33.116 162.914 32.768 162.446 32.312C161.978 31.856 161.624 31.286 161.384 30.602C161.156 29.906 161.042 29.102 161.042 28.19V22.07C161.042 21.602 161.162 21.248 161.402 21.008C161.642 20.768 161.99 20.648 162.446 20.648C162.89 20.648 163.232 20.768 163.472 21.008C163.712 21.248 163.832 21.602 163.832 22.07V28.208C163.832 29.24 164.066 30.02 164.534 30.548C165.002 31.064 165.68 31.322 166.568 31.322C167.456 31.322 168.128 31.064 168.584 30.548C169.052 30.02 169.286 29.24 169.286 28.208V22.07C169.286 21.602 169.406 21.248 169.646 21.008C169.886 20.768 170.228 20.648 170.672 20.648C171.116 20.648 171.452 20.768 171.68 21.008C171.92 21.248 172.04 21.602 172.04 22.07V28.19C172.04 29.402 171.83 30.422 171.41 31.25C171.002 32.066 170.39 32.678 169.574 33.086C168.77 33.494 167.768 33.698 166.568 33.698ZM175.283 36.902C174.839 36.902 174.497 36.782 174.257 36.542C174.029 36.314 173.915 35.972 173.915 35.516V25.886C173.915 25.442 174.029 25.106 174.257 24.878C174.497 24.638 174.827 24.518 175.247 24.518C175.691 24.518 176.027 24.638 176.255 24.878C176.483 25.106 176.597 25.442 176.597 25.886V27.11L176.399 26.408C176.579 25.832 176.939 25.37 177.479 25.022C178.031 24.662 178.661 24.482 179.369 24.482C180.137 24.482 180.809 24.668 181.385 25.04C181.973 25.412 182.429 25.94 182.753 26.624C183.077 27.308 183.239 28.124 183.239 29.072C183.239 30.02 183.077 30.842 182.753 31.538C182.429 32.234 181.979 32.768 181.403 33.14C180.827 33.512 180.149 33.698 179.369 33.698C178.673 33.698 178.055 33.53 177.515 33.194C176.975 32.846 176.609 32.396 176.417 31.844H176.633V35.516C176.633 35.972 176.513 36.314 176.273 36.542C176.045 36.782 175.715 36.902 175.283 36.902ZM178.559 31.664C178.943 31.664 179.279 31.568 179.567 31.376C179.867 31.184 180.095 30.902 180.251 30.53C180.419 30.146 180.503 29.66 180.503 29.072C180.503 28.196 180.323 27.554 179.963 27.146C179.603 26.726 179.135 26.516 178.559 26.516C178.175 26.516 177.833 26.606 177.533 26.786C177.245 26.966 177.017 27.248 176.849 27.632C176.681 28.004 176.597 28.484 176.597 29.072C176.597 29.948 176.777 30.602 177.137 31.034C177.497 31.454 177.971 31.664 178.559 31.664Z" fill="#FBFAF3"/>
<path d="M203.5 28L220.5 28" stroke="#FBFAF3" stroke-width="2" stroke-linecap="round" stroke-linejoin="round"/>
<path d="M216.5 22L217.975 23.4745C219.559 25.0586 220.351 25.8506 220.647 26.7639C220.908 27.5673 220.908 28.4327 220.647 29.2361C220.351 30.1494 219.559 30.9414 217.975 32.5255L216.5 34" stroke="#FBFAF3" stroke-width="2" stroke-linecap="round" stroke-linejoin="round"/>
</svg>
