<svg width="267" height="34" viewBox="0 0 267 34" fill="none" xmlns="http://www.w3.org/2000/svg">
<path d="M10.5639 27.396C9.55594 27.396 8.52394 27.312 7.46794 27.144C6.43594 27 5.43994 26.784 4.47994 26.496C3.54394 26.208 2.70394 25.848 1.95994 25.416C1.43194 25.128 1.05994 24.756 0.843944 24.3C0.627944 23.82 0.543944 23.34 0.591944 22.86C0.663944 22.38 0.843944 21.96 1.13194 21.6C1.44394 21.216 1.82794 20.976 2.28394 20.88C2.76394 20.76 3.29194 20.844 3.86794 21.132C4.85194 21.684 5.91994 22.092 7.07194 22.356C8.24794 22.62 9.41194 22.752 10.5639 22.752C12.3159 22.752 13.5639 22.488 14.3079 21.96C15.0519 21.408 15.4239 20.724 15.4239 19.908C15.4239 19.212 15.1599 18.66 14.6319 18.252C14.1039 17.844 13.1799 17.496 11.8599 17.208L7.79194 16.344C5.48794 15.864 3.77194 15.048 2.64394 13.896C1.53994 12.72 0.987944 11.184 0.987944 9.288C0.987944 8.088 1.23994 6.996 1.74394 6.012C2.24794 5.028 2.95594 4.176 3.86794 3.456C4.77994 2.736 5.85994 2.184 7.10794 1.8C8.37994 1.416 9.77194 1.224 11.2839 1.224C12.6279 1.224 13.9479 1.392 15.2439 1.728C16.5399 2.04 17.6799 2.508 18.6639 3.132C19.1439 3.42 19.4679 3.792 19.6359 4.248C19.8279 4.68 19.8879 5.124 19.8159 5.58C19.7679 6.012 19.5879 6.396 19.2759 6.732C18.9879 7.068 18.6159 7.284 18.1599 7.38C17.7039 7.476 17.1519 7.368 16.5039 7.056C15.7119 6.648 14.8719 6.348 13.9839 6.156C13.0959 5.964 12.1839 5.868 11.2479 5.868C10.2399 5.868 9.37594 6 8.65594 6.264C7.95994 6.528 7.41994 6.9 7.03594 7.38C6.67594 7.86 6.49594 8.412 6.49594 9.036C6.49594 9.732 6.74794 10.296 7.25194 10.728C7.75594 11.16 8.63194 11.508 9.87994 11.772L13.9479 12.636C16.2999 13.14 18.0519 13.956 19.2039 15.084C20.3559 16.188 20.9319 17.652 20.9319 19.476C20.9319 20.676 20.6919 21.768 20.2119 22.752C19.7319 23.712 19.0359 24.54 18.1239 25.236C17.2119 25.932 16.1199 26.472 14.8479 26.856C13.5759 27.216 12.1479 27.396 10.5639 27.396ZM25.7424 27.288C24.8544 27.288 24.1704 27.036 23.6904 26.532C23.2344 26.004 23.0064 25.272 23.0064 24.336V12.024C23.0064 11.064 23.2344 10.332 23.6904 9.828C24.1704 9.3 24.8544 9.036 25.7424 9.036C26.6064 9.036 27.2664 9.3 27.7224 9.828C28.2024 10.332 28.4424 11.064 28.4424 12.024V24.336C28.4424 25.272 28.2144 26.004 27.7584 26.532C27.3024 27.036 26.6304 27.288 25.7424 27.288ZM25.7424 6.084C24.7344 6.084 23.9544 5.856 23.4024 5.4C22.8744 4.92 22.6104 4.248 22.6104 3.384C22.6104 2.496 22.8744 1.824 23.4024 1.368C23.9544 0.887999 24.7344 0.647998 25.7424 0.647998C26.7504 0.647998 27.5184 0.887999 28.0464 1.368C28.5744 1.824 28.8384 2.496 28.8384 3.384C28.8384 4.248 28.5744 4.92 28.0464 5.4C27.5184 5.856 26.7504 6.084 25.7424 6.084ZM40.0553 33.876C38.7593 33.876 37.5113 33.768 36.3113 33.552C35.1353 33.336 34.0913 33.012 33.1793 32.58C32.6273 32.34 32.2313 32.028 31.9913 31.644C31.7753 31.26 31.6793 30.852 31.7033 30.42C31.7513 29.988 31.8953 29.604 32.1353 29.268C32.3993 28.932 32.7233 28.692 33.1073 28.548C33.4913 28.428 33.8993 28.464 34.3313 28.656C35.3873 29.136 36.3593 29.448 37.2473 29.592C38.1593 29.736 38.9393 29.808 39.5873 29.808C41.1233 29.808 42.2753 29.46 43.0433 28.764C43.8113 28.068 44.1953 27 44.1953 25.56V22.824H44.5193C44.1593 23.928 43.4153 24.828 42.2873 25.524C41.1593 26.22 39.9113 26.568 38.5433 26.568C36.9593 26.568 35.5793 26.208 34.4033 25.488C33.2273 24.744 32.3153 23.712 31.6673 22.392C31.0193 21.048 30.6953 19.5 30.6953 17.748C30.6953 16.428 30.8753 15.228 31.2353 14.148C31.6193 13.068 32.1473 12.144 32.8193 11.376C33.5153 10.608 34.3433 10.02 35.3033 9.612C36.2873 9.18 37.3673 8.964 38.5433 8.964C39.9593 8.964 41.2073 9.312 42.2873 10.008C43.3913 10.68 44.1233 11.568 44.4833 12.672L44.1233 13.824V11.772C44.1233 10.884 44.3513 10.212 44.8073 9.756C45.2873 9.276 45.9593 9.036 46.8233 9.036C47.6873 9.036 48.3473 9.276 48.8033 9.756C49.2593 10.212 49.4873 10.884 49.4873 11.772V24.948C49.4873 27.9 48.6713 30.12 47.0393 31.608C45.4313 33.12 43.1033 33.876 40.0553 33.876ZM40.1633 22.5C40.9793 22.5 41.6753 22.308 42.2513 21.924C42.8513 21.54 43.3193 21 43.6553 20.304C43.9913 19.584 44.1593 18.732 44.1593 17.748C44.1593 16.26 43.7873 15.108 43.0433 14.292C42.3233 13.452 41.3633 13.032 40.1633 13.032C39.3473 13.032 38.6393 13.224 38.0393 13.608C37.4393 13.968 36.9713 14.508 36.6353 15.228C36.3233 15.924 36.1673 16.764 36.1673 17.748C36.1673 19.236 36.5273 20.4 37.2473 21.24C37.9673 22.08 38.9393 22.5 40.1633 22.5ZM55.3637 27.324C54.4757 27.324 53.7917 27.084 53.3117 26.604C52.8557 26.124 52.6277 25.44 52.6277 24.552V11.772C52.6277 10.884 52.8557 10.212 53.3117 9.756C53.7917 9.276 54.4517 9.036 55.2917 9.036C56.1557 9.036 56.8157 9.276 57.2717 9.756C57.7277 10.212 57.9557 10.884 57.9557 11.772V13.824L57.5597 12.636C58.1117 11.46 58.9277 10.56 60.0077 9.936C61.1117 9.288 62.3597 8.964 63.7517 8.964C65.1677 8.964 66.3317 9.24 67.2437 9.792C68.1557 10.32 68.8397 11.136 69.2957 12.24C69.7517 13.32 69.9797 14.7 69.9797 16.38V24.552C69.9797 25.44 69.7397 26.124 69.2597 26.604C68.8037 27.084 68.1317 27.324 67.2437 27.324C66.3797 27.324 65.7077 27.084 65.2277 26.604C64.7717 26.124 64.5437 25.44 64.5437 24.552V16.632C64.5437 15.408 64.3157 14.532 63.8597 14.004C63.4277 13.452 62.7557 13.176 61.8437 13.176C60.6917 13.176 59.7677 13.536 59.0717 14.256C58.3997 14.976 58.0637 15.936 58.0637 17.136V24.552C58.0637 26.4 57.1637 27.324 55.3637 27.324ZM93.2725 27.396C91.4725 27.396 89.8765 27.168 88.4845 26.712C87.1165 26.232 85.9645 25.536 85.0285 24.624C84.0925 23.712 83.3845 22.572 82.9045 21.204C82.4485 19.812 82.2205 18.204 82.2205 16.38V4.14C82.2205 3.204 82.4605 2.496 82.9405 2.016C83.4205 1.536 84.1165 1.296 85.0285 1.296C85.9165 1.296 86.6005 1.536 87.0805 2.016C87.5605 2.496 87.8005 3.204 87.8005 4.14V16.416C87.8005 18.48 88.2685 20.04 89.2045 21.096C90.1405 22.128 91.4965 22.644 93.2725 22.644C95.0485 22.644 96.3925 22.128 97.3045 21.096C98.2405 20.04 98.7085 18.48 98.7085 16.416V4.14C98.7085 3.204 98.9485 2.496 99.4285 2.016C99.9085 1.536 100.593 1.296 101.481 1.296C102.369 1.296 103.041 1.536 103.497 2.016C103.977 2.496 104.217 3.204 104.217 4.14V16.38C104.217 18.804 103.797 20.844 102.957 22.5C102.141 24.132 100.917 25.356 99.2845 26.172C97.6765 26.988 95.6725 27.396 93.2725 27.396ZM110.342 33.804C109.454 33.804 108.77 33.564 108.29 33.084C107.834 32.628 107.606 31.944 107.606 31.032V11.772C107.606 10.884 107.834 10.212 108.29 9.756C108.77 9.276 109.43 9.036 110.27 9.036C111.158 9.036 111.83 9.276 112.286 9.756C112.742 10.212 112.97 10.884 112.97 11.772V14.22L112.574 12.816C112.934 11.664 113.654 10.74 114.734 10.044C115.838 9.324 117.098 8.964 118.514 8.964C120.05 8.964 121.394 9.336 122.546 10.08C123.722 10.824 124.634 11.88 125.282 13.248C125.93 14.616 126.254 16.248 126.254 18.144C126.254 20.04 125.93 21.684 125.282 23.076C124.634 24.468 123.734 25.536 122.582 26.28C121.43 27.024 120.074 27.396 118.514 27.396C117.122 27.396 115.886 27.06 114.806 26.388C113.726 25.692 112.994 24.792 112.61 23.688H113.042V31.032C113.042 31.944 112.802 32.628 112.322 33.084C111.866 33.564 111.206 33.804 110.342 33.804ZM116.894 23.328C117.662 23.328 118.334 23.136 118.91 22.752C119.51 22.368 119.966 21.804 120.278 21.06C120.614 20.292 120.782 19.32 120.782 18.144C120.782 16.392 120.422 15.108 119.702 14.292C118.982 13.452 118.046 13.032 116.894 13.032C116.126 13.032 115.442 13.212 114.842 13.572C114.266 13.932 113.81 14.496 113.474 15.264C113.138 16.008 112.97 16.968 112.97 18.144C112.97 19.896 113.33 21.204 114.05 22.068C114.77 22.908 115.718 23.328 116.894 23.328ZM140.786 27.324C139.874 27.324 139.166 27.072 138.662 26.568C138.182 26.064 137.942 25.332 137.942 24.372V4.536C137.942 3.6 138.194 2.88 138.698 2.376C139.202 1.872 139.922 1.62 140.858 1.62H153.17C153.89 1.62 154.43 1.812 154.79 2.196C155.174 2.556 155.366 3.084 155.366 3.78C155.366 4.5 155.174 5.052 154.79 5.436C154.43 5.796 153.89 5.976 153.17 5.976H143.522V12.168H152.378C153.098 12.168 153.65 12.36 154.034 12.744C154.418 13.104 154.61 13.632 154.61 14.328C154.61 15.024 154.418 15.564 154.034 15.948C153.65 16.332 153.098 16.524 152.378 16.524H143.522V24.372C143.522 26.34 142.61 27.324 140.786 27.324ZM164.823 27.396C162.927 27.396 161.271 27.024 159.855 26.28C158.463 25.536 157.383 24.468 156.615 23.076C155.847 21.684 155.463 20.04 155.463 18.144C155.463 16.728 155.679 15.456 156.111 14.328C156.543 13.2 157.167 12.24 157.983 11.448C158.823 10.632 159.819 10.02 160.971 9.612C162.123 9.18 163.407 8.964 164.823 8.964C166.719 8.964 168.363 9.336 169.755 10.08C171.171 10.824 172.263 11.88 173.031 13.248C173.823 14.616 174.219 16.248 174.219 18.144C174.219 19.584 173.991 20.868 173.535 21.996C173.103 23.124 172.479 24.096 171.663 24.912C170.847 25.728 169.851 26.352 168.675 26.784C167.523 27.192 166.239 27.396 164.823 27.396ZM164.823 23.328C165.615 23.328 166.299 23.136 166.875 22.752C167.451 22.368 167.907 21.804 168.243 21.06C168.579 20.292 168.747 19.32 168.747 18.144C168.747 16.392 168.387 15.108 167.667 14.292C166.947 13.452 165.999 13.032 164.823 13.032C164.055 13.032 163.371 13.212 162.771 13.572C162.195 13.932 161.739 14.496 161.403 15.264C161.091 16.008 160.935 16.968 160.935 18.144C160.935 19.896 161.295 21.204 162.015 22.068C162.735 22.908 163.671 23.328 164.823 23.328ZM179.255 27.324C178.343 27.324 177.647 27.084 177.167 26.604C176.687 26.124 176.447 25.44 176.447 24.552V11.772C176.447 10.884 176.675 10.212 177.131 9.756C177.611 9.276 178.271 9.036 179.111 9.036C179.975 9.036 180.635 9.276 181.091 9.756C181.547 10.212 181.775 10.884 181.775 11.772V13.644H181.415C181.703 12.204 182.339 11.088 183.323 10.296C184.307 9.504 185.579 9.06 187.139 8.964C187.739 8.916 188.195 9.072 188.507 9.432C188.843 9.768 189.023 10.332 189.047 11.124C189.095 11.868 188.939 12.456 188.579 12.888C188.243 13.32 187.667 13.584 186.851 13.68L186.023 13.752C184.655 13.872 183.635 14.268 182.963 14.94C182.315 15.612 181.991 16.584 181.991 17.856V24.552C181.991 25.44 181.751 26.124 181.271 26.604C180.815 27.084 180.143 27.324 179.255 27.324ZM202.489 27.324C201.577 27.324 200.869 27.072 200.365 26.568C199.885 26.064 199.645 25.332 199.645 24.372V4.536C199.645 3.6 199.897 2.88 200.401 2.376C200.905 1.872 201.625 1.62 202.561 1.62H214.873C215.593 1.62 216.133 1.812 216.493 2.196C216.877 2.556 217.069 3.084 217.069 3.78C217.069 4.5 216.877 5.052 216.493 5.436C216.133 5.796 215.593 5.976 214.873 5.976H205.225V12.168H214.081C214.801 12.168 215.353 12.36 215.737 12.744C216.121 13.104 216.313 13.632 216.313 14.328C216.313 15.024 216.121 15.564 215.737 15.948C215.353 16.332 214.801 16.524 214.081 16.524H205.225V24.372C205.225 26.34 204.313 27.324 202.489 27.324ZM221.085 27.324C220.173 27.324 219.477 27.084 218.997 26.604C218.517 26.124 218.277 25.44 218.277 24.552V11.772C218.277 10.884 218.505 10.212 218.961 9.756C219.441 9.276 220.101 9.036 220.941 9.036C221.805 9.036 222.465 9.276 222.921 9.756C223.377 10.212 223.605 10.884 223.605 11.772V13.644H223.245C223.533 12.204 224.169 11.088 225.153 10.296C226.137 9.504 227.409 9.06 228.969 8.964C229.569 8.916 230.025 9.072 230.337 9.432C230.673 9.768 230.853 10.332 230.877 11.124C230.925 11.868 230.769 12.456 230.409 12.888C230.073 13.32 229.497 13.584 228.681 13.68L227.853 13.752C226.485 13.872 225.465 14.268 224.793 14.94C224.145 15.612 223.821 16.584 223.821 17.856V24.552C223.821 25.44 223.581 26.124 223.101 26.604C222.645 27.084 221.973 27.324 221.085 27.324ZM240.896 27.396C238.808 27.396 237.008 27.024 235.496 26.28C234.008 25.512 232.856 24.444 232.04 23.076C231.248 21.684 230.852 20.052 230.852 18.18C230.852 16.356 231.236 14.76 232.004 13.392C232.772 12 233.84 10.92 235.208 10.152C236.6 9.36 238.172 8.964 239.924 8.964C241.196 8.964 242.348 9.18 243.38 9.612C244.412 10.02 245.3 10.62 246.044 11.412C246.788 12.18 247.352 13.128 247.736 14.256C248.12 15.36 248.312 16.596 248.312 17.964C248.312 18.42 248.168 18.768 247.88 19.008C247.592 19.224 247.172 19.332 246.62 19.332H235.316V16.524H244.388L243.812 17.028C243.812 16.044 243.668 15.228 243.38 14.58C243.092 13.908 242.672 13.404 242.12 13.068C241.592 12.732 240.932 12.564 240.14 12.564C239.252 12.564 238.496 12.768 237.872 13.176C237.248 13.584 236.768 14.172 236.432 14.94C236.096 15.708 235.928 16.632 235.928 17.712V18C235.928 19.824 236.348 21.168 237.188 22.032C238.052 22.896 239.324 23.328 241.004 23.328C241.58 23.328 242.24 23.256 242.984 23.112C243.728 22.968 244.424 22.74 245.072 22.428C245.624 22.164 246.116 22.08 246.548 22.176C246.98 22.248 247.316 22.44 247.556 22.752C247.796 23.064 247.928 23.424 247.952 23.832C248 24.24 247.916 24.648 247.7 25.056C247.484 25.44 247.124 25.764 246.62 26.028C245.804 26.484 244.88 26.82 243.848 27.036C242.84 27.276 241.856 27.396 240.896 27.396ZM259.574 27.396C257.486 27.396 255.686 27.024 254.174 26.28C252.686 25.512 251.534 24.444 250.718 23.076C249.926 21.684 249.53 20.052 249.53 18.18C249.53 16.356 249.914 14.76 250.682 13.392C251.45 12 252.518 10.92 253.886 10.152C255.278 9.36 256.85 8.964 258.602 8.964C259.874 8.964 261.026 9.18 262.058 9.612C263.09 10.02 263.978 10.62 264.722 11.412C265.466 12.18 266.03 13.128 266.414 14.256C266.798 15.36 266.99 16.596 266.99 17.964C266.99 18.42 266.846 18.768 266.558 19.008C266.27 19.224 265.85 19.332 265.298 19.332H253.994V16.524H263.066L262.49 17.028C262.49 16.044 262.346 15.228 262.058 14.58C261.77 13.908 261.35 13.404 260.798 13.068C260.27 12.732 259.61 12.564 258.818 12.564C257.93 12.564 257.174 12.768 256.55 13.176C255.926 13.584 255.446 14.172 255.11 14.94C254.774 15.708 254.606 16.632 254.606 17.712V18C254.606 19.824 255.026 21.168 255.866 22.032C256.73 22.896 258.002 23.328 259.682 23.328C260.258 23.328 260.918 23.256 261.662 23.112C262.406 22.968 263.102 22.74 263.75 22.428C264.302 22.164 264.794 22.08 265.226 22.176C265.658 22.248 265.994 22.44 266.234 22.752C266.474 23.064 266.606 23.424 266.63 23.832C266.678 24.24 266.594 24.648 266.378 25.056C266.162 25.44 265.802 25.764 265.298 26.028C264.482 26.484 263.558 26.82 262.526 27.036C261.518 27.276 260.534 27.396 259.574 27.396Z" fill="#09BA86"/>
</svg>
