<svg width="27" height="21" viewBox="0 0 27 21" fill="none" xmlns="http://www.w3.org/2000/svg">
<path d="M1.83333 6.12484C1.42014 6.12484 1.07403 5.98484 0.795 5.70484C0.515972 5.42484 0.375972 5.07873 0.375 4.6665V1.74984C0.375 1.33664 0.515 0.990532 0.795 0.711504C1.075 0.432476 1.42111 0.292476 1.83333 0.291504H4.75C5.16319 0.291504 5.50979 0.431504 5.78979 0.711504C6.06979 0.991504 6.20931 1.33762 6.20833 1.74984V4.6665C6.20833 5.0797 6.06833 5.4263 5.78833 5.7063C5.50833 5.9863 5.16222 6.12581 4.75 6.12484H1.83333ZM9.125 6.12484C8.71181 6.12484 8.36569 5.98484 8.08667 5.70484C7.80764 5.42484 7.66764 5.07873 7.66667 4.6665V1.74984C7.66667 1.33664 7.80667 0.990532 8.08667 0.711504C8.36667 0.432476 8.71278 0.292476 9.125 0.291504H25.1667C25.5799 0.291504 25.9265 0.431504 26.2065 0.711504C26.4865 0.991504 26.626 1.33762 26.625 1.74984V4.6665C26.625 5.0797 26.485 5.4263 26.205 5.7063C25.925 5.9863 25.5789 6.12581 25.1667 6.12484H9.125ZM9.125 13.4165C8.71181 13.4165 8.36569 13.2765 8.08667 12.9965C7.80764 12.7165 7.66764 12.3704 7.66667 11.9582V9.0415C7.66667 8.62831 7.80667 8.2822 8.08667 8.00317C8.36667 7.72414 8.71278 7.58414 9.125 7.58317H25.1667C25.5799 7.58317 25.9265 7.72317 26.2065 8.00317C26.4865 8.28317 26.626 8.62928 26.625 9.0415V11.9582C26.625 12.3714 26.485 12.718 26.205 12.998C25.925 13.278 25.5789 13.4175 25.1667 13.4165H9.125ZM9.125 20.7082C8.71181 20.7082 8.36569 20.5682 8.08667 20.2882C7.80764 20.0082 7.66764 19.6621 7.66667 19.2498V16.3332C7.66667 15.92 7.80667 15.5739 8.08667 15.2948C8.36667 15.0158 8.71278 14.8758 9.125 14.8748H25.1667C25.5799 14.8748 25.9265 15.0148 26.2065 15.2948C26.4865 15.5748 26.626 15.9209 26.625 16.3332V19.2498C26.625 19.663 26.485 20.0096 26.205 20.2896C25.925 20.5696 25.5789 20.7091 25.1667 20.7082H9.125ZM1.83333 20.7082C1.42014 20.7082 1.07403 20.5682 0.795 20.2882C0.515972 20.0082 0.375972 19.6621 0.375 19.2498V16.3332C0.375 15.92 0.515 15.5739 0.795 15.2948C1.075 15.0158 1.42111 14.8758 1.83333 14.8748H4.75C5.16319 14.8748 5.50979 15.0148 5.78979 15.2948C6.06979 15.5748 6.20931 15.9209 6.20833 16.3332V19.2498C6.20833 19.663 6.06833 20.0096 5.78833 20.2896C5.50833 20.5696 5.16222 20.7091 4.75 20.7082H1.83333ZM1.83333 13.4165C1.42014 13.4165 1.07403 13.2765 0.795 12.9965C0.515972 12.7165 0.375972 12.3704 0.375 11.9582V9.0415C0.375 8.62831 0.515 8.2822 0.795 8.00317C1.075 7.72414 1.42111 7.58414 1.83333 7.58317H4.75C5.16319 7.58317 5.50979 7.72317 5.78979 8.00317C6.06979 8.28317 6.20931 8.62928 6.20833 9.0415V11.9582C6.20833 12.3714 6.06833 12.718 5.78833 12.998C5.50833 13.278 5.16222 13.4175 4.75 13.4165H1.83333Z" fill="#727272"/>
</svg>
