<svg width="35" height="35" viewBox="0 0 35 35" fill="none" xmlns="http://www.w3.org/2000/svg">
<path d="M17.4999 5.8335C19.047 5.8335 20.5307 6.44808 21.6247 7.54204C22.7187 8.636 23.3333 10.1197 23.3333 11.6668C23.3333 13.2139 22.7187 14.6977 21.6247 15.7916C20.5307 16.8856 19.047 17.5002 17.4999 17.5002C15.9528 17.5002 14.4691 16.8856 13.3751 15.7916C12.2812 14.6977 11.6666 13.2139 11.6666 11.6668C11.6666 10.1197 12.2812 8.636 13.3751 7.54204C14.4691 6.44808 15.9528 5.8335 17.4999 5.8335ZM17.4999 8.75016C16.7264 8.75016 15.9845 9.05745 15.4375 9.60443C14.8905 10.1514 14.5833 10.8933 14.5833 11.6668C14.5833 12.4404 14.8905 13.1822 15.4375 13.7292C15.9845 14.2762 16.7264 14.5835 17.4999 14.5835C18.2735 14.5835 19.0153 14.2762 19.5623 13.7292C20.1093 13.1822 20.4166 12.4404 20.4166 11.6668C20.4166 10.8933 20.1093 10.1514 19.5623 9.60443C19.0153 9.05745 18.2735 8.75016 17.4999 8.75016ZM17.4999 18.9585C21.3937 18.9585 29.1666 20.8981 29.1666 24.7918V29.1668H5.83325V24.7918C5.83325 20.8981 13.6062 18.9585 17.4999 18.9585ZM17.4999 21.7293C13.1687 21.7293 8.60409 23.8585 8.60409 24.7918V26.396H26.3958V24.7918C26.3958 23.8585 21.8312 21.7293 17.4999 21.7293Z" fill="#F9F9F9"/>
</svg>
