<svg width="22" height="15" viewBox="0 0 22 15" fill="none" xmlns="http://www.w3.org/2000/svg">
<path d="M11.002 11.8333C12.2062 11.8333 13.2291 11.4117 14.0708 10.5688C14.9124 9.72592 15.3333 8.70233 15.3333 7.498C15.3333 6.29383 14.9117 5.27092 14.0688 4.42925C13.2259 3.58758 12.2023 3.16675 10.998 3.16675C9.79383 3.16675 8.77092 3.58825 7.92925 4.43125C7.08758 5.27408 6.66675 6.29767 6.66675 7.502C6.66675 8.70617 7.08825 9.72908 7.93125 10.5708C8.77408 11.4124 9.79767 11.8333 11.002 11.8333ZM10.996 10.2668C10.2265 10.2668 9.57367 9.99733 9.0375 9.4585C8.50133 8.91983 8.23325 8.26567 8.23325 7.496C8.23325 6.7265 8.50267 6.07367 9.0415 5.5375C9.58017 5.00133 10.2343 4.73325 11.004 4.73325C11.7735 4.73325 12.4263 5.00267 12.9625 5.5415C13.4987 6.08017 13.7667 6.73433 13.7667 7.504C13.7667 8.2735 13.4973 8.92633 12.9585 9.4625C12.4198 9.99867 11.7657 10.2668 10.996 10.2668ZM11 15C8.56667 15 6.36108 14.3125 4.38325 12.9375C2.40558 11.5625 0.9445 9.75 0 7.5C0.9445 5.25 2.40558 3.4375 4.38325 2.0625C6.36108 0.6875 8.56667 0 11 0C13.4333 0 15.6389 0.6875 17.6168 2.0625C19.5944 3.4375 21.0555 5.25 22 7.5C21.0555 9.75 19.5944 11.5625 17.6168 12.9375C15.6389 14.3125 13.4333 15 11 15ZM10.9973 13.3332C12.9713 13.3332 14.7847 12.8041 16.4375 11.7457C18.0903 10.6874 19.3501 9.27217 20.2167 7.5C19.3501 5.72783 18.0912 4.31258 16.4403 3.25425C14.7894 2.19592 12.9769 1.66675 11.0027 1.66675C9.02875 1.66675 7.21533 2.19592 5.5625 3.25425C3.90967 4.31258 2.64442 5.72783 1.76675 7.5C2.64442 9.27217 3.90875 10.6874 5.55975 11.7457C7.21058 12.8041 9.02308 13.3332 10.9973 13.3332Z" fill="#1F397A"/>
</svg>
