<svg width="25" height="25" viewBox="0 0 25 25" fill="none" xmlns="http://www.w3.org/2000/svg">
<path d="M0.5 12.6306C0.5 6.00322 5.8726 0.630615 12.5 0.630615C19.1274 0.630615 24.5 6.00322 24.5 12.6306C24.5 19.258 19.1274 24.6306 12.5 24.6306C5.8726 24.6306 0.5 19.258 0.5 12.6306Z" fill="#333333"/>
<path d="M10.1 19.8306C11.4254 19.8306 12.5 18.7561 12.5 17.4306V15.0306H10.1C8.77447 15.0306 7.69995 16.1052 7.69995 17.4306C7.69995 18.7561 8.77447 19.8306 10.1 19.8306Z" fill="#0ACF83"/>
<path d="M7.69995 12.6307C7.69995 11.3052 8.77447 10.2307 10.1 10.2307H12.5V15.0307H10.1C8.77447 15.0307 7.69995 13.9562 7.69995 12.6307Z" fill="#A259FF"/>
<path d="M7.69995 7.83066C7.69995 6.50518 8.77447 5.43066 10.1 5.43066H12.5V10.2307H10.1C8.77447 10.2307 7.69995 9.15615 7.69995 7.83066Z" fill="#F24E1E"/>
<path d="M12.5 5.43066H14.9C16.2255 5.43066 17.3 6.50518 17.3 7.83066C17.3 9.15615 16.2255 10.2307 14.9 10.2307H12.5V5.43066Z" fill="#FF7262"/>
<path d="M17.3 12.6307C17.3 13.9562 16.2255 15.0307 14.9 15.0307C13.5745 15.0307 12.5 13.9562 12.5 12.6307C12.5 11.3052 13.5745 10.2307 14.9 10.2307C16.2255 10.2307 17.3 11.3052 17.3 12.6307Z" fill="#1ABCFE"/>
</svg>
